<svg width="135" height="45" viewBox="0 0 135 45" fill="none" xmlns="http://www.w3.org/2000/svg">
<path d="M0.633545 16C0.633545 13.1915 0.633934 11.1152 0.768126 9.47274C0.901842 7.83614 1.16592 6.67441 1.66898 5.68709C2.57978 3.89955 4.0331 2.44624 5.82064 1.53544C6.80796 1.03237 7.96968 0.768297 9.60628 0.634581C11.2487 0.500389 13.325 0.5 16.1335 0.5H118.946C121.754 0.5 123.831 0.500389 125.473 0.634581C127.11 0.768297 128.271 1.03237 129.259 1.53544C131.046 2.44623 132.5 3.89955 133.41 5.68709C133.913 6.67442 134.178 7.83613 134.311 9.47274C134.445 11.1152 134.446 13.1915 134.446 16V28.9374C134.446 31.7459 134.445 33.8222 134.311 35.4647C134.178 37.1013 133.913 38.263 133.41 39.2503C132.5 41.0379 131.046 42.4912 129.259 43.402C128.271 43.9051 127.11 44.1691 125.473 44.3028C123.831 44.437 121.754 44.4374 118.946 44.4374H16.1335C13.325 44.4374 11.2487 44.437 9.60628 44.3028C7.96968 44.1691 6.80796 43.9051 5.82064 43.402C4.0331 42.4912 2.57978 41.0379 1.66898 39.2503C1.16592 38.263 0.901842 37.1013 0.768126 35.4647C0.633934 33.8223 0.633545 31.7459 0.633545 28.9374V16Z" fill="black"/>
<path d="M0.633545 16C0.633545 13.1915 0.633934 11.1152 0.768126 9.47274C0.901842 7.83614 1.16592 6.67441 1.66898 5.68709C2.57978 3.89955 4.0331 2.44624 5.82064 1.53544C6.80796 1.03237 7.96968 0.768297 9.60628 0.634581C11.2487 0.500389 13.325 0.5 16.1335 0.5H118.946C121.754 0.5 123.831 0.500389 125.473 0.634581C127.11 0.768297 128.271 1.03237 129.259 1.53544C131.046 2.44623 132.5 3.89955 133.41 5.68709C133.913 6.67442 134.178 7.83613 134.311 9.47274C134.445 11.1152 134.446 13.1915 134.446 16V28.9374C134.446 31.7459 134.445 33.8222 134.311 35.4647C134.178 37.1013 133.913 38.263 133.41 39.2503C132.5 41.0379 131.046 42.4912 129.259 43.402C128.271 43.9051 127.11 44.1691 125.473 44.3028C123.831 44.437 121.754 44.4374 118.946 44.4374H16.1335C13.325 44.4374 11.2487 44.437 9.60628 44.3028C7.96968 44.1691 6.80796 43.9051 5.82064 43.402C4.0331 42.4912 2.57978 41.0379 1.66898 39.2503C1.16592 38.263 0.901842 37.1013 0.768126 35.4647C0.633934 33.8223 0.633545 31.7459 0.633545 28.9374V16Z" stroke="#A6A6A6"/>
<path d="M28.0379 22.8021C28.05 21.8644 28.2998 20.945 28.764 20.1294C29.2282 19.3139 29.8917 18.6287 30.6928 18.1375C30.1839 17.4127 29.5125 16.8162 28.732 16.3955C27.9514 15.9747 27.0833 15.7412 26.1964 15.7135C24.3046 15.5155 22.4706 16.8424 21.5065 16.8424C20.5238 16.8424 19.0396 15.7332 17.4412 15.766C16.4074 15.7993 15.3998 16.0991 14.5167 16.6361C13.6336 17.1732 12.9051 17.9292 12.4021 18.8305C10.2233 22.5923 11.8485 28.1208 13.9356 31.1615C14.9798 32.6504 16.2002 34.3136 17.7971 34.2546C19.3598 34.19 19.9434 33.261 21.8296 33.261C23.6984 33.261 24.2459 34.2546 25.8752 34.2171C27.552 34.19 28.6085 32.7216 29.6161 31.2185C30.3664 30.1576 30.9437 28.985 31.3267 27.7443C30.3525 27.3334 29.5212 26.6457 28.9364 25.7668C28.3515 24.8879 28.0391 23.8569 28.0379 22.8021Z" fill="white"/>
<path d="M24.9605 13.7145C25.8748 12.62 26.3252 11.2133 26.2161 9.79297C24.8193 9.93926 23.5291 10.605 22.6025 11.6574C22.1494 12.1716 21.8025 12.7697 21.5814 13.4177C21.3603 14.0657 21.2694 14.7507 21.314 15.4337C22.0126 15.4409 22.7038 15.2899 23.3354 14.9921C23.9671 14.6943 24.5227 14.2574 24.9605 13.7145Z" fill="white"/>
<path d="M47.7908 30.4867H42.4582L41.1776 34.2575H38.9189L43.9699 20.3066H46.3166L51.3675 34.2575H49.0703L47.7908 30.4867ZM43.0105 28.7467H47.2375L45.1537 22.627H45.0954L43.0105 28.7467Z" fill="white"/>
<path d="M62.2759 29.173C62.2759 32.3338 60.5794 34.3645 58.0193 34.3645C57.3708 34.3983 56.7258 34.2494 56.1582 33.9346C55.5907 33.6199 55.1234 33.1522 54.8101 32.585H54.7616V37.6229H52.668V24.0868H54.6945V25.7786H54.7331C55.0608 25.2141 55.536 24.7487 56.1078 24.4321C56.6797 24.1155 57.327 23.9594 57.9808 23.9804C60.5695 23.9804 62.2759 26.021 62.2759 29.173ZM60.124 29.173C60.124 27.1137 59.0568 25.7599 57.4285 25.7599C55.8288 25.7599 54.7528 27.1423 54.7528 29.173C54.7528 31.2224 55.8288 32.5949 57.4285 32.5949C59.0568 32.5949 60.124 31.2509 60.124 29.173Z" fill="white"/>
<path d="M73.5022 29.173C73.5022 32.3338 71.8057 34.3645 69.2456 34.3645C68.5971 34.3983 67.9521 34.2493 67.3846 33.9346C66.817 33.6199 66.3498 33.1522 66.0364 32.585H65.9879V37.6229H63.8943V24.0868H65.9208V25.7785H65.9593C66.2871 25.2141 66.7622 24.7487 67.3341 24.4321C67.906 24.1155 68.5533 23.9594 69.2071 23.9804C71.7958 23.9804 73.5022 26.021 73.5022 29.173ZM71.3503 29.173C71.3503 27.1137 70.2831 25.7599 68.6548 25.7599C67.0551 25.7599 65.9792 27.1422 65.9792 29.173C65.9792 31.2224 67.0551 32.5949 68.6548 32.5949C70.2831 32.5949 71.3503 31.2509 71.3503 29.173H71.3503Z" fill="white"/>
<path d="M80.9218 30.3716C81.0769 31.755 82.4246 32.6634 84.2663 32.6634C86.031 32.6634 87.3006 31.755 87.3006 30.5076C87.3006 29.4247 86.5349 28.7764 84.7218 28.332L82.9087 27.8965C80.3398 27.2777 79.1472 26.0797 79.1472 24.1356C79.1472 21.7285 81.2507 20.0752 84.2377 20.0752C87.1939 20.0752 89.2205 21.7285 89.2887 24.1356H87.1752C87.0487 22.7434 85.8946 21.903 84.208 21.903C82.5214 21.903 81.3673 22.7532 81.3673 23.9908C81.3673 24.9771 82.1044 25.5574 83.9076 26.0017L85.449 26.3791C88.3194 27.056 89.512 28.2058 89.512 30.2464C89.512 32.8564 87.4271 34.4911 84.1112 34.4911C81.0086 34.4911 78.9139 32.8948 78.7786 30.3715L80.9218 30.3716Z" fill="white"/>
<path d="M94.0304 21.6807V24.0877H95.9701V25.7411H94.0304V31.3484C94.0304 32.2195 94.4188 32.6254 95.2715 32.6254C95.5017 32.6214 95.7316 32.6053 95.9602 32.5771V34.2205C95.5768 34.292 95.1872 34.3243 94.7973 34.3171C92.7322 34.3171 91.9269 33.5436 91.9269 31.571V25.7411H90.4438V24.0877H91.9269V21.6807H94.0304Z" fill="white"/>
<path d="M97.0935 29.1732C97.0935 25.9729 98.9836 23.9619 101.931 23.9619C104.888 23.9619 106.77 25.9729 106.77 29.1732C106.77 32.3822 104.898 34.3844 101.931 34.3844C98.9649 34.3844 97.0935 32.3822 97.0935 29.1732ZM104.636 29.1732C104.636 26.9779 103.627 25.6822 101.931 25.6822C100.235 25.6822 99.2268 26.9877 99.2268 29.1732C99.2268 31.3772 100.235 32.6631 101.931 32.6631C103.627 32.6631 104.636 31.3772 104.636 29.1732H104.636Z" fill="white"/>
<path d="M108.496 24.0867H110.492V25.8179H110.541C110.676 25.2772 110.994 24.7994 111.44 24.4648C111.887 24.1301 112.436 23.959 112.994 23.9803C113.236 23.9794 113.476 24.0056 113.712 24.0582V26.011C113.407 25.9182 113.089 25.8756 112.771 25.8849C112.467 25.8726 112.164 25.926 111.882 26.0416C111.601 26.1572 111.348 26.3322 111.14 26.5545C110.933 26.7768 110.776 27.0412 110.681 27.3296C110.586 27.6179 110.555 27.9234 110.589 28.225V34.258H108.496L108.496 24.0867Z" fill="white"/>
<path d="M123.365 31.2708C123.083 33.1173 121.28 34.3844 118.973 34.3844C116.006 34.3844 114.164 32.4019 114.164 29.2214C114.164 26.0311 116.015 23.9619 118.885 23.9619C121.707 23.9619 123.481 25.895 123.481 28.979V29.6943H116.277V29.8205C116.244 30.1948 116.291 30.5719 116.415 30.9267C116.539 31.2815 116.738 31.606 116.997 31.8784C117.257 32.1509 117.571 32.3652 117.92 32.5071C118.269 32.649 118.645 32.7153 119.021 32.7014C119.516 32.7477 120.012 32.6334 120.437 32.3756C120.861 32.1179 121.191 31.7304 121.377 31.2708L123.365 31.2708ZM116.287 28.2351H121.387C121.405 27.8986 121.354 27.5617 121.236 27.2458C121.118 26.9299 120.936 26.6417 120.701 26.3993C120.466 26.1569 120.184 25.9655 119.871 25.8372C119.558 25.7089 119.223 25.6464 118.885 25.6537C118.544 25.6516 118.206 25.7169 117.89 25.8458C117.575 25.9748 117.288 26.1647 117.047 26.4047C116.805 26.6447 116.614 26.93 116.483 27.2442C116.353 27.5584 116.286 27.8952 116.287 28.2351V28.2351Z" fill="white"/>
<path d="M42.2259 16.3102C41.3206 16.3102 40.6014 16.0059 40.0685 15.3972C39.5386 14.7856 39.2736 13.9604 39.2736 12.9218C39.2736 11.8923 39.5416 11.0717 40.0776 10.4601C40.6135 9.84538 41.3296 9.53804 42.2259 9.53804C42.9405 9.53804 43.5461 9.73788 44.0427 10.1376C44.5424 10.5343 44.8436 11.0596 44.9466 11.7137H44.1199C44.014 11.2837 43.7884 10.94 43.4432 10.6826C43.098 10.4222 42.6922 10.292 42.2259 10.292C41.587 10.292 41.0753 10.5312 40.6907 11.0096C40.3062 11.4881 40.1139 12.1255 40.1139 12.9218C40.1139 13.7273 40.3047 14.3677 40.6862 14.8431C41.0677 15.3185 41.5825 15.5562 42.2305 15.5562C42.7119 15.5562 43.1177 15.4457 43.4477 15.2246C43.7778 15.0036 44.0019 14.6932 44.1199 14.2935H44.9466C44.7952 14.9415 44.4848 15.4396 44.0155 15.7878C43.5461 16.1361 42.9496 16.3102 42.2259 16.3102ZM49.661 15.5698C49.2522 16.021 48.7042 16.2466 48.0168 16.2466C47.3295 16.2466 46.7814 16.021 46.3726 15.5698C45.9638 15.1187 45.7594 14.5131 45.7594 13.753C45.7594 12.993 45.9638 12.3874 46.3726 11.9362C46.7814 11.485 47.3295 11.2595 48.0168 11.2595C48.7042 11.2595 49.2522 11.485 49.661 11.9362C50.0698 12.3874 50.2742 12.993 50.2742 13.753C50.2742 14.5131 50.0698 15.1187 49.661 15.5698ZM48.0168 15.5426C48.474 15.5426 48.8298 15.3851 49.0842 15.0702C49.3416 14.7523 49.4703 14.3132 49.4703 13.753C49.4703 13.1898 49.3416 12.7508 49.0842 12.4358C48.8298 12.1209 48.474 11.9635 48.0168 11.9635C47.5596 11.9635 47.2023 12.1224 46.9449 12.4404C46.6905 12.7553 46.5634 13.1928 46.5634 13.753C46.5634 14.3132 46.6921 14.7523 46.9494 15.0702C47.2068 15.3851 47.5626 15.5426 48.0168 15.5426ZM51.2914 16.2012V11.3049H52.0363V12.0997H52.0545C52.1696 11.8393 52.3497 11.6349 52.595 11.4866C52.8433 11.3352 53.1264 11.2595 53.4443 11.2595C53.7744 11.2595 54.059 11.3397 54.2982 11.5002C54.5375 11.6607 54.7101 11.8893 54.816 12.186H54.8342C54.9735 11.8953 55.1794 11.6682 55.4519 11.5047C55.7244 11.3412 56.0318 11.2595 56.3739 11.2595C56.8584 11.2595 57.2445 11.4048 57.5322 11.6955C57.8228 11.9862 57.9682 12.3738 57.9682 12.8582V16.2012H57.1779V13.0399C57.1779 12.7008 57.087 12.4374 56.9054 12.2496C56.7267 12.0589 56.4739 11.9635 56.1468 11.9635C55.8198 11.9635 55.5503 12.0725 55.3384 12.2905C55.1294 12.5085 55.025 12.7856 55.025 13.1217V16.2012H54.2347V12.9445C54.2347 12.6478 54.1408 12.4101 53.953 12.2315C53.7683 12.0528 53.5231 11.9635 53.2172 11.9635C52.8902 11.9635 52.6192 12.0785 52.4042 12.3087C52.1892 12.5358 52.0817 12.8204 52.0817 13.1626V16.2012H51.2914ZM59.2534 16.2012V11.3049H60.0437V16.2012H59.2534ZM59.6486 10.5146C59.5123 10.5146 59.3942 10.4661 59.2943 10.3692C59.1974 10.2693 59.1489 10.1512 59.1489 10.0149C59.1489 9.87566 59.1974 9.75757 59.2943 9.66067C59.3942 9.56377 59.5123 9.51533 59.6486 9.51533C59.7878 9.51533 59.9059 9.56377 60.0028 9.66067C60.0997 9.75757 60.1482 9.87566 60.1482 10.0149C60.1482 10.1512 60.0997 10.2693 60.0028 10.3692C59.9059 10.4661 59.7878 10.5146 59.6486 10.5146ZM61.3471 16.2012V11.3049H62.092V12.0997H62.1101C62.422 11.5396 62.955 11.2595 63.7089 11.2595C64.2479 11.2595 64.6734 11.4215 64.9852 11.7455C65.2971 12.0664 65.4531 12.5055 65.4531 13.0626V16.2012H64.6628V13.1989C64.6628 12.7992 64.5598 12.4934 64.3539 12.2814C64.151 12.0695 63.8573 11.9635 63.4727 11.9635C63.07 11.9635 62.746 12.0906 62.5008 12.345C62.2585 12.5994 62.1374 12.937 62.1374 13.3579V16.2012H61.3471ZM68.6732 15.4972C69.1032 15.4972 69.4499 15.3352 69.7133 15.0112C69.9798 14.6841 70.113 14.2587 70.113 13.7349C70.113 13.208 69.9798 12.781 69.7133 12.454C69.4499 12.127 69.1032 11.9635 68.6732 11.9635C68.2462 11.9635 67.9041 12.1255 67.6467 12.4495C67.3893 12.7704 67.2606 13.1989 67.2606 13.7349C67.2606 14.2678 67.3893 14.6947 67.6467 15.0157C67.9041 15.3367 68.2462 15.4972 68.6732 15.4972ZM68.6868 17.9498C68.1327 17.9498 67.6709 17.8257 67.3015 17.5774C66.9321 17.3321 66.7186 17.0066 66.6611 16.6009H67.4832C67.5407 16.8037 67.6815 16.9642 67.9056 17.0823C68.1327 17.2034 68.4082 17.264 68.7322 17.264C69.1561 17.264 69.4923 17.1611 69.7405 16.9551C69.9888 16.7523 70.113 16.4767 70.113 16.1285V15.3609H70.0948C69.9404 15.6274 69.7254 15.8348 69.4499 15.9832C69.1743 16.1285 68.8655 16.2012 68.5233 16.2012C67.9025 16.2012 67.4014 15.9756 67.0199 15.5244C66.6414 15.0702 66.4521 14.4737 66.4521 13.7349C66.4521 12.9869 66.6429 12.3874 67.0244 11.9362C67.406 11.485 67.9116 11.2595 68.5415 11.2595C68.8866 11.2595 69.197 11.3321 69.4726 11.4775C69.7511 11.6228 69.9722 11.8302 70.1357 12.0997H70.1493V11.3049H70.9033V16.0649C70.9033 16.6493 70.705 17.1096 70.3083 17.4457C69.9147 17.7818 69.3742 17.9498 68.6868 17.9498ZM74.4957 12.672C74.4957 12.2602 74.6637 11.9226 74.9998 11.6592C75.339 11.3957 75.775 11.264 76.3079 11.264C76.8045 11.264 77.2209 11.3972 77.557 11.6637C77.8961 11.9271 78.0733 12.2602 78.0884 12.6629H77.3299C77.3057 12.4328 77.1997 12.2511 77.012 12.1179C76.8242 11.9847 76.5805 11.9181 76.2807 11.9181C75.9779 11.9181 75.7341 11.9832 75.5494 12.1134C75.3647 12.2436 75.2724 12.4162 75.2724 12.6311C75.2724 12.9582 75.5479 13.1898 76.099 13.3261L76.8439 13.5123C77.3375 13.6364 77.6842 13.7969 77.884 13.9938C78.0869 14.1875 78.1883 14.4631 78.1883 14.8204C78.1883 15.2383 78.0067 15.5804 77.6433 15.8469C77.283 16.1134 76.8197 16.2466 76.2534 16.2466C75.7266 16.2466 75.289 16.1164 74.9408 15.856C74.5926 15.5925 74.3988 15.2489 74.3594 14.8249H75.1543C75.1936 15.0732 75.3117 15.264 75.5085 15.3972C75.7084 15.5274 75.9749 15.5925 76.3079 15.5925C76.641 15.5925 76.9045 15.529 77.0982 15.4018C77.2951 15.2716 77.3935 15.0959 77.3935 14.8749C77.3935 14.7023 77.3359 14.566 77.2209 14.4661C77.1058 14.3632 76.909 14.2754 76.6304 14.2027L75.772 13.9801C74.9211 13.7591 74.4957 13.323 74.4957 12.672ZM82.8937 15.5698C82.4849 16.021 81.9368 16.2466 81.2495 16.2466C80.5621 16.2466 80.014 16.021 79.6053 15.5698C79.1965 15.1187 78.9921 14.5131 78.9921 13.753C78.9921 12.993 79.1965 12.3874 79.6053 11.9362C80.014 11.485 80.5621 11.2595 81.2495 11.2595C81.9368 11.2595 82.4849 11.485 82.8937 11.9362C83.3025 12.3874 83.5069 12.993 83.5069 13.753C83.5069 14.5131 83.3025 15.1187 82.8937 15.5698ZM81.2495 15.5426C81.7067 15.5426 82.0625 15.3851 82.3168 15.0702C82.5742 14.7523 82.7029 14.3132 82.7029 13.753C82.7029 13.1898 82.5742 12.7508 82.3168 12.4358C82.0625 12.1209 81.7067 11.9635 81.2495 11.9635C80.7922 11.9635 80.4349 12.1224 80.1776 12.4404C79.9232 12.7553 79.796 13.1928 79.796 13.753C79.796 14.3132 79.9247 14.7523 80.1821 15.0702C80.4395 15.3851 80.7953 15.5426 81.2495 15.5426ZM88.1849 15.5698C87.7762 16.021 87.2281 16.2466 86.5407 16.2466C85.8534 16.2466 85.3053 16.021 84.8965 15.5698C84.4877 15.1187 84.2834 14.5131 84.2834 13.753C84.2834 12.993 84.4877 12.3874 84.8965 11.9362C85.3053 11.485 85.8534 11.2595 86.5407 11.2595C87.2281 11.2595 87.7762 11.485 88.1849 11.9362C88.5937 12.3874 88.7981 12.993 88.7981 13.753C88.7981 14.5131 88.5937 15.1187 88.1849 15.5698ZM86.5407 15.5426C86.998 15.5426 87.3538 15.3851 87.6081 15.0702C87.8655 14.7523 87.9942 14.3132 87.9942 13.753C87.9942 13.1898 87.8655 12.7508 87.6081 12.4358C87.3538 12.1209 86.998 11.9635 86.5407 11.9635C86.0835 11.9635 85.7262 12.1224 85.4688 12.4404C85.2145 12.7553 85.0873 13.1928 85.0873 13.753C85.0873 14.3132 85.216 14.7523 85.4734 15.0702C85.7307 15.3851 86.0865 15.5426 86.5407 15.5426ZM89.8153 16.2012V11.3049H90.5602V12.0997H90.5784C90.8903 11.5396 91.4232 11.2595 92.1772 11.2595C92.7162 11.2595 93.1416 11.4215 93.4535 11.7455C93.7654 12.0664 93.9213 12.5055 93.9213 13.0626V16.2012H93.131V13.1989C93.131 12.7992 93.0281 12.4934 92.8222 12.2814C92.6193 12.0695 92.3256 11.9635 91.941 11.9635C91.5383 11.9635 91.2143 12.0906 90.969 12.345C90.7268 12.5994 90.6057 12.937 90.6057 13.3579V16.2012H89.8153Z" fill="#9E9E9E"/>
</svg>
