<svg width="81" height="81" viewBox="0 0 81 81" fill="none" xmlns="http://www.w3.org/2000/svg">
<g clipPath="url(#clip0_1204_17268)">
<path d="M40.0999 80.5C62.1913 80.5 80.0999 62.5914 80.0999 40.5C80.0999 18.4086 62.1913 0.5 40.0999 0.5C18.0086 0.5 0.0999451 18.4086 0.0999451 40.5C0.0999451 62.5914 18.0086 80.5 40.0999 80.5Z" fill="#50832B"/>
<path d="M40.7093 35.1719C40.7093 35.1719 26.3031 26.2344 15.8812 38.1563C15.8812 38.1407 24.9124 49.9688 40.7093 35.1719Z" fill="white"/>
<path d="M25.6156 43.0469C25.2406 43.0469 24.8656 43.0313 24.4906 43C18.7562 42.5313 15.6781 38.5782 15.5374 38.4063L15.3187 38.125L15.5531 37.8594C17.9906 35.0782 20.8343 33.1875 24.0374 32.2344C26.5843 31.4688 29.3656 31.3125 32.2718 31.75C37.2093 32.5 40.7874 34.7032 40.9437 34.7813L41.4124 35.0782L41.0062 35.4532C35.6312 40.5 30.4593 43.0469 25.6156 43.0469ZM16.4437 38.1563C17.2249 39.0313 20.0531 41.7813 24.5687 42.1563C29.3656 42.5469 34.5531 40.2344 39.9749 35.2657C38.8343 34.6563 35.8343 33.1875 32.0999 32.625C29.3187 32.2032 26.6781 32.3594 24.2562 33.0938C21.3343 33.9375 18.7093 35.6407 16.4437 38.1563Z" fill="black"/>
<path d="M67.0218 29.1094C67.0218 29.1094 60.4749 21.9531 41.5999 34.9688L51.9281 37.5469H57.8812L62.0531 36.1563L64.9281 34.0781L67.0218 29.1094Z" fill="white" stroke="black" strokeWidth="1.5625" strokeMiterlimit="10"/>
<path d="M38.0218 36.4687C38.0218 38.9375 35.0218 40.9219 31.3187 40.9219C27.6156 40.9219 24.6156 38.9219 24.6156 36.4687C24.6156 34.0156 27.6156 32.0156 31.3187 32.0156C35.0218 32.0156 38.0218 34 38.0218 36.4687Z" fill="black"/>
<path d="M25.5374 43.6406C23.8187 43.6406 22.1468 43.3281 20.5843 42.7031C18.0062 41.6875 15.4749 39.7656 13.0843 37.0156C12.9593 36.875 12.7874 36.6719 12.6937 36.3906C12.4281 35.5625 12.9437 34.4531 14.3343 32.9219C15.4906 31.6406 16.8187 30.5625 16.9749 30.4375C18.8968 28.8906 21.1312 27.9219 23.4437 27.6563C27.1156 27.2344 31.2406 28.3125 35.6624 30.8438C35.8656 30.9531 37.2874 31.9219 38.4906 32.75C41.2562 34.6719 41.2562 34.75 41.3031 35.0625L41.3499 35.3594L41.1468 35.5781C38.5999 38.1563 36.1468 40.0625 33.6624 41.4219C30.9593 42.8906 28.1937 43.6406 25.5374 43.6406ZM25.0218 28.7656C24.5218 28.7656 24.0531 28.7969 23.5687 28.8438C21.4906 29.0781 19.4593 29.9531 17.7249 31.3594C17.5843 31.4688 16.3187 32.5 15.2249 33.7188C13.9749 35.0781 13.7718 35.7969 13.8343 36.0156C13.8499 36.0625 13.9437 36.1719 13.9906 36.2344C16.2562 38.8438 18.6156 40.6406 21.0218 41.5938C24.6937 43.0469 28.9749 42.625 33.0687 40.3906C35.3031 39.1719 37.5218 37.4688 39.8343 35.2031C38.6468 34.3125 35.3968 32.0938 35.0687 31.9063C31.4437 29.8125 28.0687 28.7656 25.0218 28.7656Z" fill="black"/>
<path d="M50.6787 36.5902C53.6037 36.1368 55.7788 34.5041 55.5368 32.9435C55.2949 31.383 52.7276 30.4855 49.8026 30.939C46.8777 31.3924 44.7026 33.0251 44.9446 34.5856C45.1865 36.1462 47.7538 37.0437 50.6787 36.5902Z" fill="black" stroke="black" strokeWidth="2.1875" strokeMiterlimit="10"/>
<path d="M54.6156 38.2188C53.3499 38.2188 52.0062 38.125 50.5843 37.9531C47.0531 37.5156 43.5531 36.5781 40.5531 35.75L40.8812 34.5938C40.6624 34.5313 40.5062 34.625 40.5062 34.625C40.9124 34.375 42.9281 32.1094 43.9124 31.0156C44.6312 30.2031 44.9906 29.8125 45.1312 29.6875C49.2562 25.9063 52.9124 23.6406 56.6156 22.5625C58.4593 22.0156 60.2406 21.8438 61.8812 22.0156C62.5062 22.0781 63.7093 22.25 64.8031 22.6406C66.1781 23.1406 66.9906 23.8438 67.2093 24.75C67.8656 27.5313 67.6937 30.1563 66.6937 32.3594C65.6156 34.75 63.6156 36.4688 60.9124 37.3281C59.0062 37.9219 56.9281 38.2188 54.6156 38.2188ZM41.9593 34.8906C48.2718 36.6094 54.8343 37.9844 60.5374 36.1719C62.8968 35.4219 64.6468 33.9375 65.5843 31.8594C66.4749 29.9063 66.6312 27.5313 66.0218 25.0156C65.8656 24.375 64.6468 23.5156 61.7249 23.1875C60.2249 23.0313 58.6156 23.1875 56.9124 23.6875C53.3812 24.7188 49.8812 26.9063 45.8968 30.5469C45.7874 30.6406 45.2718 31.2188 44.7718 31.7969C44.0843 32.5625 43.2406 33.5156 42.5218 34.2813C42.3187 34.5156 42.1312 34.7188 41.9593 34.8906Z" fill="black"/>
<path d="M55.2718 43.125C55.1937 43.1562 55.1156 43.1875 55.0531 43.2031C54.35 43.4375 53.5843 43.4218 52.8343 43.4218C49.85 43.375 46.8656 43.3281 43.8812 43.2968C42.5687 43.2812 41.2406 43.2656 39.9593 43.5468C37.5687 44.0937 35.5531 45.6406 33.475 46.9531C30.35 48.9062 27.8187 48.9687 24.2718 48.7031C23.6156 48.6562 22.9437 48.6093 22.3187 48.375C21.7562 48.1562 21.2718 47.7968 20.725 47.5468C19.3656 46.9062 17.7093 46.9531 16.3968 47.6718C15.0843 48.3906 14.1468 49.7656 13.975 51.2656C13.6468 53.8906 15.6156 56.3593 18.0218 57.4531C20.7406 58.6875 23.7562 58.5 26.6468 58.3906C27.2718 58.3593 27.9125 58.3437 28.5062 58.1406C28.9281 58 29.3187 57.7812 29.7093 57.5625C32.3343 56.0781 35.0531 54.7031 37.6625 53.1875C40.0062 51.8281 42.225 50.0937 44.9281 49.5312C46.7562 49.1562 48.6468 49.3593 50.5218 49.2968C52.1468 49.25 53.8187 49 55.35 49.5468C55.9281 49.75 56.475 50.0625 57.0843 50.0781C57.5062 50.0781 57.9125 49.9375 58.3031 49.7656C59.7875 49.1562 61.2093 48.375 62.5218 47.4375C63.7093 46.5937 64.8343 45.5781 65.4437 44.2656C66.0531 42.9375 66.0375 41.25 65.1 40.1562C64.225 39.1406 62.7249 38.8125 61.4125 39.0781C60.1 39.3593 58.9437 40.1406 57.9437 41.0625C57.1312 41.8125 56.3187 42.7031 55.2718 43.125Z" fill="#85492D"/>
<path d="M23.7718 59.0624C21.7406 59.0624 19.7093 58.8749 17.7874 57.9999C16.4749 57.4062 15.3031 56.4374 14.5062 55.2812C13.6156 53.9999 13.2249 52.5781 13.3968 51.2031C13.5999 49.5312 14.6468 47.9843 16.1312 47.1718C17.6156 46.3593 19.4749 46.2968 21.0062 47.0156C21.2562 47.1249 21.4749 47.2656 21.7093 47.3906C22.0062 47.5624 22.2718 47.7187 22.5531 47.8281C23.0999 48.0312 23.7249 48.078 24.3343 48.1249C27.5843 48.3593 30.1156 48.3749 33.1781 46.4531C33.5687 46.2031 33.9593 45.953 34.3499 45.703C36.0531 44.5937 37.8031 43.4374 39.8499 42.9843C41.2093 42.6718 42.5843 42.7031 43.9124 42.7187L52.8656 42.8437C53.5531 42.8593 54.2718 42.8593 54.8968 42.6562C54.9593 42.6405 55.0218 42.6093 55.0843 42.5937C55.8343 42.2968 56.4593 41.7031 57.1156 41.0624C57.2718 40.9062 57.4281 40.7656 57.5999 40.6093C58.8812 39.4374 60.0999 38.7499 61.3499 38.4843C62.9906 38.1406 64.6624 38.6406 65.6156 39.7499C66.6312 40.9531 66.8187 42.8593 66.0531 44.4999C65.3187 46.0937 63.9281 47.2031 62.9437 47.9062C61.5999 48.8749 60.1312 49.6718 58.5999 50.2968C58.1781 50.4687 57.6937 50.6562 57.1624 50.6562H57.1468C56.5843 50.6562 56.0843 50.4531 55.6312 50.2656C55.4906 50.2031 55.3499 50.1562 55.2093 50.0937C54.0843 49.6874 52.8656 49.7656 51.5687 49.8281C51.2562 49.8437 50.9281 49.8593 50.5999 49.8749C50.0062 49.8906 49.4124 49.8906 48.8187 49.8749C47.5218 49.8593 46.3031 49.8437 45.0999 50.0937C43.1312 50.4999 41.3812 51.6093 39.6781 52.6718C39.1312 53.0156 38.5843 53.3593 38.0218 53.6874C36.5687 54.5312 35.0687 55.3437 33.5999 56.1249C32.4281 56.7499 31.2249 57.4062 30.0687 58.0624C29.6624 58.2968 29.2406 58.5312 28.7562 58.6874C28.0687 58.9062 27.3656 58.9374 26.7249 58.9531L26.2718 58.9687C25.4124 59.0312 24.5999 59.0624 23.7718 59.0624ZM18.7249 47.7031C18.0218 47.7031 17.3343 47.8749 16.7093 48.203C15.5531 48.828 14.7406 50.0312 14.5843 51.3437C14.2874 53.7656 16.2249 55.9687 18.2874 56.9062C20.7249 58.0156 23.5062 57.9062 26.1937 57.7968L26.6468 57.7812C27.2249 57.7656 27.8187 57.7343 28.3499 57.5624C28.7249 57.4374 29.0687 57.2343 29.4437 57.0312C30.6156 56.3593 31.8343 55.7187 33.0062 55.078C34.4593 54.2968 35.9593 53.4843 37.3968 52.6562C37.9437 52.3437 38.4906 51.9999 39.0218 51.6718C40.8187 50.5468 42.6624 49.3906 44.8343 48.9374C46.1624 48.6562 47.5062 48.6718 48.8031 48.6874C49.3656 48.6874 49.9593 48.7031 50.5218 48.6874C50.8343 48.6718 51.1468 48.6562 51.4593 48.6406C52.8187 48.5624 54.2249 48.4843 55.5687 48.9687C55.7249 49.0312 55.8968 49.0937 56.0374 49.1562C56.4124 49.3124 56.7718 49.453 57.0999 49.453C57.4124 49.453 57.7562 49.3281 58.0843 49.1874C59.5374 48.5937 60.9124 47.8281 62.1781 46.9218C63.0531 46.2968 64.2874 45.3124 64.8968 43.9843C65.5531 42.5624 65.2406 41.2187 64.6312 40.4999C63.9593 39.7187 62.7406 39.3749 61.5218 39.6249C60.4906 39.8437 59.4593 40.4374 58.3343 41.4531C58.1781 41.5937 58.0218 41.7499 57.8656 41.8906C57.1468 42.5624 56.4124 43.2656 55.4593 43.6562C55.3656 43.6874 55.2874 43.7187 55.1937 43.7499C54.3812 44.0155 53.5218 43.9999 52.7718 43.9999L43.8187 43.8749C42.5531 43.8593 41.2562 43.8437 40.0374 44.1093C38.2093 44.5312 36.5374 45.6093 34.9281 46.6718C34.5374 46.9218 34.1312 47.1874 33.7406 47.4374C30.3812 49.5468 27.5374 49.5312 24.1781 49.2812C23.5218 49.2343 22.7718 49.1718 22.0531 48.9062C21.6781 48.7655 21.3499 48.5781 21.0374 48.3906C20.8187 48.2656 20.6312 48.1562 20.4281 48.0624C19.9437 47.8281 19.3343 47.7031 18.7249 47.7031Z" fill="black"/>
<path d="M17.7249 50.0469C17.8656 51.625 18.9124 52.9375 20.3343 53.5937C21.8656 54.2969 23.6156 54.3281 25.2718 54.0938C28.3656 53.6719 31.1781 52.2031 33.9124 50.8125C36.6781 49.4063 39.5531 47.9219 42.6937 47.6406C44.6468 47.4688 46.6156 47.625 48.5843 47.5313C50.5531 47.4375 52.5218 47.2188 54.4749 46.8594C57.9437 46.2344 62.8499 45.0312 63.1468 40.7187C63.1937 40.0625 62.1624 40.0625 62.1156 40.7187C62.0062 42.2344 60.9281 43.4687 59.6781 44.2187C58.1937 45.0937 56.4437 45.4531 54.7718 45.7812C52.9437 46.1406 51.0999 46.375 49.2562 46.4844C47.3968 46.5937 45.5374 46.5 43.6781 46.5625C40.6468 46.6719 37.8656 47.7344 35.1624 49.0469C32.5687 50.3125 30.0218 51.7969 27.2406 52.625C25.6624 53.0938 23.9281 53.375 22.2718 53.1094C20.6781 52.8438 18.9281 51.8281 18.7718 50.0469C18.7093 49.3906 17.6781 49.375 17.7249 50.0469Z" fill="black"/>
<path d="M35.6781 35.9531C35.6312 35.9531 35.5999 35.9531 35.5531 35.9531C35.3968 35.9375 35.2406 35.9688 35.0999 36.0469C34.7562 36.2188 34.5843 36.6094 34.6781 36.9844C34.7718 37.3281 35.0843 37.5469 35.4124 37.5625C35.6781 37.625 35.9749 37.5313 36.1624 37.3125C36.3656 37.0938 36.4124 36.7969 36.3187 36.5313C36.2718 36.2188 36.0062 35.9687 35.6781 35.9531Z" fill="white"/>
<path d="M35.0374 35.4062C35.6937 35.4374 35.6937 34.4062 35.0374 34.3749C34.4437 34.3437 33.8499 34.3124 33.2562 34.2968C32.9593 34.2812 32.7562 34.5468 32.7406 34.8124L32.5843 37.0624C32.5374 37.7187 33.5687 37.7187 33.6156 37.0624C33.6468 36.4843 33.6937 35.9218 33.7249 35.3437C34.1624 35.3593 34.5999 35.3749 35.0374 35.4062Z" fill="white"/>
<path d="M52.7718 33.4062C52.7874 33.2812 52.8031 33.1406 52.8343 33.0156C52.8968 32.6406 52.6468 32.3437 52.2718 32.375C51.9749 32.2031 51.5531 32.2969 51.2874 32.4531C50.5687 32.875 50.5218 33.8437 51.1312 34.3906C51.2718 34.5156 51.4281 34.6094 51.5999 34.6562C51.6156 34.6562 51.6781 34.6875 51.7406 34.6875C51.6312 35 51.7249 35.4219 51.9124 35.6719C52.0531 35.875 52.2718 35.9843 52.5062 36C52.7093 36.0468 52.9593 36 53.0999 35.7968C53.5687 35.1562 53.5843 34.3594 53.2406 33.6719C53.1624 33.5 52.9593 33.4062 52.7718 33.4062Z" fill="white"/>
<path d="M52.9906 29.4844C52.8968 29.8438 52.8187 30.1876 52.7249 30.547C52.5687 31.1876 53.5531 31.4688 53.7093 30.8126C53.8031 30.4532 53.8812 30.1094 53.9749 29.7501C54.1468 29.1094 53.1468 28.8438 52.9906 29.4844Z" fill="white"/>
</g>
<defs>
<clipPath id="clip0_1204_17268">
<rect width="80" height="80" fill="white" transform="translate(0.0999451 0.5)"/>
</clipPath>
</defs>
</svg>
