<svg width="81" height="81" viewBox="0 0 81 81" fill="none" xmlns="http://www.w3.org/2000/svg">
<g clipPath="url(#clip0_1204_17042)">
<path d="M40.8999 80.5C62.9913 80.5 80.8999 62.5914 80.8999 40.5C80.8999 18.4086 62.9913 0.5 40.8999 0.5C18.8085 0.5 0.899933 18.4086 0.899933 40.5C0.899933 62.5914 18.8085 80.5 40.8999 80.5Z" fill="#FDDE00"/>
<path d="M21.4312 28.7812C21.4312 28.7812 19.3687 31.3906 20.0562 43.1875C20.0562 43.1875 15.5406 54.75 17.0718 60.6562C18.6031 66.5469 24.5718 66.25 24.5718 66.25C24.5718 66.25 34.1499 74.6719 41.4937 67.25C48.8531 59.8125 35.3687 31.0156 35.3687 31.0156L33.6812 21.0625C33.6812 21.0625 31.8374 22.5156 32.0718 32.0937C32.3062 41.6719 28.3218 34.9219 28.3218 34.9219L21.4312 28.7812Z" fill="#3C2D0C"/>
<path d="M22.1968 39.2031L19.6656 46.3281L18.7437 51.3124C18.7437 51.3124 15.6031 62.4218 28.5562 62.2656C28.5562 62.2656 38.6656 71.3124 45.2593 65.2499L47.0249 63.3281L50.0874 58.5781L55.1499 43.4843C55.1499 43.4843 53.5406 33.1406 43.3531 28.8593C43.3531 28.8593 42.5093 28.4062 40.9781 29.0156C40.9781 29.0156 36.7593 19.5156 34.0874 20.6718C34.0874 20.6718 31.7906 21.8906 33.7749 31.2499L30.1812 32.8593C30.1812 32.8593 26.2437 25.3906 22.6031 26.8906C19.2124 28.2499 22.1968 39.2031 22.1968 39.2031Z" fill="#E78C19"/>
<path d="M35.2906 25.3281L35.6031 29.4687C35.6031 29.4687 35.8374 31.8437 38.3531 31C39.0718 30.7656 39.6968 30.2656 39.6343 29.4531C39.5874 28.8437 39.1656 28.2812 38.8843 27.7656C38.3687 26.7812 37.9468 25.7344 37.3374 24.7812C37.0249 24.2969 36.3843 23.2187 35.6812 23.3437C35.6812 23.3437 35.1499 23.1875 35.2906 25.3281Z" fill="#EFB99D"/>
<path d="M24.2281 29.9844C24.2749 29.9531 25.3062 28.6562 27.4468 31.8125C29.5874 34.9687 29.3687 34.5625 29.3687 34.5625C29.3687 34.5625 30.5249 35.8281 28.1656 37.4531C27.6499 37.8281 27.0874 38.1406 26.4937 38.3906C26.1187 38.5312 25.7281 38.6094 25.3374 38.6094C24.8843 38.5937 24.6812 38.3594 24.5718 37.9375C24.2124 36.5625 23.8062 35.1875 23.6031 33.7812C23.4468 32.6875 23.1343 30.6875 24.2281 29.9844Z" fill="#EFB99D"/>
<path d="M49.1031 36.3437C49.1031 37.0937 48.0093 37.7031 46.6499 37.7031C45.2906 37.7031 44.1968 37.0937 44.1968 36.3437C44.1968 35.5937 45.3218 34.4844 46.6656 34.4844C48.0093 34.4844 49.1031 35.5937 49.1031 36.3437Z" fill="#FBFBFB"/>
<path d="M34.9554 42.2126C35.6822 40.9284 35.6016 39.5083 34.7755 39.0408C33.9494 38.5733 32.6905 39.2354 31.9638 40.5196C31.237 41.8039 31.3176 43.224 32.1437 43.6915C32.9698 44.159 34.2287 43.4969 34.9554 42.2126Z" fill="#FBFBFB"/>
<path d="M38.4312 48.4218L45.1343 44.9374C45.1343 44.9374 53.4781 40.578 55.5093 43.9374C57.5406 47.2968 55.5093 52.4374 55.5093 52.4374C55.5093 52.4374 54.6343 58.453 48.4937 58.9843L45.1968 59.4374L40.9781 59.5468C40.9781 59.5468 34.1968 59.9374 29.2124 56.2499L27.6343 54.328C27.6343 54.328 24.4624 49.9686 26.6812 46.828C28.8999 43.6874 36.4937 48.5468 36.4937 48.5468C36.4937 48.5468 37.5562 49.1249 38.4312 48.4218Z" fill="#FBFBFB"/>
<path d="M53.6343 31.0469C54.5231 31.0469 55.2437 30.3263 55.2437 29.4375C55.2437 28.5487 54.5231 27.8281 53.6343 27.8281C52.7455 27.8281 52.0249 28.5487 52.0249 29.4375C52.0249 30.3263 52.7455 31.0469 53.6343 31.0469Z" fill="#E72D36"/>
<path d="M50.0718 27.0937C50.9606 27.0937 51.6812 26.3732 51.6812 25.4844C51.6812 24.5955 50.9606 23.875 50.0718 23.875C49.183 23.875 48.4624 24.5955 48.4624 25.4844C48.4624 26.3732 49.183 27.0937 50.0718 27.0937Z" fill="#E72D36"/>
<path d="M44.3687 25.8281C45.2575 25.8281 45.9781 25.1076 45.9781 24.2188C45.9781 23.3299 45.2575 22.6094 44.3687 22.6094C43.4799 22.6094 42.7593 23.3299 42.7593 24.2188C42.7593 25.1076 43.4799 25.8281 44.3687 25.8281Z" fill="#E72D36"/>
<path d="M45.6343 12.8125C45.9781 17.5625 45.2906 21.8594 44.1343 21.8594C42.9781 21.8594 41.4468 17.2188 41.4468 12.8125C41.4468 11 42.3999 10.7031 43.5562 10.7031C44.7281 10.7031 45.5093 11 45.6343 12.8125Z" fill="#E72D36"/>
<path d="M56.2906 15.7656C54.5406 20.1875 52.0562 23.7656 51.0249 23.2656C49.9937 22.7656 50.6187 17.9219 52.5406 13.9531C53.3374 12.3125 54.3218 12.4688 55.3531 12.9688C56.3843 13.4844 56.9624 14.0781 56.2906 15.7656Z" fill="#E72D36"/>
<path d="M63.9156 24.3906C60.0562 27.1875 56.0562 28.875 55.4468 27.8906C54.8374 26.9062 57.9781 23.1719 61.7124 20.8437C63.2593 19.8906 64.0093 20.5469 64.6187 21.5156C65.2124 22.5 65.3843 23.3125 63.9156 24.3906Z" fill="#E72D36"/>
<path d="M38.1187 43.75C37.9781 43.7657 37.8374 43.7813 37.6968 43.7969C37.7124 43.8438 37.7281 43.8907 37.7281 43.9532C37.7281 44.4375 36.9624 44.8438 36.0093 44.875C36.0093 44.9219 35.9937 44.9532 36.0093 45C36.0562 45.5938 37.0874 46 38.2906 45.9063C39.5093 45.8125 40.4624 45.25 40.4156 44.6563C40.3531 44.0625 39.3374 43.6563 38.1187 43.75Z" fill="black"/>
<path d="M46.5874 41.6563C46.4468 41.6719 46.3062 41.6875 46.1656 41.7032C46.1812 41.75 46.1968 41.7969 46.1968 41.8594C46.1968 42.3438 45.4312 42.75 44.4781 42.7813C44.4781 42.8282 44.4624 42.8594 44.4781 42.9063C44.5249 43.5 45.5562 43.9063 46.7593 43.8125C47.9781 43.7188 48.9312 43.1563 48.8843 42.5625C48.8374 41.9688 47.8062 41.5625 46.5874 41.6563Z" fill="black"/>
<path d="M49.3687 44.1407C49.3687 44.1407 46.0093 45.1251 46.2124 47.0157C46.4156 48.9063 50.4624 49.8907 50.4624 49.8907C50.4624 49.8907 51.5562 50.3282 52.1812 49.2813C52.8062 48.2501 53.7281 46.8438 53.4781 44.8282C53.4781 44.8282 53.3999 43.3282 49.3687 44.1407Z" fill="black"/>
</g>
<defs>
<clipPath id="clip0_1204_17042">
<rect width="80" height="80" fill="white" transform="translate(0.899933 0.5)"/>
</clipPath>
</defs>
</svg>
