<svg width="392" height="220" viewBox="0 0 392 220" fill="none" xmlns="http://www.w3.org/2000/svg">
<path d="M0 19.2C0 12.4794 0 9.11905 1.30792 6.55211C2.4584 4.29417 4.29417 2.4584 6.55211 1.30792C9.11905 0 12.4794 0 19.2 0H372.8C379.521 0 382.881 0 385.448 1.30792C387.706 2.4584 389.542 4.29417 390.692 6.55211C392 9.11905 392 12.4794 392 19.2V200.8C392 207.521 392 210.881 390.692 213.448C389.542 215.706 387.706 217.542 385.448 218.692C382.881 220 379.521 220 372.8 220H19.2C12.4794 220 9.11905 220 6.55211 218.692C4.29417 217.542 2.4584 215.706 1.30792 213.448C0 210.881 0 207.521 0 200.8V19.2Z" fill="#140613"/>
<path fill-rule="evenodd" clip-rule="evenodd" d="M123.607 76.1518C117.566 76.8995 110.917 80.0259 105.247 84.8514C104.1 85.8029 101.704 88.1477 101.704 88.2837C101.704 88.3516 102.851 89.575 104.269 91.0023L106.834 93.619L105.754 94.8423C101.771 99.362 99.0712 103.95 97.4512 108.809C96.4387 111.868 96 114.382 96 117.203C96 119.752 96.3375 121.825 97.1137 123.83L97.4175 124.645L104.944 132.223C111.221 138.544 112.639 139.903 113.415 140.413C115.035 141.501 116.925 142.248 119.017 142.69C120.401 142.996 123.607 143.098 125.126 142.894C131.133 142.146 137.343 139.292 142.777 134.738C144.194 133.549 146.591 131.272 146.591 131.136C146.591 131.068 145.409 129.845 143.992 128.383L141.393 125.733L142.203 124.883C144.194 122.776 146.624 119.412 148.042 116.761C150.067 113.057 151.383 109.047 151.822 105.377C151.991 103.78 151.889 100.382 151.619 99.0902C151.147 96.9153 150.404 95.1482 149.291 93.4491C148.717 92.5655 147.569 91.3761 141.224 84.9534L133.8 77.4772L133.023 77.1713C131.977 76.7295 129.817 76.2198 128.501 76.0839C127.185 75.9479 125.126 75.9819 123.607 76.1518ZM129.986 78.1568C130.526 78.2928 131.403 78.4967 131.876 78.6666C132.753 78.9724 132.787 78.9724 134.171 80.3657C135.386 81.5891 135.555 81.759 135.251 81.725C133.631 81.4192 131.032 81.3512 129.007 81.6231C122.527 82.4386 115.845 85.735 109.702 91.1722C109.095 91.7159 108.555 92.1917 108.454 92.2597C108.352 92.3276 107.812 91.8858 106.226 90.2887L104.134 88.1817L105.484 86.9923C111.12 82.0309 117.33 78.9044 123.405 78.0209C125.025 77.783 128.636 77.885 129.986 78.1568ZM138.828 88.9633C141.798 89.4051 144.397 90.6964 146.321 92.6335C148.211 94.5365 149.426 96.9833 149.999 100.042C150.236 101.401 150.236 104.459 149.999 106.057C149.223 110.984 146.962 116.048 143.452 120.669C142.642 121.757 140.718 124.034 140.414 124.271C140.246 124.407 140.043 124.237 138.288 122.47C137.208 121.383 136.331 120.465 136.331 120.431C136.331 120.397 136.634 120.024 137.006 119.616C143.114 112.819 145.983 104.324 143.958 99.0562C143.148 97.0172 141.461 95.488 139.267 94.8084C138.153 94.4685 136.196 94.2986 134.745 94.4685C132.517 94.6724 129.783 95.556 127.151 96.8473C124.518 98.1387 122.122 99.7698 119.793 101.877L118.747 102.794L114.765 98.7843L115.609 98.0027C120.772 93.1432 127.623 89.677 133.496 88.8954C134.677 88.7934 137.714 88.7934 138.828 88.9633ZM110.917 100.687C110.175 101.537 109.23 102.726 108.757 103.338C103.155 110.848 100.59 119.004 101.636 126.038L101.704 126.48L100.32 125.121C99.0037 123.83 98.9362 123.728 98.6662 122.912C96.0338 115.3 99.3412 104.799 107.137 95.9978L108.049 94.9783L112.234 99.1921L110.917 100.687ZM137.276 96.3376L137.546 96.4055L137.478 97.8328C137.411 99.532 137.174 100.925 136.837 102.115C135.757 105.683 133.766 109.251 130.863 112.615L129.75 113.907L125.497 109.625L126.476 108.537C128.568 106.227 130.492 103.542 131.673 101.265C132.315 100.042 133.158 97.9688 133.395 97.0172C133.53 96.4395 133.53 96.4395 134.036 96.3716C134.306 96.3376 134.61 96.3036 134.711 96.2696C134.981 96.2696 137.039 96.2696 137.276 96.3376ZM131.235 97.8328C130.762 99.1581 129.716 101.197 128.703 102.726C127.59 104.425 126.813 105.445 125.261 107.212L124.181 108.469L119.928 104.188L120.637 103.542C122.831 101.571 125.396 99.8038 127.758 98.5804C129.041 97.9348 131.133 97.0852 131.437 97.0512C131.471 97.0512 131.403 97.391 131.235 97.8328ZM163.567 99.1242C163.465 99.2261 163.432 102.047 163.432 112.377C163.432 124.951 163.432 125.495 163.634 125.665C163.803 125.835 164.343 125.835 168.899 125.835C171.667 125.835 174.67 125.767 175.548 125.733C179.091 125.495 181.825 124.339 183.918 122.232C185.571 120.567 186.618 118.256 187.158 115.198C187.394 113.703 187.394 110.576 187.158 109.115C186.28 104.188 183.479 100.993 178.99 99.7019C176.796 99.0902 176.628 99.0562 169.945 99.0222C164.984 99.0222 163.668 99.0222 163.567 99.1242ZM286.449 99.5659C286.348 99.6679 286.314 100.517 286.314 102.692V105.683H285.031C284.188 105.683 283.715 105.717 283.614 105.819C283.445 105.989 283.445 109.523 283.614 109.727C283.715 109.829 284.188 109.863 285.031 109.863H286.314L286.348 115.912C286.381 121.825 286.381 121.995 286.618 122.674C287.259 124.543 288.575 125.563 290.701 125.835C292.153 126.005 294.211 125.937 295.629 125.665L295.932 125.597L295.865 120.635L294.515 120.567C293.064 120.499 292.828 120.431 292.659 120.125C292.591 119.99 292.558 117.951 292.558 114.926V109.931L296 109.863V105.717L292.558 105.649V102.726C292.558 100.925 292.524 99.7359 292.456 99.5999C292.355 99.396 292.186 99.396 289.486 99.396C287.36 99.464 286.55 99.498 286.449 99.5659ZM175.987 105.309C178.045 105.853 179.395 107.314 179.935 109.455C180.34 111.086 180.34 113.805 179.901 115.504C179.463 117.169 178.45 118.494 177.1 119.14C175.919 119.718 175.21 119.82 172.78 119.888L170.587 119.956V105.003L172.949 105.071C174.67 105.105 175.514 105.173 175.987 105.309ZM196.607 105.445C193.233 106.057 190.634 108.299 189.486 111.562C187.968 115.844 188.71 120.737 191.275 123.49C192.625 124.917 193.908 125.665 195.865 126.174C199.611 127.126 203.627 126.14 206.294 123.626C206.935 123.048 208.589 120.941 208.589 120.737C208.589 120.499 208.116 120.193 206.192 119.208C205.011 118.596 204.032 118.087 203.999 118.087C203.965 118.087 203.762 118.392 203.56 118.766C203.087 119.684 202.109 120.703 201.4 121.077C199.274 122.13 196.776 121.519 195.696 119.684C195.393 119.14 195.089 118.188 195.089 117.679V117.305H201.839C206.935 117.305 208.589 117.271 208.69 117.169C208.859 116.999 208.859 115.64 208.656 114.28C208.116 110.644 206.597 108.028 204.167 106.566C203.357 106.091 201.805 105.547 200.792 105.377C199.78 105.207 197.62 105.241 196.607 105.445ZM218.781 105.309C217.836 105.445 217.06 105.615 216.452 105.819C213.044 106.906 210.782 109.727 210.074 113.737C209.804 115.266 209.905 117.713 210.276 119.174C210.782 121.145 211.525 122.436 212.875 123.728C214.056 124.849 215.44 125.631 217.296 126.14C217.836 126.31 218.376 126.344 219.76 126.344C221.346 126.344 221.582 126.31 222.46 126.038C224.215 125.495 225.565 124.679 226.78 123.388C227.59 122.538 228.501 121.281 228.501 121.009C228.501 120.907 228.332 120.737 228.163 120.601C227.455 120.159 224.181 118.528 224.012 118.528C223.911 118.528 223.742 118.766 223.573 119.106C223.168 119.99 222.628 120.567 221.785 120.975C221.143 121.281 220.941 121.349 220.232 121.315C219.287 121.315 218.68 121.077 217.903 120.397C215.879 118.596 215.744 113.601 217.667 111.324C218.882 109.897 221.143 109.897 222.595 111.29C222.831 111.528 223.168 111.97 223.337 112.275C223.506 112.581 223.708 112.853 223.81 112.853C224.046 112.921 228.197 110.508 228.265 110.271C228.298 110.067 227.86 109.387 227.218 108.571C226.172 107.28 224.113 106.023 222.325 105.615C221.413 105.377 219.456 105.241 218.781 105.309ZM272.915 105.547C271.802 105.751 270.789 106.159 269.979 106.77L269.338 107.246L269.27 105.887L266.672 105.853C264.377 105.819 264.039 105.853 263.87 106.023C263.668 106.193 263.668 106.702 263.668 119.276C263.668 129.301 263.702 132.359 263.803 132.461C264.005 132.665 269.675 132.665 269.844 132.461C269.945 132.359 269.979 131.34 269.979 128.587V124.849L271.025 125.393C272.443 126.106 273.32 126.276 274.974 126.208C276.898 126.106 278.045 125.733 279.294 124.781C281.049 123.456 282.196 121.417 282.838 118.596C283.175 117.101 283.175 114.484 282.838 112.887C282.399 110.78 281.69 109.353 280.408 107.994C278.518 105.887 275.75 105.037 272.915 105.547ZM120.705 107.552C122.527 109.387 122.628 109.523 122.493 109.727C122.392 109.829 121.953 110.338 121.481 110.882C119.591 113.057 117.836 115.708 116.655 118.154C115.811 119.888 115.305 121.315 114.799 123.252C114.157 125.801 114.157 128.621 114.866 130.592C116.182 134.33 119.658 136.097 124.518 135.52C129.21 134.942 134.61 132.223 139.233 128.111L140.212 127.228L144.194 131.238L143.351 132.019C139.031 136.063 133.26 139.36 128.265 140.583C126.24 141.093 124.822 141.263 122.898 141.263C120.333 141.263 118.443 140.923 116.452 140.039C113.887 138.918 111.525 136.709 110.31 134.262C108.791 131.238 108.352 127.5 109.027 123.456C109.972 117.815 113.111 111.766 117.735 106.566C118.207 106.023 118.646 105.581 118.68 105.581C118.713 105.581 119.625 106.464 120.705 107.552ZM240.786 105.717C239.469 105.921 237.816 106.532 236.736 107.246L236.398 107.484V106.77C236.398 106.362 236.331 106.023 236.263 105.921C236.162 105.819 235.386 105.785 233.395 105.785C230.897 105.785 230.627 105.785 230.492 105.989C230.323 106.159 230.323 107.008 230.323 115.844C230.323 125.053 230.323 125.495 230.526 125.665C230.695 125.835 231.066 125.835 233.496 125.835C235.656 125.835 236.297 125.801 236.398 125.699C236.466 125.597 236.533 123.592 236.533 119.48C236.567 113.771 236.567 113.363 236.77 112.989C237.174 112.174 237.883 111.834 239.942 111.494C240.718 111.358 241.494 111.222 241.663 111.188L241.967 111.12V108.469C241.967 105.819 241.933 105.513 241.596 105.581C241.461 105.615 241.123 105.649 240.786 105.717ZM243.553 105.955C243.486 106.057 243.452 106.227 243.486 106.396C243.519 106.532 244.431 109.523 245.511 112.989C249.831 126.99 249.594 126.174 249.291 126.718C249.021 127.262 248.548 127.364 246.861 127.364C245.814 127.364 245.274 127.398 245.207 127.5C245.106 127.602 245.072 128.281 245.072 129.946C245.072 131.612 245.106 132.291 245.207 132.393C245.376 132.563 249.662 132.563 250.776 132.427C252.632 132.155 254.151 130.83 255.028 128.723C255.231 128.281 256.952 123.014 258.875 117.033C261.812 107.994 262.385 106.125 262.25 105.989C262.149 105.853 261.643 105.819 258.977 105.819H255.838L255.737 106.295C255.669 106.566 255.028 109.387 254.286 112.615C253.543 115.844 252.936 118.528 252.868 118.562C252.834 118.596 252.126 115.742 251.349 112.241L249.898 105.819H246.759C244.161 105.819 243.654 105.819 243.553 105.955ZM200.455 110.203C201.467 110.678 202.142 111.596 202.345 112.717L202.412 113.125H195.19L195.258 112.785C195.393 112.174 195.966 111.188 196.439 110.78C197.249 110.067 197.957 109.829 199.071 109.897C199.611 109.931 200.016 110.033 200.455 110.203ZM274.94 110.372C275.885 110.882 276.594 111.936 276.931 113.363C277.168 114.416 277.168 116.931 276.898 117.985C276.661 118.902 276.189 119.854 275.683 120.499C274.873 121.485 273.287 121.757 272.004 121.111C270.519 120.363 269.81 118.698 269.81 115.912C269.81 113.329 270.485 111.494 271.734 110.576C272.713 109.897 273.894 109.829 274.94 110.372ZM127.32 115.878C124.552 118.494 121.008 120.839 118.072 122.029C117.465 122.266 116.925 122.47 116.891 122.47C116.857 122.47 116.992 122.096 117.161 121.621C118.443 118.053 120.671 114.416 123.337 111.528L123.978 110.848L128.231 115.062L127.32 115.878ZM131.572 118.528L133.631 120.601L132.99 121.213C129.615 124.407 124.417 127.296 120.738 128.077C119.827 128.281 117.802 128.485 116.823 128.485H116.182V126.922C116.182 126.072 116.216 125.155 116.25 124.951L116.317 124.543L117.633 124.101C120.975 123.014 125.227 120.329 128.366 117.339C128.872 116.863 129.345 116.455 129.412 116.455C129.48 116.455 130.458 117.373 131.572 118.528Z" fill="white"/>
</svg>
