<svg width="392" height="220" viewBox="0 0 392 220" fill="none" xmlns="http://www.w3.org/2000/svg">
<path d="M0 19.2C0 12.4794 0 9.11905 1.30792 6.55211C2.4584 4.29417 4.29417 2.4584 6.55211 1.30792C9.11905 0 12.4794 0 19.2 0H372.8C379.521 0 382.881 0 385.448 1.30792C387.706 2.4584 389.542 4.29417 390.692 6.55211C392 9.11905 392 12.4794 392 19.2V200.8C392 207.521 392 210.881 390.692 213.448C389.542 215.706 387.706 217.542 385.448 218.692C382.881 220 379.521 220 372.8 220H19.2C12.4794 220 9.11905 220 6.55211 218.692C4.29417 217.542 2.4584 215.706 1.30792 213.448C0 210.881 0 207.521 0 200.8V19.2Z" fill="#140613"/>
<path fill-rule="evenodd" clip-rule="evenodd" d="M216.657 118.378C215.158 119.326 213.392 119.443 212.05 118.686C210.345 117.724 209.408 115.469 209.408 112.334V102.954C209.408 98.4244 207.617 95.2013 204.622 94.331C199.547 92.8526 195.731 99.0619 194.296 101.394L185.346 115.906V98.1686C185.245 94.0877 183.92 91.6467 181.403 90.9107C179.738 90.4242 177.247 90.6192 174.827 94.3226L154.775 126.521C152.091 121.425 150.692 115.75 150.698 109.99C150.698 90.594 166.242 74.8157 185.346 74.8157C204.45 74.8157 219.991 90.594 219.991 109.99C219.991 110.023 220 110.053 220.002 110.084C220.002 110.118 219.996 110.147 219.998 110.181C220.178 113.936 218.962 116.923 216.657 118.378ZM227.69 109.992V109.893L227.688 109.797C227.581 86.1755 208.63 67 185.344 67C161.997 67 143 86.2846 143 109.99C143 133.693 161.997 152.979 185.346 152.979C196.06 152.979 206.285 148.907 214.134 141.515C215.695 140.047 215.787 137.574 214.34 135.993C213.618 135.196 212.591 134.743 211.517 134.743C210.544 134.743 209.607 135.115 208.9 135.784C202.54 141.806 194.105 145.166 185.346 145.164C175.116 145.164 165.912 140.636 159.565 133.456L177.648 104.42V117.805C177.648 124.235 180.141 126.313 182.232 126.921C184.325 127.53 187.523 127.114 190.88 121.662L200.826 105.538C201.145 105.018 201.439 104.569 201.707 104.181V112.334C201.707 118.344 204.115 123.151 208.311 125.518C212.094 127.653 216.85 127.46 220.725 125.015C225.423 122.048 227.954 116.581 227.69 109.992Z" fill="white"/>
</svg>
