<svg width="44" height="44" viewBox="0 0 44 44" fill="none" xmlns="http://www.w3.org/2000/svg">
<path d="M37.2722 7.75098C34.424 6.41838 31.3786 5.4499 28.1946 4.89844C27.8036 5.60539 27.3468 6.55626 27.0318 7.31267C23.6472 6.80367 20.2938 6.80367 16.9715 7.31267C16.6566 6.55626 16.1894 5.60539 15.7948 4.89844C12.6075 5.4499 9.55855 6.42194 6.71035 7.75803C0.965512 16.4392 -0.59182 24.9048 0.186847 33.2502C3.99713 36.0956 7.68975 37.8241 11.3201 38.9552C12.2164 37.7216 13.0158 36.4102 13.7045 35.0282C12.3929 34.5298 11.1366 33.9147 9.94964 33.2007C10.2645 32.9674 10.5726 32.7235 10.8702 32.4726C18.11 35.8588 25.9763 35.8588 33.1297 32.4726C33.4308 32.7235 33.7387 32.9674 34.0502 33.2007C32.8597 33.9182 31.6 34.5333 30.2884 35.0317C30.9771 36.4102 31.7731 37.7252 32.6729 38.9587C36.3067 37.8276 40.0027 36.0992 43.813 33.2502C44.7266 23.5758 42.2522 15.1879 37.2722 7.75098ZM14.6908 28.1179C12.5175 28.1179 10.7352 26.0889 10.7352 23.6182C10.7352 21.1474 12.4794 19.115 14.6908 19.115C16.9023 19.115 18.6845 21.1439 18.6465 23.6182C18.6499 26.0889 16.9023 28.1179 14.6908 28.1179ZM29.309 28.1179C27.1357 28.1179 25.3534 26.0889 25.3534 23.6182C25.3534 21.1474 27.0976 19.115 29.309 19.115C31.5204 19.115 33.3027 21.1439 33.2647 23.6182C33.2647 26.0889 31.5204 28.1179 29.309 28.1179Z" fill="white"/>
</svg>
