<svg width="509" height="470" viewBox="0 0 509 470" fill="none" xmlns="http://www.w3.org/2000/svg">
<path d="M146.678 162.094H360.678V214.094H146.678V162.094Z" fill="white"/>
<path d="M146.678 230.094H360.678V240.094H146.678V230.094Z" fill="white"/>
<path d="M146.678 247.094H360.678V265.094H146.678V247.094Z" fill="white"/>
<path d="M221.678 346.094V290.094H231.678L272.678 331.094V290.094H282.678V346.094H273.678L231.678 304.094V346.094H221.678Z" fill="white"/>
<path d="M325.678 346.094L297.678 290.094H309.678L329.678 331.094L349.678 290.094H361.678L333.678 346.094H325.678Z" fill="white"/>
<path fill-rule="evenodd" clip-rule="evenodd" d="M182.178 290.093C182.188 290.093 205.678 289.601 205.678 318.094C205.677 347.079 182.202 346.095 182.178 346.094H146.678V290.094L182.178 290.093ZM156.678 299.094V337.091H179.542C179.542 337.091 194.678 337.769 194.678 318.092C194.677 298.755 179.542 299.094 179.542 299.094H156.678Z" fill="white"/>
<path d="M187.525 469.788H184.379L195.379 436.282H198.547L187.525 469.788Z" fill="white"/>
<path fill-rule="evenodd" clip-rule="evenodd" d="M339.431 435.842C342.877 435.842 345.621 437.228 347.659 440C349.712 442.757 350.738 446.842 350.738 452.254C350.738 457.637 349.719 461.707 347.681 464.464C345.642 467.206 342.877 468.578 339.387 468.578C335.911 468.578 333.154 467.213 331.115 464.485C329.077 461.743 328.057 457.687 328.057 452.319C328.057 448.697 328.526 445.661 329.465 443.212C330.404 440.763 331.723 438.921 333.425 437.689C335.126 436.458 337.128 435.842 339.431 435.842ZM339.409 439.273C337.165 439.273 335.434 440.3 334.217 442.354C333.014 444.392 332.413 447.7 332.413 452.275C332.413 456.778 333.014 460.035 334.217 462.044C335.419 464.053 337.157 465.058 339.431 465.058C341.704 465.058 343.42 464.06 344.579 462.065C345.752 460.056 346.339 456.792 346.339 452.275C346.339 447.67 345.745 444.356 344.557 442.332C343.383 440.293 341.668 439.274 339.409 439.273Z" fill="white"/>
<path fill-rule="evenodd" clip-rule="evenodd" d="M366.586 435.842C370.033 435.842 372.776 437.228 374.814 440C376.868 442.757 377.895 446.842 377.895 452.254C377.895 457.637 376.875 461.707 374.836 464.464C372.797 467.206 370.033 468.578 366.542 468.578C363.066 468.578 360.309 467.213 358.271 464.485C356.232 461.743 355.212 457.687 355.212 452.319C355.212 448.697 355.682 445.661 356.62 443.212C357.559 440.763 358.879 438.921 360.58 437.689C362.281 436.458 364.283 435.842 366.586 435.842ZM366.564 439.273C364.32 439.273 362.589 440.3 361.372 442.354C360.169 444.392 359.568 447.7 359.568 452.275C359.568 456.778 360.169 460.035 361.372 462.044C362.575 464.053 364.313 465.057 366.586 465.058C368.859 465.058 370.576 464.06 371.734 462.065C372.908 460.056 373.494 456.793 373.494 452.275C373.494 447.67 372.9 444.356 371.712 442.332C370.539 440.293 368.823 439.273 366.564 439.273Z" fill="white"/>
<path d="M137.461 435.886C139.954 435.886 142.052 436.318 143.753 437.184C145.469 438.049 146.766 439.186 147.646 440.594C148.526 442.002 148.967 443.505 148.967 445.104H144.787C144.655 443.652 144.229 442.508 143.511 441.672C142.792 440.821 141.898 440.212 140.827 439.846C139.757 439.464 138.59 439.273 137.329 439.273C135.056 439.273 133.333 439.795 132.159 440.836C131.001 441.863 130.421 443.087 130.421 444.51C130.421 445.815 130.839 446.842 131.675 447.59C132.511 448.338 133.743 448.917 135.371 449.328L141.751 450.978C143.643 451.418 145.146 452.056 146.261 452.892C147.39 453.728 148.197 454.703 148.681 455.817C149.179 456.917 149.429 458.113 149.429 459.403C149.429 461.163 148.938 462.733 147.955 464.111C146.972 465.49 145.593 466.576 143.818 467.368C142.058 468.145 139.983 468.534 137.593 468.534C136.038 468.534 134.564 468.35 133.171 467.983C131.778 467.602 130.509 467.038 129.365 466.29C128.236 465.542 127.297 464.618 126.549 463.518C125.816 462.403 125.354 461.112 125.163 459.646H129.431C129.695 460.848 130.216 461.86 130.993 462.682C131.785 463.503 132.76 464.12 133.919 464.53C135.092 464.941 136.375 465.145 137.769 465.146C139.118 465.146 140.358 464.933 141.487 464.508C142.631 464.082 143.548 463.467 144.237 462.66C144.927 461.839 145.27 460.856 145.271 459.712C145.271 458.451 144.86 457.438 144.039 456.676C143.218 455.898 141.948 455.275 140.232 454.806L133.677 453.111C132.196 452.745 130.883 452.232 129.739 451.572C128.61 450.898 127.722 450.017 127.077 448.932C126.432 447.832 126.108 446.468 126.108 444.84C126.108 443.036 126.607 441.466 127.604 440.132C128.602 438.783 129.951 437.741 131.652 437.008C133.368 436.26 135.305 435.886 137.461 435.886Z" fill="white"/>
<path fill-rule="evenodd" clip-rule="evenodd" d="M167.192 435.842C170.008 435.842 172.444 436.487 174.497 437.777C176.55 439.053 178.134 440.917 179.249 443.366C180.364 445.801 180.921 448.763 180.921 452.254C180.921 455.701 180.364 458.642 179.249 461.076C178.149 463.496 176.572 465.344 174.519 466.62C172.465 467.896 170.023 468.534 167.192 468.534C164.362 468.534 161.913 467.896 159.845 466.62C157.777 465.344 156.178 463.496 155.049 461.076C153.934 458.642 153.377 455.701 153.377 452.254C153.377 448.778 153.941 445.822 155.07 443.388C156.2 440.938 157.799 439.068 159.867 437.777C161.95 436.487 164.391 435.842 167.192 435.842ZM167.192 439.384C165.257 439.384 163.592 439.846 162.199 440.77C160.806 441.694 159.734 443.109 158.986 445.016C158.238 446.922 157.865 449.35 157.865 452.298C157.865 455.216 158.238 457.615 158.986 459.492C159.734 461.369 160.806 462.755 162.199 463.649C163.592 464.544 165.257 464.992 167.192 464.992C169.158 464.992 170.83 464.544 172.209 463.649C173.587 462.755 174.636 461.369 175.354 459.492C176.088 457.615 176.455 455.216 176.455 452.298C176.455 449.335 176.088 446.901 175.354 444.994C174.621 443.087 173.565 441.679 172.187 440.77C170.808 439.846 169.143 439.384 167.192 439.384Z" fill="white"/>
<path d="M252.193 435.842C254.437 435.842 256.425 436.311 258.155 437.25C259.886 438.174 261.279 439.413 262.335 440.968C263.391 442.522 264.014 444.231 264.205 446.094H259.871C259.636 444.847 259.189 443.718 258.529 442.706C257.869 441.694 257.004 440.887 255.934 440.286C254.863 439.685 253.579 439.384 252.083 439.384C250.162 439.384 248.534 439.839 247.199 440.748C245.879 441.643 244.875 443.029 244.186 444.906C243.511 446.784 243.173 449.189 243.173 452.122C243.173 456.551 243.929 459.807 245.439 461.89C246.965 463.958 249.179 464.992 252.083 464.992C253.579 464.992 254.863 464.677 255.934 464.046C257.004 463.415 257.869 462.572 258.529 461.516C259.189 460.46 259.636 459.316 259.871 458.084H264.205C264.044 459.433 263.677 460.739 263.105 462C262.548 463.247 261.778 464.361 260.795 465.344C259.812 466.326 258.602 467.104 257.165 467.676C255.742 468.248 254.085 468.534 252.193 468.534C249.333 468.534 246.891 467.881 244.867 466.576C242.858 465.271 241.318 463.393 240.247 460.943C239.191 458.494 238.663 455.539 238.663 452.078C238.663 448.631 239.191 445.697 240.247 443.277C241.303 440.858 242.836 439.017 244.846 437.756C246.87 436.48 249.319 435.842 252.193 435.842Z" fill="white"/>
<path d="M118.95 468.094H114.88V436.282H118.95V468.094Z" fill="white"/>
<path d="M206.955 468.094H202.885V436.282H206.955V468.094Z" fill="white"/>
<path d="M218.91 450.252H233.276V453.815H218.888V464.42L235.3 464.464V468.094H214.818V442.094H218.91V450.252Z" fill="white"/>
<path d="M290.621 435.842C292.748 435.842 294.596 436.223 296.165 436.985C297.734 437.733 298.945 438.789 299.796 440.153C300.661 441.503 301.094 443.08 301.094 444.884C301.094 446.526 300.793 447.934 300.191 449.107C299.59 450.281 298.79 451.301 297.793 452.166C296.81 453.017 295.733 453.78 294.56 454.454C293.386 455.129 292.206 455.781 291.018 456.412C289.83 457.028 288.744 457.681 287.762 458.37C286.779 459.045 285.987 459.822 285.386 460.702C284.784 461.582 284.483 462.63 284.483 463.848V464.485H301.27V468.094H279.951V464.31C279.951 462.682 280.252 461.274 280.854 460.086C281.47 458.898 282.276 457.863 283.273 456.983C284.285 456.089 285.385 455.29 286.573 454.586C287.776 453.882 288.971 453.207 290.159 452.562C291.362 451.902 292.462 451.22 293.459 450.516C294.456 449.797 295.256 448.99 295.857 448.096C296.473 447.186 296.781 446.116 296.781 444.884C296.781 443.27 296.209 441.957 295.065 440.945C293.936 439.934 292.403 439.428 290.468 439.428C288.385 439.428 286.713 440.014 285.451 441.188C284.19 442.361 283.479 443.923 283.317 445.874H279.27C279.314 444.041 279.768 442.368 280.634 440.857C281.499 439.332 282.768 438.115 284.439 437.206C286.111 436.297 288.172 435.842 290.621 435.842Z" fill="white"/>
<path d="M325.282 439.802C324.153 441.342 323.031 443.094 321.916 445.06C320.816 447.01 319.768 449.057 318.771 451.198C317.773 453.325 316.878 455.429 316.086 457.512C315.294 459.58 314.634 461.531 314.106 463.364C313.593 465.183 313.263 466.759 313.116 468.094H308.694C308.929 466.642 309.347 464.845 309.948 462.704C310.564 460.563 311.371 458.223 312.368 455.686C313.365 453.134 314.569 450.501 315.977 447.788C317.385 445.075 318.998 442.412 320.816 439.802H302.952V436.282H325.282V439.802Z" fill="white"/>
<path d="M392.899 468.094H388.698V442.771H382.56V440.109C384.466 440.109 385.948 439.97 387.004 439.691C388.06 439.413 388.808 438.988 389.248 438.416C389.703 437.844 389.952 437.133 389.996 436.282H392.899V468.094Z" fill="white"/>
<path d="M234.86 440.094H214.818V436.282H234.882L234.86 440.094Z" fill="white"/>
<path d="M61.002 366.939L34.0303 382.4L32.0518 378.95L59.0234 363.488L61.002 366.939Z" fill="white"/>
<path d="M488.521 353.253L486.088 358.19L458.917 355.255L477.746 375.124L475.323 380.042L447.435 366.303L449.249 362.619L471.795 373.727L453.23 354.538L454.874 351.202L481.161 354.182L458.827 343.179L460.632 339.514L488.521 353.253Z" fill="white"/>
<path d="M47.6182 339.201L32.3516 364.618L54.6074 354.351L56.2734 357.963L28.043 370.985L26.4492 367.53L41.5117 342.491L19.5684 352.614L17.9023 349.003L46.1328 335.979L47.6182 339.201Z" fill="white"/>
<path d="M498.451 325.735L492.361 344.374L489.037 343.266L493.878 328.448L493.572 328.348C493.965 327.073 494.345 325.795 494.717 324.515L498.451 325.735Z" fill="white"/>
<path d="M16.4834 334.759L16.6387 334.708C17.0708 336 17.5147 337.288 17.9678 338.572L14.416 339.714L8.49121 321.271L11.8135 320.226L16.4834 334.759Z" fill="white"/>
<path d="M491.863 323.583C491.492 324.864 491.112 326.142 490.72 327.417L484.231 325.298L479.872 338.643L476.561 337.562L480.927 324.195L471.076 320.978L466.055 336.21L462.683 335.108L468.898 316.081L491.863 323.583Z" fill="white"/>
<path d="M29.543 330.563L42.7656 326.314L44.0156 330.204L20.8242 337.654C20.3708 336.37 19.9263 335.083 19.4941 333.791L26.2676 331.615L22.0713 318.556L25.3467 317.504L29.543 330.563Z" fill="white"/>
<path d="M505.23 296.55L500.389 319.567L496.812 318.814L498.764 309.536L498.583 309.498C498.875 308.197 499.156 306.894 499.428 305.589L499.587 305.623L501.654 295.798L505.23 296.55Z" fill="white"/>
<path fill-rule="evenodd" clip-rule="evenodd" d="M17.3252 285.981C20.6318 285.341 23.5566 285.329 26.0996 285.945C28.6259 286.551 30.6929 287.72 32.2988 289.453C33.9046 291.186 34.9699 293.41 35.4961 296.126C36.0222 298.842 35.8661 301.31 35.0264 303.531C34.1865 305.753 32.7105 307.631 30.5986 309.164C28.47 310.686 25.752 311.767 22.4453 312.407C19.1104 313.053 16.1698 313.062 13.624 312.431C11.0641 311.802 8.97233 310.616 7.34961 308.872C5.72426 307.114 4.65159 304.891 4.13086 302.203C3.6074 299.501 3.77424 297.045 4.63086 294.835C5.47343 292.628 6.9658 290.762 9.1084 289.237C11.2371 287.715 13.9761 286.63 17.3252 285.981ZM25.3037 289.976C23.3663 289.621 20.9973 289.715 18.1973 290.258C15.355 290.809 13.0875 291.613 11.3945 292.671C9.70166 293.729 8.54687 295.003 7.93066 296.495C7.30043 297.99 7.1667 299.673 7.5293 301.545C7.88919 303.402 8.64175 304.913 9.78711 306.078C10.9326 307.243 12.4896 308.008 14.458 308.371C16.4264 308.734 18.825 308.642 21.6533 308.094C24.4535 307.551 26.6846 306.746 28.3467 305.68C30.0088 304.613 31.1399 303.328 31.7393 301.825C32.3386 300.322 32.4585 298.642 32.0986 296.784C31.7333 294.899 30.9925 293.378 29.8779 292.222C28.7633 291.065 27.2385 290.316 25.3037 289.976Z" fill="white"/>
<path d="M496.493 304.972C496.222 306.277 495.94 307.579 495.647 308.88L471.918 303.889L472.74 299.976L496.493 304.972Z" fill="white"/>
<path d="M485.078 270.667C483.884 270.812 482.851 271.224 481.979 271.903C481.107 272.597 480.417 273.489 479.909 274.578C479.4 275.681 479.081 276.91 478.951 278.266C478.825 279.578 478.917 280.804 479.226 281.942C479.533 283.095 480.046 284.043 480.767 284.789C481.501 285.536 482.425 285.964 483.538 286.07C484.765 286.188 485.788 285.882 486.606 285.154C487.439 284.428 488.164 283.252 488.78 281.626L491.039 275.406C491.534 273.999 492.156 272.77 492.904 271.719C493.666 270.683 494.605 269.902 495.721 269.375C496.851 268.85 498.208 268.663 499.791 268.814C501.546 268.983 503.027 269.613 504.232 270.708C505.452 271.804 506.339 273.214 506.894 274.938C507.461 276.677 507.645 278.595 507.444 280.692C507.212 283.118 506.596 285.118 505.596 286.692C504.594 288.281 503.367 289.438 501.915 290.163C500.464 290.888 498.96 291.175 497.405 291.026L497.794 286.96C499.219 286.967 500.372 286.66 501.252 286.039C502.146 285.419 502.822 284.605 503.278 283.598C503.749 282.592 504.044 281.475 504.161 280.248C504.373 278.037 504.027 276.312 503.123 275.073C502.232 273.851 501.095 273.173 499.711 273.04C498.441 272.918 497.403 273.229 496.598 273.973C495.792 274.716 495.114 275.861 494.562 277.406L492.363 283.459C491.759 285.259 490.998 286.662 490.081 287.669C489.163 288.69 488.138 289.383 487.009 289.75C485.892 290.133 484.706 290.264 483.45 290.144C481.738 289.98 480.257 289.356 479.008 288.271C477.758 287.187 476.831 285.744 476.226 283.944C475.633 282.16 475.448 280.104 475.671 277.778C475.816 276.266 476.132 274.849 476.618 273.528C477.119 272.208 477.787 271.027 478.621 269.983C479.454 268.954 480.44 268.127 481.58 267.502C482.733 266.893 484.031 266.564 485.476 266.515L485.078 270.667Z" fill="white"/>
<path d="M31.0205 260.673L18.0254 267.213L18.5723 275.559L31.9385 274.683L32.1982 278.651L7.53027 280.268C7.42124 278.946 7.32151 277.624 7.2334 276.301L15.29 275.773L14.8477 269.016C14.6949 266.684 14.1044 264.913 13.0771 263.702C12.0355 262.492 10.5778 261.948 8.7041 262.07C6.87343 262.19 5.54484 262.852 4.71875 264.056C3.87755 265.245 3.52208 266.827 3.65137 268.801L4.15527 276.503L4.24023 276.497C4.32837 277.82 4.42732 279.142 4.53613 280.464L1.17578 280.685L0.388672 268.67C0.242503 266.439 0.463629 264.55 1.05176 263.003C1.6256 261.457 2.52481 260.27 3.74902 259.443C4.95892 258.617 6.44395 258.146 8.20312 258.031C9.89063 257.921 11.3119 258.13 12.4668 258.657C13.6207 259.171 14.5709 259.862 15.3174 260.732C16.0496 261.604 16.6338 262.521 17.0703 263.483L30.7451 256.469L31.0205 260.673Z" fill="white"/>
<path d="M508.388 245.394L494.183 253.808L508.57 261.775L508.618 266.14L490.636 255.804L477.414 255.95L477.37 251.995L490.613 251.848L508.34 241.051L508.388 245.394Z" fill="white"/>
<path d="M33.2227 221.869L32.917 225.965L7.85352 224.097L32.248 234.948L31.9717 238.657L6.47852 245.727L31.3066 247.577L31.0029 251.65L0 249.34L0.40918 243.852L26.7061 236.411L1.81152 225.026L2.21973 219.559L33.2227 221.869Z" fill="white"/>
<path d="M497.241 216.287C498.992 216.082 500.572 216.387 501.98 217.203C503.404 218.017 504.569 219.208 505.475 220.775C506.396 222.356 506.98 224.193 507.226 226.285C507.51 228.705 507.329 230.79 506.683 232.54C506.038 234.304 505.083 235.693 503.816 236.708C502.55 237.723 501.141 238.322 499.59 238.504L499.113 234.446C500.508 234.153 501.569 233.609 502.299 232.816C503.042 232.022 503.532 231.085 503.766 230.004C504.014 228.921 504.066 227.767 503.922 226.543C503.663 224.337 502.961 222.723 501.816 221.703C500.688 220.696 499.433 220.273 498.053 220.435C496.786 220.583 495.837 221.106 495.206 222.003C494.575 222.9 494.154 224.161 493.94 225.788L493.065 232.169C492.854 234.055 492.406 235.587 491.722 236.765C491.039 237.956 490.185 238.851 489.158 239.447C488.147 240.057 487.015 240.435 485.763 240.582C484.055 240.783 482.475 240.484 481.025 239.688C479.575 238.891 478.365 237.676 477.394 236.044C476.438 234.424 475.824 232.454 475.552 230.134C475.375 228.625 475.385 227.173 475.582 225.779C475.793 224.384 476.197 223.088 476.792 221.893C477.389 220.711 478.18 219.694 479.162 218.843C480.16 218.004 481.361 217.409 482.763 217.057L483.249 221.199C482.112 221.593 481.188 222.213 480.479 223.062C479.773 223.924 479.286 224.94 479.02 226.111C478.755 227.297 478.702 228.567 478.86 229.919C479.014 231.229 479.362 232.407 479.903 233.455C480.447 234.517 481.149 235.336 482.011 235.913C482.886 236.489 483.88 236.711 484.99 236.581C486.214 236.437 487.149 235.923 487.796 235.039C488.457 234.153 488.918 232.851 489.178 231.132L490.074 224.575C490.261 223.096 490.61 221.764 491.12 220.578C491.646 219.405 492.4 218.443 493.38 217.693C494.374 216.942 495.661 216.473 497.241 216.287Z" fill="white"/>
<path fill-rule="evenodd" clip-rule="evenodd" d="M38.5469 195.663L29.582 196.866L26.9131 209.333L34.5947 214.122L33.749 218.074L5.70312 200.57L6.64355 196.177L39.3975 191.689L38.5469 195.663ZM9.97656 199.198L23.5596 207.537L25.7783 197.173L9.97656 199.198Z" fill="white"/>
<path d="M502.907 200.094L499.38 201.052L496.895 191.902L496.717 191.95C496.383 190.659 496.038 189.371 495.684 188.086L495.846 188.043L493.214 178.354L496.741 177.396L502.907 200.094Z" fill="white"/>
<path d="M492.788 188.873C493.142 190.158 493.488 191.446 493.821 192.736L470.42 199.094L469.371 195.234L492.788 188.873Z" fill="white"/>
<path d="M20.1816 163.777L18.3984 169.179C16.8909 173.284 15.488 177.427 14.1924 181.604L14.2861 181.634L12.8086 186.112L9.33789 184.967L16.7109 162.631L20.1816 163.777Z" fill="white"/>
<path d="M43.2607 181.381L42.0068 185.179L18.6719 177.475C19.0933 176.21 19.5245 174.948 19.9658 173.689L43.2607 181.381Z" fill="white"/>
<path d="M486.802 152.063L470.615 176.391L492.997 167.276L494.497 170.96L465.704 182.686L464.366 179.4L480.773 154.704L458.073 163.948L456.573 160.265L485.366 148.539L486.802 152.063Z" fill="white"/>
<path d="M49.0312 165.879L47.498 169.549L18.8115 157.567L20.3438 153.897L49.0312 165.879Z" fill="white"/>
<path fill-rule="evenodd" clip-rule="evenodd" d="M34.2988 129.853C36.3366 128.657 38.6685 128.134 41.2939 128.284C43.9068 128.428 46.7231 129.294 49.7422 130.882C52.7231 132.45 55.0127 134.27 56.6113 136.342C58.2039 138.394 59.0854 140.599 59.2549 142.955C59.4243 145.311 58.8649 147.714 57.5771 150.162C56.2893 152.61 54.6235 154.439 52.5791 155.647C50.5346 156.856 48.2085 157.397 45.6016 157.272C42.9887 157.129 40.1919 156.273 37.2109 154.705C34.2045 153.124 31.9054 151.291 30.3135 149.206C28.7088 147.115 27.818 144.882 27.6426 142.506C27.4738 140.117 28.0273 137.712 29.3018 135.289C30.5829 132.854 32.2485 131.041 34.2988 129.853ZM40.9307 132.394C38.9479 132.16 37.2497 132.433 35.8359 133.212C34.4096 133.984 33.2527 135.213 32.3652 136.9C31.4844 138.575 31.1267 140.225 31.292 141.851C31.4573 143.476 32.1944 145.045 33.5029 146.56C34.8117 148.074 36.7413 149.503 39.291 150.844C41.8152 152.172 44.0595 152.939 46.0234 153.146C47.9874 153.354 49.6734 153.058 51.0811 152.26C52.4887 151.462 53.6329 150.225 54.5137 148.551C55.4078 146.851 55.7813 145.201 55.6348 143.602C55.4881 142.002 54.7664 140.465 53.4697 138.989C52.1796 137.501 50.2723 136.092 47.748 134.765C45.1858 133.417 42.9133 132.627 40.9307 132.394Z" fill="white"/>
<path d="M465.957 126.517C466.647 127.658 467.33 128.803 468.001 129.955L462.032 133.302L468.896 145.549L465.857 147.252L458.983 134.986L449.943 140.053L457.748 154.064L454.653 155.8L444.866 138.339L465.957 126.517Z" fill="white"/>
<path d="M481.573 140.243L478.506 141.938L470.884 128.34L470.618 128.488C469.947 127.336 469.266 126.19 468.576 125.049L471.986 123.138L481.573 140.243Z" fill="white"/>
<path d="M79.9951 114.757L77.9385 117.647L48.2959 117.032L68.2666 131.241L65.96 134.482L40.6289 116.458L42.835 113.357L72.0488 113.984L52.3584 99.9736L54.6641 96.7334L79.9951 114.757Z" fill="white"/>
<path d="M451.723 94.9346L436.901 117.896L463.108 109.991L466.415 114.364L441.618 133.116L439.142 129.841L459.188 114.681L433.708 122.655L431.464 119.688L445.928 97.5381L426.069 112.555L423.605 109.297L448.402 90.5449L451.723 94.9346Z" fill="white"/>
<path d="M423.643 74.2168C424.615 75.1299 425.581 76.0488 426.538 76.9775L421.659 81.8301L431.561 91.7842L429.091 94.2402L419.175 84.2715L411.827 91.5791L423.108 102.981L420.593 105.483L406.477 91.292L423.643 74.2168Z" fill="white"/>
<path d="M79.8242 70.707C81.6066 70.115 83.2892 70.0002 84.8711 70.3613C86.4527 70.7224 87.7971 71.4538 88.9043 72.5557L86.0234 75.4512C84.9268 74.5417 83.841 74.0474 82.7666 73.9688C81.682 73.8801 80.6434 74.0806 79.6514 74.5693C78.6493 75.048 77.7132 75.7242 76.8438 76.5977C75.2765 78.1723 74.4489 79.7253 74.3613 81.2559C74.2737 82.7662 74.7226 84.0114 75.708 84.9922C76.6122 85.8921 77.6116 86.3105 78.7061 86.2471C79.8004 86.1836 81.0514 85.7302 82.458 84.8857L87.999 81.6035C89.608 80.5964 91.0862 79.9946 92.4336 79.7988C93.7912 79.5929 95.0231 79.7074 96.1289 80.1406C97.2346 80.5536 98.235 81.205 99.1289 82.0947C100.348 83.308 101.096 84.7304 101.373 86.3613C101.65 87.9924 101.452 89.6956 100.777 91.4707C100.102 93.2256 98.941 94.9311 97.293 96.5869C96.2212 97.6638 95.0778 98.5582 93.8633 99.2705C92.6387 99.9727 91.3731 100.463 90.0664 100.739C88.7699 101.006 87.4826 101.018 86.2051 100.778C84.9275 100.518 83.7147 99.9483 82.5674 99.0693L85.5098 96.1133C86.5247 96.7594 87.5848 97.0962 88.6895 97.124C89.8043 97.1416 90.9032 96.8905 91.9863 96.3711C93.0797 95.8415 94.1068 95.094 95.0674 94.1289C95.9975 93.1944 96.7046 92.1896 97.1885 91.1143C97.6825 90.0287 97.8882 88.9691 97.8047 87.9355C97.711 86.8919 97.268 85.9752 96.4756 85.1865C95.602 84.3171 94.6178 83.9043 93.5234 83.9473C92.4188 83.9803 91.1116 84.4289 89.6035 85.2939L83.9111 88.668C82.6359 89.4413 81.3747 89.9966 80.1289 90.334C78.8833 90.651 77.6622 90.6585 76.4658 90.3574C75.2591 90.0461 74.0915 89.3293 72.9639 88.207C71.7143 86.9634 70.9703 85.5357 70.7334 83.9248C70.4864 82.304 70.6956 80.6516 71.3604 78.9678C72.0252 77.2635 73.1015 75.6643 74.5879 74.1709C76.3067 72.4439 78.052 71.2889 79.8242 70.707Z" fill="white"/>
<path d="M398.414 53.6172C400.75 52.4099 403.097 51.9309 405.454 52.1807C407.82 52.4192 410.078 53.3852 412.229 55.0781C413.457 56.0443 414.444 57.1664 415.188 58.4453C415.933 59.7242 416.429 61.0637 416.678 62.4629C416.935 63.851 416.939 65.2136 416.69 66.5498C416.453 67.8948 415.964 69.1064 415.225 70.1846L411.88 67.5518C412.431 66.5266 412.743 65.4126 412.813 64.21C412.884 63.0074 412.689 61.8418 412.228 60.7129C411.778 59.5927 411.034 58.6241 409.998 57.8086C408.59 56.7008 407.076 56.0754 405.457 55.9316C403.858 55.7855 402.192 56.1979 400.46 57.1699C398.74 58.1508 396.993 59.7679 395.221 62.0205C393.856 63.7551 392.866 65.3836 392.251 66.9062C391.636 68.4289 391.345 69.8318 391.375 71.1143C391.426 72.3942 391.739 73.561 392.313 74.6152C392.908 75.6669 393.712 76.592 394.726 77.3896C395.751 78.1963 396.783 78.7167 397.821 78.9502C398.871 79.1924 399.87 79.2316 400.82 79.0674C401.779 78.8918 402.651 78.5831 403.436 78.1426C404.24 77.6996 404.893 77.1832 405.395 76.5928L407.197 74.5098L401.25 69.8301L403.059 67.5322L412.236 74.7822L402.317 87.3857L399.969 85.5381L402.895 81.8213C401.917 82.1828 400.858 82.4161 399.717 82.5215C398.576 82.6269 397.381 82.4983 396.134 82.1367C394.898 81.784 393.632 81.0982 392.337 80.0791C390.197 78.395 388.734 76.4512 387.951 74.248C387.177 72.0336 387.104 69.6688 387.733 67.1543C388.362 64.6398 389.714 62.0644 391.788 59.4287C393.88 56.7705 396.089 54.8334 398.414 53.6172Z" fill="white"/>
<path d="M442.347 83.2686L439.847 85.7246L428.854 74.6738L428.665 74.8613C427.708 73.9324 426.743 73.0122 425.771 72.0986L428.519 69.3672L442.347 83.2686Z" fill="white"/>
<path d="M114.04 63.0518L103.057 71.8301L109.526 79.9258L122.082 69.9443L124.297 72.7158L108.662 85.2139L93.6074 66.3789C94.6084 65.497 95.6161 64.6228 96.6309 63.7568L100.898 69.0967L111.865 60.3311L114.04 63.0518Z" fill="white"/>
<path fill-rule="evenodd" clip-rule="evenodd" d="M388.298 38.6191L381.938 71.0615L378.453 68.9707L380.218 60.0996L369.287 53.5371L362.269 59.2539L358.804 57.1738L384.445 36.3066L388.298 38.6191ZM372.071 50.9453L381.159 56.4014L384.359 40.7939L372.071 50.9453Z" fill="white"/>
<path d="M126.821 35.5654C128.734 35.4372 130.531 35.7448 132.21 36.4883C133.889 37.2318 135.289 38.3272 136.41 39.7734L132.816 42.0137C131.977 41.101 131.022 40.3956 129.951 39.8975C128.881 39.3994 127.746 39.1777 126.548 39.2324C125.349 39.2872 124.129 39.7013 122.889 40.4746C121.295 41.4677 120.18 42.6859 119.543 44.1299C118.911 45.5542 118.794 47.2234 119.192 49.1367C119.603 51.0424 120.567 53.2118 122.083 55.6445C124.373 59.3179 126.682 61.6278 129.012 62.5742C131.346 63.5008 133.718 63.214 136.126 61.7129C137.367 60.9396 138.268 60.014 138.83 58.9375C139.392 57.8611 139.673 56.714 139.675 55.4971C139.676 54.2802 139.456 53.1 139.014 51.957L142.608 49.7168C143.172 50.9192 143.543 52.1915 143.721 53.5332C143.903 54.8552 143.84 56.178 143.533 57.501C143.226 58.8239 142.625 60.0942 141.729 61.3115C140.844 62.5213 139.617 63.6147 138.048 64.5928C135.676 66.0712 133.313 66.7932 130.96 66.7568C128.619 66.7129 126.371 65.9515 124.217 64.4736C122.075 62.9882 120.11 60.81 118.32 57.9395C116.539 55.081 115.46 52.3752 115.085 49.8223C114.71 47.2693 115.03 44.95 116.044 42.8652C117.063 40.7608 118.764 38.9654 121.148 37.4795C123.01 36.3195 124.901 35.6816 126.821 35.5654Z" fill="white"/>
<path d="M106.738 51.4375L94.5625 61.1699L94.7559 61.4121C93.7409 62.2775 92.7328 63.1511 91.7314 64.0322L89.251 60.9287L104.567 48.6865L106.738 51.4375Z" fill="white"/>
<path d="M349.136 18.7754L354.516 47.4961L364.188 25.3506L367.833 26.9424L355.389 55.4326L352.138 54.0117L346.66 24.873L336.849 47.334L333.204 45.7422L345.648 17.252L349.136 18.7754Z" fill="white"/>
<path d="M167.882 36.8662C168.885 39.0394 169.376 41.0459 169.357 42.8857C169.338 44.7256 168.751 46.3942 167.595 47.8906C166.445 49.3681 164.66 50.6662 162.239 51.7832C159.793 52.9122 157.622 53.4246 155.727 53.3203C153.845 53.2101 152.192 52.5361 150.769 51.2988C149.358 50.0554 148.127 48.2941 147.076 46.0166L138.726 27.9199L142.474 26.1904L151.077 44.834C152.128 47.1114 153.481 48.5553 155.136 49.165C156.79 49.7746 158.672 49.5929 160.78 48.6201C162.199 47.9656 163.288 47.1627 164.049 46.2119C164.823 45.255 165.239 44.1553 165.297 42.9131C165.362 41.6517 165.041 40.2525 164.332 38.7168L155.729 20.0742L159.36 18.3984L167.882 36.8662Z" fill="white"/>
<path d="M179.454 11.585C181.584 10.9062 183.471 10.6667 185.114 10.8652C186.753 11.0502 188.121 11.6368 189.219 12.626C190.312 13.6015 191.126 14.9296 191.661 16.6094C192.175 18.2208 192.314 19.6505 192.08 20.8984C191.86 22.1421 191.416 23.231 190.751 24.165C190.081 25.0853 189.332 25.873 188.503 26.5283L198.603 38.1133L194.588 39.3926L185.113 28.3535L177.145 30.8926L181.211 43.6543L177.421 44.8623L169.985 21.5264C171.226 21.0559 172.471 20.5954 173.719 20.1445L176.146 27.7578L182.599 25.7021C184.825 24.9929 186.402 23.9937 187.33 22.7051C188.254 21.4029 188.431 19.8573 187.861 18.0684C187.304 16.3204 186.342 15.19 184.976 14.6777C183.618 14.1475 181.997 14.1827 180.112 14.7832L172.758 17.126L172.808 17.2842C171.559 17.7345 170.314 18.1944 169.073 18.6641L167.982 15.2402L179.454 11.585Z" fill="white"/>
<path fill-rule="evenodd" clip-rule="evenodd" d="M327.464 11.1914L329.711 44.1748L325.805 43.0557L325.215 34.0303L312.958 30.5186L307.657 37.8564L303.771 36.7432L323.145 9.9541L327.464 11.1914ZM314.978 27.2949L325.167 30.2148L324.222 14.3105L314.978 27.2949Z" fill="white"/>
<path d="M207.173 36.0869L203.296 36.9756L196.349 6.67285L200.226 5.78418L207.173 36.0869Z" fill="white"/>
<path d="M280.042 1.90527L285.894 28.6006L298.749 4.43359L304.182 5.16797L300.019 35.9766L295.949 35.4268L299.315 10.5195L287.021 34.2207L283.336 33.7217L277.807 7.85156L274.473 32.5244L270.424 31.9775L274.588 1.16797L280.042 1.90527Z" fill="white"/>
<path d="M224.065 33.4697L220.107 34.043L216.62 9.96289C217.937 9.76068 219.256 9.56665 220.576 9.38574L224.065 33.4697Z" fill="white"/>
<path d="M248.95 18.2295L249.42 31.4434L245.466 31.584L244.996 18.3486L233.77 0.890625L238.11 0.736328L246.868 14.7324L254.482 0.155273L258.845 0L248.95 18.2295Z" fill="white"/>
<path d="M229.517 4.95898L220.133 6.31836L220.146 6.41602C218.826 6.59713 217.508 6.79198 216.19 6.99414L216.176 6.8916L206.238 8.33105L205.715 4.71387L228.993 1.3418L229.517 4.95898Z" fill="white"/>
<path d="M403.678 427.594L398.678 421.594C418.229 405.778 427.956 396.018 442.678 376.594L449.178 381.094C434.529 400.204 424.278 410.294 403.678 427.594Z" fill="white"/>
<path d="M105.628 430.344L110.678 424.344C90.9331 408.528 81.1093 398.768 66.2421 379.344L59.6777 383.844C74.4718 402.954 84.8245 413.044 105.628 430.344Z" fill="white"/>
<path d="M418.678 444.094L413.678 438.094C433.229 422.278 445.456 409.518 460.178 390.094L466.678 394.594C452.029 413.704 439.278 426.794 418.678 444.094Z" fill="white"/>
<path d="M90.6777 447.344L95.6777 441.344C76.1266 425.528 63.8992 412.768 49.1777 393.344L42.6777 397.844C57.3268 416.954 70.0779 430.044 90.6777 447.344Z" fill="white"/>
</svg>
