<svg width="81" height="81" viewBox="0 0 81 81" fill="none" xmlns="http://www.w3.org/2000/svg">
<g clipPath="url(#clip0_1234_18130)">
<path d="M40.3 80.5C62.3913 80.5 80.3 62.5914 80.3 40.5C80.3 18.4086 62.3913 0.5 40.3 0.5C18.2086 0.5 0.299957 18.4086 0.299957 40.5C0.299957 62.5914 18.2086 80.5 40.3 80.5Z" fill="#988430"/>
<path d="M40.3 79.2187C61.6837 79.2187 79.0187 61.8837 79.0187 40.5C79.0187 19.1162 61.6837 1.78125 40.3 1.78125C18.9162 1.78125 1.58124 19.1162 1.58124 40.5C1.58124 61.8837 18.9162 79.2187 40.3 79.2187Z" fill="#7A6A2A"/>
<path d="M40.3 78.403C61.2332 78.403 78.2029 61.4333 78.2029 40.5001C78.2029 19.5669 61.2332 2.59717 40.3 2.59717C19.3668 2.59717 2.39703 19.5669 2.39703 40.5001C2.39703 61.4333 19.3668 78.403 40.3 78.403Z" fill="#BA9F33"/>
<path fill-rule="evenodd" clip-rule="evenodd" d="M17.7886 36.2283C17.562 36.0214 17.3227 35.814 17.1025 35.6071C16.8823 35.4002 16.6562 35.1928 16.4297 34.9859L15.7564 34.3459C15.6463 34.2358 15.5298 34.1389 15.4197 34.0284C15.3097 33.9316 15.1804 33.8215 15.0703 33.7242C14.1769 32.8764 13.2783 32.0286 12.3972 31.1804C13.3099 32.0154 14.2033 32.8444 15.1159 33.6918L15.433 34.0092C15.543 34.1189 15.6595 34.2162 15.7696 34.3262L16.4425 34.9475C16.669 35.1544 16.8892 35.3618 17.1157 35.5875C17.3423 35.8132 17.5625 36.021 17.789 36.2275L17.7886 36.2283ZM5.93109 36.1003C5.93109 36.1003 9.18016 36.4365 10.7661 36.6631C12.2351 36.8704 16.8307 37.5757 16.8307 37.5757L5.93109 36.1003ZM5.93109 36.1003C6.84373 36.178 7.75637 36.2748 8.66901 36.3721C9.13493 36.4173 9.58165 36.469 10.0284 36.5142L10.714 36.5923C10.9406 36.6243 11.1607 36.6567 11.3873 36.6891L14.106 37.1226L15.465 37.3492C15.9117 37.4268 16.3584 37.5113 16.8243 37.589C16.3776 37.5437 15.9117 37.4789 15.465 37.414L14.106 37.2199L11.3873 36.8188C11.1607 36.7864 10.9406 36.7407 10.714 36.7087L10.0279 36.6298C9.58122 36.5846 9.1153 36.5197 8.66858 36.4677C7.75594 36.358 6.8433 36.2411 5.93066 36.099L5.93109 36.1003ZM16.5073 38.4222C16.5073 38.4222 13.0381 39.3029 11.8665 39.6395C10.7145 39.9565 7.2256 41.0181 7.2256 41.0181L16.5069 38.4227L16.5073 38.4222Z" fill="#CFB66C"/>
<path fill-rule="evenodd" clip-rule="evenodd" d="M16.5069 38.4221C15.7368 38.6487 14.9709 38.8688 14.1897 39.0762L11.8724 39.6974C11.1023 39.924 10.3364 40.1441 9.56845 40.3707L8.41645 40.6877C8.03458 40.7978 7.64631 40.8947 7.25165 41.0052C7.63309 40.8772 8.02178 40.7462 8.40365 40.6361L9.55565 40.2675C10.3258 40.0277 11.0916 39.8011 11.8596 39.5617C12.6426 39.3676 13.4131 39.1603 14.1961 38.9725C14.9402 38.7848 15.7235 38.5975 16.5069 38.4225V38.4221ZM7.71117 43.1539C8.09261 43.0113 12.4941 40.9599 13.5168 40.4808C14.0288 40.241 15.517 39.7128 15.517 39.7128L7.71117 43.1539Z" fill="#CFB66C"/>
<path fill-rule="evenodd" clip-rule="evenodd" d="M7.71115 43.1539C8.04736 43.0259 8.3648 42.8693 8.68822 42.7204L9.64608 42.2737L11.5686 41.3482C12.2086 41.044 12.8307 40.7082 13.4908 40.4224C13.8274 40.2803 14.1641 40.1638 14.5003 40.0537L15.0123 39.892C15.1868 39.8468 15.3489 39.7947 15.5243 39.7495C14.8843 40.0537 14.2106 40.3127 13.5697 40.6101C12.9297 40.9275 12.2752 41.1865 11.6147 41.4711L9.66016 42.3317C9.00395 42.5975 8.36395 42.8821 7.71072 43.1539H7.71115ZM8.13782 44.9459C8.13782 44.9459 12.1246 42.6095 13.4967 41.8585C14.2153 41.4575 16.5389 40.305 16.5389 40.305L8.13782 44.9459Z" fill="#CFB66C"/>
<path fill-rule="evenodd" clip-rule="evenodd" d="M8.13824 44.9466C8.8111 44.5323 9.49718 44.1116 10.1833 43.6845L11.2073 43.0629C11.5567 42.856 11.8933 42.6618 12.2496 42.4549C12.599 42.2475 12.9357 42.0406 13.2915 41.8465C13.4609 41.7419 13.6384 41.651 13.8223 41.5747L14.3659 41.3029C15.0844 40.9534 15.8029 40.5972 16.5602 40.293C15.8741 40.7269 15.1684 41.096 14.4632 41.4774C14.1137 41.6715 13.7574 41.8465 13.408 42.0406C13.0586 42.2347 12.7219 42.4421 12.3657 42.6298C12.0162 42.8368 11.6796 43.0309 11.3237 43.2186L10.2686 43.7946L8.1391 44.9466H8.13824ZM16.5069 40.8169C16.5069 40.8169 14.028 42.7198 13.2254 43.3283C12.4228 43.9367 10.0604 45.6455 10.0604 45.6455L16.5069 40.8169Z" fill="#CFB66C"/>
<path fill-rule="evenodd" clip-rule="evenodd" d="M30.7337 56.1633L29.4652 53.7621L30.2029 50.7587L35.465 48.7265L33.2254 44.1313L34.3322 39.4905L36.4101 35.3347L42.831 34.3253L47.5491 29.8269L57.737 30.597L59.7368 41.4903L55.8857 55.2055L53.6918 62.3061L44.7983 62.6427L40.6691 59.7819L35.8341 57.7621L30.7337 56.1633Z" fill="#E2CC85"/>
<path fill-rule="evenodd" clip-rule="evenodd" d="M46.3326 56.0856C46.3326 56.0856 45.1025 56.6488 43.0046 56.5191C42.3975 55.7038 38.1453 55.3219 38.1453 55.3219C38.1453 55.3219 37.6145 55.1602 36.6759 55.5485C35.7312 55.9325 34.8378 55.8851 34.0028 56.092C33.1678 56.299 32.3388 55.2118 31.6988 54.9853C31.0588 54.7459 30.2102 54.1699 30.2102 54.1699L28.4182 53.995L24.8196 52.4739L19.1027 46.7783L17.5492 49.2103L17.0701 52.22L18.7985 55.7865L23.4522 60.0259L32.5265 62.3299L37.9051 60.7453L44.643 57.8973L46.3326 56.0852V56.0856Z" fill="#F1D789"/>
<path fill-rule="evenodd" clip-rule="evenodd" d="M14.0928 35.9565L15.2448 32.4681L16.6174 30.2153L21.0377 29.8462L19.7107 33.7169L16.0154 40.2931L17.5493 46.1636L14.831 47.5226L13.9955 46.2413L13.3227 43.3028L13.2775 40.0017L14.0928 35.9565Z" fill="#F4ECB4"/>
<path fill-rule="evenodd" clip-rule="evenodd" d="M19.0507 55.8463L18.2029 54.6619C18.2029 54.6619 17.9763 54.0987 18.106 53.6067C18.234 53.1084 18.2157 53.076 18.1513 52.8882C18.0868 52.7005 17.5428 52.0532 17.5753 51.4964C17.6073 50.9332 17.53 50.7455 17.9439 50.2992C18.3774 49.8657 18.2481 49.1148 18.2481 49.1148L18.8113 49.4642L18.9393 49.2701C18.9393 49.2701 19.1463 49.4318 19.1463 49.6844C19.1915 49.335 19.0037 47.7166 19.4308 47.348C19.8579 46.9793 20.6153 49.076 20.6153 49.076L20.1493 46.0338L18.9517 42.9145L16.8222 40.0665L16.6942 36.9271V36.6553C16.6942 36.6553 15.7167 38.1571 15.4449 39.3433C15.2508 40.1586 15.7167 41.1489 15.6199 42.3206C15.5418 43.4858 15.4449 43.3949 15.7295 43.8566C16.0141 44.3182 16.707 45.2675 16.4352 45.9536C16.1959 46.5428 15.3801 46.1286 15.3801 46.1286C15.3801 46.1286 15.2184 46.6073 14.9982 46.7822C14.9205 46.4976 14.8365 46.3163 14.6812 46.1422C14.668 46.2523 14.636 46.4012 14.636 46.4012C14.636 46.4012 14.4935 45.9545 14.3509 45.3913C14.1572 44.6408 13.9499 43.6505 13.7621 43.1197C13.6845 43.4239 13.4904 44.3494 13.4904 44.3494L13.6004 45.7736L14.1312 47.7281L14.6432 49.0081L15.1416 50.5744L15.5746 51.6266L15.9241 52.4291L16.2283 54.2352L17.6973 55.7883L18.4806 56.1382L19.0498 55.8467L19.0507 55.8463Z" fill="#F3E19D"/>
<path fill-rule="evenodd" clip-rule="evenodd" d="M14.8629 33.1084C14.8629 33.1084 13.8078 34.9004 13.504 36.707C13.2002 38.5135 12.928 40.4224 13.12 42.8817C13.3141 45.361 13.6832 46.8817 13.981 47.9693C14.493 49.7753 15.8191 52.2867 15.8191 52.2867L15.8643 52.1894C15.6414 51.7669 15.4635 51.3222 15.3336 50.8625C15.1586 50.1764 15.0938 49.361 14.9321 48.992C14.7896 48.6233 14.5502 48.3059 14.4337 47.8528C14.3236 47.4193 14.3057 46.7332 13.9678 46.222C13.8253 46.0147 13.6504 45.4711 13.5987 44.9275C13.5339 44.1118 13.6312 43.1991 13.5535 42.4486C13.411 41.1993 13.3141 40.3515 13.4434 39.6975C13.5727 39.0434 14.2464 37.1865 14.6607 35.7107C14.9325 34.7656 14.7704 33.9695 15.2687 33.1473C15.7671 32.3319 16.0717 31.6134 16.1813 31.1151C16.3093 30.6619 14.8612 33.1084 14.8612 33.1084H14.8629Z" fill="#F2E8B0"/>
<path fill-rule="evenodd" clip-rule="evenodd" d="M19.8665 32.3899C19.8665 32.3899 19.3229 32.552 19.0639 32.8366C18.8049 33.1084 18.6948 33.335 18.3454 33.7945C17.9959 34.254 17.9763 34.6295 17.6913 35.2055C17.4067 35.7687 16.7787 36.6165 16.701 36.9207C16.6234 37.2249 16.4941 38.6487 16.3324 39.3219C16.1899 39.9952 16.4941 40.8238 16.4941 40.8238L16.8627 40.7457C16.8627 40.7457 16.8627 41.2249 17.2318 41.5487C17.6004 41.8657 17.6653 40.4739 17.6653 40.4739L19.0438 35.8203L21.1213 34.4093L21.3478 33.2701L19.8656 32.3899H19.8665Z" fill="#F5EEC0"/>
<path fill-rule="evenodd" clip-rule="evenodd" d="M20.876 34.5003C20.876 34.5003 19.8985 34.5647 19.4198 34.9146C19.2256 35.0567 19.148 35.1731 18.941 35.3481C18.5592 35.6651 18.1705 35.9565 17.9832 36.3721C17.7758 36.7859 17.5493 37.414 17.3939 38.5984C17.3291 39.0968 17.3291 39.5563 17.2839 39.9578C17.219 40.5013 17.1222 40.9348 17.1738 41.2378C17.2386 41.859 17.8795 42.1828 17.9418 42.8881L19.2687 42.2153L20.518 37.2894L23.1719 35.6254L21.67 33.9426L20.8743 34.4973L20.876 34.5003Z" fill="#E6DB9D"/>
<path fill-rule="evenodd" clip-rule="evenodd" d="M13.8756 67.6697C13.8812 67.6211 13.8867 67.5724 13.8923 67.5225C14.086 65.8585 14.1188 64.5973 14.2609 63.8075C14.4679 62.688 14.6104 62.2715 14.5779 61.8525C14.5327 61.1797 14.4811 60.6877 14.5459 60.1698C14.6428 59.4837 15.3161 58.6683 15.2969 58.1051C15.2836 57.6584 15.0571 57.3674 14.8629 57.0956C14.6688 56.8238 14.5135 56.5973 14.5135 56.5973C14.5135 56.5973 15.8404 55.6846 15.8276 52.0081C15.8547 52.0157 15.8808 52.0266 15.9053 52.0405L16.5589 53.8978L17.0057 54.4413L18.7209 57.6388L20.928 59.7815L24.1899 61.9754L26.2353 64.2013L26.4423 70.1367L23.7692 73.6059L23.3314 74.3987C19.8535 72.6527 16.6643 70.3831 13.8752 67.6693L13.8756 67.6697Z" fill="#E5CB7A"/>
<path fill-rule="evenodd" clip-rule="evenodd" d="M22.0412 73.3478C22.0412 73.3478 22.0864 72.6101 22.6949 72.131C22.7921 72.2927 22.8566 72.4484 22.8374 72.5644C22.9474 72.3707 23.7176 71.1279 25.4588 70.804C27.2 70.487 27.6207 69.2185 27.6207 69.2185L31.3161 65.8594L35.5426 61.9695L40.6818 60.1634L43.0835 59.5742C43.0835 59.5742 43.1288 59.7491 43.0383 60.1374C43.4846 60.1054 44.4749 59.8788 45.504 59.5161C45.9183 59.3544 46.307 59.2896 46.5139 59.5033C46.8182 59.7879 46.8634 60.4612 46.8826 60.8623C47.3809 60.7522 47.9569 60.2735 48.4186 60.3187C49.1567 60.3963 49.8104 61.2638 50.5613 61.2638C51.5516 61.2638 51.9979 60.6553 52.6908 60.1762C53.1051 59.8916 53.7003 59.5362 54.0369 59.296C54.8395 58.7067 63.3314 56.1113 63.3314 56.1113L66.3087 56.3055L66.7879 59.5029L66.5319 67.8613C66.5003 67.8916 66.4687 67.9232 66.4367 67.9535L52.8994 75.0238L34.1346 77.9003C29.9312 77.2136 25.8749 75.8183 22.1385 73.774L22.0425 73.3474L22.0412 73.3478Z" fill="#D8C173"/>
<path fill-rule="evenodd" clip-rule="evenodd" d="M15.0135 68.7331C15.2802 68.1754 15.52 67.7091 15.5622 67.5422C15.5955 67.8784 15.6565 68.6162 15.7794 69.4004C15.5214 69.1811 15.2661 68.9585 15.0135 68.7326V68.7331Z" fill="#F1D789"/>
<path fill-rule="evenodd" clip-rule="evenodd" d="M28.7211 76.5991L31.1479 75.9241L31.3549 75.9889C31.3549 75.9889 31.465 76.0538 31.465 76.2735C31.7692 76.099 32.0282 76.131 32.2159 76.015C32.3127 76.2219 32.4096 76.908 32.8371 76.992C33.2834 77.0893 33.7626 76.7979 34.2481 76.4292C34.7268 76.0474 35.2721 75.5682 35.6847 75.3741C35.8361 75.6524 35.9702 75.9398 36.0862 76.2347C36.6298 75.8012 37.5748 74.0408 38.921 74.0728C39.31 73.1533 39.96 72.368 40.7906 71.814C42.0399 70.9662 42.8228 70.9013 43.8003 70.979C44.1886 70.4747 44.667 70.0468 45.2113 69.7169C45.373 69.7818 45.8197 70.0536 46.3765 69.7946C46.9397 69.536 47.5738 68.5325 48.4087 68.4032C48.8587 68.3413 49.3162 68.4374 49.7033 68.675C49.7033 68.675 52.1353 66.2605 53.8133 65.4579C53.7485 65.2638 53.6192 64.5325 55.5866 62.9141C55.6966 63.0114 55.619 63.2832 55.6966 63.2981C55.7286 63.2981 56.2086 63.0912 56.8162 62.6249C57.5671 62.0621 58.4666 61.4729 59.0101 61.3112C60.0341 61.007 61.1204 61.6282 61.1204 61.6282C61.2128 61.5634 61.3157 61.5152 61.4246 61.4857C61.6832 61.4404 61.8709 61.408 62.0134 61.3577C62.0006 61.6943 62.1884 62.2703 62.0134 62.7687C62.2161 62.8826 62.4307 62.9738 62.6534 63.0404C62.5438 63.2798 62.304 63.8882 61.9029 64.1796C62.2391 64.3413 62.2844 64.5291 62.7635 64.6916C62.5694 64.9634 62.2515 65.4298 62.1099 65.7156C61.9674 66.0199 61.4558 67.2819 61.2292 67.7607C60.9899 68.2398 60.6665 69.12 60.5107 69.2967C60.355 69.4733 59.7922 70.2221 59.3587 70.5907C59.7427 70.4482 61.3137 69.9695 61.9802 69.7882C61.7818 70.0792 60.7761 71.5712 59.8093 73.0061C55.1802 75.7807 50.0128 77.5368 44.6517 78.1575C39.2905 78.7781 33.8587 78.249 28.7181 76.6055L28.7211 76.5991Z" fill="#E0CD81"/>
<path fill-rule="evenodd" clip-rule="evenodd" d="M21.0359 34.3253C21.0359 34.3253 20.4732 34.3252 20.3631 34.4029C20.253 34.4806 20.9263 34.6427 21.1332 34.7203C21.3402 34.798 21.7869 35.1538 21.9034 35.4388C22.0134 35.7106 25.9486 37.2961 25.9486 37.2961L28.7317 37.1536L29.6913 35.828L27.866 34.2293L29.146 30.4558L27.4505 30.7276L23.3728 33.1596L21.3274 33.943L21.0359 34.3253Z" fill="#DFC57C"/>
<path fill-rule="evenodd" clip-rule="evenodd" d="M27.148 35.5745C27.1882 35.6397 27.2449 35.6931 27.3123 35.7294C27.3797 35.7657 27.4554 35.7837 27.532 35.7815C28.108 35.7815 28.6383 35.924 28.8585 36.2149C29.2275 36.6813 30.2503 38.1699 30.2503 38.1699L32.6968 39.0501L32.8546 36.1693L30.1816 34.312L27.1394 35.4316V35.5741H27.1463L27.148 35.5745Z" fill="#E5CC7C"/>
<path fill-rule="evenodd" clip-rule="evenodd" d="M26.668 36.6424C26.668 36.6424 27.1142 36.6748 27.6774 36.4675C28.2406 36.2601 29.1661 35.8138 29.5676 35.9888C30.1304 36.2281 30.0139 36.9791 30.6227 37.6528C30.9914 38.0671 31.6646 38.0543 32.0465 38.501C32.4284 38.9477 33.7421 38.7403 33.7421 38.7403L34.2404 41.4283L32.2406 43.9917L31.5866 47.176H28.8824L26.412 46.1959L25.1951 43.2519L25.8035 40.2746L26.668 36.6424Z" fill="#D2C281"/>
<path fill-rule="evenodd" clip-rule="evenodd" d="M31.8989 36.7718C31.966 36.7925 32.0356 36.8034 32.1058 36.8042C32.0282 36.8691 31.866 37.0112 31.9309 37.3802C31.9957 37.7493 32.2027 38.2152 32.0282 38.4998C32.1675 38.6521 32.2714 38.8334 32.3324 39.0306C32.4425 39.348 32.4749 39.639 33.193 39.6847C33.0893 39.7485 32.9938 39.8245 32.9084 39.9112C32.9084 39.9112 33.4067 40.3447 33.6593 40.7458C33.9179 40.7347 34.604 40.5214 34.604 40.5214L34.7465 40.6186L35.0507 40.4906C35.0507 40.4906 34.7661 40.3806 34.973 39.6881C35.1672 39.0797 35.3421 39.1121 35.357 39.0669C35.372 39.0216 35.4995 38.3808 35.4995 38.1218C35.5964 37.7856 35.674 36.7629 35.674 36.7629L35.4671 34.5041L34.3023 33.7984L33.3551 32.884L32.4617 34.5668L31.8733 35.1535L31.8281 36.6097L31.8989 36.7718Z" fill="#E2C270"/>
<path fill-rule="evenodd" clip-rule="evenodd" d="M34.7012 34.882C34.7012 34.882 34.9082 35.4708 34.9862 35.924C35.0138 35.8359 35.029 35.7444 35.0315 35.6522C35.0315 35.6522 35.1932 36.5456 35.2252 36.9147C35.29 36.9015 35.3532 36.8823 35.3677 36.9467C35.3822 37.0111 35.5298 37.73 35.4957 38.1311C35.7652 37.6864 36.1382 37.3135 36.5828 37.044C36.8418 36.8818 37.146 36.7073 37.4635 36.6941C37.9618 36.6813 38.3241 37.0115 38.9197 37.0115C40.3563 37.0115 41.6576 35.9564 42.6155 35.633C43.3208 35.3932 43.9292 35.2187 44.3563 34.83C44.5636 34.6555 44.9327 34.2672 45.2689 33.6908C45.7156 32.9228 46.1816 32.2542 46.6479 32.1701C46.4369 32.2089 46.2222 32.2241 46.0079 32.2154C46.0079 32.2154 46.1504 32.0729 46.3919 31.8787C46.6334 31.6846 46.9227 31.4452 47.3365 31.4452C48.0747 31.4452 48.4433 31.5549 48.8576 31.5549C49.2719 31.5421 49.5113 31.4452 49.5113 31.4452C49.5113 31.4452 49.9452 31.7495 50.9222 31.7495C51.8997 31.7623 52.5534 31.8463 53.065 31.892C53.5765 31.9376 55.2913 31.7495 55.7833 31.764C56.104 31.7763 56.4189 31.8534 56.7091 31.9905L55.1232 27.3825L49.4264 22.4033L46.0348 24.8046L40.8175 30.0215L35.7692 31.892L34.714 33.0764V34.882H34.7012Z" fill="#CCB360"/>
<path fill-rule="evenodd" clip-rule="evenodd" d="M46.0284 32.2409C46.0284 32.2409 46.1709 32.0989 46.4098 31.9047C46.6488 31.7106 46.941 31.4708 47.3549 31.4708C48.0926 31.4708 48.4617 31.5809 48.876 31.5809C49.2903 31.5681 49.5296 31.4708 49.5296 31.4708C49.5296 31.4708 49.964 31.7746 50.9406 31.7746C51.9181 31.7874 52.5718 31.8715 53.0833 31.9167C53.5949 31.9619 55.3097 31.7746 55.8016 31.7887C56.1223 31.8008 56.4371 31.8778 56.7271 32.0152L56.0086 29.9374L55.174 28.3519L52.7919 25.7432C52.7919 25.7432 49.9333 24.0605 49.9115 24.0477C49.8987 24.0349 48.9212 23.7759 48.9212 23.7759L46.3322 25.3422L43.983 31.42L43.9377 32.7L45.4584 33.4185C45.8403 32.7785 46.2614 32.2665 46.656 32.2017C46.2998 32.2405 46.028 32.2405 46.028 32.2405L46.0284 32.2409Z" fill="#D5B457"/>
<path fill-rule="evenodd" clip-rule="evenodd" d="M45.996 32.675C45.7694 32.6878 45.5821 32.6426 45.5301 32.4809C45.3359 31.9373 45.1806 31.8596 45.0181 31.8596C44.8555 31.8596 44.6362 32.2091 44.5061 32.2411C44.3759 32.2731 44.2215 31.84 44.2215 31.84L44.079 31.7751C44.079 31.7751 43.244 32.3187 42.6552 32.9596C42.0664 33.6004 41.1017 34.688 40.6682 34.8817C40.2347 35.0754 38.7456 35.1407 38.2362 35.2508C37.7267 35.3609 37.1618 35.7299 37.0842 35.814C37.0065 35.898 37.3112 35.9885 37.3564 36.0725C37.4016 36.1502 36.8576 36.1178 36.8124 36.2005C36.7804 36.2654 36.9404 36.634 37.0198 36.8218C37.1586 36.7527 37.311 36.7151 37.4661 36.7117C37.9644 36.6989 38.3271 37.0291 38.9223 37.0291C40.3593 37.0291 41.6602 35.974 42.6181 35.6501C43.3238 35.4108 43.9322 35.2358 44.3593 34.8476C44.5662 34.6731 44.9353 34.2844 45.2719 33.7084C45.5177 33.3137 45.7575 32.9446 45.9973 32.6729L45.996 32.675Z" fill="#D2B257"/>
<path fill-rule="evenodd" clip-rule="evenodd" d="M25.388 64.7074C25.388 64.7074 25.26 64.2283 24.0738 62.9922C23.7372 62.6428 23.5303 62.3522 23.3037 62.1444C22.7405 61.6132 22.4103 61.4711 22.0092 61.1669C21.129 60.5133 20.1711 60.5133 19.4334 59.7107C18.6957 58.9082 17.836 57.3747 17.2386 55.8076C16.6498 54.2413 16.4877 53.7429 16.4877 53.6977C16.4877 53.6525 16.6498 53.3483 16.8568 53.3935C17.0637 53.4387 17.0637 53.8398 17.1158 53.9371C17.2189 54.0958 17.3358 54.2452 17.4652 54.3834C17.7694 54.7332 18.2029 55.1514 18.4231 55.7751C18.3778 55.2444 18.1965 54.6556 18.1965 54.6556C18.1965 54.6556 19.3357 55.3741 20.3064 56.1246C21.2839 56.8755 21.6849 57.1345 21.9704 57.6132C22.2558 58.0919 22.9282 59.3545 23.2504 59.7235C23.5725 60.0926 27.9864 61.4839 27.9864 61.4839L30.086 63.0494L31.1283 65.3342L30.3126 66.6142L28.7463 66.9508L26.2025 65.8116L25.388 64.707V64.7074Z" fill="#D2B159"/>
<path fill-rule="evenodd" clip-rule="evenodd" d="M19.7368 56.8368C19.7368 56.8368 20.2675 57.6845 21.562 58.4871C22.7273 59.1928 24.5717 59.8337 26.2161 60.2155C27.1608 60.4421 28.1058 60.6166 28.9536 60.6298C31.2384 60.6618 32.8111 60.0086 34.7597 59.7948C35.8148 59.6848 37.1093 59.6007 38.4555 59.2828C40.1835 58.8685 41.2062 58.4022 42.598 57.7468C43.6075 57.2809 44.5333 56.9315 45.2838 56.4848C46.339 55.8635 47.1091 55.171 48.0026 54.9641C47.8925 55.2683 47.776 55.8119 46.8958 56.3751C47.3617 56.3619 48.0026 56.3299 48.0026 56.3299C48.0026 56.3299 47.3813 56.6985 46.2874 57.5271C45.6141 58.0391 44.7211 58.9057 43.8084 59.4817C43.2192 59.8507 42.5784 60.1217 42.1577 60.3427C41.1337 60.9059 40.7206 61.1905 40.0478 61.8787C40.2872 61.8659 40.3068 61.8787 40.3068 61.8787C40.3068 61.8787 39.4586 61.9888 38.8506 62.3122C38.7226 62.3122 38.5007 62.2669 38.1124 62.377C37.8082 62.4739 37.4067 62.6945 36.9929 62.8105C36.4036 62.9854 36.2099 62.9078 36.2099 62.9078L36.3068 63.1019C36.3068 63.1019 35.5388 63.0887 35.2828 63.1147C35.328 63.1275 35.3152 63.1472 35.3152 63.1472C35.2702 63.1547 35.2269 63.17 35.1872 63.1924C35.064 63.2722 34.9285 63.3312 34.7861 63.3669C34.7085 63.3797 34.6436 63.3797 34.5464 63.3993C34.5788 63.477 34.8314 63.9113 34.9478 64.1673C34.851 64.2322 33.3944 65.3325 33.3944 65.3325C33.4395 65.4036 33.4765 65.4796 33.5044 65.5591C33.5497 65.7012 33.5693 65.9085 33.6145 66.0054C33.7242 66.1995 33.789 66.232 33.789 66.232C33.789 66.232 33.6145 66.2644 33.3099 66.342C33.0513 66.4069 32.7339 66.5165 32.2859 66.5814C32.1484 66.5993 32.0101 66.6101 31.8716 66.6138C31.9364 66.7563 32.221 67.2999 31.6966 67.9275C31.1723 68.5552 31.0106 68.6465 30.8489 69.0475C30.7675 68.986 30.6808 68.9317 30.5899 68.8854C30.4154 68.8077 30.1756 68.6917 30.0915 68.536C30.0425 68.7434 29.9776 68.9469 29.8974 69.1444C29.7357 69.5779 29.4963 70.0054 29.4511 70.3288C29.2762 70.1347 28.9528 69.7528 28.506 69.8305C28.0593 69.9081 27.7035 70.5165 27.6258 70.6915C27.6258 70.5814 27.5482 70.4973 27.529 70.6266C27.5157 70.7691 27.27 72.2573 25.8978 73.4614C25.885 73.1572 25.885 72.4839 25.8526 72.2642C25.7246 72.3922 25.568 72.5812 24.6357 72.9827C23.7231 73.3837 23.8677 73.7852 23.8677 73.7852C23.8677 73.7852 23.7901 73.1452 24.282 72.4711C24.7804 71.7982 25.0846 71.4808 25.0846 71.4292C25.0766 71.3766 25.0541 71.3273 25.0197 71.2867C24.9549 71.2218 24.8256 71.1442 24.8256 71.0925C24.9033 71.0605 25.6734 70.6915 25.6282 69.9273C25.5829 69.2417 25.292 68.8854 25.0846 68.6332C25.0526 68.6008 25.3892 68.3614 25.3436 68.2838C25.3112 68.2386 24.8973 67.9339 24.8452 67.7718C24.8575 67.675 24.8792 67.5797 24.9101 67.4872C24.9553 67.3447 24.9877 67.2474 24.9749 67.1506C24.9425 66.9889 24.7676 66.5421 24.716 66.4969C24.7612 66.5097 25.0846 66.4969 25.0846 66.4969C25.0846 66.4969 24.826 66.0826 24.7804 65.8885C24.7347 65.6944 24.6379 65.1828 24.5862 65.0859C24.6963 65.0987 24.9681 65.1179 24.9681 65.0859C24.9813 64.9886 24.7288 64.8269 24.8401 64.7019C24.9178 64.7147 25.0667 64.7796 25.2088 64.9609C25.1311 64.7536 25.0018 64.3525 24.7296 64.1908C24.8576 64.1456 25.2928 64.0286 25.6747 64.2552C26.0565 64.4818 26.1867 64.7988 26.1867 64.7988C26.1867 64.7988 26.4132 64.9737 26.7631 65.2327C27.1642 65.5497 27.6753 66.0007 28.4911 66.3198C28.666 66.4171 29.1123 66.4171 29.4362 66.3523C29.5772 66.3187 29.7124 66.2642 29.8372 66.1906C29.8823 66.164 29.9301 66.1423 29.9797 66.1257C29.9102 65.9861 29.8302 65.8518 29.7404 65.7242C29.8505 65.7242 29.9797 65.7374 29.9797 65.7374C29.9797 65.7374 30.0574 65.5625 29.708 65.2254C29.7856 65.1478 29.8829 65.0974 29.8829 64.9665C29.7728 64.9537 29.5787 64.792 29.5334 64.7271C29.5979 64.6819 29.6952 64.533 29.8052 64.4877C29.708 64.4101 29.4686 64.0862 29.3585 64.0542C29.4637 64.0152 29.5654 63.9675 29.6627 63.9117C29.6627 63.9117 29.1192 63.7692 28.9442 63.6528C28.7693 63.5248 28.5107 63.3033 28.3554 63.2385C28.1933 63.1736 27.9087 63.1416 27.7922 63.0119C27.9019 63.0443 28.0768 63.0119 28.2065 63.0119C28.3034 63.0119 28.349 63.0247 28.381 63.0247C28.3682 62.9795 28.3682 62.8822 28.6208 62.8502C28.7423 62.8319 28.8602 62.7947 28.9702 62.7401C28.9702 62.7401 28.7305 62.7273 28.4582 62.4683C28.186 62.2093 27.9599 62.0024 27.8046 61.97C27.6429 61.9375 27.3387 62.0801 27.1509 62.0668C26.892 62.0348 26.7819 61.9051 26.7819 61.9051C26.7819 61.9051 25.9213 61.9828 24.012 60.818C22.3612 59.8081 21.6427 58.915 21.6427 58.915C21.4882 58.859 21.3389 58.7896 21.1964 58.7077C20.5752 58.3843 19.7141 57.711 19.7402 56.8304L19.7368 56.8368Z" fill="#C2A44D"/>
<path fill-rule="evenodd" clip-rule="evenodd" d="M43.549 17.9887C43.6988 18.0374 43.8318 18.1271 43.933 18.2477C44.2372 18.5972 44.4314 19.2572 43.7389 19.9629C44.0107 20.0598 44.1229 20.0909 44.3601 20.0598C44.1208 20.3448 43.5772 20.9532 43.5448 21.484C43.5123 21.9175 43.7841 22.0472 43.7841 22.0472C43.7841 22.0472 43.3698 22.5259 43.3506 23.3272C43.5463 23.1066 43.7604 22.903 43.9906 22.7188C44.4698 22.3369 45.1298 21.9034 45.5765 21.6316C45.5705 21.7455 45.5858 21.8596 45.6218 21.9678C45.6218 21.9678 46.4563 21.2817 47.1578 21.5864C47.4748 21.7289 47.3323 22.1752 47.3323 22.1752C47.3323 22.1752 47.7662 22.0135 48.0704 22.3177C48.3746 22.6219 48.8047 23.4065 49.0253 23.7108C49.1221 23.8533 49.3747 24.1251 49.6333 24.5457C49.9865 25.1347 50.2815 25.7568 50.5139 26.403C50.5267 26.0664 50.6108 25.5424 51.5691 25.8723C52.5269 26.2089 53.6141 26.9146 54.5267 28.3043C55.4394 29.6939 55.6655 31.2628 56.125 31.8601C56.5909 32.4361 57.0701 33.394 57.1025 33.7955C57.1349 34.1969 56.96 35.491 57.9179 38.9927C58.1897 37.9055 58.604 35.491 58.604 35.491L58.8305 33.3615L59.0895 26.7725L52.2091 21.0565L46.8305 17.1533L43.3289 17.49L43.5486 17.9883L43.549 17.9887Z" fill="#CAA13E"/>
<path fill-rule="evenodd" clip-rule="evenodd" d="M56.3324 27.7942C56.3324 27.7942 56.2351 27.1542 54.6172 26.0662C52.9988 24.9919 51.7367 24.9919 50.5719 24.0792C49.6785 23.3607 48.7467 21.71 48.1399 21.1664C47.5507 20.6292 47.4539 19.0757 47.4539 19.0757L49.4408 17.4117L52.3959 13.1404L54.8941 10.3896L56.0913 12.0536L57.7553 14.0082L58.6807 17.9306L59.0174 23.6718L56.3294 27.7947L56.3324 27.7942Z" fill="#B59544"/>
<path fill-rule="evenodd" clip-rule="evenodd" d="M58.3326 34.676C58.3816 33.8054 58.274 32.933 58.0151 32.1002C57.5885 30.7733 56.6562 28.4172 56.2231 27.5349C56.0482 26.5574 56.1779 26.4798 56.3657 26.3697C56.5534 26.2596 57.2591 25.8577 57.6457 24.4475C58.0322 23.0374 59.2316 22.9913 59.2316 22.9913L59.9693 22.4478L61.0893 25.2501L62.0664 27.7811L62.3706 29.7164L62.5971 31.3668L62.0664 34.8556L59.4453 37.2245L58.3322 34.676H58.3326Z" fill="#C89D3A"/>
<path fill-rule="evenodd" clip-rule="evenodd" d="M21.7566 73.562V73.4903C21.8111 73.4563 21.8591 73.413 21.8987 73.3623C21.9439 73.2975 21.9768 73.2198 22.0088 73.2006C22.0736 73.1682 22.3778 73.0726 22.5395 73.1034C22.7012 73.1341 23.1288 73.3103 23.3553 73.2975C23.8212 73.2847 24.3648 72.9284 25.2258 73.0906C26.5203 73.3299 26.8245 74.2101 27.5755 74.7085C28.0875 75.0583 28.6174 74.9026 28.695 74.9026H28.8696C28.902 74.9026 29.1413 74.6308 29.271 74.644C29.53 74.6568 29.5556 74.8706 29.7173 74.8834C30.0992 74.9286 30.8373 74.6893 31.2064 74.7866C31.3158 74.8208 31.4154 74.8811 31.4965 74.9621C31.5776 75.0432 31.6379 75.1426 31.6723 75.252C31.75 75.4914 31.6851 75.7956 31.4974 75.9706C31.0963 76.3392 30.7145 76.6891 30.6368 76.9946C30.7356 77.0699 30.8304 77.1502 30.921 77.2352C27.7185 76.4193 24.6373 75.1856 21.7566 73.5659V73.562Z" fill="#CEB052"/>
<path fill-rule="evenodd" clip-rule="evenodd" d="M56.2223 60.6297C56.2223 60.6297 57.2318 59.2836 57.5816 58.6167C57.9311 57.9293 56.4749 49.2253 56.4749 49.2253L59.4005 39.6398L59.3224 36.5201C59.3224 36.5201 59.465 33.6396 59.8016 32.3904C60.2031 33.1089 61.4524 33.9763 61.7242 34.4358C61.8522 33.5552 62.2869 31.6979 62.2225 29.7173C62.4619 30.0859 63.0379 33.7949 63.0379 33.7949L63.6139 36.2931L64.3648 38.9469L65.1998 41.7497L65.6981 43.6851L65.9827 44.151L66.2225 44.9664L66.4491 45.847L67.1027 47.9116L67.4867 49.6072L67.7909 52.6818C67.8571 52.9172 67.9047 53.1574 67.9334 53.4003C67.9462 53.7369 67.8882 53.931 67.8882 53.9895C67.8882 54.048 67.9983 54.7272 67.9531 55.2388C67.8882 55.7508 67.8882 56.1514 67.4867 56.5188C67.0852 56.8861 66.8331 59.0818 66.8331 59.0818L66.1146 58.603C66.1146 58.603 66.2571 57.949 65.9204 57.3538C65.5838 56.7586 64.9301 56.6353 64.5611 56.7325C64.1924 56.8102 63.4547 56.9262 63.2149 57.1336C62.9884 57.3405 62.432 57.9814 61.9204 58.2728C61.2804 58.6568 60.2376 58.6871 59.6813 58.8164C59.1181 58.9444 58.4968 59.3284 57.8428 59.7742C57.3299 60.1063 56.7885 60.3918 56.2248 60.6276L56.2223 60.6297Z" fill="#CCA847"/>
<path fill-rule="evenodd" clip-rule="evenodd" d="M56.2223 74.772C56.2223 74.772 56.265 74.7997 56.3473 74.8449C60.9457 72.6905 65.0659 69.6366 68.4646 65.8636C68.4275 64.5537 68.3793 63.211 68.3264 62.7135C68.2167 61.6584 68.2944 60.584 68.262 59.9628C68.2295 59.3416 67.8801 56.8106 67.7184 56.1569C67.5435 55.5033 67.2064 55.1794 67.1552 55.1794C67.11 55.1927 66.8378 56.4095 66.8378 56.7154C66.8378 57.0214 66.7729 57.7578 66.7729 57.9455C66.7277 57.9323 66.7085 57.8175 66.7085 57.7706C66.6436 57.9323 66.566 58.2173 66.5335 58.2497C66.5011 58.2822 66.5788 57.9779 66.5335 57.9131C66.4883 57.8482 66.4055 57.8807 66.4235 57.719C66.4311 57.6231 66.4462 57.5279 66.4687 57.4344C66.4687 57.4344 66.2746 57.719 66.1325 58.4439C65.99 59.1624 65.99 59.182 65.9383 59.2464C65.8931 59.3245 65.6341 59.5831 65.6209 59.6803C65.6081 59.8549 65.8607 60.0298 65.8799 60.1266C65.8927 60.2888 65.6533 61.0393 65.5757 61.4066C65.498 61.774 65.5304 62.4938 65.4477 62.8629C65.3828 63.1995 65.3197 63.3936 65.0982 63.5357C65.2599 63.5681 65.4152 63.6134 65.4152 63.6134C65.4152 63.6134 65.6418 64.5712 65.0658 65.387C64.8589 65.6716 64.8072 65.8013 64.5871 66.0603C64.1532 66.539 63.8165 67.0843 63.7841 67.4389C63.7617 67.3342 63.7466 67.2281 63.7389 67.1214C63.7389 67.1214 63.066 67.9048 62.781 68.3515C62.4124 68.9275 61.9008 68.8951 61.757 69.0376C61.6132 69.1801 61.5821 69.4386 61.629 69.646C61.501 69.678 61.2604 69.7237 61.0982 70.222C61.0206 70.4806 60.8264 70.734 60.5222 70.9081C60.218 71.0822 59.849 71.1346 59.6612 71.1799C59.8229 71.2251 59.8878 71.2251 59.9654 71.2767C59.8686 71.4384 59.4219 71.691 58.9235 72.0149C58.4252 72.3191 58.1854 72.7654 58.0625 73.0568C57.9345 73.3286 57.7455 73.5035 57.4413 73.5359C57.5693 73.6136 57.7587 73.7945 57.8556 73.8529C57.7131 73.8854 57.4716 73.8854 57.0402 74.2544C56.5871 74.6299 56.4318 74.74 56.2244 74.7724L56.2223 74.772Z" fill="#C39D3C"/>
<path fill-rule="evenodd" clip-rule="evenodd" d="M47.2162 77.7716C47.4641 77.5978 47.7325 77.4555 48.0154 77.3479C49.0249 76.9468 50.0928 76.8692 50.5135 76.7399C50.915 76.6119 51.232 76.4352 51.7304 76.3384C51.7172 76.4519 51.7061 76.5585 51.6941 76.6592C50.2249 77.1211 48.7288 77.4926 47.2141 77.7716H47.2162Z" fill="#D2BA6B"/>
<path fill-rule="evenodd" clip-rule="evenodd" d="M65.836 51.2187C65.836 51.2187 65.629 52.3383 65.26 53.044C64.8909 53.7497 64.492 54.7267 64.492 54.7267C64.4944 54.5066 64.5204 54.2873 64.5696 54.0727C64.1037 54.3444 62.9709 54.9985 62.6496 55.2895C62.3454 55.5613 61.8338 56.0405 61.7046 56.267C62.0088 55.374 62.3258 54.5714 62.3778 54.2024C61.9119 54.539 59.7368 56.3319 58.6044 57.5163L55.0767 60.3707C54.6696 60.5903 54.2504 60.7866 53.821 60.9586C53.213 61.2172 52.4945 61.4374 51.9638 61.6447C52.1063 61.2628 52.3324 60.9258 52.6498 60.6024C52.9865 60.2854 53.996 59.1914 54.1513 58.6824C54.2938 58.1516 54.3262 57.8346 54.1385 57.3879C53.9635 57.4331 53.5625 57.4527 53.2907 57.5304C53.0189 57.608 52.7275 57.899 52.7275 57.899C52.7275 57.899 52.9344 56.7146 53.3811 55.595C53.0445 55.6078 52.4685 55.7047 52.4685 55.7047C52.4685 55.7047 53.2711 54.3585 54.6445 53.4203C54.2239 53.5098 53.8123 53.6375 53.4149 53.8017C52.6123 54.1384 51.7321 54.6367 51.0784 54.9085C51.4471 54.3965 54.0361 50.7016 55.5768 47.2579C57.1128 43.8211 57.6866 42.9409 58.0233 41.0965C58.1978 40.1838 58.1513 38.8351 58.1978 37.6272C58.243 36.4296 58.3919 35.3552 58.2951 34.6367C58.6961 35.1351 60.198 36.5397 60.2496 39.6791C60.2949 42.8181 58.813 47.0578 57.2399 49.3422C57.6239 49.4523 58.6189 49.582 59.6412 47.8062C60.6635 46.0304 60.6511 45.5346 61.0202 44.7965C61.0654 45.1656 61.0522 45.2949 61.0522 45.2949C61.0522 45.2949 62.5413 43.4892 63.2465 41.2172C63.389 42.1947 63.8097 43.0557 63.1493 44.8486C62.5605 46.4665 61.7903 46.8616 61.7903 46.8616C61.7903 46.8616 62.1722 46.7967 62.735 46.4601C62.8322 46.6994 62.813 46.9721 62.9747 47.0685C63.1365 47.1649 63.3566 47.3275 63.389 47.4828C63.5636 47.2238 63.8353 46.8936 63.9198 46.6478C63.855 47.1598 63.8097 49.3985 64.0478 50.5377C64.5466 50.4925 65.0577 50.4601 65.4072 49.5602C65.1678 50.4409 65.1678 50.9712 65.3295 51.7222C65.5949 51.5413 65.8343 51.2174 65.8343 51.2174L65.836 51.2187Z" fill="#C0993A"/>
<path fill-rule="evenodd" clip-rule="evenodd" d="M49.0184 15.5423C49.0184 15.5423 48.5201 15.7492 47.6723 15.7492C46.9346 15.7492 47.1415 15.4646 45.9895 15.4646C44.2163 15.4646 38.022 16.4886 36.9344 16.4741C36.2287 16.4613 39.316 16.7783 39.316 16.7783L47.2064 16.8884L48.7919 16.7604L49.3811 15.5615L49.0184 15.5423Z" fill="#A88F33"/>
<path fill-rule="evenodd" clip-rule="evenodd" d="M28.5589 30.9661C28.5589 30.9661 27.549 31.7362 27.1219 32.3254C26.6948 32.9147 26.4683 33.3025 25.9827 33.7817C26.0967 33.786 26.2106 33.7707 26.3194 33.7364C26.3194 33.7364 26.3194 33.8644 26.2417 33.8981C26.3088 33.8906 26.3767 33.8982 26.4405 33.9204C26.5043 33.9425 26.5623 33.9787 26.6104 34.0261C26.4678 34.1038 26.0796 34.4925 26.3838 34.952C26.6104 35.3014 27.0895 35.3334 27.0895 35.3334C27.0895 35.3334 26.9794 35.6509 27.4389 35.6185C28.4292 35.5732 29.536 35.1393 30.0472 35.2494C30.5592 35.3774 30.8501 35.4243 31.2124 36.0524C31.5964 36.6736 31.9309 36.7709 31.9309 36.7709C31.9309 36.7709 32.1574 36.1945 32.1058 35.3339C32.2916 34.87 32.3945 34.3771 32.41 33.8777L32.0734 31.3987L30.6044 29.541L28.7014 30.5962L28.5589 30.9648V30.9661Z" fill="#E3C571"/>
<path fill-rule="evenodd" clip-rule="evenodd" d="M30.3646 30.5971C30.3646 30.5971 30.5071 30.9338 31.1028 30.9658C31.0379 31.1083 31.0379 31.1279 31.0575 31.2376C31.0703 31.3476 31.0895 31.5094 31.0895 31.5094C31.1551 31.4776 31.2144 31.4343 31.2645 31.3814C31.2969 31.5239 31.232 31.75 31.2645 31.9121C31.2845 32.0107 31.317 32.1064 31.3613 32.1967C31.3708 32.1746 31.3816 32.1531 31.3937 32.1323C31.4065 32.0999 31.5217 32.4817 31.8405 32.7723C31.8402 32.7276 31.8512 32.6836 31.8725 32.6443C31.8773 32.7254 31.9042 32.8038 31.9501 32.8708C31.9263 32.8595 31.9045 32.8442 31.8857 32.8256C31.8857 32.8256 31.9177 33.8496 32.0926 34.3791C32.1219 34.3449 32.1479 34.308 32.1703 34.269C32.1703 34.237 32.1575 34.554 32.1251 34.781C32.0798 35.0076 32.1122 35.3246 32.1122 35.3246C32.2289 35.2327 32.3572 35.1566 32.4937 35.098C32.6878 35.02 33.0057 34.7806 33.1994 34.2498C33.3118 33.9492 33.3984 33.6396 33.4584 33.3244C33.521 33.4449 33.5642 33.5745 33.5864 33.7084C33.5996 33.8701 33.9038 33.786 33.9038 33.786L33.9687 33.0803L34.3527 31.4816L34.7021 30.4913L36.3849 27.8703L39.4253 25.5288L42.0792 26.1372L44.3183 23.0951L40.4608 20.7778L36.8103 21.1597L33.4972 25.7485L30.8438 29.9106L30.3646 30.5967V30.5971Z" fill="#D8B65B"/>
<path fill-rule="evenodd" clip-rule="evenodd" d="M49.4844 23.9564C49.4844 23.9564 49.2578 24.0016 48.6042 24.3404C47.9505 24.6791 47.4974 24.7867 47.2448 25.285C46.9922 25.7834 46.973 26.1785 46.973 26.1785C46.973 26.1785 47.4197 25.9843 47.6787 25.9195C47.9505 25.855 48.2547 25.8742 48.2223 25.9843C48.1912 26.0598 48.1479 26.1297 48.0943 26.1913C48.0943 26.1913 48.6063 26.1785 48.5927 26.431C48.579 26.6836 48.4958 26.9618 48.3989 27.0847C48.3017 27.2127 47.9006 27.4021 47.8554 27.551C47.7453 27.8553 47.9006 27.8681 47.8421 28.1138C47.7969 28.3536 47.5836 28.8195 46.8843 29.6349C46.1658 30.4507 45.8603 31.0267 45.8603 31.0267C45.8603 31.0267 45.5108 30.373 45.3295 29.8098C45.2015 29.8742 44.5141 30.2561 44.5141 30.2561L42.9218 24.7094L42.9538 24.3404C42.9538 24.3404 43.0963 24.1659 43.1288 23.842C42.8894 23.7644 42.857 23.6995 42.5395 23.3957C42.2221 23.0919 41.9635 22.7225 41.4332 22.4699C41.3555 22.3274 41.2583 22.1337 40.87 22.0556C40.4817 21.9775 40.2488 21.9135 40.2488 21.9135C40.2488 21.9135 40.4557 21.8354 40.553 21.6737C40.3132 21.7061 40.1195 21.7838 39.5951 21.771C39.0643 21.7578 39.0059 21.7386 38.7149 21.7838C38.4239 21.829 38.0749 21.9587 37.9448 21.512C37.8023 21.4019 37.498 21.4992 37.2391 21.8806C36.9801 22.2621 36.8896 22.5667 36.3913 22.7156C36.3562 22.9353 36.2793 23.1462 36.1647 23.3369C36.0222 23.5766 35.7956 23.816 35.4914 24.1718C35.0123 24.735 35.0899 25.6605 34.3262 26.3662C33.5561 27.0715 34.4542 24.4112 34.4542 24.4112L35.6839 21.4672L39.1855 18.0432L44.6225 17.6746L45.1533 20.4906L47.8072 21.4032L49.4835 23.9598L49.4844 23.9564Z" fill="#D3AE4D"/>
<path fill-rule="evenodd" clip-rule="evenodd" d="M50.3454 24.5776L48.0606 21.2833L46.4619 20.0532C46.4619 20.0532 45.3227 17.9566 45.245 17.8917C45.1802 17.8465 44.1058 17.73 43.4198 17.6848L43.5478 18.0018C43.6975 18.0505 43.8306 18.1402 43.9318 18.2608C44.236 18.6103 44.4301 19.2703 43.7376 19.976C44.0094 20.0729 44.1216 20.104 44.3589 20.0729C44.1195 20.3579 43.5759 20.9663 43.5435 21.4971C43.5111 21.9306 43.7829 22.0599 43.7829 22.0599C43.7829 22.0599 43.3686 22.539 43.3494 23.3399C43.545 23.1192 43.7591 22.9157 43.9894 22.7314C44.4685 22.3474 45.1286 21.9156 45.5753 21.6439C45.5692 21.7579 45.5845 21.8721 45.6205 21.9805C45.6205 21.9805 46.4551 21.2944 47.1565 21.5986C47.4735 21.7411 47.331 22.1879 47.331 22.1879C47.331 22.1879 47.7649 22.0261 48.0692 22.3304C48.3734 22.6346 48.8069 23.4175 49.027 23.7221C49.1239 23.8647 49.3765 24.1364 49.635 24.5567C49.9883 25.1458 50.2833 25.768 50.5157 26.4144C50.5285 26.1554 50.5805 25.7932 51.0277 25.7932L50.348 24.5763L50.3454 24.5776Z" fill="#CAA13E"/>
<path fill-rule="evenodd" clip-rule="evenodd" d="M16.093 33.9371C16.093 33.9371 15.9313 33.5356 16.093 32.7527C16.2547 31.9698 16.5073 31.6007 16.5914 30.4487C16.6754 29.2967 17.4264 27.8597 17.4264 27.8597L19.5038 26.915L20.9732 27.3161L21.4067 29.2839L19.549 30.3079C19.549 30.3079 19.4522 30.7414 18.9278 31.0908C18.4034 31.4403 17.6785 31.7121 17.504 32.0683C17.3997 32.2865 17.3236 32.517 17.2774 32.7544C17.2774 32.7544 16.7467 32.6443 16.4297 32.9938C16.093 33.35 16.1058 33.667 16.093 33.9388V33.9371Z" fill="#F4EFC8"/>
<path fill-rule="evenodd" clip-rule="evenodd" d="M20.2872 33.4126C20.2872 33.4126 20.1122 33.5226 19.9829 33.7966C19.8549 33.5896 19.549 32.3595 19.5362 31.2528C19.5234 30.146 19.4573 29.8716 19.7133 29.4902C19.9693 29.1088 20.9732 28.7068 20.8307 28.0199C20.6882 27.3663 20.0926 27.0945 19.3613 27.2822C18.8493 27.4102 18.4683 28.4991 17.9375 29.0426C17.536 29.4569 17.0573 29.3921 16.928 29.6186C16.7531 29.9228 16.9148 30.2271 16.8632 30.4212C16.8499 30.486 16.6882 30.8355 16.3968 31.2562C15.808 32.104 14.8113 33.3016 14.6816 34.376C14.7268 33.7675 14.6948 33.7547 14.8565 33.0815L14.7593 32.9198L15.3993 30.8227L15.8136 29.0947L16.7394 26.201L18.3701 23.2434L19.9561 21.4697L21.6064 21.5798L21.8005 24.0587L22.7456 28.7128L24.7326 31.1593L21.548 33.3025L20.2859 33.4126H20.2872Z" fill="#EBCC73"/>
<path fill-rule="evenodd" clip-rule="evenodd" d="M21.2774 34.2919C21.2774 34.2919 21.0057 34.3567 20.9084 34.3051C20.8111 34.2535 20.7147 34.195 20.7467 34.1302C20.7787 34.0653 20.9536 33.9557 20.9536 33.9036C20.9572 33.8566 20.9423 33.81 20.9121 33.7737C20.8819 33.7375 20.8388 33.7144 20.7919 33.7095C20.643 33.6903 20.5978 33.7871 20.5978 33.7871C20.5978 33.7871 20.4553 33.6775 20.3392 33.6591C20.4079 33.6507 20.477 33.6463 20.5461 33.6459C20.3673 33.5649 20.1775 33.5104 19.9829 33.4842C20.1446 33.3873 20.4621 33.1023 20.669 33.1023C20.876 33.1023 21.0057 33.0703 20.9732 32.9603C20.9408 32.8502 20.7791 32.6885 20.6046 32.6236C20.669 32.546 20.7147 32.4295 20.5594 32.1116C20.3972 31.7946 20.4621 31.5808 20.5141 31.5036C20.5594 31.4063 20.7211 31.2318 20.7987 31.1217C20.8764 31.0117 20.9412 30.8628 21.0705 30.7851C21.1354 30.7399 21.3423 30.6571 21.5497 30.5782C21.7762 30.5005 21.964 30.4032 22.0932 30.5005C22.2357 30.5974 22.1709 30.7271 22.1709 30.7271C22.1709 30.7271 22.6176 30.5649 23.0187 30.7723C23.4202 30.966 24.3977 31.0893 24.3977 31.0893L24.748 31.795L22.4307 33.782L21.4729 34.2612L21.2787 34.2932L21.2774 34.2919Z" fill="#E5C66B"/>
<path fill-rule="evenodd" clip-rule="evenodd" d="M24.4941 31.0437C24.4941 31.0437 23.7756 31.5228 23.6139 31.6974C23.7107 31.7106 23.8724 31.7754 23.8076 31.8723C23.7299 31.9691 23.264 32.3058 23.005 32.6232C22.7332 32.9402 22.4743 33.3417 22.3838 33.5359C22.287 33.7104 21.5488 34.2219 21.2967 34.2864C21.8274 34.2864 22.8954 33.6327 23.2964 33.6327C23.2836 33.8268 23.4065 34.047 23.6331 34.0662C23.8596 34.0854 24.5133 34.2087 25.3935 33.6651C26.2737 33.1344 25.9827 32.7393 26.3514 32.4807C27.0571 32.0144 27.3417 31.6001 27.7299 31.3415C28.1182 31.083 28.3192 31.0241 28.3192 31.0241C28.3192 31.0241 28.332 30.8299 28.4472 30.8496C28.4787 30.8532 28.5086 30.8653 28.5338 30.8847C28.5589 30.9042 28.5782 30.9301 28.5897 30.9596C28.5897 30.9596 29.263 30.4805 30.1257 30.3512C30.1055 30.3422 30.0894 30.3261 30.0804 30.306C30.0804 30.306 30.1449 30.2736 30.1581 30.2411C30.1581 30.2411 30.2033 30.1763 30.2358 30.2087C30.2682 30.2411 30.3134 30.4805 30.3783 30.5778C30.5208 30.5129 30.7926 29.9045 30.7926 29.9045L31.4466 28.034V26.3252L30.9346 26.4225L27.0946 28.0532L24.7642 30.4677L24.4924 31.0437H24.4941Z" fill="#E6BD62"/>
<path fill-rule="evenodd" clip-rule="evenodd" d="M35.549 22.662C35.7567 22.6116 35.9559 22.5308 36.14 22.4223C36.0623 22.6296 36.0623 22.8562 35.7257 23.3481C35.389 23.8401 35.3762 23.9113 35.1044 24.4225C34.8327 24.9532 34.8002 25.717 34.5413 26.0532C34.6573 25.9968 34.7819 25.9597 34.9099 25.9435C34.9099 25.9435 34.6513 26.1701 34.5413 26.4095C34.4312 26.6488 34.237 27.1472 33.7583 27.4518C33.2796 27.7564 32.6707 27.9501 32.0171 28.6687C31.363 29.3739 30.6902 30.2674 30.3531 30.5887C30.528 30.2844 30.7674 29.676 30.8322 29.2749C30.8971 28.8739 30.819 28.3943 30.9291 27.864C31.0392 27.3336 31.0392 26.9513 31.5691 26.0255C32.099 25.0996 33.0061 21.8829 33.0061 21.8829L34.9607 21.2617L35.5499 22.6599L35.549 22.662Z" fill="#B6933F"/>
<path fill-rule="evenodd" clip-rule="evenodd" d="M34.138 21.4776C34.138 21.4776 33.5492 22.3254 33.3875 23.0763C33.2258 23.8272 33.3743 23.7624 33.2775 24.1315C33.2195 24.3565 33.2195 24.5925 33.2775 24.8175C33.4814 24.489 33.7606 24.2138 34.092 24.0146C34.6488 23.6783 35.1019 23.4386 35.372 23.154C35.6437 22.8498 35.8703 22.3514 36.4591 21.9695C36.2197 21.9371 35.8831 21.827 35.8191 21.8415C36.0589 21.5698 36.777 21.1555 37.5019 20.6571C38.2204 20.1451 38.1752 19.9386 39.3404 19.4275C38.9585 19.4923 38.7772 19.395 38.4597 19.4275C38.5877 19.1557 39.0357 19.026 39.4837 18.5797C39.9317 18.1334 39.1992 17.4729 39.1992 17.4729L35.7858 19.5375L34.1355 21.4793L34.138 21.4776Z" fill="#C49937"/>
<path fill-rule="evenodd" clip-rule="evenodd" d="M24.8759 19.9369L24.9536 19.3157L25.9311 17.7494L26.9538 14.9987V11.238L26.8762 9.06331L27.0379 7.6391L27.1607 7.18641L27.2905 7.01147L28.125 7.44497L29.2774 9.01126L29.3875 12.0342L28.2675 16.8043L25.0701 20.2932L24.8759 19.9369Z" fill="#DFC068"/>
<path fill-rule="evenodd" clip-rule="evenodd" d="M27.4198 6.83635C27.4198 6.83635 26.9078 6.84958 26.7985 8.97907C26.6893 11.1086 26.6364 12.2281 26.5587 13.2833C26.4811 14.3384 26.3002 14.9789 26.2093 15.6005C26.1184 16.2222 26.0668 17.0695 25.7758 17.5875C25.6478 17.8269 25.3743 18.5778 24.7335 19.141C24.015 19.7622 22.9415 20.1961 22.7789 20.2286C22.4939 20.293 21.0505 20.4355 20.4617 20.7593C20.2547 20.8694 19.8985 20.9987 19.5038 21.3678C18.7204 22.073 17.6785 23.3351 16.9276 24.8562C15.7756 27.1282 14.6236 33.5423 14.6236 33.5423L14.8826 33.1088C14.8826 33.1088 14.915 32.5328 15.491 31.5229C16.0542 30.5134 15.8925 29.3806 16.6754 27.4452C16.9796 26.7075 17.3615 25.7496 17.8274 24.9338C18.5656 23.6069 19.4586 22.4677 20.3584 21.8465C21.8274 20.837 23.4458 20.6168 23.4458 20.6168L25.187 19.4648C25.187 19.4648 25.4912 18.876 25.8927 18.2028C26.4555 17.2581 27.1727 16.203 27.3293 14.6691C27.5691 12.3971 26.9927 10.9085 27.0251 9.56233C27.0575 8.21619 27.0703 7.2259 27.3425 6.98611C27.6147 6.74633 27.4202 6.83721 27.4202 6.83721L27.4198 6.83635Z" fill="#A88F33"/>
<path fill-rule="evenodd" clip-rule="evenodd" d="M27.4197 16.9983C27.4197 16.9983 28.1877 15.1081 28.5393 13.4318C28.6042 13.0951 28.7334 12.7589 28.7659 12.4871C28.9276 10.9012 28.9728 10.2475 28.7659 9.38013C28.6042 8.74013 27.9829 8.16328 27.6591 7.71613C27.3421 7.24979 27.1932 7.07613 27.258 6.978C27.3229 6.87987 27.575 6.71944 27.8208 6.73864C28.082 6.74624 28.339 6.8069 28.5761 6.91692C28.8131 7.02694 29.0253 7.18403 29.1998 7.37864C29.6981 7.95464 30.0928 9.90963 30.0928 9.90963L30.5079 12.4893L31.5631 15.7383L27.4206 17.0008L27.4197 16.9983Z" fill="#C99E3D"/>
<path fill-rule="evenodd" clip-rule="evenodd" d="M34.6364 15.0309C34.6364 15.0309 34.4939 15.0954 34.2353 15.0309C34.2463 15.1366 34.228 15.2433 34.1823 15.3392C34.1366 15.4351 34.0653 15.5165 33.9763 15.5745C33.7045 15.4644 31.1603 15.6846 31.1603 15.6846C31.1603 15.6846 29.9759 15.4772 29.6068 13.9109C29.3483 12.8686 29.801 11.432 29.652 10.4869C29.4255 9.09516 29.1085 8.82294 29.076 8.38988C29.0436 7.95681 29.0112 7.8463 29.0112 7.57452C28.8687 7.54209 28.7846 7.49686 28.6426 7.49686C28.6101 7.36886 28.6746 7.25708 28.5325 7.03052C28.6101 7.06294 29.1409 7.1278 29.7621 7.7166C30.2741 8.19574 30.2741 8.37025 30.3514 8.46753C30.4482 8.56438 31.2316 9.23553 31.5682 9.90454C31.9048 10.5736 32.5585 12.7069 32.7074 13.0563C32.7526 13.1988 32.8499 13.3413 33.0914 13.6648C33.4669 14.1311 34.0168 14.9021 34.6381 15.0301L34.6364 15.0309Z" fill="#B58634"/>
<path fill-rule="evenodd" clip-rule="evenodd" d="M30.4427 8.5C30.8348 9.13339 31.187 9.79059 31.4974 10.4678C31.8793 11.3284 32.1058 12.0341 32.585 12.6101C32.326 11.8596 31.8665 10.3837 31.5947 9.85936C31.2905 9.30469 30.6692 8.70736 30.4427 8.50043V8.5Z" fill="#A88F33"/>
<path fill-rule="evenodd" clip-rule="evenodd" d="M26.0412 19.1411C26.0412 19.1411 25.3875 19.3028 24.1707 19.9436C23.7692 20.1505 23.3877 20.3251 23.0187 20.4872C22.06 20.9207 21.0317 21.3213 20.2159 21.5423C20.2808 21.62 20.3128 21.652 20.3128 21.652C20.3128 21.652 20.3128 21.9694 20.4877 22.1503C20.3908 22.2476 19.0959 23.1278 19.4782 26.0727C19.7368 25.9758 20.041 25.8461 20.0862 25.8461C20.1643 25.8593 20.1835 26.0727 20.2803 26.0727C20.3772 26.0727 20.6946 25.9447 21.0313 25.5095C21.0185 25.6844 20.8243 27.4448 21.8663 28.6293C22.0604 28.4027 22.5523 27.6518 22.5523 27.6518L22.5651 27.4124C22.5651 27.4124 22.6104 26.5774 22.8826 25.8137C23.1548 25.05 23.6851 24.4868 23.6851 24.4868L26.4546 20.532L26.0403 19.1406L26.0412 19.1411Z" fill="#E6C367"/>
<path fill-rule="evenodd" clip-rule="evenodd" d="M23.4522 24.948C23.3254 25.0376 23.1857 25.1073 23.0379 25.1549C22.9926 24.9932 22.9278 24.4364 23.3097 23.8928C23.7564 23.2387 24.7334 22.391 25.0052 21.7168C25.1802 21.2829 25.1025 20.1958 26.656 18.804C28.2095 17.4122 28.8175 16.9335 28.8175 16.9335L31.3289 15.6714L34.4162 16.8882L32.8823 22.9L31.6915 25.716L26.9555 24.823L23.4517 24.948H23.4522Z" fill="#DCBA5A"/>
<path fill-rule="evenodd" clip-rule="evenodd" d="M25.2599 23.3155L25.8492 22.5778V22.0534C25.8492 22.0534 26.5028 21.8785 27.2081 21.16C27.9134 20.4415 28.8909 19.0629 29.7519 19.147C30.6129 19.2443 30.697 21.0175 30.7294 21.5163C30.7618 22.015 30.8719 23.147 31.0464 23.7558C31.2405 24.3643 28.9493 26.6683 28.9493 26.6683L27.3933 27.8527L25.2599 23.3155Z" fill="#E9CE77"/>
<path fill-rule="evenodd" clip-rule="evenodd" d="M27.0831 29.4578C27.0831 29.4578 27.5622 28.7068 27.2111 28.5451C27.418 28.0792 27.7999 27.5873 27.7999 27.5873C27.7999 27.5873 28.0717 26.9144 28.9519 26.0858C29.8321 25.2572 30.3761 24.7068 30.5186 24.1505C30.6065 23.7879 30.6543 23.4167 30.6611 23.0437C30.7563 23.1214 30.8581 23.1907 30.9653 23.2506C31.1078 23.3155 31.7807 23.8719 31.6838 24.9919C31.587 26.1119 31.1718 26.5778 31.1718 26.5778C31.1718 26.5778 30.7708 26.9788 30.4862 27.1862C30.1816 27.3931 30.0719 27.6325 29.5603 27.6521C29.6129 27.6103 29.672 27.5775 29.7353 27.5548C29.7353 27.5548 29.2045 27.4904 28.9195 27.749C28.6345 28.0075 28.0286 28.8041 27.7244 29.0439C27.4202 29.238 27.0844 29.4582 27.0844 29.4582L27.0831 29.4578Z" fill="#CDAE50"/>
<path fill-rule="evenodd" clip-rule="evenodd" d="M48.6042 16.8686C47.8395 16.5899 47.0359 16.4326 46.2225 16.4026C44.8632 16.3574 42.8762 16.4351 40.928 16.4479C38.8309 16.4607 36.928 15.7294 34.2874 15.6001C33.8539 15.3411 32.7514 14.2083 29.3099 16.6096C29.5168 16.5968 31.8084 16.0788 32.6042 17.0759C33.4067 18.0662 33.1802 19.749 33.0705 20.15C32.8632 21.0435 32.1899 22.3444 31.9185 23.257C31.6472 24.1697 31.7112 24.6492 31.517 25.2892C31.3229 25.9292 30.8958 26.2471 31.148 26.9848C31.4846 26.7779 31.66 26.7779 32.2223 25.5158C32.7846 24.2537 32.669 23.3539 33.6013 22.2859C34.5139 21.2116 36.0333 19.7422 36.611 19.3731C37.1887 19.004 41.7758 16.6224 46.5788 18.8944C47.7372 18.7715 48.6046 16.8681 48.6046 16.8681L48.6042 16.8686Z" fill="#D2A83E"/>
<path fill-rule="evenodd" clip-rule="evenodd" d="M31.2448 15.9881C31.2401 15.9394 31.2293 15.8916 31.2128 15.8456C31.1679 15.7509 31.1089 15.6636 31.0379 15.5866C31.0379 15.5866 29.8987 15.3796 29.3227 15.4441C28.3128 15.5542 27.4001 16.8034 26.973 17.4443C26.5459 18.0851 26.0152 19.075 25.4392 19.5866C25.4455 19.5367 25.434 19.4863 25.4067 19.4441C25.4067 19.4441 25.4392 19.4893 25.3747 19.5542C25.3103 19.619 25.3099 19.651 25.3423 19.6822L25.4396 19.779C25.4716 19.779 26.365 19.3775 27.5819 18.243C28.8764 17.0586 29.8667 16.451 30.3847 16.2428C30.6609 16.1254 30.9496 16.0399 31.2452 15.9881H31.2448Z" fill="#C29637"/>
<path fill-rule="evenodd" clip-rule="evenodd" d="M53.3423 11.1213C53.3423 11.1213 53.1349 11.3799 52.876 11.6649C52.3 12.2733 51.549 12.959 50.9082 13.6647C50.3002 14.338 49.6141 14.8624 48.8435 15.7426C48.073 16.6228 47.1795 17.5998 46.9534 17.8849C46.7465 18.1699 46.5848 18.6358 46.5848 18.8752C46.4747 18.7975 46.3454 18.7134 46.3454 18.7134C46.3998 18.8151 46.4649 18.9106 46.5395 18.9985C46.7012 19.225 46.9534 19.5105 47.0831 19.6845C47.2422 19.9061 47.3565 20.1568 47.4193 20.4222C47.497 20.435 47.9953 20.5323 48.617 19.5096C49.2386 18.4869 50.0536 17.3673 50.0536 17.3673L51.3481 15.4448L52.1639 13.814L53.1879 11.9888L53.3436 11.1213H53.3423Z" fill="#AC8132"/>
<path fill-rule="evenodd" clip-rule="evenodd" d="M54.6693 9.81421C54.6693 9.81421 53.8859 10.4542 53.5817 10.8382C53.2775 11.2222 52.5577 12.23 52.5577 12.23L52.8167 12.1976L54.1308 11.0328L54.6428 10.1201L54.6688 9.81592L54.6693 9.81421Z" fill="#A88F33"/>
<path fill-rule="evenodd" clip-rule="evenodd" d="M54.4294 61.251C54.4294 61.251 54.4166 60.7202 54.7145 60.4032C55.0187 60.0857 55.7888 59.6198 56.5397 57.8722C57.2907 56.1246 57.3743 55.7299 57.3743 55.7299C57.3743 55.7299 56.0282 56.8819 55.1983 57.1537C55.3924 56.7522 55.5025 56.4676 55.5998 56.2602C55.4897 56.1634 55.0238 56.0533 54.9786 56.0017C55.2371 55.7427 55.3796 55.1082 55.904 54.6875C56.5773 54.1755 57.8069 53.2958 58.7627 52.5115C59.7184 51.7273 61.5974 49.9033 61.8372 49.3726C61.9797 49.5795 62.0117 49.7088 62.0117 49.7088C62.0117 49.7088 61.0671 50.9389 60.5751 51.7218C60.1412 52.3951 60.1737 52.7769 60.1737 52.7769L61.0671 52.3929C61.0671 52.3929 61.3257 53.3508 60.1545 54.8074C60.6665 54.6133 60.873 54.7298 61.1639 54.5677C60.6848 54.8723 60.0247 55.2866 59.4035 56.4254C58.7951 57.5646 57.9665 58.8915 56.5687 59.7197C55.2094 60.5935 54.426 61.2471 54.426 61.2471L54.4294 61.251Z" fill="#A67A2E"/>
<path fill-rule="evenodd" clip-rule="evenodd" d="M50.9214 17.5424C50.9214 17.5424 50.3906 18.6488 50.313 19.5098C50.3002 19.7172 50.2481 19.8789 50.2481 20.1182C50.2353 20.8884 50.2933 21.7494 50.1201 22.1504C50.0552 21.9887 50.0228 21.8787 49.958 21.8142C49.8611 22.086 49.6862 22.9338 49.5437 23.2508C49.4792 23.0439 49.3367 22.3254 49.35 21.4776C49.3632 20.6298 49.382 20.4677 49.382 20.2932C49.35 20.5517 49.175 20.9016 49.1102 21.1085C49.0133 20.934 48.9032 20.7075 48.7735 20.5197C48.6959 20.6477 48.599 20.8367 48.515 20.934C48.5018 20.8564 48.4698 20.649 48.4501 20.358C48.4373 20.0214 48.4177 19.5879 48.4373 19.497C48.4693 19.3225 48.7415 18.6364 49.3175 18.0084C50.0036 17.2574 50.7093 15.8144 50.9163 15.3677C51.1232 14.921 52.0034 13.0637 52.0034 13.0637H52.6767L51.6992 15.2901C51.6992 15.2901 51.1104 16.5069 50.8062 16.9541C50.502 17.4012 49.8611 18.6825 49.5761 19.1808C49.783 18.9091 49.958 18.7665 50.1653 18.5076C50.3659 18.3262 50.9222 17.5433 50.9222 17.5433L50.9214 17.5424Z" fill="#8C6228"/>
<path fill-rule="evenodd" clip-rule="evenodd" d="M54.682 9.72974C54.572 10.0682 54.3982 10.3825 54.17 10.6556C53.7685 11.1347 52.9075 11.7752 52.4872 12.2863C52.1032 12.7847 51.3352 14.144 51.6842 15.7555C51.8122 15.4061 52.0533 14.7136 52.6942 13.9303C53.335 13.1469 54.0211 12.2475 54.3582 11.5486C54.6944 10.8429 54.7396 10.2865 54.7396 10.2865L54.8676 10.1248L54.79 9.75576L54.6799 9.72974H54.682Z" fill="#CBA94C"/>
<path fill-rule="evenodd" clip-rule="evenodd" d="M67.7888 52.6616C67.7888 52.6616 67.5298 51.9563 67.4522 51.3155C67.3745 50.6746 67.5802 50.5475 67.3421 49.814C67.1996 49.3673 66.941 49.43 66.8762 49.3673C66.8113 49.3046 66.7661 48.6296 66.7789 48.2605C66.7917 47.8915 66.7661 47.4128 66.7012 47.2054C66.6044 47.1277 66.5395 47.0629 66.397 46.5842C66.2353 46.105 66.1576 45.8657 66.08 45.7236C66.0023 45.5815 65.7753 45.4518 65.7753 45.3093C65.7753 45.0243 66.0343 44.8758 66.0343 44.7973C66.0215 44.6356 65.8274 44.7653 65.7753 44.7196C65.7109 44.642 65.9375 44.1761 65.8534 44.1112C65.821 44.0792 65.5944 44.351 65.536 44.2733C65.4711 44.1953 65.3935 43.4251 65.277 42.914C65.1674 42.4156 65.0504 42.0534 65.0376 41.9045C65.0248 41.762 64.1442 39.2506 63.9309 38.6422C63.7589 38.1281 63.6142 37.6052 63.4974 37.0759C63.4325 36.7717 63.3873 36.15 63.3549 36.2149C63.3224 36.2797 63.3421 36.5967 63.29 36.5839C63.2448 36.5707 63.0831 35.4644 63.0315 35.2894C62.9862 35.1145 62.714 34.5214 62.6475 34.0922C62.5826 33.6583 62.4405 32.5255 62.3432 31.7554C62.246 30.9852 62.2007 30.6682 62.2007 30.4754C62.2167 30.0037 62.1907 29.5315 62.1231 29.0644C61.9951 28.2486 61.7391 27.2583 61.5147 26.6827C61.0812 25.5951 59.9287 22.812 59.7227 22.1195C59.7227 21.9446 59.9492 22.0419 59.9492 22.0419C59.9492 22.0419 60.512 23.4529 60.9263 24.54C61.3278 25.6276 61.7096 26.5854 61.8069 26.6827C61.8846 26.7796 62.493 27.8475 62.7648 29.5951C63.0366 31.3428 63.1334 32.9543 63.2956 34.0286C63.3732 34.5406 63.4381 35.0838 63.5998 35.6274C63.7743 36.2166 64.0461 36.825 64.4023 37.7569C64.7066 38.5402 64.9331 39.1939 65.056 39.7571C65.1985 40.4756 65.1985 41.0191 65.2826 41.3754C65.3606 41.6796 65.4767 42.2876 65.7489 43.1674C66.0211 44.0472 66.4218 45.1804 66.6935 45.8857C67.2247 47.2967 67.4615 48.4747 67.5418 49.1028C67.6126 49.75 67.8524 51.9896 67.7875 52.6625L67.7888 52.6616Z" fill="#A88F33"/>
<path fill-rule="evenodd" clip-rule="evenodd" d="M54.7145 9.65189L54.682 9.72954C54.682 9.72954 54.7789 9.76197 54.7597 9.89168C54.7611 10.0691 54.7502 10.2465 54.7273 10.4225C54.6953 10.649 54.6304 10.8235 54.6176 10.966C54.6176 11.2702 54.6628 11.6197 54.2336 12.4871C54.1056 12.7265 54.0267 12.9334 53.9618 13.0759C53.8001 13.4253 53.7677 13.4774 53.6252 13.6391C53.8517 13.5111 54.6675 12.9991 55.0814 13.0759C54.7968 13.2376 54.3629 13.555 54.0911 13.9693C54.156 13.9821 54.4277 14.0342 54.8591 13.9693C55.5776 13.8593 56.3802 13.6003 57.0854 13.6519C57.856 13.6971 57.5518 12.7265 57.5518 12.7265L56.6626 10.7719L54.9798 9.58789L54.7145 9.65232V9.65189Z" fill="#BE9C44"/>
<path fill-rule="evenodd" clip-rule="evenodd" d="M59.1028 24.293C59.1028 24.293 58.3518 23.542 58.0476 20.965C57.7434 18.3759 57.8082 14.565 57.8082 14.565L57.1998 13.0763C57.1998 13.0763 57.0718 12.086 56.7531 11.7174C56.4344 11.3488 55.8085 10.7271 55.5234 10.4229C55.2384 10.1187 54.915 9.70438 54.7209 9.63952C54.8177 9.47782 55.2517 8.56518 56.9148 8.55238C58.578 8.53958 59.0908 9.46502 59.2645 9.80166C59.4381 10.1383 60.2223 11.5937 60.5133 14.367C60.7851 17.1369 60.7983 17.3443 60.7531 18.3021C60.7207 18.8329 60.5457 20.0626 60.2411 21.3763C59.9629 22.4899 59.6587 23.7328 59.1019 24.2955L59.1028 24.293Z" fill="#A17C34"/>
<path fill-rule="evenodd" clip-rule="evenodd" d="M56.748 26.5003C56.9982 26.5183 57.2482 26.4619 57.4665 26.3382C57.7059 26.3254 58.5733 26.4354 59.2397 25.5876C59.285 25.7814 59.4019 26.3062 59.0972 26.7721C59.2594 26.6099 59.4987 26.5455 59.5311 26.5003C59.5439 26.7396 59.7705 27.4774 58.8126 29.2702C59.0712 28.9856 59.3754 28.9984 59.6472 28.966C59.6604 29.3026 59.8413 30.435 59.3626 31.0439C59.0456 31.4582 58.5276 31.3284 58.5276 31.3284C58.5352 31.238 58.5352 31.1471 58.5276 31.0567C58.5148 30.8817 58.45 30.7072 58.4956 30.5907C58.2453 30.4764 58.0174 30.3185 57.8223 30.1244C57.2591 29.5936 56.5278 28.6878 56.4762 28.0145C56.4113 27.2636 57.0846 27.1019 57.0846 27.1019C57.0282 27.0514 56.9801 26.9924 56.9421 26.927C56.9097 26.8173 56.8773 26.6424 56.748 26.5003Z" fill="#8C6228"/>
<path fill-rule="evenodd" clip-rule="evenodd" d="M51.7559 18.3577C51.7559 18.3577 51.7235 18.3125 51.549 18.5195C51.5814 18.3125 51.6139 18.118 51.6267 17.9302C51.7093 17.7564 51.8161 17.5952 51.9441 17.4515C51.8468 17.6452 51.782 17.8201 51.782 17.8201C51.782 17.8201 52.0218 17.3734 52.3712 17.1016C52.6106 16.9075 52.9148 16.8171 53.044 16.6357C53.1866 16.4416 53.1541 16.4092 53.1866 16.3767C53.1866 16.3767 53.504 16.1698 53.9895 15.5609C54.054 15.4833 54.1513 15.3992 54.2161 15.3216C54.3258 15.2764 54.5847 15.1599 54.889 15.0041C55.2064 14.8296 55.5622 14.5903 55.7824 14.4921C56.2159 14.298 56.6758 14.3176 56.8892 14.013C57.0509 13.9678 57.2254 13.4822 57.1934 13.0684C57.4327 13.1652 58.6624 13.9289 59.0835 15.5989C59.3877 16.7833 58.8437 18.6086 58.6172 19.4893C58.3906 20.3699 58.3586 21.0231 58.0412 21.4242C57.6397 21.9554 56.3456 22.7042 56.0282 23.075C55.7564 23.3792 54.941 24.1493 54.973 24.7057C55.0054 25.12 55.5166 25.3457 55.6271 25.4242C55.7376 25.5027 55.7367 25.5991 55.9441 25.5522C56.1515 25.5053 56.2287 25.4097 56.3132 25.4097C56.41 25.4225 56.41 25.4421 56.4553 25.4421C56.4881 25.4411 56.5207 25.4367 56.5525 25.4289C56.5525 25.4289 56.5201 26.0181 55.1415 26.1969C55.0443 26.2101 54.9474 26.2421 54.8241 26.2617C54.9862 26.1841 55.0831 26.1841 55.258 25.9447C55.0639 25.9123 54.5071 25.8799 54.3646 25.8347C54.4098 25.757 54.5587 25.5496 54.6816 25.4528C54.7917 25.3559 54.6688 25.3248 54.5719 25.3751C54.4052 25.4886 54.2452 25.6117 54.0928 25.7438C53.9311 25.8863 53.7886 26.0804 53.5296 26.2558C53.4519 25.9968 53.4647 25.5048 53.7694 25.149C53.6913 25.1618 53.5424 25.3884 53.4003 25.3431C53.3746 25.107 53.3899 24.8683 53.4455 24.6374C53.5232 24.346 53.9439 23.8349 53.9439 23.8349L55.9761 20.2035L56.4096 17.4528L51.7559 18.3569V18.3577Z" fill="#92723A"/>
<path fill-rule="evenodd" clip-rule="evenodd" d="M51.6463 18.5131C51.6463 18.5131 51.5362 18.5907 51.7564 18.7396C51.7239 18.7848 51.6463 18.9466 51.549 19.0566C51.4394 19.1846 51.3225 19.264 51.2772 19.3741C51.1804 19.6006 51.1027 19.7559 51.1027 19.8532C51.1027 19.9505 51.0703 20.5717 50.7985 20.9728C50.7012 21.1153 50.5911 21.3547 50.5135 21.5164C50.3518 21.801 50.2093 22.0284 50.1768 22.1564C50.1124 22.3829 50.0672 23.0042 50.0672 23.0042C50.0672 23.0042 50.2097 22.8292 50.2613 22.7648C50.1832 22.9265 50.0992 23.101 49.9763 23.2307C50.054 23.1659 50.2805 23.0042 50.6624 22.6675C51.1932 22.2212 52.0218 21.4703 53.0317 20.8755C52.727 20.9856 52.4685 20.9856 52.2615 21.018C52.4232 20.8563 53.8795 19.1475 54.6432 18.9858C54.6896 18.927 54.7127 18.8532 54.708 18.7784L54.054 18.714L52.727 18.9986L52.5333 17.9746L51.6463 18.5118V18.5131Z" fill="#B18E3E"/>
<path fill-rule="evenodd" clip-rule="evenodd" d="M53.7566 24.3384C53.7566 24.3384 53.5816 24.5129 53.4199 24.9468C53.2954 24.8168 53.1887 24.6709 53.1025 24.5129C52.8631 24.1118 52.4945 23.6003 51.6335 23.8917C51.6207 23.6199 51.6011 23.4774 51.6335 23.2833C51.776 23.2513 52.2095 22.9018 52.643 22.3902C52.9476 22.0408 53.2322 21.6393 53.4263 21.1282C53.5543 21.0309 53.7758 20.8692 54.0663 20.6814C54.4806 20.3969 54.979 20.0082 55.0566 19.5747C54.8625 19.6523 54.4482 19.8465 53.8265 19.8145C54.0663 19.7044 54.435 19.5879 54.3897 19.1087C54.487 19.0439 54.5647 18.9987 54.5647 18.9987C54.4917 18.9743 54.415 18.9633 54.3381 18.9662C54.3249 18.921 54.3057 18.8566 54.1956 18.8886C54.0855 18.9206 54.0676 18.921 54.0531 18.9662C54.0079 18.9795 53.859 18.9662 53.7489 19.0443C53.6388 19.1224 53.3346 19.3805 53.2181 19.4258C53.2633 19.3481 53.3278 19.2321 53.3278 19.2321C53.3278 19.2321 53.0108 19.2641 52.7842 19.3601C52.3699 19.5026 51.8912 19.7615 51.4056 20.0137C51.4509 19.9361 51.4705 19.8857 51.5025 19.8712C51.5345 19.8567 51.6126 19.8392 51.6126 19.826C51.6126 19.8127 51.5806 19.698 51.5998 19.6515C51.7449 19.3439 51.9162 19.0495 52.1118 18.7713C52.3383 18.4666 52.3836 18.0331 52.3836 18.0331L53.3739 17.5348L56.157 16.8948L57.9631 17.0049L57.7365 18.2541L56.6699 20.4353L55.7572 22.4222L54.7149 23.6395L53.757 24.3384H53.7566Z" fill="#543E26"/>
<path fill-rule="evenodd" clip-rule="evenodd" d="M58.2677 18.9319C58.2677 18.9319 57.1802 20.2781 56.876 20.4854C57.0701 20.0711 58.2677 17.605 58.7012 16.9189C58.6044 16.8413 58.4747 16.8413 58.7789 15.6389C58.5203 16.2469 58.4295 16.5644 58.2161 16.7261C58.0028 16.8878 57.9763 16.8361 57.8321 16.8361C57.8593 16.7869 57.8705 16.7304 57.8641 16.6744C57.8641 16.6744 56.9515 16.5644 56.3281 16.5644C55.7048 16.5644 54.4708 16.901 53.7843 17.1728C53.2408 17.3993 52.9365 17.3993 52.7424 17.5414C52.5483 17.7031 52.4382 17.8781 52.3409 17.9233C52.2633 17.9685 51.8946 18.085 51.8101 18.2079C51.7325 18.3359 51.6032 18.4797 51.6032 18.5121C51.6032 18.5445 51.5708 18.5902 51.6681 18.5573C51.7001 18.5445 51.9399 18.4148 52.2116 18.2531C52.5803 18.0462 53.027 17.8068 53.3508 17.6643C54.2763 17.2952 54.5677 17.3601 54.9816 17.2824C55.415 17.2048 56.0367 17.0234 56.4506 17.0234C56.8649 17.0106 57.6482 17.0234 57.8296 17.0559C57.7519 17.1207 57.6871 17.1984 57.7195 17.4702C57.7195 17.5478 57.6546 17.6319 57.5915 17.8196C57.3978 18.3504 57.0287 19.2306 56.8235 19.6773C56.5389 20.2853 56.2155 20.7969 56.0555 21.1139C55.8955 21.4309 55.5435 22.2659 55.1949 22.7126C54.8463 23.1593 54.6641 23.4311 54.5549 23.5284C54.4457 23.6257 53.6615 24.2013 53.7199 24.4086C53.8624 24.3634 54.7623 24.0246 55.4155 23.289C56.0687 22.5535 56.1988 22.1046 56.71 21.7031C57.2211 21.3016 57.6226 20.6288 57.862 20.0724C58.0625 19.5544 58.0173 19.3927 58.2695 18.9332L58.2677 18.9319Z" fill="#806031"/>
<path fill-rule="evenodd" clip-rule="evenodd" d="M34.831 28.9792C34.831 28.9792 34.6885 29.568 34.3646 29.8594C34.0476 30.1444 33.4844 30.3902 33.42 30.8693C33.3423 31.3481 33.9832 31.5879 33.9832 31.5879C33.9832 31.5879 33.6333 32.1639 33.6333 32.5973C33.6333 33.0441 33.6205 33.1281 33.6657 33.5552C33.6144 33.5882 33.5708 33.6319 33.5377 33.6832C33.5377 33.6832 33.5697 34.0975 33.8872 34.3561C34.2046 34.6146 34.476 34.7704 34.6377 34.7055C34.6624 34.7583 34.684 34.8124 34.7025 34.8676C34.7025 34.8676 34.9423 34.2592 35.104 33.7284C35.2657 33.1849 35.4082 33.2621 35.4727 32.5308C35.5371 31.7995 36.2407 30.5438 36.2407 30.5438L36.7207 29.4707L35.9377 28.8623L34.831 28.9788V28.9792Z" fill="#B6903C"/>
<path fill-rule="evenodd" clip-rule="evenodd" d="M36.2872 30.0339C36.1257 30.1997 35.9767 30.3771 35.8413 30.5647C35.6344 30.8497 35.4727 31.1083 35.1684 31.2188C34.8642 31.3293 34.6701 31.3284 34.6893 31.6331C34.7085 31.9377 34.9935 32.0666 35.1552 32.2219C35.3301 32.3836 35.4727 32.6554 35.395 32.96C35.4919 32.9148 35.6668 32.8627 35.8285 32.5133C35.9902 32.1639 37.1213 30.0344 37.1213 30.0344H36.2872V30.0339Z" fill="#685026"/>
<path fill-rule="evenodd" clip-rule="evenodd" d="M40.748 25.1213C40.748 25.1213 40.8448 24.8627 40.748 24.675C40.6507 24.4809 40.0619 24.416 39.7705 24.1958C39.4663 23.9693 39.0972 23.8119 38.793 23.9113C38.8382 23.8012 39.0195 23.5614 38.8706 23.5098C38.7281 23.4645 38.1978 23.7039 38.0553 23.814C37.9128 23.9241 37.5889 24.0533 37.5245 24.1314C37.4601 24.2095 37.3496 24.358 37.2847 24.2931C37.2199 24.2479 37.1879 24.1314 37.0778 24.1958C36.9677 24.2603 36.4378 24.6942 36.3401 24.9468C36.2424 25.1994 36.0226 25.7626 35.3626 26.403C34.7025 27.0434 34.4175 27.4581 34.6116 27.6975C34.8058 27.9369 34.8967 27.7624 34.9291 27.9693C34.954 28.1724 34.9431 28.3784 34.8967 28.5777C34.819 28.9144 34.6897 29.2314 34.8642 29.2962C35.311 29.4387 35.7449 29.1682 35.8417 29.251C36.0359 29.4255 35.7316 30.0536 36.1912 30.1764C36.6575 30.3044 37.117 30.0664 37.117 30.0664L38.8126 29.1537L40.4438 28.2931L41.2783 26.6424L40.8307 25.2638L40.7454 25.1213H40.748Z" fill="#D4B968"/>
<path fill-rule="evenodd" clip-rule="evenodd" d="M39.148 29.0631C39.148 29.0631 38.8629 28.6296 39.2128 28.2473C39.5627 27.865 40.0606 27.7037 40.2547 27.4644C40.2178 27.4188 40.1682 27.3851 40.1122 27.3675C40.2411 27.1369 40.4377 26.9515 40.6754 26.8363C40.5786 26.7395 40.4489 26.6618 40.3068 26.6618C39.9893 26.6618 39.7948 26.856 39.5038 26.856C39.2192 26.856 39.1868 26.7135 39.1868 26.7135C39.1868 26.7135 39.6659 26.6682 39.6203 26.4545C39.575 26.2279 39.4923 26.2279 39.4923 26.2279C39.4923 26.2279 40.4177 25.8439 40.5794 25.6391C40.7411 25.4343 40.7219 25.1924 40.7544 25.0955C40.864 25.0955 41.5049 24.7589 41.7638 24.9014C42.0228 25.0439 41.8415 25.4322 41.8415 25.4322C41.8415 25.4322 42.6253 24.8429 43.0246 24.2652C43.3741 24.2977 43.5366 24.0259 43.7926 24.0259C44.1101 24.0259 44.6084 24.4594 44.7053 25.3848C44.7701 25.9156 44.867 26.2198 44.7701 27.1585C44.7249 27.6892 44.7377 28.8225 44.8981 29.3848C45.0078 29.8315 45.2668 29.7863 45.2668 29.7863C45.227 29.9224 45.1483 30.0439 45.0402 30.1357C44.8653 30.2975 44.8461 30.725 44.8653 30.8867C44.8911 31.0049 44.9236 31.1216 44.9626 31.2361C44.9626 31.2361 44.7556 31.4755 44.7036 31.6376C44.6584 31.7993 44.445 31.9094 44.2893 31.9094C44.1336 31.9094 44.2116 31.8962 44.0047 31.9094C43.7978 31.9226 43.7329 31.9546 43.6032 31.9094C43.4735 31.8642 43.3766 31.8121 43.4287 31.3974C43.4739 30.9831 41.83 30.0188 41.83 30.0188L39.142 29.061L39.148 29.0631Z" fill="#CCA849"/>
<path fill-rule="evenodd" clip-rule="evenodd" d="M36.0606 33.1537C36.0606 33.1537 36.6494 33.937 39.0703 33.937C40.2223 33.937 40.6238 33.8269 40.8623 33.7621C41.1213 33.6972 42.092 33.3158 43.0695 32.1634C43.9497 31.1214 43.7555 30.6944 43.7555 30.6944L43.2435 30.6167L41.5795 30.8433L36.6558 32.9403L36.0585 33.1537H36.0606Z" fill="#585136"/>
<path fill-rule="evenodd" clip-rule="evenodd" d="M37.8662 33.3478C37.8662 33.3478 35.7692 33.8142 35.7692 32.4873C35.7692 31.1928 37.0637 29.8334 37.3875 29.594C37.7242 29.3542 38.5267 29.082 38.5267 29.082H40.4621L40.8307 30.0595L40.669 32.1694L37.8662 33.3474V33.3478Z" fill="#252211"/>
<path fill-rule="evenodd" clip-rule="evenodd" d="M39.8016 29.4775C39.8016 29.4775 39.4005 29.1084 38.4879 29.6055C37.5753 30.1026 36.8371 31.1415 36.7919 32.0849C36.7467 32.9194 37.478 33.5411 38.6172 33.5735C39.465 33.6055 39.9765 33.5086 40.2355 33.4455C40.1707 33.3678 39.834 32.9472 39.834 32.9472L39.802 29.4779L39.8016 29.4775Z" fill="#C3B378"/>
<path fill-rule="evenodd" clip-rule="evenodd" d="M39.4069 29.684C39.4069 29.684 39.3101 29.6063 39.0229 29.7616C38.7836 29.8896 38.4341 30.228 38.1623 30.4673C37.9874 30.6098 37.8773 30.6743 37.7783 30.7843C37.3768 31.2635 37.0402 32.0468 37.2348 32.4351C37.4293 32.8234 38.0698 33.2701 39.7009 32.9659L39.4022 29.6844L39.4069 29.684Z" fill="#E6D89C"/>
<path fill-rule="evenodd" clip-rule="evenodd" d="M38.8762 30.4869C38.8762 30.4869 38.6172 30.8884 38.6172 31.5292C38.6172 32.1829 38.9863 33.2248 40.3456 33.3025C41.3875 33.3673 42.0864 31.801 42.8438 31.1926C43.4198 30.7267 43.7692 30.7134 43.7692 30.7134C43.7692 30.7134 43.1804 30.0734 41.6077 29.2444C40.0542 28.4094 38.313 28.2994 37.3679 29.5811C37.8146 29.5486 39.2581 29.1796 39.2581 29.1796L39.9638 29.4061L38.8762 30.4873V30.4869Z" fill="#252211"/>
<path fill-rule="evenodd" clip-rule="evenodd" d="M40.9084 31.3348C40.8632 31.238 40.8308 31.1083 41.0185 31.0763C41.2062 31.0443 41.2903 31.063 41.3551 31.2043C41.42 31.3455 41.4831 31.4632 41.3871 31.5217C41.2903 31.5733 41.0377 31.5217 40.908 31.334L40.9084 31.3348ZM40.6042 30.4222C40.6042 30.4222 40.5393 30.4674 40.5718 30.3769C40.5846 30.2673 40.669 30.0727 40.876 30.1184C41.0829 30.164 41.0381 30.3902 41.004 30.455C40.9698 30.5199 40.797 30.6295 40.6673 30.583C40.6509 30.5788 40.6357 30.5708 40.6229 30.5596C40.6101 30.5484 40.6002 30.5344 40.5939 30.5186C40.5876 30.5029 40.5851 30.4859 40.5865 30.4689C40.588 30.452 40.5935 30.4357 40.6025 30.4213L40.6042 30.4222Z" fill="#6F674D"/>
<path fill-rule="evenodd" clip-rule="evenodd" d="M23.084 30.836C23.084 30.836 23.596 31.22 24.1907 31.2051C24.7795 31.1919 25.5369 30.5839 25.8863 30.1952C26.0932 29.9686 26.2703 29.7293 26.4623 29.5415C26.6244 29.3798 26.7341 29.3022 26.8117 29.1921C26.9218 29.0641 27.0383 28.8234 27.0968 28.7454C26.9542 28.8554 26.7473 29.05 26.5336 29.1793C26.3266 29.3073 25.8799 29.5479 25.6986 29.6128C25.5241 29.6776 23.7116 30.6368 23.7116 30.6368L23.084 30.836Z" fill="#AC924C"/>
<path fill-rule="evenodd" clip-rule="evenodd" d="M23.8665 26.0535C23.8665 26.0535 24.151 25.8594 24.7014 25.7361C25.2322 25.6081 26.3002 25.5095 26.3002 25.5095L27.1804 25.8935L27.5298 27.2205L26.8898 28.5994L26.0745 29.1114L25.1486 27.6228L23.8686 26.0561L23.8665 26.0535Z" fill="#9F8E57"/>
<path fill-rule="evenodd" clip-rule="evenodd" d="M22.7145 27.238L22.4098 27.4654C22.4098 27.4654 22.4879 27.3229 22.5523 26.8894C22.6168 26.4559 22.9538 25.4008 23.4458 24.7924C23.9377 24.1839 23.9249 24.2164 23.9249 24.2164C23.8796 24.2081 23.8331 24.2095 23.7885 24.2207C23.7438 24.2318 23.702 24.2523 23.6659 24.2808C23.7308 24.1374 24.1451 23.6254 24.5594 23.3694C24.9737 23.1134 25.1354 23.0328 25.5689 23.2414C26.0024 23.4501 26.1124 23.5584 26.4299 23.5456C26.7473 23.5328 27.0187 23.1962 27.0187 23.1962C27.0187 23.1962 27.0835 23.4031 26.8442 23.8823C26.6048 24.3614 25.6597 25.3385 25.6597 25.3385L23.692 26.6846L22.7145 27.2393V27.238Z" fill="#EAC970"/>
<path fill-rule="evenodd" clip-rule="evenodd" d="M24.1703 25.8917C24.1703 25.8917 25.5945 26.0858 26.028 25.6848C26.0408 25.73 26.0928 25.73 26.0928 25.7624C26.0893 25.7869 26.0779 25.8095 26.0604 25.8269C26.1075 25.8193 26.1552 25.8151 26.2029 25.8141C26.2599 25.831 26.3185 25.8419 26.3778 25.8465C26.4256 25.8454 26.4732 25.841 26.5203 25.8333C26.5158 25.8654 26.5049 25.8964 26.4882 25.9242C26.4715 25.9521 26.4493 25.9763 26.4231 25.9954C26.4879 25.9954 26.5511 26.0082 26.5511 26.0598C26.5511 26.1114 26.5639 26.2672 26.4862 26.2996C26.4219 26.3174 26.3534 26.3127 26.2921 26.2864C26.2972 26.4089 26.3305 26.5286 26.3893 26.6362C26.5173 26.8756 26.7904 27.1482 27.1573 27.0697C27.1573 27.0697 27.3511 27.5357 26.5357 28.5712C26.426 28.7137 26.3091 28.9078 26.1671 29.0695C26.1109 29.1919 26.068 29.3199 26.0391 29.4514C26.0391 29.4514 27.418 28.9206 27.8127 27.7102C28.2142 26.4933 28.2919 25.2961 28.2142 24.1765C28.201 23.8591 28.1494 23.6329 28.0717 23.4708C27.8776 23.0693 27.3336 23.1342 27.1138 23.3607C26.7964 23.6782 26.2656 24.4675 25.5279 25.0111C24.777 25.5546 24.745 25.6511 24.1685 25.8917H24.1703Z" fill="#D7BC6B"/>
<path fill-rule="evenodd" clip-rule="evenodd" d="M22.4619 27.6394C22.4619 27.6394 22.1901 27.8011 22.0476 28.4074C21.9051 29.0286 22.1756 29.786 22.3322 30.0253C22.4888 30.2647 22.8442 30.9188 23.5814 30.9512C23.7639 30.9502 23.9444 30.9128 24.1122 30.8411C24.3696 30.7231 24.611 30.573 24.8307 30.3944C25.1482 30.155 25.4067 29.9481 25.3743 29.9285C25.2966 29.8961 23.4197 28.3426 23.4197 28.3426L22.714 27.5549L22.4614 27.6403L22.4619 27.6394Z" fill="#585136"/>
<path fill-rule="evenodd" clip-rule="evenodd" d="M24.236 30.2152C24.236 30.2152 24.6178 30.1832 24.8444 30.0407C25.071 29.8982 23.5175 28.3579 23.5175 28.3579L23.6275 30.0219L24.236 30.2152Z" fill="#453A25"/>
<path fill-rule="evenodd" clip-rule="evenodd" d="M22.5848 27.5226C22.5848 27.5226 22.3906 27.8917 22.3906 27.989C22.3582 28.306 22.4555 29.3027 22.5331 29.6197C22.6108 29.9563 23.0315 30.4675 23.5755 30.4675C23.9117 30.4675 24.378 30.2605 24.378 30.2089C24.378 30.1441 23.8989 30.0809 23.7696 29.8399C23.692 29.7119 23.6595 29.3936 23.6416 29.0719C23.6288 28.8649 23.6288 28.6384 23.7065 28.5599C23.8814 28.3657 23.9134 27.8089 23.9134 27.8089L24.5346 26.6548H23.7176L22.7401 27.2632L22.5848 27.5226Z" fill="#84754B"/>
<path fill-rule="evenodd" clip-rule="evenodd" d="M22.3454 27.8789C22.3454 27.8789 22.9854 27.0311 23.5623 26.8365C24.1391 26.642 24.3972 26.7589 24.3972 26.7589L24.0606 27.6199L23.5814 28.1507L23.6139 28.4225C23.6139 28.4225 23.5358 29.141 24.0149 29.6393C24.4941 30.1377 24.8499 30.1185 25.0573 30.1185C25.2647 30.1185 25.8599 29.9435 26.1641 29.225C26.4359 28.5522 26.6624 27.689 26.1188 26.8237C25.5876 25.9627 24.6494 25.9294 24.4681 25.9294C24.2867 25.9294 22.8629 26.0007 22.3454 27.8776V27.8789Z" fill="#252211"/>
<path fill-rule="evenodd" clip-rule="evenodd" d="M38.7789 30.7587C38.5395 30.6486 38.7661 29.9758 39.0054 29.7684C39.2448 29.561 39.549 29.3221 40.0802 29.2892C40.2739 29.2764 40.4616 29.3993 40.4296 29.529C40.3844 29.7684 40.0478 30.105 39.7436 30.3444C39.3229 30.6746 39.0506 30.8816 38.7789 30.7587Z" fill="#F7F7E7"/>
<path fill-rule="evenodd" clip-rule="evenodd" d="M25.8338 27.0889C26.0088 27.0761 26.2353 27.2169 26.2805 27.4064C26.3258 27.6133 26.1705 28.0276 25.8338 28.0276C25.562 28.0276 25.4195 27.691 25.4195 27.5941C25.4226 27.5145 25.4448 27.4368 25.4844 27.3676C25.4972 27.3479 25.5296 27.1214 25.8338 27.0889Z" fill="#F8F6DE"/>
<path fill-rule="evenodd" clip-rule="evenodd" d="M23.3097 27.238C23.3097 27.238 22.863 27.445 22.656 27.878C22.5082 28.1978 22.4634 28.5557 22.528 28.902C22.5604 29.0637 22.7222 29.4648 22.8322 29.6073C22.9423 29.7498 23.0912 29.8471 23.2013 29.8339C23.3114 29.8207 23.5375 29.5297 23.5375 29.3552C23.5375 29.1807 23.5507 28.4425 23.7641 28.041C23.9518 27.64 23.311 27.2385 23.311 27.2385L23.3097 27.238Z" fill="#D4C38B"/>
<path fill-rule="evenodd" clip-rule="evenodd" d="M23.3745 27.2055C23.2969 27.2507 23.1676 27.3155 23.1996 27.3996C23.232 27.4773 23.5038 27.5276 23.6011 27.717C23.7111 27.9112 23.7111 28.1181 23.6787 28.2154C23.7633 28.1752 23.84 28.1203 23.9053 28.0533C24.0478 27.8915 24.2223 27.6718 24.3712 27.6718C24.4685 27.6718 24.5653 27.717 24.6562 27.717C24.7987 27.717 24.9408 27.6718 24.9604 27.5229C24.9924 27.3288 24.6886 27.1538 24.5137 27.1863C24.5461 27.0583 24.5914 26.8693 24.4489 26.7395C24.3063 26.6098 23.8601 26.8368 23.7628 26.9017C23.6655 26.9665 23.3745 27.2059 23.3745 27.2059V27.2055Z" fill="#E2D59D"/>
<path fill-rule="evenodd" clip-rule="evenodd" d="M33.6593 40.8041L34.6172 40.5212L34.8889 40.7154C34.8889 40.7154 35.0826 41.1297 35.3873 41.1813C35.29 41.3882 35.0374 41.5653 35.0506 41.7121C35.0639 41.8588 35.1932 41.9711 35.1932 41.9711C35.1932 41.9711 34.3321 43.3948 36.0281 44.8297C35.6267 44.9914 35.1155 45.2137 34.8437 45.3417C35.0374 45.3869 35.4517 45.4697 35.6266 45.6267C35.8016 45.7837 35.8016 45.8337 35.9633 45.9309C36.125 46.0282 36.2218 46.1575 36.1898 46.2155C36.0798 46.1507 35.7107 45.957 35.6463 46.1379C35.5818 46.3188 34.0476 46.248 34.0476 46.248L31.4585 46.7463C31.4585 46.7463 31.5554 46.4873 31.2836 46.248C30.9666 45.9634 30.5783 46.2608 30.164 45.9437C29.6205 45.5295 29.6008 45.0503 29.4263 44.8694C29.6008 44.7593 29.9571 44.5976 30.8049 44.4854C30.7725 44.4205 30.6624 44.2264 30.7272 44.0519C30.8049 43.8253 31.1283 43.6828 31.0315 43.4119C31.174 43.3795 31.2384 43.3795 31.5946 42.9328C31.9313 42.486 32.1382 42.3892 32.3972 42.3568C32.6562 42.3243 32.8115 42.3568 33.2906 41.91C33.6269 41.593 33.5172 41.3212 33.5172 41.3212C33.5172 41.3212 33.7369 41.25 33.6597 40.8033L33.6593 40.8041Z" fill="#CBAC5A"/>
<path fill-rule="evenodd" clip-rule="evenodd" d="M30.831 40.9479C30.8438 40.883 30.8958 40.8506 31.2453 40.883C31.5947 40.9155 33.8082 40.6761 34.4103 40.6437C35.0187 40.5985 37.161 40.6305 38.2033 40.8506C39.2457 41.0708 40.3004 41.3298 40.8116 41.459C41.3236 41.6016 41.4848 41.6528 41.4652 41.7176C41.4524 41.7825 41.3372 41.8456 41.2711 41.8277C41.2066 41.8149 39.5106 41.2969 38.9867 41.1877C38.4628 41.0785 36.6498 40.7862 35.6587 40.8037C34.7333 40.8169 34.3642 40.7909 33.5813 40.8813C32.7979 40.9786 31.5034 41.1079 31.1151 41.0563C30.7311 41.011 30.8105 41.011 30.8301 40.9462L30.831 40.9479Z" fill="#D6BC6F"/>
<path fill-rule="evenodd" clip-rule="evenodd" d="M36.041 46.021C36.041 46.021 37.3679 46.7395 37.847 47.6198C38.1965 48.2734 37.6401 48.5972 37.6401 48.5972C37.6401 48.5972 38.391 48.5972 38.2938 49.0115C38.2485 49.2701 36.9993 49.969 36.1643 50.338C35.3165 50.7071 35.3489 50.6879 34.9346 50.7523C34.5331 50.8172 33.4328 50.6243 33.2062 50.9465C32.9796 51.2686 33.0782 51.6006 33.1413 51.6522C33.2062 51.6974 33.7306 51.7623 33.7306 51.7623C33.7306 51.7623 33.6205 52.0665 32.5333 52.0989C31.4462 52.1313 31.174 52.2086 31.1091 52.3255C31.0443 52.4351 31.3161 52.3707 31.8148 52.4535C32.3132 52.5311 33.0121 52.5815 33.0121 52.5815C33.0121 52.5815 32.7855 52.7756 32.1967 52.9309C31.5234 53.1054 30.4683 53.2675 30.1513 53.4617C30.313 53.5718 30.5528 53.7335 30.6633 53.7463C30.3915 53.8111 30.0092 53.9536 29.9448 54.0052C30.0416 54.0701 30.1713 54.1478 30.1713 54.1478C30.1713 54.1478 29.6273 54.8014 29.3103 54.9635C28.9933 55.1257 27.168 55.973 26.54 55.8113C24.9737 55.397 24.7795 53.6818 24.3977 53.5526C23.8217 53.3584 23.5499 53.7463 23.0383 53.4745C23.2649 53.3128 23.3882 53.2159 23.6275 53.1058C23.3685 52.9778 22.0288 52.1283 22.0288 52.1283C21.8887 51.823 21.7332 51.5249 21.5629 51.2353C21.3039 50.7886 20.9229 50.193 20.637 49.6686C20.0158 48.5166 19.9834 47.9858 19.4202 47.3322C19.5174 47.2042 19.8537 47.2221 19.8537 47.2221L24.5726 48.7756L32.94 49.0179L35.116 45.9114L36.0414 46.0215L36.041 46.021Z" fill="#DFC677"/>
<path fill-rule="evenodd" clip-rule="evenodd" d="M23.6463 50.7587C23.6968 50.8149 23.7557 50.8629 23.8208 50.9012C23.9829 51.0113 24.2223 51.141 24.384 51.3347C24.4489 51.2378 24.6106 51.0629 24.896 51.3347C25.1814 51.6065 25.536 51.4128 25.7566 51.4772C25.9832 51.5553 25.996 51.5873 25.996 51.5873C25.996 51.5873 26.124 51.4772 26.4102 51.3607C26.5852 51.2959 26.7921 51.2506 27.0187 51.1862C27.2256 51.141 27.4522 51.0761 27.6079 51.0761C27.7504 51.173 28.2616 51.7161 30.3134 50.9144C32.2488 50.1635 32.695 50.0794 33.0189 50.1955C33.0513 50.1178 33.0837 49.9689 33.5821 49.9885C33.5821 49.7816 33.1678 49.0759 33.1678 49.0759L30.883 48.293H29.6333L25.8859 48.979L23.8093 50.1639L23.6476 50.7612L23.6463 50.7587Z" fill="#C4A859"/>
<path fill-rule="evenodd" clip-rule="evenodd" d="M22.397 49.445C22.397 49.445 22.4423 49.7944 22.9602 50.1635C23.4722 50.5321 23.6331 50.7523 23.6331 50.7523C23.6331 50.7523 23.7304 50.6243 23.808 50.4937C23.8857 50.3512 23.9505 50.1895 24.0798 50.1443C24.3388 50.0342 24.9276 50.2411 25.0573 50.2087C25.1674 50.1767 25.135 49.9502 25.2514 49.9502C25.5232 49.9369 25.6977 50.1247 25.795 50.1247C25.8923 50.1247 26.1312 50.1119 26.1636 50.0602C26.1961 50.0086 26.2089 49.471 26.5779 49.212C26.9794 48.9274 27.4714 49.0503 27.6019 49.1152C27.6019 49.212 27.6147 49.4518 27.8737 49.4646C28.1327 49.4774 28.1583 49.4322 28.3857 49.5098C28.6131 49.5875 28.8841 49.497 29.007 49.8785C29.117 49.8465 29.376 49.814 29.3112 49.445C29.4392 49.3481 29.551 49.2833 29.8232 48.9014C29.888 48.8046 29.9977 48.6945 30.0822 48.552C30.3087 48.552 30.5805 48.5067 30.9427 48.8238C30.8327 48.9014 30.7678 48.9518 30.7358 49.0307C30.8305 49.1245 30.9171 49.2263 30.9944 49.3349C31.0916 49.4629 31.1565 49.6199 31.2794 49.6523C31.5512 49.73 31.9979 49.6199 32.4962 49.6523C32.9754 49.6848 33.3764 49.8593 33.5514 49.9694C33.6162 49.9374 33.6162 49.9241 33.7779 49.9566C33.9396 49.989 34.0625 50.0018 33.888 49.7948C33.9849 49.8401 34.095 49.9374 34.1922 49.8401C34.2895 49.7428 34.3667 49.6007 34.6385 49.5683C34.9103 49.5359 35.0076 49.5811 35.1177 49.2965C35.2602 48.9471 34.7682 48.9471 34.7682 48.9471C34.7682 48.9471 34.9948 48.7397 35.2474 48.4679C35.5516 48.1833 35.901 47.8143 35.9851 47.3611C36.1276 46.5262 35.3122 46.4165 35.3122 46.4165L31.3575 47.6334L26.5225 47.3936L22.3996 49.4454L22.397 49.445Z" fill="#927D49"/>
<path fill-rule="evenodd" clip-rule="evenodd" d="M18.8438 38.0211C18.8438 38.0211 18.7158 38.1828 18.6368 38.5647C18.5579 38.9465 18.5916 38.9013 18.5267 39.1731C18.4619 39.4449 17.6653 42.1504 17.964 43.063C18.2626 43.9757 18.7798 44.3123 19.1032 45.05C19.168 45.2117 19.2312 45.309 19.2649 45.4515C19.375 45.9302 19.2781 46.2993 19.4074 46.7784C19.4526 46.9401 19.5695 47.1279 19.744 47.322C20.128 47.7231 20.7539 48.1049 21.024 48.3767C21.4055 48.7782 21.9495 49.594 22.6419 49.6712C23.011 49.7165 23.5354 49.5612 23.9689 49.3026C24.3529 49.0628 24.5901 48.7266 24.9929 48.5346C25.2775 48.3921 25.5817 48.3405 25.8535 48.2756C26.4167 48.1655 26.9282 48.1476 27.2324 48.2107C27.6984 48.308 28.7987 48.6447 29.4084 48.6447C29.8849 48.637 30.3586 48.5718 30.8194 48.4505C31.7449 48.1787 32.8645 47.7124 33.6026 47.5055C34.0361 47.3775 34.3855 47.3438 34.7418 47.2661C35.3502 47.1236 35.8614 46.9295 36.1528 46.5604C35.9586 46.3338 35.7193 45.9844 34.4243 45.9972C32.9553 46.0296 31.2593 46.845 30.4243 46.9747C29.5894 47.1044 29.2271 47.2141 28.2948 46.8774C27.3809 46.5374 27.3506 46.3125 27.3506 46.3125C27.3506 46.3125 26.3911 45.6414 25.9896 43.9304C25.5881 42.2195 25.9896 40.9728 27.0319 39.7879C27.3037 39.4837 27.2388 39.2119 27.2388 39.2119C27.2388 39.2119 27.9249 38.2865 27.7372 37.4199C27.5303 36.5589 26.2033 36.7338 26.2033 36.7338L18.8442 38.0211H18.8438Z" fill="#6E6342"/>
<path fill-rule="evenodd" clip-rule="evenodd" d="M19.9505 40.9016C19.8935 41.0089 19.8666 41.1297 19.8729 41.2511C19.8857 41.4256 19.9377 41.6521 20.4617 42.1637C20.9084 42.61 20.8111 43.1083 20.8111 43.1083C20.8111 43.1083 21.036 43.1536 21.6461 42.8681C22.1252 42.6416 22.2861 43.0431 22.2861 43.0431C22.4256 42.9699 22.5767 42.9217 22.7328 42.9005C22.8742 42.8875 23.0111 42.8438 23.1339 42.7725C23.1339 42.7725 23.6971 43.3485 24.189 43.6203C24.6357 43.8601 24.8947 44.0218 25.1149 43.8601C25.3218 43.7176 25.3218 43.4262 25.3086 43.2969C25.2573 43.1776 25.1923 43.0646 25.1149 42.9603C24.9724 42.7533 24.7458 42.5136 24.7309 42.3203C24.6985 41.874 25.0675 41.3428 24.9895 41.2135C24.9114 41.0842 24.6208 41.0518 23.9023 41.3108C23.1582 41.5565 19.9475 40.9029 19.9475 40.9029L19.9505 40.9016Z" fill="#39331F"/>
<path fill-rule="evenodd" clip-rule="evenodd" d="M21.6461 43.7947C21.6461 43.7947 21.2775 43.4452 21.4067 41.7492C21.5632 41.747 21.7195 41.7621 21.8727 41.7945C21.8727 41.7945 22.0736 43.1086 21.6461 43.7947Z" fill="#292311"/>
<path fill-rule="evenodd" clip-rule="evenodd" d="M19.0187 36.7265C19.0701 36.6884 19.1178 36.6456 19.1612 36.5985C19.0332 36.8379 18.4422 37.7957 18.9214 39.304C19.4005 40.8054 20.6042 41.925 22.0864 41.9771C23.5686 42.0291 24.3477 41.3038 25.2386 40.2166C25.5881 39.7831 25.9896 39.2391 26.3454 38.8705C26.8762 38.2941 27.2905 38.1324 27.2905 37.576C27.2905 36.4368 26.1252 35.9252 24.41 35.4141C22.6948 34.9029 21.1477 34.9661 20.3452 35.3159C19.5622 35.6974 19.2256 36.0989 19.0182 36.7269L19.0187 36.7265Z" fill="#252211"/>
<path fill-rule="evenodd" clip-rule="evenodd" d="M24.5265 44.3059L24.6545 44.241C24.6545 44.241 24.6865 43.729 24.8939 43.7427C25.1008 43.7751 25.1981 44.0473 25.1785 44.1442C25.1657 44.241 25.114 44.4032 24.9067 44.3836C24.6349 44.39 24.5252 44.3059 24.5252 44.3059H24.5265Z" fill="#3F3824"/>
<path fill-rule="evenodd" clip-rule="evenodd" d="M23.9505 42.1311C23.9505 42.1311 24.0785 42.0859 24.2351 42.2412C24.3631 42.2412 24.9212 42.1764 25.0961 42.2864C25.2711 42.3965 25.3227 42.4934 25.3227 42.4934C25.3227 42.4934 24.669 42.6359 24.3128 42.4934C23.9505 42.3705 23.9505 42.1311 23.9505 42.1311Z" fill="#2D2815"/>
<path fill-rule="evenodd" clip-rule="evenodd" d="M26.8309 42.2281C26.8309 42.1956 26.4815 41.9563 26.1124 41.8782C26.0476 41.8654 26.0343 41.9106 25.9844 41.9106C25.952 41.8978 25.9392 41.8005 25.9392 41.8005L25.7293 41.911C25.7293 41.911 25.6969 41.9563 25.8069 42.039C25.9038 42.1167 26.0659 42.1816 26.1111 42.3108C26.1564 42.4401 26.1564 42.4853 26.176 42.505C26.1888 42.5178 26.4154 42.505 26.5254 42.4401C26.6355 42.3753 26.8429 42.2694 26.8297 42.2268L26.8309 42.2281Z" fill="#82764F"/>
<path fill-rule="evenodd" clip-rule="evenodd" d="M23.5623 43.5421C23.5623 43.5421 23.6267 43.0958 24.0606 43.0762C24.5069 43.0438 24.5914 43.4773 24.5914 43.4773L24.3324 43.7362C24.3324 43.7298 24.1383 43.4581 23.5644 43.5421H23.5623Z" fill="#2D2816"/>
<path fill-rule="evenodd" clip-rule="evenodd" d="M26.3778 41.6196C26.3778 41.6196 26.138 41.8786 25.6077 41.9563C25.5625 41.8914 25.4652 41.7622 25.6077 41.5552C25.7502 41.3483 25.9119 41.2834 26.0736 41.3479C26.145 41.3594 26.2115 41.3912 26.2654 41.4393C26.3193 41.4875 26.3583 41.55 26.3778 41.6196Z" fill="#574F35"/>
<path fill-rule="evenodd" clip-rule="evenodd" d="M27.3549 41.937C27.3681 41.8722 27.3229 41.8594 27.3549 41.8269C27.3869 41.7945 27.5623 41.7301 27.5947 41.7621C27.6075 41.7753 27.5947 41.8269 27.5947 41.8901C27.5947 41.9532 27.5947 42.0181 27.5623 42.0646C27.517 42.1295 27.3877 42.1619 27.3229 42.1427C27.258 42.1235 27.2452 42.0326 27.2452 42.0147C27.2772 42.0019 27.3549 41.9695 27.3549 41.937ZM28.46 41.2381C28.46 41.2057 28.57 41.1409 28.6349 41.1409C28.7317 41.1409 28.7317 41.2185 28.745 41.2381C28.777 41.2509 28.777 41.2249 28.8094 41.2834C28.8418 41.3418 28.8875 41.4451 28.8546 41.5099C28.8218 41.5748 28.6929 41.6196 28.6609 41.6068C28.6157 41.5744 28.4732 41.2834 28.46 41.2381Z" fill="#82764F"/>
<path fill-rule="evenodd" clip-rule="evenodd" d="M26.2353 42.0859C26.2353 42.0859 26.3778 42.1179 26.572 42.28C26.5071 42.3252 26.4098 42.3769 26.4098 42.3769C26.4098 42.3769 26.397 42.228 26.2353 42.0854V42.0859Z" fill="#6E6342"/>
<path fill-rule="evenodd" clip-rule="evenodd" d="M25.9183 40.6617C25.8859 40.6297 26.0151 40.5521 26.0928 40.5649C26.1705 40.5777 26.2029 40.6297 26.2869 40.6425C26.371 40.6553 26.3842 40.6101 26.4149 40.5777C26.4457 40.5452 26.5574 40.5649 26.5766 40.5777C26.5886 40.5919 26.5994 40.607 26.6091 40.6229C26.6104 40.5983 26.6168 40.5742 26.6279 40.5522C26.639 40.5301 26.6545 40.5106 26.6735 40.4949C26.6983 40.4766 26.727 40.4642 26.7572 40.4586C26.7875 40.453 26.8187 40.4543 26.8484 40.4625C26.8612 40.5077 26.9261 40.6694 26.9133 40.7018C26.9005 40.7342 26.7063 40.7799 26.6735 40.747C26.7059 40.8251 26.8484 40.9868 26.8676 41.0188C26.8868 41.0508 26.7251 41.1289 26.6607 41.1161C26.5702 41.1097 26.0134 40.7859 25.9166 40.663L25.9183 40.6617ZM26.7661 39.5874C26.7541 39.5548 26.7312 39.5273 26.7012 39.5097C26.656 39.4969 26.5071 39.5097 26.5071 39.5874C26.5071 39.665 26.6351 40.0994 26.7789 40.3255C26.941 40.5521 27.0507 40.7394 27.1607 40.7914C27.1953 40.8072 27.2346 40.8092 27.2706 40.7972C27.3066 40.7851 27.3367 40.7599 27.3549 40.7266C27.3677 40.6941 27.4001 40.4548 27.3873 39.8916C27.3745 39.3284 27.3549 38.7848 27.3225 38.7524C27.29 38.7199 27.1607 38.7204 27.1155 38.7848C27.0703 38.8492 26.7789 39.4905 26.7657 39.5874H26.7661Z" fill="#585136"/>
<path fill-rule="evenodd" clip-rule="evenodd" d="M26.1901 42.9012C26.1901 42.9012 25.9635 42.7587 25.7434 42.856C25.5364 42.9533 25.5492 43.3352 25.5492 43.3352C25.5958 43.3534 25.6461 43.36 25.6958 43.3543C25.7454 43.3487 25.793 43.3309 25.8342 43.3027C25.9767 43.2059 26.1577 43.0442 26.1901 42.9017V42.9012Z" fill="#574F35"/>
<path fill-rule="evenodd" clip-rule="evenodd" d="M26.6172 43.4128C26.6044 43.2848 26.4892 43.2848 26.4892 43.2186C26.4971 43.187 26.5154 43.159 26.5412 43.139C26.567 43.1191 26.5987 43.1084 26.6313 43.1086C26.6961 43.1086 26.7593 43.1862 26.8386 43.2366C26.9163 43.2818 27.0328 43.3646 27.0456 43.4631C27.0584 43.5617 26.9176 43.8318 26.761 43.8318C26.6044 43.8318 26.6509 43.5404 26.6185 43.4111L26.6172 43.4128ZM27.8665 43.2378C27.8665 43.2378 27.6075 43.3155 27.6267 43.2378C27.6459 43.1602 27.7048 43.141 27.7888 43.141C27.8315 43.0963 27.889 43.0686 27.9505 43.0629C27.9857 43.0612 28.0203 43.0728 28.0474 43.0953C28.0474 43.0953 28.2223 43.0177 28.2739 43.0629C28.3256 43.1081 28.2872 43.1081 28.3192 43.1602C28.3599 43.218 28.3867 43.2844 28.3973 43.3543C28.3973 43.406 28.2031 43.516 28.0474 43.4968C27.8665 43.458 27.8985 43.2703 27.8665 43.2378ZM29.3743 42.9464C29.3743 42.9464 29.452 42.9917 29.3875 43.0437C29.3423 43.0889 29.1158 43.1717 28.9212 43.1862C28.7271 43.1862 28.5526 43.2182 28.5526 43.1538C28.5526 43.0894 28.7143 42.9597 28.8111 42.9272C28.8305 42.9029 28.8552 42.8833 28.8833 42.8698C28.9114 42.8564 28.9421 42.8495 28.9733 42.8496C29.0509 42.8496 29.3547 42.8172 29.4392 42.8044C29.5168 42.7911 29.5817 42.8364 29.536 42.9012C29.5168 42.9464 29.3743 42.9464 29.3743 42.9464ZM29.821 40.9479C29.821 40.9479 29.7238 41.1549 29.6141 41.1549C29.504 41.1421 29.504 41.1096 29.504 41.0772C29.504 41.032 29.6141 40.9155 29.6009 40.8831C29.5689 40.8831 29.4908 40.8831 29.504 40.8054C29.504 40.7406 29.6141 40.6629 29.711 40.6774C29.7841 40.6173 29.8753 40.5832 29.9699 40.5806C30.08 40.5806 30.1769 40.6126 30.1769 40.6774C30.1769 40.7423 30.0489 40.8844 30.0019 40.9172C29.9503 40.9688 29.8855 41.0025 29.821 40.9492V40.9479ZM28.3452 44.773C28.3452 44.773 28.2172 44.7862 28.2172 44.8506C28.2172 44.8831 28.2492 44.8831 28.2949 44.8639C28.3211 44.8624 28.3472 44.8579 28.3725 44.8506C28.3853 44.8639 28.3853 44.9283 28.4826 44.9283C28.5625 44.9175 28.6394 44.8911 28.7091 44.8506C28.7868 44.8186 28.8516 44.7858 28.8516 44.7226C28.8192 44.6126 28.7544 44.5605 28.6575 44.5605C28.6079 44.5574 28.5584 44.5686 28.515 44.5929C28.515 44.5929 28.4826 44.5281 28.3725 44.5929C28.2624 44.6578 28.2752 44.6578 28.3076 44.6902C28.3657 44.7418 28.3465 44.7756 28.3465 44.7756L28.3452 44.773ZM27.6139 45.4463C27.6139 45.4138 27.7756 45.349 27.8208 45.3686C27.8661 45.3814 27.9953 45.6272 27.9953 45.6532C27.9953 45.6856 27.8336 45.7633 27.7688 45.7633C27.7039 45.7633 27.5943 45.6532 27.5943 45.6353C27.5943 45.6225 27.6719 45.6033 27.6719 45.5901C27.6911 45.5581 27.6139 45.48 27.6139 45.4476V45.4463ZM27.1019 44.5012C27.1343 44.4884 27.1343 44.456 27.1795 44.4236C27.1937 44.4141 27.2098 44.4081 27.2267 44.4059C27.2436 44.4036 27.2607 44.4053 27.2768 44.4108C27.2882 44.3904 27.304 44.3728 27.3231 44.3593C27.3421 44.3458 27.3639 44.3367 27.3869 44.3327C27.4646 44.3199 27.5294 44.3327 27.5149 44.3651C27.5149 44.4624 27.5798 44.5268 27.5798 44.6045C27.5798 44.6821 27.5345 44.7794 27.3728 44.8442C27.2111 44.8895 26.991 44.8895 26.9585 44.8767C26.9261 44.8639 26.8937 44.7342 26.9261 44.6693C26.9585 44.6045 27.049 44.5336 27.101 44.5012H27.1019Z" fill="#82764F"/>
<path fill-rule="evenodd" clip-rule="evenodd" d="M27.3079 44.5452C27.3079 44.5452 27.1979 44.61 27.1979 44.6424C27.1881 44.6738 27.1838 44.7065 27.1851 44.7393C27.1851 44.7585 27.3276 44.7265 27.3468 44.7069C27.3532 44.6941 27.3079 44.5789 27.3079 44.5452Z" fill="#6E6342"/>
<path fill-rule="evenodd" clip-rule="evenodd" d="M26.3454 44.2411C26.4098 44.2543 26.5199 44.2411 26.6039 44.2735C26.6688 44.306 26.714 44.3708 26.6492 44.4485C26.5843 44.5261 26.5212 44.6426 26.3774 44.623C26.2157 44.6102 26.0604 44.5261 26.0604 44.4613C26.0577 44.4202 26.0631 44.3791 26.0764 44.3402C26.0898 44.3013 26.1107 44.2654 26.138 44.2347C26.2029 44.1831 26.2349 44.2155 26.345 44.2411H26.3454Z" fill="#585136"/>
<path fill-rule="evenodd" clip-rule="evenodd" d="M26.2677 44.3059C26.2677 44.3059 26.0608 44.4676 26.0087 44.5457C25.9439 44.6233 25.6269 45.0244 25.53 45.1085C25.5622 45.0517 25.5989 44.9976 25.6397 44.9468C25.5117 45.0286 25.4157 45.152 25.3679 45.2962C25.2902 45.536 25.8018 45.6653 26.138 45.7625C26.4742 45.8598 26.6044 45.8905 26.6044 45.8905C26.4806 45.7045 26.3743 45.5074 26.2869 45.3018C26.1589 44.9975 26.0928 44.9651 26.1769 44.8226C26.2417 44.6801 26.339 44.5832 26.339 44.4732C26.3002 44.3708 26.2677 44.3059 26.2677 44.3059Z" fill="#574F35"/>
<path fill-rule="evenodd" clip-rule="evenodd" d="M18.889 44.8174C18.9361 44.826 18.9844 44.826 19.0315 44.8174C19.1283 44.8041 20.1383 44.4334 21.1934 44.4999C21.9833 44.5477 22.7662 44.6763 23.5298 44.8839C24.8568 45.2334 26.5071 45.9259 27.5751 46.3209C27.8596 46.4306 28.1383 46.6252 28.3431 46.7024C29.1588 47.0198 29.1908 47.0198 29.67 47.1039C30.2332 47.1815 30.8092 46.9938 31.4112 46.8645C32.1489 46.7024 33.411 46.6247 34.5178 46.463C34.8757 46.4134 35.2287 46.3333 35.5729 46.2237C35.5729 46.2237 34.6927 47.1039 32.5824 47.4209C31.7294 47.5504 30.8626 47.5613 30.0066 47.4533C29.3333 47.3885 28.8871 47.2912 28.5504 47.1943C28.1685 47.0843 27.3852 46.7928 26.4209 46.5543C25.7476 46.3794 24.9967 46.2501 24.1361 46.0884C22.013 45.6997 19.709 45.2534 18.8881 44.8199L18.889 44.8174Z" fill="#252211"/>
<path fill-rule="evenodd" clip-rule="evenodd" d="M16.5069 40.8174C15.9949 41.2509 15.4518 41.6652 14.9214 42.0662L13.3227 43.2946C12.7791 43.6957 12.2483 44.11 11.7043 44.5115C11.1603 44.913 10.6172 45.2944 10.0403 45.6635C10.5523 45.23 11.0955 44.8285 11.6391 44.4338C12.1826 44.0391 12.7463 43.6522 13.2706 43.2519L14.8694 42.0219C15.4193 41.6208 15.9501 41.2065 16.5069 40.8182V40.8174ZM13.6785 45.3482C13.6785 45.3482 14.2545 44.869 14.973 44.1962C15.8661 43.3616 16.96 42.2932 17.3095 42.0995L13.6781 45.3486L13.6785 45.3482Z" fill="#CFB66C"/>
<path fill-rule="evenodd" clip-rule="evenodd" d="M13.6785 45.3477C13.9635 45.0632 14.2678 44.785 14.572 44.5128L15.0379 44.1117C15.1804 43.9837 15.3425 43.8399 15.4846 43.6974C15.7692 43.4128 16.0478 43.1082 16.3324 42.8172C16.4734 42.6709 16.6226 42.5325 16.7791 42.4029C16.8574 42.3336 16.9443 42.2748 17.0377 42.228C17.1158 42.1827 17.1998 42.1 17.3095 42.0854C17.245 42.1827 17.1674 42.228 17.1025 42.312C17.0249 42.3769 16.96 42.4545 16.8956 42.5189C16.7531 42.6615 16.5914 42.7907 16.4489 42.9204C16.1447 43.1794 15.8276 43.4324 15.5234 43.7034C15.2192 43.9743 14.9346 44.2666 14.63 44.5384C14.3002 44.817 13.996 45.0888 13.6785 45.349V45.3477ZM17.5492 42.7587C17.5492 42.7587 15.4394 44.8238 15.0055 45.16L17.5492 42.7587Z" fill="#CFB66C"/>
<path fill-rule="evenodd" clip-rule="evenodd" d="M17.5492 42.7588C17.3594 42.9785 17.1559 43.186 16.94 43.38L16.3 43.9884C16.093 44.1954 15.8985 44.4027 15.6787 44.6097C15.4522 44.8038 15.2452 44.9937 15.0055 45.1729L15.6267 44.5644C15.834 44.3575 16.0606 44.183 16.2808 43.9756L16.902 43.3672C17.1153 43.1539 17.3227 42.9465 17.5492 42.7588ZM17.6461 43.8784C17.4516 44.4212 17.2225 44.9509 16.96 45.4643C16.4164 46.5519 15.6011 47.9108 15.2448 48.6037L17.6461 43.8784Z" fill="#CFB66C"/>
<path fill-rule="evenodd" clip-rule="evenodd" d="M17.6461 43.8787C17.6461 44.118 17.5812 44.3254 17.5036 44.5323C17.4279 44.7394 17.3416 44.9425 17.245 45.1407C17.1478 45.3349 17.0377 45.5422 16.9276 45.73C16.8175 45.9177 16.6882 46.1114 16.591 46.306L15.9373 47.458C15.7107 47.842 15.4906 48.2281 15.2512 48.5972C15.4129 48.1829 15.6331 47.7946 15.8404 47.4127C16.067 47.0287 16.2739 46.6447 16.4804 46.2475C16.5813 46.0496 16.672 45.8466 16.7522 45.6395C16.8491 45.4322 16.9459 45.238 17.024 45.0503C17.1209 44.8434 17.1985 44.6488 17.2958 44.4615C17.4055 44.2605 17.4963 44.0664 17.6452 43.8787H17.6461Z" fill="#CFB66C"/>
<path fill-rule="evenodd" clip-rule="evenodd" d="M19.9505 49.186C19.9505 49.186 19.3105 50.0338 19.3745 51.1082C19.549 50.5454 19.7692 49.6844 19.9505 49.186ZM20.559 50.036C20.559 50.036 20.3324 52.34 20.1447 53.4728C20.41 52.1633 20.4617 52.2734 20.559 50.036ZM24.7983 53.6089C24.7983 53.6089 23.8404 56.4249 23.8208 57.2074C24.0282 56.4027 24.4292 54.7587 24.7983 53.6067V53.6089Z" fill="#DEC270"/>
<path fill-rule="evenodd" clip-rule="evenodd" d="M27.0379 49.012C27.0379 49.012 28.5914 51.5749 29.7566 53.7625C29.4413 52.6617 28.716 50.6427 27.0379 49.012Z" fill="#CBAF59"/>
<path fill-rule="evenodd" clip-rule="evenodd" d="M31.2128 52.7849C32.0658 54.2926 32.8349 55.8462 33.5168 57.4386C33.3875 56.3382 33.0377 54.4549 31.2128 52.7849Z" fill="#E3C677"/>
<path fill-rule="evenodd" clip-rule="evenodd" d="M43.4846 56.564C43.7432 56.4023 44.2548 55.5216 44.7015 55.3019C45.1478 55.0753 45.4844 55.0301 45.8859 54.5834C46.287 54.117 46.3979 53.8325 47.2773 53.4638C48.5073 52.9326 47.6613 52.2465 47.6613 52.2465C47.7968 52.1135 47.9416 51.9903 48.0948 51.8779C48.4122 51.6385 48.7808 51.3471 48.7488 50.8356C48.7036 49.975 48.5419 48.7257 47.8362 48.0008C48.5223 47.8583 49.836 47.7614 50.6522 47.5545C51.5968 47.3147 52.0308 46.9781 52.0308 46.9781C52.0308 46.9781 51.4872 46.0526 52.3674 45.1208C53.2476 44.1889 53.9661 43.6321 54.4969 42.5898C53.8885 42.5121 52.9609 42.1887 50.5937 43.0881C50.7215 43.1483 50.8449 43.2174 50.9628 43.2951C50.9628 43.2951 49.5066 43.6966 48.9758 44.1433C48.05 44.9262 47.9335 45.5671 46.9304 46.0462C45.9273 46.5254 44.9174 46.3957 44.0828 46.7839C43.2483 47.1722 43.1249 47.5024 42.8203 47.6449C42.8852 47.7226 42.8075 47.8519 42.9304 47.962C42.8527 48.072 42.3996 48.8097 41.9401 48.8097C41.9853 48.9847 42.3736 49.114 42.3736 49.114C42.3736 49.114 42.089 49.3213 41.3641 49.3729C41.7327 49.7569 42.0826 50.1755 43.0469 50.7839C42.9692 50.9456 42.6454 51.1854 42.7751 51.4896C42.9176 51.7938 43.2871 52.2081 44.7621 52.5448C44.0111 52.5768 43.1313 52.7517 41.9461 52.59C40.7616 52.4475 40.5675 52.3634 39.8362 52.5448C39.9138 52.6224 40.1208 52.6224 40.3021 52.8294C40.108 52.8422 38.8911 52.6869 38.4768 53.2309C38.0433 53.7936 37.8556 54.7195 37.888 55.3407C37.6615 55.4508 37.4413 55.6449 37.5514 56.0464C37.6615 56.4479 38.2375 56.5772 38.6065 56.8294C38.9752 57.1012 39.0076 57.198 39.3575 57.1336C39.7261 57.0559 40.2697 56.6873 40.5871 56.6873C40.9046 56.6873 41.1307 56.9266 41.1307 56.9266C41.1307 56.9266 41.9917 56.5124 42.0758 56.59C42.1534 56.6677 42.0886 57.166 42.1726 57.2437C42.258 57.3021 43.2278 56.7261 43.4868 56.564H43.4846Z" fill="#ECD592"/>
<path fill-rule="evenodd" clip-rule="evenodd" d="M62.3002 30.6619C58.255 20.2154 48.2547 18.28 48.2547 18.28H19.724L19.834 28.9207H25.516V52.6813H19.7235V63.3027H47.465C54.1508 63.3027 59.5102 56.584 59.5102 56.584C68.0926 44.4031 62.2998 30.6619 62.2998 30.6619H62.3002ZM47.6139 49.4254C47.6139 49.4254 45.4379 52.5648 43.0703 52.5648H38.3343L38.2221 28.9467H44.3C44.3 28.9467 47.116 29.5355 49.0833 35.1082C49.0833 35.1082 51.6915 43.0869 47.6139 49.4254Z" fill="white" fill-opacity="0.8"/>
</g>
<defs>
<clipPath id="clip0_1234_18130">
<rect width="80" height="80" fill="white" transform="translate(0.299957 0.5)"/>
</clipPath>
</defs>
</svg>
