<svg width="81" height="81" viewBox="0 0 81 81" fill="none" xmlns="http://www.w3.org/2000/svg">
<rect x="0.300018" y="0.5" width="80" height="80" rx="40" fill="#D9D9D9"/>
<g clipPath="url(#clip0_1204_17105)">
<path d="M61.8356 54.1134C61.2342 61.2982 52.8155 67.3486 40.1873 67.0461C28.3108 66.7436 19.9671 61.752 19.3658 54.5671C19.2906 53.6596 19.3658 52.752 19.441 51.7688C19.8168 48.9705 20.794 46.3234 22.2222 43.9033L23.1242 44.2814C25.4544 43.3739 27.8598 42.6932 30.3403 42.2394C33.5725 41.7856 36.8799 41.71 40.1121 41.9369C43.3443 41.71 46.6517 41.7856 49.8839 42.2394C52.3644 42.6932 54.7698 43.3739 57.1 44.2814L58.002 43.9033L58.6034 43.6007C60.0316 46.0209 61.0087 48.668 61.5349 51.4663C61.6853 52.2982 61.7604 53.2058 61.6852 54.0377" fill="#F4A427"/>
<path d="M61.8356 54.1134C61.2342 61.2226 52.8906 67.0462 40.1873 66.9705C28.3108 66.668 19.9671 61.6764 19.3658 54.4915C19.2906 53.584 19.3658 52.6764 19.441 51.6932C20.7188 51.3907 21.9967 51.3907 23.2745 51.6176C25.6799 51.9957 27.0329 53.5084 28.7618 54.2647C29.7389 54.7184 30.7161 53.9621 31.6181 53.1302C34.0235 50.7857 37.2557 49.4243 40.5631 49.3487C43.9457 49.2731 46.7269 50.6344 49.6584 53.3571C50.2598 53.9621 51.0866 54.3403 51.9134 54.2647C52.6651 54.0378 53.4168 53.6596 54.0181 53.1302C56.2732 51.6176 58.9792 51.0126 61.6101 51.3907C61.8356 52.3739 61.9108 53.2058 61.8356 54.1134Z" fill="white"/>
<path d="M26.8826 36.4159C26.0557 37.2478 25.0034 37.8529 23.8759 38.0798L23.4248 38.1554C22.9738 38.3067 22.5228 38.3823 21.9967 38.3823C21.9215 38.3823 21.7712 38.3823 21.696 38.3823C21.4705 38.3067 21.1698 38.231 20.9443 38.1554C20.1175 37.7773 19.3658 37.3235 18.6893 36.7184C17.3363 35.584 16.0584 34.2983 15.0812 32.7857C10.947 26.7352 12.2248 18.5672 17.9376 14.0294C18.3134 13.8025 18.7644 13.8025 19.0651 14.1806C19.2155 14.4075 19.2906 14.6344 19.2155 14.8613C18.6893 17.2815 18.2383 21.063 20.4933 24.3151C22.4477 27.0378 26.5067 29.6848 28.9873 29.6848C29.5134 32.71 28.6866 34.752 26.8826 36.4159Z" fill="#F79422"/>
<path d="M26.8826 36.4159C26.0557 37.2478 25.0034 37.8529 23.8759 38.0798L23.4248 38.1554C22.9738 38.3067 22.5228 38.3823 21.9967 38.3823C21.9215 38.3823 21.7712 38.3823 21.696 38.3823C21.4705 38.3067 21.1698 38.231 20.9443 38.1554C20.1175 37.7773 19.3658 37.3235 18.6893 36.7184C17.3363 35.584 16.0584 34.2983 15.0812 32.7857C10.947 26.7352 12.2248 18.5672 17.9376 14.0294C18.3134 13.8025 18.7644 13.8025 19.0651 14.1806C19.2155 14.4075 19.2906 14.6344 19.2155 14.8613C18.6893 17.2815 18.2383 21.063 20.4933 24.3151C22.4477 27.0378 26.5067 29.6848 28.9873 29.6848C29.5134 32.71 28.6866 34.752 26.8826 36.4159Z" stroke="#221F1F" strokeLinejoin="round"/>
<path d="M37.7067 25.979L36.7296 35.6597H36.6544C35.151 35.8866 33.1215 36.1891 30.3403 36.6429C27.7846 37.021 24.3269 38.8361 22.2973 40.0462L22.0718 38.458C22.5228 38.3824 23.049 38.3067 23.5 38.2311L23.951 38.1555C25.0785 37.9286 26.1309 37.3235 26.9577 36.4916C28.6866 34.7521 29.5886 32.7857 28.9873 29.6849L29.2879 29.7605C30.19 28.7773 31.2423 28.021 32.445 27.416C34.0235 26.5084 35.8275 26.0546 37.7067 25.979Z" fill="#5A595C"/>
<path d="M37.7067 25.979L36.7296 35.6597H36.6544C35.151 35.8866 33.1215 36.1891 30.3403 36.6429C27.7846 37.021 24.3269 38.8361 22.2973 40.0462L22.0718 38.458C22.5228 38.3824 23.049 38.3067 23.5 38.2311L23.951 38.1555C25.0785 37.9286 26.1309 37.3235 26.9577 36.4916C28.6866 34.7521 29.5886 32.7857 28.9873 29.6849L29.2879 29.7605C30.19 28.7773 31.2423 28.021 32.445 27.416C34.0235 26.5084 35.8275 26.0546 37.7067 25.979Z" stroke="#221F1F" strokeLinejoin="round"/>
<path d="M59.6557 43.3738L59.0544 43.6764L58.453 43.9789L57.551 44.357C55.2208 43.4495 52.8155 42.7688 50.3349 42.315C47.1027 41.71 43.8705 41.4075 40.5631 41.4075C37.2557 41.4075 34.0235 41.6343 30.7913 42.315C28.3108 42.7688 25.9054 43.4495 23.5752 44.357C23.2745 44.2058 22.9738 44.0545 22.6732 43.9789L21.3953 43.3738C21.4705 42.315 21.3953 41.71 21.3953 40.6512C21.6208 40.4999 21.9967 40.273 22.3725 40.0461L22.4477 39.9705C24.402 38.7604 27.8598 37.0209 30.4155 36.5671C33.1967 36.1133 35.151 35.8108 36.7296 35.5839C37.7067 35.5083 38.7591 35.5083 39.8114 35.5083C41.39 35.5083 42.8181 35.5083 44.2463 35.5839C45.7497 35.8108 47.7792 36.1133 50.6356 36.5671C53.2665 36.9453 56.7242 38.7604 58.7537 39.9705H58.8289C59.2047 40.1974 59.5054 40.3486 59.7309 40.5755C59.6557 41.71 59.5806 42.315 59.6557 43.3738Z" fill="#929497"/>
<path d="M59.6557 43.3738L59.0544 43.6764L58.453 43.9789L57.551 44.357C55.2208 43.4495 52.8155 42.7688 50.3349 42.315C47.1027 41.7856 43.8705 41.4831 40.5631 41.4831C37.2557 41.4831 34.0235 41.71 30.7913 42.315C28.3108 42.7688 25.9054 43.4495 23.5752 44.357C23.2745 44.2058 22.9738 44.0545 22.6732 43.9789L21.3953 43.3738C21.4705 42.315 21.3953 41.71 21.3953 40.6512C21.6208 40.4999 21.9967 40.273 22.3725 40.0461L22.4477 39.9705C24.402 38.7604 27.8598 37.0209 30.4155 36.5671C33.1967 36.1133 35.151 35.8108 36.7296 35.5839C37.7067 35.5083 38.7591 35.5083 39.8114 35.5083C41.39 35.5083 42.8181 35.5083 44.2463 35.5839C45.7497 35.8108 47.7792 36.1133 50.6356 36.5671C53.2665 36.9453 56.7242 38.7604 58.7537 39.9705H58.8289C59.2047 40.1974 59.5054 40.3486 59.7309 40.5755C59.6557 41.71 59.5806 42.315 59.6557 43.3738Z" stroke="#221F1F" strokeLinecap="round" strokeLinejoin="round"/>
<path d="M44.1712 35.6595C42.8181 35.5839 41.3148 35.5083 39.7363 35.5839C38.6839 35.5839 37.6316 35.6595 36.6544 35.6595H36.7296L37.7067 25.9788L37.9322 24.0125C38.6839 23.5587 39.5859 23.3318 40.4128 23.3318H40.5631C41.4651 23.3318 42.292 23.5587 43.0437 24.0125L43.2692 25.9788V26.0545L44.1712 35.6595Z" fill="#929497"/>
<path d="M44.1712 35.6595C42.8181 35.5839 41.3148 35.5083 39.7363 35.5839C38.6839 35.5839 37.6316 35.6595 36.6544 35.6595H36.7296L37.7067 25.9788L37.9322 24.0125C38.6839 23.5587 39.5859 23.3318 40.4128 23.3318H40.5631C41.4651 23.3318 42.292 23.5587 43.0437 24.0125L43.2692 25.9788V26.0545L44.1712 35.6595Z" stroke="#221F1F" strokeLinecap="round" strokeLinejoin="round"/>
<ellipse cx="59.0544" cy="43.6765" rx="0.375839" ry="0.378151" fill="#221F1F"/>
<path d="M61.8356 54.189C61.2342 61.3739 52.1389 67.1218 40.1873 67.1218C28.3108 66.8192 19.9671 61.8276 19.441 54.6428C19.3658 53.7352 19.441 52.8276 19.5161 51.8444C19.892 49.0461 20.8691 46.3991 22.2973 43.9789L23.1993 44.357C25.5295 43.4495 27.9349 42.7688 30.4155 42.315C33.6477 41.71 36.8799 41.4831 40.1873 41.4075C43.4946 41.4075 46.7269 41.71 49.9591 42.315C52.4396 42.7688 54.845 43.4495 57.1752 44.357L58.1524 43.9789L58.7537 43.6764C60.1819 46.0965 61.1591 48.7436 61.6852 51.5419C61.9108 52.4495 61.9108 53.357 61.8356 54.189Z" stroke="#221F1F" strokeLinecap="round" strokeLinejoin="round"/>
<path d="M65.5188 32.7856C64.4665 34.2226 63.2638 35.5839 61.8356 36.7184C61.1591 37.3234 60.4074 37.7772 59.5805 38.1554L59.2047 38.3066L58.9792 38.3823C58.453 38.5335 58.1524 38.3823 57.1752 38.231L56.7242 38.1554C55.5966 37.9285 54.5443 37.3234 53.7175 36.4915C51.9886 34.752 51.0866 32.7856 51.6879 29.6848C54.0933 29.7604 58.2275 27.1134 60.1819 24.315C62.3618 21.0629 61.9107 17.2814 61.3846 14.8613C61.3094 14.4075 61.5349 14.0293 61.9859 13.8781C62.2114 13.8024 62.5121 13.8781 62.6624 14.0293C68.3752 18.5671 69.653 26.8108 65.5188 32.7856Z" fill="#F79422"/>
<path d="M65.5188 32.7856C64.4665 34.2226 63.2638 35.5839 61.8356 36.7184C61.1591 37.3234 60.4074 37.7772 59.5805 38.1554L59.2047 38.3066L58.9792 38.3823C58.453 38.5335 58.1524 38.3823 57.1752 38.231L56.7242 38.1554C55.5966 37.9285 54.5443 37.3234 53.7175 36.4915C51.9886 34.752 51.0866 32.7856 51.6879 29.6848C54.0933 29.7604 58.2275 27.1134 60.1819 24.315C62.3618 21.0629 61.9107 17.2814 61.3846 14.8613C61.3094 14.4075 61.5349 14.0293 61.9859 13.8781C62.2114 13.8024 62.5121 13.8781 62.6624 14.0293C68.3752 18.5671 69.653 26.8108 65.5188 32.7856Z" stroke="#221F1F" strokeLinejoin="round"/>
<path d="M58.9792 38.3824L58.6785 40.0462C56.649 38.8361 53.1913 37.021 50.5604 36.6429C47.704 36.1891 45.7497 35.8866 44.1712 35.6597L43.194 25.979C44.9228 26.0546 46.6517 26.584 48.2302 27.416C49.4329 28.021 50.4852 28.853 51.3873 29.7605L51.6879 29.6849C51.0866 32.7101 51.9886 34.7521 53.7175 36.4916C54.5443 37.3235 55.5967 37.9286 56.7242 38.1555C56.7993 38.1555 57.1 38.3067 57.1752 38.3067C57.7765 38.5336 58.3779 38.5336 58.9792 38.3824Z" fill="#5A595C"/>
<path d="M58.9792 38.3824L58.6785 40.0462C56.649 38.8361 53.1913 37.021 50.5604 36.6429C47.704 36.1891 45.7497 35.8866 44.1712 35.6597L43.194 25.979C44.9228 26.0546 46.6517 26.584 48.2302 27.416C49.4329 28.021 50.4852 28.853 51.3873 29.7605L51.6879 29.6849C51.0866 32.7101 51.9886 34.7521 53.7175 36.4916C54.5443 37.3235 55.5967 37.9286 56.7242 38.1555L57.1752 38.2311C58.1524 38.3824 58.453 38.5336 58.9792 38.3824Z" stroke="#221F1F" strokeLinejoin="round"/>
<path d="M43.194 25.979H42.8933" stroke="#221F1F" strokeLinejoin="round"/>
<path d="M59.0544 38.0042C59.5805 38.6092 59.4302 39.5168 58.8289 40.0462C58.7537 40.1218 58.7537 40.1218 58.6785 40.1974" fill="#F79422"/>
<path d="M59.0544 38.0042C59.5805 38.6092 59.4302 39.5168 58.8289 40.0462C58.7537 40.1218 58.7537 40.1218 58.6785 40.1974" stroke="#221F1F" strokeMiterlimit="10"/>
<path d="M21.9967 38.0042C21.4705 38.6092 21.6208 39.5168 22.2222 40.0462C22.2973 40.1218 22.2973 40.1218 22.3725 40.1974" fill="#F79422"/>
<path d="M21.9967 38.0042C21.4705 38.6092 21.6208 39.5168 22.2222 40.0462C22.2973 40.1218 22.2973 40.1218 22.3725 40.1974" stroke="#221F1F" strokeMiterlimit="10"/>
<path d="M37.7067 57.0629C38.2329 57.2141 38.8342 57.1385 39.3604 56.836C40.1873 56.5334 40.7134 55.7015 40.6383 54.7939C40.5631 55.7015 41.0893 56.5334 41.9161 56.836C42.4423 57.0629 42.9685 57.1385 43.4946 57.0629" stroke="#171717" strokeLinecap="round" strokeLinejoin="round"/>
<path d="M43.5698 52.2225C43.5698 53.1301 42.2168 54.3402 40.5631 54.3402C38.9094 54.3402 37.5564 53.1301 37.5564 52.2225C37.5564 51.315 38.9094 51.0125 40.5631 51.0125C42.2168 51.0125 43.5698 51.3906 43.5698 52.2225Z" fill="#171717"/>
<path d="M41.7658 51.9202C41.7658 52.1471 41.1644 52.4496 40.4879 52.4496C39.8114 52.4496 39.2101 52.1471 39.2101 51.9958C39.2101 51.8446 39.8114 51.8446 40.4879 51.8446C41.1644 51.8446 41.7658 51.6933 41.7658 51.9202Z" fill="white"/>
<path d="M35.8275 54.7939C35.7524 55.8528 36.4289 56.7603 37.4812 56.9872H37.7067" stroke="#171717" strokeLinecap="round" strokeLinejoin="round"/>
<path d="M40.6383 53.7351C40.6383 54.1133 40.6383 54.4158 40.6383 54.7939" stroke="#171717" strokeLinecap="round" strokeLinejoin="round"/>
<path d="M43.5698 57.0629H43.7953C44.8477 56.836 45.5994 55.9285 45.449 54.8696" stroke="#171717" strokeLinecap="round" strokeLinejoin="round"/>
<path d="M62.6624 14.0293C68.3752 18.5671 69.5778 26.7352 65.4436 32.71" stroke="#221F1F" strokeLinejoin="round"/>
<path d="M26.8826 36.4159C26.0557 37.2478 25.0034 37.8529 23.8759 38.0798L23.4248 38.1554C22.9738 38.3067 22.5228 38.3823 21.9967 38.3823C21.9215 38.3823 21.7712 38.3823 21.696 38.3823C21.4705 38.3067 21.1698 38.231 20.9443 38.1554C20.1175 37.7773 19.3658 37.3235 18.6893 36.7184C17.3363 35.584 16.0584 34.2983 15.0812 32.7857C10.947 26.7352 12.2248 18.5672 17.9376 14.0294C18.3134 13.8025 18.7644 13.8025 19.0651 14.1806C19.2155 14.4075 19.2906 14.6344 19.2155 14.8613C18.6893 17.2815 18.2383 21.063 20.4933 24.3151C22.4477 27.0378 26.5067 29.6848 28.9873 29.6848C29.5134 32.71 28.6866 34.752 26.8826 36.4159Z" stroke="#221F1F" strokeLinejoin="round"/>
<path d="M35.0759 47.3065C35.0759 48.9704 34.0987 50.2561 32.896 50.2561C31.6933 50.2561 30.7161 48.8947 30.7161 47.3065C30.7161 45.8695 31.4678 44.6595 32.445 44.3569L34.8504 46.1721C35.0007 46.5502 35.0759 46.9284 35.0759 47.3065Z" fill="#221F1F"/>
<path d="M34.249 46.9285C34.249 47.5335 33.8732 47.9873 33.4973 47.9873C33.1215 47.9873 32.7457 47.5335 32.7457 46.9285C32.7457 46.3234 33.1215 45.8696 33.4973 45.8696C33.8732 45.8696 34.249 46.3234 34.249 46.9285Z" fill="white"/>
<path d="M32.445 49.5755C31.6181 50.2562 30.8665 51.0125 30.19 51.8444C29.8893 52.2226 29.5886 52.6764 29.3631 53.2058C29.1376 53.6596 28.9873 54.189 28.9121 54.7184C28.8369 54.9453 28.8369 55.2478 28.8369 55.4747V55.8528V56.231C28.8369 56.7604 28.8369 57.2898 28.8369 57.8949C28.9121 58.4243 28.9873 59.0293 29.0624 59.5587C29.1376 59.8612 29.1376 60.0881 29.2128 60.3907C29.2879 60.6175 29.3631 60.9201 29.5135 61.147C29.3631 60.9201 29.2879 60.6175 29.1376 60.3907C29.0624 60.1638 28.9121 59.8612 28.8369 59.6344C28.6866 59.1049 28.5363 58.5755 28.3859 57.9705C28.3108 57.4411 28.2356 56.836 28.1604 56.3066V55.9285V55.4747C28.1604 55.1722 28.1604 54.8697 28.1604 54.6428C28.2356 54.0377 28.3108 53.4327 28.5363 52.9033C28.7618 52.3739 28.9873 51.8444 29.2879 51.315C29.9645 50.3318 30.641 49.4243 31.4678 48.668C31.7685 48.4411 32.1443 48.4411 32.445 48.668C32.6705 48.8192 32.7457 49.273 32.445 49.5755Z" fill="#221F1F"/>
<path d="M31.9188 49.3487C31.8436 49.3487 31.8436 49.3487 31.7685 49.3487H31.6933H31.543L31.1671 49.273C30.9416 49.1974 30.7161 49.1974 30.4906 49.1974C30.0396 49.1974 29.5134 49.1974 29.0624 49.3487C28.8369 49.4243 28.6114 49.4999 28.3859 49.5755C27.7094 49.8781 27.1081 50.4075 26.7322 51.0125C26.9577 50.4831 27.1832 50.0293 27.5591 49.6512C27.7094 49.4243 27.9349 49.273 28.1604 49.1218C28.3859 48.9705 28.6114 48.8192 28.8369 48.668C29.2879 48.3655 29.8141 48.2142 30.4155 48.0629C30.7161 47.9873 30.9416 47.9873 31.2423 47.9873C31.3926 47.9873 31.543 47.9873 31.6933 47.9873H31.994C32.3698 47.9873 32.6705 48.2898 32.7457 48.668C32.8208 49.0461 32.3698 49.3487 31.9188 49.3487Z" fill="#221F1F"/>
<path d="M50.4852 47.3065C50.4852 48.9704 49.5081 50.2561 48.3806 50.2561C47.253 50.2561 46.2007 48.8947 46.2007 47.3065C46.2007 46.9284 46.2759 46.5502 46.351 46.1721L48.7564 44.3569C49.7336 44.6595 50.4852 45.8695 50.4852 47.3065Z" fill="#221F1F"/>
<path d="M46.9524 46.9285C46.9524 47.5335 47.3282 47.9873 47.704 47.9873C48.0799 47.9873 48.4557 47.5335 48.4557 46.9285C48.4557 46.3234 48.0799 45.8696 47.704 45.8696C47.3282 45.8696 46.9524 46.3234 46.9524 46.9285Z" fill="white"/>
<path d="M49.7336 48.5168C50.5604 49.3488 51.2369 50.1807 51.8383 51.1639C52.1389 51.6177 52.4396 52.1471 52.6651 52.6765C52.8906 53.2059 53.0409 53.8109 53.1161 54.3404C53.1913 54.9454 53.1913 55.4748 53.1161 56.0798C53.0409 56.6093 52.9658 57.2143 52.8906 57.7437C52.8154 58.2731 52.6651 58.8025 52.5148 59.332C52.4396 59.5588 52.3644 59.8614 52.2141 60.0883C52.1389 60.3151 51.9886 60.6177 51.8383 60.8446C51.9134 60.6177 52.0638 60.3151 52.1389 60.0883C52.2141 59.8614 52.2893 59.5588 52.3644 59.332C52.4396 58.8025 52.5899 58.2731 52.5899 57.7437C52.6651 57.2143 52.6651 56.6849 52.6651 56.0798C52.6651 55.5504 52.5899 55.021 52.5148 54.4916C52.3644 53.9622 52.2141 53.5084 51.9886 53.0546C51.7631 52.6009 51.4624 52.1471 51.0866 51.7689C50.4101 50.937 49.6584 50.1807 48.8316 49.5C48.5309 49.1975 48.5309 48.8193 48.8316 48.5168C49.0571 48.2899 49.4329 48.2143 49.7336 48.4412V48.5168Z" fill="#221F1F"/>
<path d="M49.2826 47.9872H49.6584C49.8087 47.9872 49.9591 47.9872 50.1094 47.9872C50.4101 47.9872 50.7107 47.9872 51.0114 48.0628C51.6128 48.1385 52.1389 48.2897 52.6651 48.5166C53.1913 48.7435 53.6423 49.1216 54.0933 49.4998C54.4691 49.878 54.7698 50.4074 54.9953 50.8611C54.6946 50.4074 54.3188 50.0292 53.8678 49.7267C53.4168 49.4242 52.9658 49.1973 52.4396 49.1216C51.9134 49.046 51.3873 49.046 50.8611 49.046C50.6356 49.046 50.3349 49.1216 50.1094 49.1216L49.7336 49.1973H49.5832H49.5081H49.4329H49.3577C48.9819 49.2729 48.606 48.9704 48.606 48.5922C48.5309 48.2141 48.8316 47.8359 49.2074 47.8359C49.2826 47.8359 49.2826 47.8359 49.3577 47.8359" fill="#221F1F"/>
</g>
<defs>
<clipPath id="clip0_1204_17105">
<rect width="56" height="54" fill="white" transform="translate(12.3 13.5)"/>
</clipPath>
</defs>
</svg>
