<svg width="392" height="220" viewBox="0 0 392 220" fill="none" xmlns="http://www.w3.org/2000/svg">
<path d="M0 19.2C0 12.4794 0 9.11905 1.30792 6.55211C2.4584 4.29417 4.29417 2.4584 6.55211 1.30792C9.11905 0 12.4794 0 19.2 0H372.8C379.521 0 382.881 0 385.448 1.30792C387.706 2.4584 389.542 4.29417 390.692 6.55211C392 9.11905 392 12.4794 392 19.2V200.8C392 207.521 392 210.881 390.692 213.448C389.542 215.706 387.706 217.542 385.448 218.692C382.881 220 379.521 220 372.8 220H19.2C12.4794 220 9.11905 220 6.55211 218.692C4.29417 217.542 2.4584 215.706 1.30792 213.448C0 210.881 0 207.521 0 200.8V19.2Z" fill="#140613"/>
<path d="M208.369 101.852C208.369 96.4817 208.462 91.4817 208.741 86.8521L194.512 89.5372V90.8335L195.907 91.0187C196.93 91.1113 197.581 91.4817 197.953 92.0372C198.325 92.6854 198.604 93.6113 198.79 95.0002C198.976 97.6854 199.162 103.796 199.069 113.426C199.069 122.963 198.976 128.982 198.79 131.296C203.905 132.408 207.904 132.871 210.88 132.871C216.46 132.871 220.831 131.296 223.993 128.056C227.155 124.908 228.829 120.463 228.829 115C228.829 110.648 227.62 107.037 225.202 104.167C222.784 101.296 219.715 99.9076 216.088 99.9076C213.67 99.9076 211.159 100.556 208.369 101.852ZM208.648 130.371C208.462 127.408 208.276 118.519 208.276 103.982C209.113 103.704 210.229 103.519 211.624 103.519C213.856 103.519 215.623 104.63 216.925 106.945C218.227 109.259 218.878 112.037 218.878 115.556C218.878 119.908 218.134 123.426 216.646 126.389C215.158 129.259 213.298 130.741 210.973 130.741C210.229 130.556 209.485 130.463 208.648 130.371ZM141.13 87.778H103.93V89.6298L105.883 89.815C107.371 90.0928 108.394 90.6483 109.045 91.4817C109.696 92.4076 110.068 93.8891 110.161 95.9261C110.905 105.926 110.905 115.278 110.161 123.889C109.975 125.926 109.603 127.408 109.045 128.334C108.394 129.259 107.371 129.815 105.883 130L103.93 130.278V132.13H127.924V130.278L125.413 130.093C124.8 130.042 124.204 129.868 123.661 129.581C123.117 129.295 122.638 128.902 122.251 128.426C121.6 127.5 121.228 126.019 121.135 123.982C120.856 120.278 120.67 116.019 120.67 111.296L125.692 111.389C128.389 111.482 130.249 113.519 131.179 117.593H133.039V102.5H131.179C130.249 106.482 128.482 108.519 125.692 108.611L120.67 108.704C120.67 100.371 120.856 94.4446 121.135 90.8335H128.482C133.69 90.8335 137.224 94.1669 139.27 100.834L141.502 100.185L141.13 87.778ZM136.759 116.296C136.759 121.111 138.154 125.093 140.851 128.241C143.548 131.389 147.547 132.871 152.569 132.871C157.591 132.871 161.683 131.296 164.659 128.056C167.635 124.908 169.03 120.926 169.03 116.111C169.03 111.296 167.635 107.315 164.938 104.167C162.241 101.019 158.242 99.5372 153.22 99.5372C148.198 99.5372 144.106 101.111 141.13 104.352C138.154 107.5 136.759 111.482 136.759 116.296ZM157.498 105.741C158.614 108.426 159.079 111.945 159.079 116.204C159.079 126.019 157.033 130.834 153.034 130.834C150.988 130.834 149.407 129.445 148.291 126.667C147.175 123.889 146.71 120.371 146.71 116.204C146.71 106.482 148.756 101.667 152.755 101.667C154.801 101.574 156.382 102.963 157.498 105.741ZM236.083 128.241C239.152 131.296 243.058 132.871 247.708 132.871C250.591 132.871 253.102 132.315 255.334 131.111C257.566 130 259.333 128.611 260.542 126.945L259.612 125.834C257.566 127.408 255.241 128.148 252.544 128.148C248.824 128.148 245.941 126.945 243.988 124.445C241.942 121.945 241.012 118.796 241.198 114.722H261.1C261.1 110.278 259.984 106.667 257.659 103.796C255.334 101.019 252.079 99.6298 247.894 99.6298C242.686 99.6298 238.687 101.296 235.804 104.537C232.921 107.778 231.526 111.759 231.526 116.482C231.526 121.296 233.014 125.185 236.083 128.241ZM242.965 105C243.988 102.778 245.29 101.667 247.057 101.667C249.847 101.667 251.242 105.185 251.242 112.315L241.384 112.5C241.477 109.722 241.942 107.222 242.965 105ZM286.117 101.296C283.606 100.185 280.444 99.5372 276.631 99.5372C272.725 99.5372 269.656 100.556 267.331 102.5C265.006 104.445 263.797 106.852 263.797 109.722C263.797 112.222 264.541 114.167 265.936 115.556C267.331 116.945 269.563 118.148 272.446 119.167C275.05 120.093 276.91 121.019 277.84 121.852C278.77 122.778 279.328 123.796 279.328 125.185C279.328 126.482 278.863 127.685 277.84 128.611C276.91 129.63 275.608 130.093 273.934 130.093C269.842 130.093 266.773 127.13 264.634 121.204L263.053 121.667L263.425 130.926C266.773 132.222 270.493 132.871 274.585 132.871C278.863 132.871 282.118 131.945 284.536 130C286.954 128.148 288.163 125.463 288.163 122.13C288.163 119.908 287.605 118.056 286.396 116.667C285.187 115.278 283.234 114.074 280.444 112.963C277.375 111.852 275.236 110.834 274.12 109.908C273.004 108.982 272.446 107.871 272.446 106.482C272.446 105.093 272.818 103.982 273.655 103.056C274.492 102.13 275.515 101.759 276.817 101.759C280.537 101.759 283.234 104.445 284.908 109.722L286.489 109.259L286.117 101.296ZM196.651 100.463C195.349 99.815 193.954 99.5372 192.373 99.5372C190.792 99.5372 189.211 100.185 187.444 101.482C185.677 102.778 184.375 104.537 183.352 106.945L183.445 99.5372L169.309 102.315V103.611L170.704 103.704C172.471 103.889 173.494 105.278 173.68 107.778C174.238 113.519 174.238 119.63 173.68 126.111C173.494 128.611 172.471 129.908 170.704 130.185L169.309 130.371V132.13H189.025V130.371L186.514 130.185C184.747 130 183.724 128.611 183.538 126.111C182.98 120.741 182.887 115 183.352 109.074C183.91 108.148 185.119 107.593 186.979 107.408C188.839 107.222 190.978 107.778 193.21 109.074L196.651 100.463Z" fill="white"/>
</svg>
