<svg width="152" height="45" viewBox="0 0 152 45" fill="none" xmlns="http://www.w3.org/2000/svg">
<rect x="0.5" y="0.5" width="150.664" height="43.9374" rx="9.5" fill="black"/>
<rect x="0.5" y="0.5" width="150.664" height="43.9374" rx="9.5" stroke="#A6A6A6"/>
<path d="M76.551 24.4342C75.6044 24.4364 74.6798 24.7193 73.894 25.247C73.1082 25.7747 72.4966 26.5236 72.1364 27.399C71.7762 28.2743 71.6837 29.2368 71.8706 30.1647C72.0574 31.0926 72.5152 31.9443 73.1861 32.6121C73.857 33.2798 74.7108 33.7336 75.6396 33.9161C76.5684 34.0986 77.5304 34.0015 78.4041 33.6373C79.2777 33.273 80.0237 32.6578 80.5477 31.8696C81.0718 31.0813 81.3503 30.1553 81.3481 29.2088C81.3572 28.5774 81.2392 27.9505 81.0011 27.3656C80.763 26.7807 80.4096 26.2497 79.962 25.8042C79.5144 25.3587 78.9818 25.0079 78.3958 24.7725C77.8098 24.5371 77.1824 24.4221 76.551 24.4342ZM76.551 32.1073C75.9708 32.1478 75.3919 32.0129 74.8894 31.7201C74.3869 31.4273 73.9841 30.9901 73.7334 30.4653C73.4827 29.9405 73.3957 29.3525 73.4836 28.7776C73.5716 28.2027 73.8305 27.6675 74.2266 27.2417C74.6227 26.8159 75.1377 26.5191 75.7048 26.3899C76.2718 26.2606 76.8646 26.305 77.4061 26.5171C77.9476 26.7293 78.4128 27.0995 78.7411 27.5795C79.0695 28.0595 79.2458 28.6272 79.2472 29.2088C79.2653 29.5773 79.2095 29.9457 79.0829 30.2923C78.9564 30.6388 78.7617 30.9566 78.5104 31.2267C78.2591 31.4968 77.9563 31.7139 77.6198 31.8652C77.2832 32.0164 76.9198 32.0987 76.551 32.1073ZM66.0806 24.4342C65.134 24.4364 64.2094 24.7193 63.4236 25.247C62.6378 25.7747 62.0262 26.5236 61.666 27.399C61.3058 28.2743 61.2133 29.2368 61.4001 30.1647C61.587 31.0926 62.0448 31.9443 62.7157 32.6121C63.3866 33.2798 64.2404 33.7336 65.1692 33.9161C66.098 34.0986 67.06 34.0015 67.9336 33.6373C68.8073 33.273 69.5533 32.6578 70.0773 31.8696C70.6014 31.0813 70.8799 30.1553 70.8776 29.2088C70.8868 28.5774 70.7688 27.9505 70.5307 27.3656C70.2926 26.7807 69.9392 26.2497 69.4916 25.8042C69.044 25.3587 68.5114 25.0079 67.9254 24.7725C67.3393 24.5371 66.712 24.4221 66.0806 24.4342ZM66.0806 32.1073C65.5004 32.1478 64.9215 32.0129 64.419 31.7201C63.9165 31.4273 63.5137 30.9901 63.263 30.4653C63.0123 29.9405 62.9253 29.3525 63.0132 28.7776C63.1012 28.2027 63.36 27.6675 63.7561 27.2417C64.1523 26.8159 64.6673 26.5191 65.2344 26.3899C65.8014 26.2606 66.3942 26.305 66.9357 26.5171C67.4772 26.7293 67.9424 27.0995 68.2707 27.5795C68.5991 28.0595 68.7754 28.6272 68.7768 29.2088C68.7949 29.5773 68.739 29.9457 68.6125 30.2923C68.4859 30.6388 68.2913 30.9566 68.04 31.2267C67.7887 31.4968 67.4859 31.7139 67.1493 31.8652C66.8128 32.0164 66.4494 32.0987 66.0806 32.1073ZM53.6329 25.9059V27.9281H58.4861C58.41 28.8805 58.0141 29.7793 57.3627 30.4783C56.8759 30.9743 56.2903 31.3626 55.644 31.618C54.9976 31.8735 54.3048 31.9904 53.6104 31.9612C52.1803 31.9612 50.8087 31.3931 49.7974 30.3818C48.7861 29.3705 48.2179 27.9989 48.2179 26.5687C48.2179 25.1386 48.7861 23.767 49.7974 22.7557C50.8087 21.7444 52.1803 21.1762 53.6104 21.1762C54.9815 21.1558 56.3054 21.6765 57.2953 22.6255L58.7221 21.1987C58.0525 20.5365 57.2575 20.0145 56.3836 19.6634C55.5097 19.3123 54.5746 19.1391 53.6329 19.1541C52.6342 19.1152 51.6379 19.2783 50.7037 19.6337C49.7695 19.9891 48.9167 20.5294 48.1963 21.2223C47.476 21.9152 46.9029 22.7463 46.5114 23.666C46.12 24.5856 45.9182 25.5749 45.9182 26.5743C45.9182 27.5738 46.12 28.563 46.5114 29.4827C46.9029 30.4023 47.476 31.2335 48.1963 31.9264C48.9167 32.6193 49.7695 33.1596 50.7037 33.515C51.6379 33.8704 52.6342 34.0335 53.6329 33.9946C54.5939 34.033 55.5522 33.8677 56.4448 33.5095C57.3373 33.1513 58.1441 32.6083 58.8119 31.9163C59.9917 30.6203 60.6203 28.9158 60.5645 27.1642C60.5685 26.7426 60.5347 26.3214 60.4634 25.9059H53.6329ZM104.536 27.4787C104.243 26.6167 103.695 25.8641 102.965 25.3204C102.234 24.7768 101.356 24.4677 100.446 24.4342C99.8319 24.433 99.2237 24.5579 98.6593 24.801C98.095 25.0442 97.5865 25.4006 97.1653 25.8481C96.7442 26.2956 96.4192 26.8247 96.2107 27.4028C96.0021 27.9808 95.9143 28.5955 95.9527 29.2088C95.9431 30.2343 96.2655 31.2355 96.8718 32.0626C97.4781 32.8898 98.3357 33.4986 99.3166 33.7982C100.297 34.0978 101.349 34.072 102.314 33.7247C103.279 33.3774 104.106 32.7272 104.671 31.8713L103.042 30.7479C102.799 31.1527 102.454 31.4869 102.042 31.7175C101.631 31.948 101.166 32.0669 100.694 32.0623C100.207 32.0824 99.7251 31.9548 99.312 31.6961C98.899 31.4375 98.5739 31.0599 98.3793 30.6131L104.772 27.973L104.536 27.4787ZM98.0198 29.074C97.9971 28.725 98.0442 28.375 98.1583 28.0445C98.2725 27.714 98.4515 27.4095 98.6848 27.149C98.9181 26.8885 99.201 26.6772 99.517 26.5274C99.833 26.3776 100.176 26.2923 100.525 26.2766C100.887 26.2545 101.248 26.3398 101.561 26.5216C101.875 26.7035 102.128 26.9739 102.289 27.299L98.0198 29.074ZM92.8296 33.7025H94.9304V19.6596H92.8296V33.7025ZM89.3919 25.5015H89.3132C88.9994 25.1441 88.6121 24.8586 88.1777 24.6647C87.7434 24.4709 87.2723 24.3731 86.7967 24.378C85.569 24.4376 84.4113 24.9672 83.5634 25.8571C82.7156 26.7471 82.2427 27.9291 82.2427 29.1583C82.2427 30.3874 82.7156 31.5694 83.5634 32.4594C84.4113 33.3493 85.569 33.8789 86.7967 33.9385C87.273 33.948 87.7455 33.8523 88.1806 33.6581C88.6156 33.4639 89.0023 33.176 89.3132 32.815H89.3919V33.5003C89.3919 35.3315 88.4145 36.3089 86.8417 36.3089C86.3163 36.2974 85.8061 36.13 85.3761 35.8279C84.946 35.5259 84.6154 35.1028 84.4263 34.6125L82.6063 35.3652C82.9428 36.2103 83.5278 36.9334 84.284 37.4389C85.0403 37.9444 85.9321 38.2085 86.8417 38.1963C89.302 38.1963 91.3354 36.7471 91.3354 33.2195V24.7151H89.3919V25.5015ZM86.9765 32.1073C86.2404 32.0614 85.5495 31.7366 85.0445 31.1992C84.5395 30.6617 84.2584 29.9519 84.2584 29.2144C84.2584 28.4769 84.5395 27.7672 85.0445 27.2297C85.5495 26.6922 86.2404 26.3675 86.9765 26.3216C87.3362 26.3371 87.6892 26.4248 88.0144 26.5796C88.3395 26.7343 88.6303 26.9528 88.8692 27.2222C89.1082 27.4916 89.2906 27.8063 89.4054 28.1476C89.5203 28.4888 89.5654 28.8498 89.5379 29.2088C89.5686 29.5691 89.5258 29.9318 89.4123 30.2751C89.2987 30.6184 89.1167 30.9351 88.8773 31.206C88.6379 31.477 88.346 31.6965 88.0192 31.8514C87.6925 32.0063 87.3378 32.0934 86.9765 32.1073ZM114.377 19.6596H109.344V33.7025H111.445V28.3775H114.377C114.976 28.4205 115.577 28.3397 116.143 28.1401C116.709 27.9405 117.228 27.6265 117.668 27.2175C118.107 26.8085 118.457 26.3134 118.697 25.763C118.937 25.2127 119.06 24.6188 119.06 24.0185C119.06 23.4182 118.937 22.8244 118.697 22.274C118.457 21.7236 118.107 21.2285 117.668 20.8196C117.228 20.4106 116.709 20.0965 116.143 19.897C115.577 19.6974 114.976 19.6166 114.377 19.6596ZM114.377 26.4002H111.445V21.6144H114.422C114.738 21.6144 115.05 21.6766 115.342 21.7974C115.634 21.9182 115.899 22.0953 116.122 22.3185C116.345 22.5418 116.522 22.8068 116.643 23.0985C116.764 23.3902 116.826 23.7028 116.826 24.0185C116.826 24.3342 116.764 24.6469 116.643 24.9386C116.522 25.2302 116.345 25.4953 116.122 25.7185C115.899 25.9418 115.634 26.1189 115.342 26.2397C115.05 26.3605 114.738 26.4227 114.422 26.4227L114.377 26.4002ZM127.342 24.3893C126.576 24.3421 125.814 24.5202 125.149 24.9016C124.485 25.2829 123.946 25.8508 123.6 26.535L125.454 27.3102C125.641 26.9725 125.923 26.6963 126.263 26.5148C126.604 26.3334 126.99 26.2546 127.375 26.2879C127.642 26.2567 127.912 26.279 128.17 26.3534C128.428 26.4278 128.669 26.5528 128.878 26.7212C129.087 26.8896 129.261 27.0979 129.388 27.334C129.516 27.5702 129.596 27.8294 129.622 28.0966V28.2314C128.947 27.8763 128.195 27.6912 127.431 27.6922C125.432 27.6922 123.387 28.8156 123.387 30.8603C123.407 31.2948 123.514 31.721 123.701 32.1135C123.889 32.506 124.154 32.8567 124.48 33.1449C124.806 33.4331 125.186 33.6528 125.599 33.7911C126.011 33.9293 126.447 33.9833 126.881 33.9497C127.408 33.9789 127.934 33.8673 128.403 33.6265C128.873 33.3856 129.271 33.0241 129.555 32.5791H129.622V33.7025H131.644V28.2988C131.644 25.8385 129.779 24.4117 127.386 24.4117L127.342 24.3893ZM127.083 32.0848C126.398 32.0848 125.443 31.7365 125.443 30.894C125.443 29.7705 126.634 29.3886 127.69 29.3886C128.357 29.3721 129.017 29.535 129.6 29.8604C129.529 30.4705 129.24 31.0344 128.785 31.4475C128.331 31.8606 127.742 32.095 127.128 32.1073L127.083 32.0848ZM139.014 24.7151L136.61 30.8041H136.542L134.048 24.7151H131.802L135.543 33.2307L133.408 37.9604H135.599L141.351 24.7151H139.014ZM120.14 33.7025H122.23V19.6596H120.14V33.7025Z" fill="white"/>
<path d="M11.7286 8.47024C11.3584 8.90796 11.1695 9.47062 11.2006 10.0431V34.8934C11.1624 35.4668 11.3522 36.0321 11.7286 36.4663L11.8073 36.5561L25.7267 22.6368V22.2997L11.8073 8.3916L11.7286 8.47024Z" fill="#6E6E6E"/>
<path d="M30.3326 27.2768L25.7266 22.637V22.2999L30.3326 17.6602L30.4338 17.7276L35.9498 20.8507C37.5226 21.7382 37.5226 23.1987 35.9498 24.0974L30.4562 27.2206L30.3326 27.2768Z" fill="#515151"/>
<path d="M30.4677 27.2096L25.7268 22.4688L11.7288 36.4668C12.0462 36.7493 12.4525 36.9119 12.8773 36.9263C13.3021 36.9406 13.7185 36.8059 14.0543 36.5454L30.4677 27.2096Z" fill="#3D3D3D"/>
<path d="M30.4677 17.7268L14.0543 8.40227C13.7206 8.13817 13.3046 8.00015 12.8792 8.01248C12.4539 8.02481 12.0465 8.1867 11.7288 8.46968L25.7268 22.4677L30.4677 17.7268Z" fill="#A8A8A8"/>
<path opacity="0.2" d="M30.3329 27.1084L14.0543 36.3767C13.7307 36.621 13.3363 36.7531 12.9308 36.7531C12.5254 36.7531 12.131 36.621 11.8074 36.3767L11.7288 36.4554L11.8074 36.5453C12.131 36.7895 12.5254 36.9216 12.9308 36.9216C13.3363 36.9216 13.7307 36.7895 14.0543 36.5453L30.4677 27.2095L30.3329 27.1084Z" fill="black"/>
<path opacity="0.12" d="M11.7285 36.3087C11.3677 35.8631 11.1908 35.2964 11.2342 34.7246V34.8931C11.196 35.4665 11.3858 36.0318 11.7622 36.4659L11.8409 36.3873L11.7285 36.3087Z" fill="black"/>
<path opacity="0.12" d="M35.9499 23.9292L30.3328 27.1085L30.4339 27.2097L35.9499 24.0865C36.2755 23.9488 36.558 23.7259 36.7676 23.4412C36.9771 23.1565 37.1061 22.8206 37.1408 22.4688C37.0705 22.7884 36.9262 23.0872 36.7193 23.3408C36.5125 23.5945 36.249 23.7961 35.9499 23.9292Z" fill="black"/>
<path opacity="0.25" d="M14.0542 8.56013L35.95 21.0078C36.249 21.141 36.5125 21.3425 36.7194 21.5962C36.9262 21.8498 37.0706 22.1486 37.1408 22.4683C37.1061 22.1165 36.9772 21.7805 36.7676 21.4958C36.558 21.2111 36.2756 20.9882 35.95 20.8505L14.0542 8.40285C12.4926 7.5041 11.2007 8.24557 11.2007 10.0431V10.2116C11.2344 8.41408 12.4926 7.67261 14.0542 8.56013Z" fill="white"/>
<path d="M49.3272 16.3102C48.4219 16.3102 47.7027 16.0059 47.1698 15.3972C46.6399 14.7856 46.3749 13.9604 46.3749 12.9218C46.3749 11.8923 46.6429 11.0717 47.1789 10.4601C47.7148 9.84538 48.431 9.53804 49.3272 9.53804C50.0419 9.53804 50.6475 9.73788 51.1441 10.1376C51.6437 10.5343 51.945 11.0596 52.0479 11.7137H51.2213C51.1153 11.2837 50.8897 10.94 50.5445 10.6826C50.1993 10.4222 49.7936 10.292 49.3272 10.292C48.6883 10.292 48.1766 10.5312 47.792 11.0096C47.4075 11.4881 47.2152 12.1255 47.2152 12.9218C47.2152 13.7273 47.406 14.3677 47.7875 14.8431C48.169 15.3185 48.6838 15.5562 49.3318 15.5562C49.8132 15.5562 50.219 15.4457 50.549 15.2246C50.8791 15.0036 51.1032 14.6932 51.2213 14.2935H52.0479C51.8965 14.9415 51.5861 15.4396 51.1168 15.7878C50.6475 16.1361 50.0509 16.3102 49.3272 16.3102ZM56.7623 15.5698C56.3536 16.021 55.8055 16.2466 55.1181 16.2466C54.4308 16.2466 53.8827 16.021 53.4739 15.5698C53.0651 15.1187 52.8608 14.5131 52.8608 13.753C52.8608 12.993 53.0651 12.3874 53.4739 11.9362C53.8827 11.485 54.4308 11.2595 55.1181 11.2595C55.8055 11.2595 56.3536 11.485 56.7623 11.9362C57.1711 12.3874 57.3755 12.993 57.3755 13.753C57.3755 14.5131 57.1711 15.1187 56.7623 15.5698ZM55.1181 15.5426C55.5754 15.5426 55.9312 15.3851 56.1855 15.0702C56.4429 14.7523 56.5716 14.3132 56.5716 13.753C56.5716 13.1898 56.4429 12.7508 56.1855 12.4358C55.9312 12.1209 55.5754 11.9635 55.1181 11.9635C54.6609 11.9635 54.3036 12.1224 54.0462 12.4404C53.7919 12.7553 53.6647 13.1928 53.6647 13.753C53.6647 14.3132 53.7934 14.7523 54.0508 15.0702C54.3081 15.3851 54.6639 15.5426 55.1181 15.5426ZM58.3927 16.2012V11.3049H59.1376V12.0997H59.1558C59.2709 11.8393 59.451 11.6349 59.6963 11.4866C59.9446 11.3352 60.2277 11.2595 60.5457 11.2595C60.8757 11.2595 61.1603 11.3397 61.3996 11.5002C61.6388 11.6607 61.8114 11.8893 61.9174 12.186H61.9355C62.0748 11.8953 62.2807 11.6682 62.5532 11.5047C62.8258 11.3412 63.1331 11.2595 63.4753 11.2595C63.9597 11.2595 64.3458 11.4048 64.6335 11.6955C64.9242 11.9862 65.0695 12.3738 65.0695 12.8582V16.2012H64.2792V13.0399C64.2792 12.7008 64.1884 12.4374 64.0067 12.2496C63.828 12.0589 63.5752 11.9635 63.2482 11.9635C62.9211 11.9635 62.6516 12.0725 62.4397 12.2905C62.2307 12.5085 62.1263 12.7856 62.1263 13.1217V16.2012H61.336V12.9445C61.336 12.6478 61.2421 12.4101 61.0544 12.2315C60.8697 12.0528 60.6244 11.9635 60.3186 11.9635C59.9915 11.9635 59.7205 12.0785 59.5055 12.3087C59.2906 12.5358 59.1831 12.8204 59.1831 13.1626V16.2012H58.3927ZM66.3547 16.2012V11.3049H67.145V16.2012H66.3547ZM66.7499 10.5146C66.6136 10.5146 66.4955 10.4661 66.3956 10.3692C66.2987 10.2693 66.2502 10.1512 66.2502 10.0149C66.2502 9.87566 66.2987 9.75757 66.3956 9.66067C66.4955 9.56377 66.6136 9.51533 66.7499 9.51533C66.8892 9.51533 67.0073 9.56377 67.1041 9.66067C67.201 9.75757 67.2495 9.87566 67.2495 10.0149C67.2495 10.1512 67.201 10.2693 67.1041 10.3692C67.0073 10.4661 66.8892 10.5146 66.7499 10.5146ZM68.4484 16.2012V11.3049H69.1933V12.0997H69.2115C69.5233 11.5396 70.0563 11.2595 70.8103 11.2595C71.3492 11.2595 71.7747 11.4215 72.0866 11.7455C72.3984 12.0664 72.5544 12.5055 72.5544 13.0626V16.2012H71.7641V13.1989C71.7641 12.7992 71.6611 12.4934 71.4552 12.2814C71.2523 12.0695 70.9586 11.9635 70.5741 11.9635C70.1713 11.9635 69.8473 12.0906 69.6021 12.345C69.3598 12.5994 69.2387 12.937 69.2387 13.3579V16.2012H68.4484ZM75.7745 15.4972C76.2045 15.4972 76.5512 15.3352 76.8146 15.0112C77.0811 14.6841 77.2143 14.2587 77.2143 13.7349C77.2143 13.208 77.0811 12.781 76.8146 12.454C76.5512 12.127 76.2045 11.9635 75.7745 11.9635C75.3475 11.9635 75.0054 12.1255 74.748 12.4495C74.4906 12.7704 74.3619 13.1989 74.3619 13.7349C74.3619 14.2678 74.4906 14.6947 74.748 15.0157C75.0054 15.3367 75.3475 15.4972 75.7745 15.4972ZM75.7881 17.9498C75.234 17.9498 74.7722 17.8257 74.4028 17.5774C74.0334 17.3321 73.8199 17.0066 73.7624 16.6009H74.5845C74.642 16.8037 74.7828 16.9642 75.0069 17.0823C75.234 17.2034 75.5095 17.264 75.8335 17.264C76.2575 17.264 76.5936 17.1611 76.8419 16.9551C77.0902 16.7523 77.2143 16.4767 77.2143 16.1285V15.3609H77.1961C77.0417 15.6274 76.8267 15.8348 76.5512 15.9832C76.2756 16.1285 75.9668 16.2012 75.6246 16.2012C75.0039 16.2012 74.5027 15.9756 74.1212 15.5244C73.7427 15.0702 73.5534 14.4737 73.5534 13.7349C73.5534 12.9869 73.7442 12.3874 74.1257 11.9362C74.5073 11.485 75.0129 11.2595 75.6428 11.2595C75.988 11.2595 76.2983 11.3321 76.5739 11.4775C76.8525 11.6228 77.0735 11.8302 77.237 12.0997H77.2506V11.3049H78.0046V16.0649C78.0046 16.6493 77.8063 17.1096 77.4096 17.4457C77.016 17.7818 76.4755 17.9498 75.7881 17.9498ZM81.597 12.672C81.597 12.2602 81.765 11.9226 82.1012 11.6592C82.4403 11.3957 82.8763 11.264 83.4093 11.264C83.9059 11.264 84.3222 11.3972 84.6583 11.6637C84.9974 11.9271 85.1746 12.2602 85.1897 12.6629H84.4312C84.407 12.4328 84.301 12.2511 84.1133 12.1179C83.9255 11.9847 83.6818 11.9181 83.382 11.9181C83.0792 11.9181 82.8354 11.9832 82.6507 12.1134C82.466 12.2436 82.3737 12.4162 82.3737 12.6311C82.3737 12.9582 82.6492 13.1898 83.2003 13.3261L83.9452 13.5123C84.4388 13.6364 84.7855 13.7969 84.9853 13.9938C85.1882 14.1875 85.2897 14.4631 85.2897 14.8204C85.2897 15.2383 85.108 15.5804 84.7446 15.8469C84.3843 16.1134 83.921 16.2466 83.3548 16.2466C82.8279 16.2466 82.3903 16.1164 82.0421 15.856C81.6939 15.5925 81.5001 15.2489 81.4607 14.8249H82.2556C82.2949 15.0732 82.413 15.264 82.6099 15.3972C82.8097 15.5274 83.0762 15.5925 83.4093 15.5925C83.7423 15.5925 84.0058 15.529 84.1996 15.4018C84.3964 15.2716 84.4948 15.0959 84.4948 14.8749C84.4948 14.7023 84.4373 14.566 84.3222 14.4661C84.2071 14.3632 84.0103 14.2754 83.7317 14.2027L82.8733 13.9801C82.0224 13.7591 81.597 13.323 81.597 12.672ZM89.995 15.5698C89.5862 16.021 89.0381 16.2466 88.3508 16.2466C87.6634 16.2466 87.1154 16.021 86.7066 15.5698C86.2978 15.1187 86.0934 14.5131 86.0934 13.753C86.0934 12.993 86.2978 12.3874 86.7066 11.9362C87.1154 11.485 87.6634 11.2595 88.3508 11.2595C89.0381 11.2595 89.5862 11.485 89.995 11.9362C90.4038 12.3874 90.6082 12.993 90.6082 13.753C90.6082 14.5131 90.4038 15.1187 89.995 15.5698ZM88.3508 15.5426C88.808 15.5426 89.1638 15.3851 89.4182 15.0702C89.6755 14.7523 89.8042 14.3132 89.8042 13.753C89.8042 13.1898 89.6755 12.7508 89.4182 12.4358C89.1638 12.1209 88.808 11.9635 88.3508 11.9635C87.8936 11.9635 87.5363 12.1224 87.2789 12.4404C87.0245 12.7553 86.8973 13.1928 86.8973 13.753C86.8973 14.3132 87.026 14.7523 87.2834 15.0702C87.5408 15.3851 87.8966 15.5426 88.3508 15.5426ZM95.2863 15.5698C94.8775 16.021 94.3294 16.2466 93.6421 16.2466C92.9547 16.2466 92.4066 16.021 91.9978 15.5698C91.5891 15.1187 91.3847 14.5131 91.3847 13.753C91.3847 12.993 91.5891 12.3874 91.9978 11.9362C92.4066 11.485 92.9547 11.2595 93.6421 11.2595C94.3294 11.2595 94.8775 11.485 95.2863 11.9362C95.695 12.3874 95.8994 12.993 95.8994 13.753C95.8994 14.5131 95.695 15.1187 95.2863 15.5698ZM93.6421 15.5426C94.0993 15.5426 94.4551 15.3851 94.7094 15.0702C94.9668 14.7523 95.0955 14.3132 95.0955 13.753C95.0955 13.1898 94.9668 12.7508 94.7094 12.4358C94.4551 12.1209 94.0993 11.9635 93.6421 11.9635C93.1848 11.9635 92.8275 12.1224 92.5701 12.4404C92.3158 12.7553 92.1886 13.1928 92.1886 13.753C92.1886 14.3132 92.3173 14.7523 92.5747 15.0702C92.8321 15.3851 93.1879 15.5426 93.6421 15.5426ZM96.9167 16.2012V11.3049H97.6616V12.0997H97.6797C97.9916 11.5396 98.5245 11.2595 99.2785 11.2595C99.8175 11.2595 100.243 11.4215 100.555 11.7455C100.867 12.0664 101.023 12.5055 101.023 13.0626V16.2012H100.232V13.1989C100.232 12.7992 100.129 12.4934 99.9235 12.2814C99.7206 12.0695 99.4269 11.9635 99.0423 11.9635C98.6396 11.9635 98.3156 12.0906 98.0703 12.345C97.8281 12.5994 97.707 12.937 97.707 13.3579V16.2012H96.9167Z" fill="#9E9E9E"/>
</svg>
