<svg width="32" height="14" viewBox="0 0 32 14" fill="none" xmlns="http://www.w3.org/2000/svg">
<path d="M0.23291 4.33607V1.69006L6.28091 0.466064V13.3001H3.34691V3.56207L0.23291 4.33607Z" fill="white"/>
<path d="M12.1811 7.00006C12.1811 7.58806 12.2351 8.12806 12.3431 8.62006C12.4511 9.10007 12.6071 9.51407 12.8111 9.86207C13.0151 10.1981 13.2551 10.4621 13.5311 10.6541C13.8191 10.8341 14.1371 10.9241 14.4851 10.9241C14.8331 10.9241 15.1451 10.8341 15.4211 10.6541C15.7091 10.4621 15.9551 10.1981 16.1591 9.86207C16.3631 9.51407 16.5191 9.10007 16.6271 8.62006C16.7351 8.12806 16.7891 7.58806 16.7891 7.00006C16.7891 6.41207 16.7351 5.87807 16.6271 5.39807C16.5191 4.90607 16.3631 4.49207 16.1591 4.15607C15.9551 3.80807 15.7091 3.54407 15.4211 3.36406C15.1451 3.17207 14.8331 3.07607 14.4851 3.07607C14.1371 3.07607 13.8191 3.17207 13.5311 3.36406C13.2551 3.54407 13.0151 3.80807 12.8111 4.15607C12.6071 4.49207 12.4511 4.90607 12.3431 5.39807C12.2351 5.87807 12.1811 6.41207 12.1811 7.00006ZM9.24711 7.00006C9.24711 5.63206 9.46311 4.46207 9.89511 3.49007C10.3391 2.51806 10.9571 1.77406 11.7491 1.25806C12.5411 0.730065 13.4531 0.466064 14.4851 0.466064C15.5651 0.466064 16.4951 0.730065 17.2751 1.25806C18.0551 1.77406 18.6551 2.51806 19.0751 3.49007C19.5071 4.46207 19.7231 5.63206 19.7231 7.00006C19.7231 8.36806 19.5071 9.53806 19.0751 10.5101C18.6551 11.4821 18.0551 12.2321 17.2751 12.7601C16.4951 13.2761 15.5651 13.5341 14.4851 13.5341C13.4531 13.5341 12.5411 13.2761 11.7491 12.7601C10.9571 12.2321 10.3391 11.4821 9.89511 10.5101C9.46311 9.53806 9.24711 8.36806 9.24711 7.00006Z" fill="white"/>
<path d="M21.9751 9.77207V7.14407H31.7671V9.77207H21.9751ZM25.4671 3.58007H28.2751V13.3361H25.4671V3.58007Z" fill="white"/>
</svg>
