<svg width="105" height="46" viewBox="0 0 105 46" fill="none" xmlns="http://www.w3.org/2000/svg">
<path d="M32.0438 29.6349L16.0219 45.9929L0 29.6349L16.0219 0L32.0438 29.6349Z" fill="url(#paint0_linear_1131_16158)"/>
<path d="M30.0457 31.5583L16.0219 45.8809L1.9794 31.5583L16.0219 17.2357L30.0457 31.5583Z" fill="url(#paint1_linear_1131_16158)"/>
<path opacity="0.44" d="M16.0219 45.9929L6.66647 24.3876L16.0219 0L25.4147 24.4063L16.0219 45.9929Z" fill="url(#paint2_linear_1131_16158)"/>
<path d="M88.7684 1.16899C82.0994 1.16899 76.6953 6.59232 76.6953 13.2421C76.6953 19.8919 82.1186 25.3152 88.7684 25.3152C95.4182 25.3152 100.842 19.8919 100.842 13.2421C100.842 6.59232 95.4374 1.16899 88.7684 1.16899ZM88.7684 20.2177C84.9356 20.2177 81.812 17.094 81.812 13.2613C81.812 9.42854 84.9356 6.30485 88.7684 6.30485C92.6011 6.30485 95.7248 9.42854 95.7248 13.2613C95.7248 17.094 92.6011 20.2177 88.7684 20.2177Z" fill="white"/>
<path d="M62.3991 1.16899C55.7302 1.16899 50.326 6.59232 50.326 13.2421C50.326 19.8919 55.7493 25.3152 62.3991 25.3152C64.9862 25.3152 67.3817 24.4912 69.3556 23.0923V32.5208H74.4723V13.2421C74.4914 6.59232 69.0681 1.16899 62.3991 1.16899ZM62.3991 20.2177C58.5664 20.2177 55.4427 17.094 55.4427 13.2613C55.4427 9.42854 58.5664 6.30485 62.3991 6.30485C66.2319 6.30485 69.3556 9.42854 69.3556 13.2613C69.3556 17.094 66.251 20.2177 62.3991 20.2177Z" fill="white"/>
<path d="M98.2736 26.9058H79.244V32.0225H98.2736V26.9058Z" fill="white"/>
<path d="M103.927 0H98.5611V5.36584H103.927V0Z" fill="white"/>
<path d="M44.5194 0H39.4027V25.3344H49.3678V20.2177H44.5194V0Z" fill="white"/>
<path d="M40.1309 35.8745V43.3674H39.0386V35.8745H40.1309Z" fill="white"/>
<path d="M41.5873 36.6793C41.5873 36.2961 41.8748 36.0278 42.2772 36.0278C42.6797 36.0278 42.948 36.2961 42.948 36.6793C42.948 37.0818 42.6605 37.35 42.2772 37.35C41.8748 37.3692 41.5873 37.0818 41.5873 36.6793ZM42.833 38.1932V43.3483H41.7407V38.1932H42.833Z" fill="white"/>
<path d="M46.7616 38.0016C47.5473 38.0016 48.218 38.3466 48.6588 38.9215V38.1933H49.7319V45.6863H48.6204V42.6584C48.1797 43.2333 47.5281 43.5591 46.7616 43.5591C45.2668 43.5591 44.1745 42.3901 44.1745 40.7804C44.1745 39.1706 45.2668 38.0016 46.7616 38.0016ZM48.678 40.7804C48.678 39.7839 47.9689 39.0365 46.9915 39.0365C46.0142 39.0365 45.286 39.7647 45.286 40.7804C45.286 41.7769 46.0142 42.5243 46.9915 42.5243C47.9689 42.5243 48.678 41.7769 48.678 40.7804Z" fill="white"/>
<path d="M54.8678 43.3483V42.6967C54.5037 43.2333 53.8713 43.5591 53.2006 43.5591C51.9358 43.5591 51.1117 42.6201 51.1117 41.3553V38.2124H52.2232V41.2786C52.2232 42.0452 52.664 42.5818 53.4497 42.5818C54.2162 42.5818 54.8678 41.9877 54.8678 41.1636V38.1933H55.9601V43.3483H54.8678Z" fill="white"/>
<path d="M57.4166 36.6793C57.4166 36.2961 57.7041 36.0278 58.1065 36.0278C58.5089 36.0278 58.7772 36.2961 58.7772 36.6793C58.7772 37.0818 58.4898 37.35 58.1065 37.35C57.7041 37.3692 57.4166 37.0818 57.4166 36.6793ZM58.6431 38.1932V43.3483H57.5507V38.1932H58.6431Z" fill="white"/>
<path d="M62.5908 38.0016C63.3573 38.0016 64.0281 38.3274 64.4497 38.9023V35.8745H65.5612V43.3674H64.488V42.6392C64.0472 43.2142 63.3765 43.5591 62.5908 43.5591C61.096 43.5591 60.0037 42.3901 60.0037 40.7804C60.0037 39.1706 61.096 38.0016 62.5908 38.0016ZM61.096 40.7804C61.096 41.796 61.8242 42.5243 62.8016 42.5243C63.7789 42.5243 64.488 41.7769 64.488 40.7804C64.488 39.7838 63.7789 39.0365 62.8016 39.0365C61.8242 39.0365 61.096 39.7647 61.096 40.7804Z" fill="white"/>
<path d="M67.0367 36.6793C67.0367 36.2961 67.3242 36.0278 67.7266 36.0278C68.1291 36.0278 68.4165 36.2961 68.4165 36.6793C68.4165 37.0818 68.1291 37.35 67.7266 37.35C67.305 37.3692 67.0367 37.0818 67.0367 36.6793ZM68.2632 38.1932V43.3483H67.1709V38.1932H68.2632Z" fill="white"/>
<path d="M70.3138 39.0556H69.528V38.1932H70.3904L70.5246 36.9476H71.4253V38.1932H72.6901V39.0556H71.4253V41.8344C71.4253 42.2943 71.7127 42.6201 72.1726 42.6201C72.3068 42.6201 72.5559 42.5818 72.7476 42.5243V43.4058C72.4793 43.5016 72.1151 43.5399 71.8277 43.5399C70.9078 43.5399 70.3138 42.8692 70.3138 41.8919V39.0556Z" fill="white"/>
<path d="M73.974 44.5939C74.204 44.6706 74.4531 44.7281 74.6448 44.7281C75.3538 44.7281 75.5646 44.019 75.8329 43.3866L73.5141 38.2124H74.7214L76.3312 42.026L77.7301 38.2124H78.8799L76.8677 43.4825C76.427 44.6706 75.9671 45.6479 74.8747 45.6479C74.5873 45.6479 74.2423 45.5904 73.974 45.4755V44.5939Z" fill="white"/>
<path d="M86.2196 43.2525V42.6009C85.7789 43.1567 85.1273 43.4633 84.3608 43.4633C82.866 43.4633 81.7545 42.3518 81.7545 40.7804C81.7545 39.1706 82.8468 38.0208 84.3608 38.0208C85.1656 38.0208 85.798 38.3466 86.2196 38.9023V38.1932H87.3119V43.2525C87.3119 44.9197 86.1813 45.8779 84.6099 45.8779C83.2684 45.8779 82.1378 45.0155 81.9653 43.8465L82.981 43.7316C83.1534 44.4406 83.8242 44.958 84.5716 44.958C85.5489 44.958 86.2196 44.3448 86.2196 43.2525ZM86.258 40.7804C86.258 39.7264 85.5489 38.979 84.5716 38.979C83.5942 38.979 82.866 39.7264 82.866 40.7804C82.866 41.7769 83.5942 42.5243 84.5716 42.5243C85.5489 42.5243 86.258 41.7769 86.258 40.7804Z" fill="white"/>
<path d="M93.0611 38.1933H94.1726V43.3483H93.0611V42.5818C92.6203 43.195 91.9496 43.5591 91.1447 43.5591C89.6308 43.5591 88.5576 42.3901 88.5576 40.7804C88.5576 39.1706 89.6308 38.0016 91.1447 38.0016C91.9496 38.0016 92.6203 38.3657 93.0611 38.979V38.1933ZM93.0419 40.7804C93.0419 39.7264 92.3329 38.979 91.3555 38.979C90.3782 38.979 89.6499 39.7264 89.6499 40.7804C89.6499 41.8152 90.3782 42.5818 91.3555 42.5818C92.3329 42.5818 93.0419 41.8344 93.0419 40.7804Z" fill="white"/>
<path d="M96.0698 39.0556H95.2841V38.1932H96.1464L96.2806 36.9476H97.1813V38.1932H98.4461V39.0556H97.1813V41.8344C97.1813 42.2943 97.4687 42.6201 97.9287 42.6201C98.0628 42.6201 98.3119 42.5818 98.5036 42.5243V43.4058C98.2353 43.5016 97.8712 43.5399 97.5837 43.5399C96.6638 43.5399 96.0698 42.8692 96.0698 41.8919V39.0556Z" fill="white"/>
<path d="M102.26 38.0016C103.869 38.0016 105 39.1323 105 40.7229C105 40.8379 104.981 40.9912 104.981 41.1253H100.631C100.765 42.0452 101.397 42.6392 102.241 42.6392C102.93 42.6392 103.563 42.2368 103.754 41.6619L104.789 41.8152C104.502 42.8309 103.429 43.5591 102.26 43.5591C100.65 43.5591 99.4809 42.371 99.4809 40.7229C99.4809 39.1323 100.65 38.0016 102.26 38.0016ZM103.85 40.3013C103.735 39.4964 103.084 38.9215 102.221 38.9215C101.397 38.9215 100.784 39.4772 100.631 40.3013H103.85Z" fill="white"/>
<defs>
<linearGradient id="paint0_linear_1131_16158" x1="24.0748" y1="12.7012" x2="10.2034" y2="41.8694" gradientUnits="userSpaceOnUse">
<stop stop-color="#FDB6E5"/>
<stop offset="0.4341" stop-color="#CB1CC0"/>
<stop offset="1" stop-color="#520671"/>
</linearGradient>
<linearGradient id="paint1_linear_1131_16158" x1="8.98702" y1="17.8633" x2="21.4135" y2="42.0672" gradientUnits="userSpaceOnUse">
<stop stop-color="#FDB6E5"/>
<stop offset="0.4341" stop-color="#CB1CC0"/>
<stop offset="1" stop-color="#520671"/>
</linearGradient>
<linearGradient id="paint2_linear_1131_16158" x1="4.73096" y1="1.01267" x2="24.6793" y2="39.8672" gradientUnits="userSpaceOnUse">
<stop stop-color="#9D04E7"/>
<stop offset="1" stop-color="#520671"/>
</linearGradient>
</defs>
</svg>
