<svg width="81" height="81" viewBox="0 0 81 81" fill="none" xmlns="http://www.w3.org/2000/svg">
<g clipPath="url(#clip0_1204_16998)">
<path d="M40.6999 80.5C62.7913 80.5 80.6999 62.5914 80.6999 40.5C80.6999 18.4086 62.7913 0.5 40.6999 0.5C18.6085 0.5 0.699921 18.4086 0.699921 40.5C0.699921 62.5914 18.6085 80.5 40.6999 80.5Z" fill="#3D8130"/>
<path d="M55.9346 53.5315L55.9187 53.5156L55.9346 53.5315Z" fill="#3D8130"/>
<path d="M24.4655 32.2188L22.6687 35.7187L20.8093 39.3906L19.4968 42.8281L18.6218 46.4844L18.0749 50.4844L17.7468 53.9375L17.3718 56.2031L17.7468 57.9688L18.3874 59.4844L19.5749 61.5781L22.3249 63.2969L24.3562 64.0938C24.8562 64.25 25.3874 64.4063 25.8405 64.5469L28.2468 64.9844L31.6843 65.1406H34.528C34.8562 65.1406 37.7312 64.9844 37.7468 64.9688L41.403 65.0313L44.9343 64.5938L46.4655 63.9531L47.5124 62.7031L47.5593 61.0469C47.4968 60.9063 47.2937 60.375 47.2312 60.1719C47.1843 60.0312 46.4812 59.2031 45.8405 58.4844L45.8249 58.4688C45.5437 58.0625 45.0905 57.3594 45.0905 57.125C45.0905 56.8906 45.3718 56.2031 45.4343 56.0781L45.4655 56.0156L46.9343 55.5938L47.903 56.2969L48.778 55.8125L49.7624 54.8281L51.4812 53.5625L53.0437 52.6719L54.278 52.4375L55.903 53.5469L55.7937 53.4219L56.4655 52.8281L57.0905 51.7969V50.7188L56.9655 50.4062L56.1687 51.0469L54.7468 51.4531H54.7155L52.528 51.4062L49.3562 51.7344L48.3562 51.8438L47.5905 51.7344L45.5437 51.4531L43.2312 51.0156L39.4968 50.4062H39.4812L35.903 48.9219L32.7624 47.1094L30.8405 45.8125L30.653 44.8906L30.903 44.0313L31.6687 43.4688L33.4499 43.875L37.3405 45.0781C39.2468 45.4688 42.153 46.0469 42.3405 46.0625C42.4343 46.0625 42.8093 46.125 43.7468 46.2813C44.7468 46.4375 46.1218 46.6719 46.403 46.6719C46.8874 46.6719 50.6218 46.875 50.8405 46.8906C51.0437 46.8906 54.0749 46.8281 54.403 46.8281C54.6218 46.8281 55.7937 46.4375 56.4968 46.1875L57.5593 44.9219L58.5749 43.1563C58.6374 42.6406 58.5749 42.125 58.3874 41.6406C58.1374 40.9844 57.6687 40.4219 57.0749 40.0469C56.7624 40.6406 56.3562 41.0156 55.8874 41.1875C55.7155 41.25 55.5124 41.2813 55.3249 41.2813C55.0437 41.2813 54.7624 41.2187 54.528 41.0937L54.6843 40.8125C55.028 40.9844 55.4187 41.0156 55.7937 40.8906C56.2155 40.7344 56.5749 40.3594 56.8562 39.7812C56.5124 39.9062 56.1374 39.9844 55.7624 39.9844C55.528 39.9844 55.2937 39.9688 55.0593 39.9062L55.0905 39.75L55.1218 39.5938C55.1374 39.5938 56.3405 39.8906 57.2468 39.1875C57.8874 38.7031 58.2468 37.8281 58.3093 36.625L57.2624 37.8594L55.9968 38.4375C55.4343 38.5781 53.5593 39.0469 53.3874 39.0469C53.3249 39.0469 53.0749 39.0156 52.4655 38.9063C51.6999 38.7813 50.5593 38.6094 50.2624 38.6094C49.7312 38.6094 48.9812 38.0313 48.903 37.9688L48.8093 37.9062L49.403 36.1719L51.0437 34.3125L52.778 33.0781H54.9343L56.9655 33.2969L57.8405 34.2969L58.2624 34.9219V33.2344L56.5749 32.625C56.3874 32.5938 54.7155 32.3594 54.3093 32.3594C53.9187 32.3594 52.4187 32.5938 52.1687 32.625L49.9968 34.0313L49.8249 33.7656L52.0437 32.3281H52.0749C52.153 32.3125 53.8405 32.0469 54.2937 32.0469C54.7312 32.0469 56.5437 32.3125 56.6218 32.3281L56.653 32.3438L58.4812 33.0156L58.653 33.1094L58.6687 32.9844L57.8093 32.2344L56.2624 31.4844L54.3874 31.3281L52.2312 31.7031L51.3718 32.0781L51.2468 31.7812L52.153 31.3906L54.3718 31L56.3405 31.1719L56.4187 31.2188L55.8249 30.2969L54.153 28.8281L54.1687 28.8125L47.6687 29C47.6687 29 46.8249 29.1094 45.8562 29.2344L46.778 30.5625L47.2468 31.3906L47.0124 32.2188L46.6999 32.125L46.903 31.4219L46.4968 30.7187L45.5124 29.2969L45.5749 29.25C44.3562 29.4062 43.0593 29.5625 42.9812 29.5625C42.8405 29.5625 37.6218 29.9531 37.403 29.9531C36.9655 29.9219 36.528 29.875 36.1062 29.7812C36.028 29.7344 32.5437 28.4687 32.4187 28.3906C32.2937 28.3125 31.0749 27.1406 31.0749 27.1406L28.6999 26.4062L26.6218 28.9687L24.4655 32.2188ZM49.8249 39.3906C50.1374 39.5312 50.4187 39.7031 50.7155 39.875L52.4968 40.0781L53.5124 39.8594L53.5749 40.1719L52.5124 40.3906L51.278 40.25C51.8093 40.6406 52.2937 41.0781 52.7312 41.5781C53.0437 41.9375 53.3249 42.3281 53.5593 42.7344L53.278 42.8906C52.9968 42.4219 52.6687 41.9688 52.278 41.5781C51.7624 41.0469 51.1843 40.5625 50.5593 40.1719L49.653 39.6563L49.8249 39.3906ZM31.9655 33.5469L33.3874 32.1875L34.6218 31.1719L36.3874 30.8281L38.2468 30.7656H40.2312L41.8718 30.8281L45.1999 30.8906L46.2468 31.5313L47.528 32.7031L48.2624 33.6094L48.6062 35.4531L48.2937 35.5156L47.9655 33.75L47.2937 32.9062L46.0593 31.7812L45.1218 31.2031L42.5124 31.1562L43.653 31.7812C44.2624 32.0937 45.3093 32.6563 45.4187 32.8906C45.4968 33.0156 46.3249 33.8281 47.0905 34.5469L47.1062 34.5625L48.278 36.0781L48.4499 37.3281L48.1374 37.375L47.9812 36.2188L46.8718 34.7812C46.4812 34.4219 45.2624 33.2656 45.153 33.0469C45.0593 32.9219 44.2468 32.4531 43.528 32.0781L41.8562 31.1562L40.2468 31.1094H38.278L36.4343 31.1562L34.7937 31.4687L33.6218 32.4219L32.2937 33.7031L32.153 34.5469L32.4343 34.7969L33.1374 34.4219L34.2937 32.9844L36.3874 32.1875L39.1062 31.9062L41.403 32.125L44.3874 33.6719L45.6218 34.4062L46.8093 35.9844L47.3562 37.7031L48.153 38.2188V38.9219L47.4187 39.5938L46.1062 40.1406L45.5437 40.6094L44.9499 41.5781L44.653 42.0625L44.6218 42.0781C44.2312 42.2813 43.5437 42.6406 43.3562 42.6406C43.2155 42.6719 42.3405 43.0625 41.5593 43.4531L41.4812 43.4688C41.4187 43.4844 40.0437 43.9063 39.6999 43.9688L39.653 43.6563C39.9499 43.6094 41.2468 43.2188 41.3718 43.1719C42.153 42.7969 43.1218 42.3437 43.2937 42.3437C43.6687 42.2031 44.028 42.0313 44.3874 41.8281L44.528 41.5938L45.2468 40.4219L45.4187 40.2813C44.9187 40.2344 44.2624 40.1562 44.0905 40.0625C44.0124 40.0312 43.5437 39.9688 41.0905 39.9688C40.4812 39.9688 39.0437 39.6406 38.8405 39.5781C38.6843 39.5313 37.2155 39.0938 37.1999 39.0938L37.1687 39.0781L37.1374 39.0469C37.1218 39.0312 35.7624 37.7344 34.7624 37.1563L34.9187 36.875C35.8874 37.4375 37.1218 38.5938 37.3405 38.7969C37.5749 38.8594 38.7937 39.2344 38.9499 39.2812C39.1218 39.3438 40.528 39.6563 41.0905 39.6563C44.0437 39.6563 44.1687 39.7344 44.2468 39.7969C44.3562 39.8594 45.0593 39.9375 45.653 39.9844L45.6374 40.0938L45.8718 39.8906L47.1843 39.3438L47.7624 38.8125V38.4219L47.3562 38.1563L47.3718 38.2031L46.0124 38.7031L44.1374 38.9219C44.0437 38.9219 43.6374 38.9375 43.1843 38.9375C42.653 38.9375 42.0749 38.9219 41.903 38.8594C41.653 38.7813 40.0749 38.4375 39.2937 38.2656H39.278L39.2624 38.25C38.278 37.7188 37.0593 37.0469 36.9655 36.875C36.8874 36.7813 36.278 36.4688 35.7624 36.2188H35.7468L34.0124 35.2031L33.778 35.25L33.7468 35.0469L33.1999 34.7344L32.3562 35.1875L31.7624 34.6719L31.9655 33.5469ZM32.6843 41.0312L32.7624 41.3438L31.6999 41.5938L31.1687 41.7187L31.1374 41.5938L31.0905 41.4062L32.6843 41.0312ZM33.3562 42.5156L33.278 42.8281C32.9187 42.75 32.5437 42.7656 32.1843 42.8281C31.5905 42.9375 30.7155 43.2813 29.8718 44.25L29.6374 44.0469C31.3718 42.0156 33.278 42.4844 33.3562 42.5156Z" fill="#3D8130"/>
<path d="M35.4968 34.6094C35.5905 34.5937 37.8093 34.3281 38.0905 34.3281C38.1999 34.3281 38.5124 34.3594 38.9187 34.3906C39.4655 34.4375 40.3874 34.5156 40.528 34.5C40.7468 34.4375 42.9343 34.25 43.1843 34.2187L44.4812 34.125L44.2155 33.9687L41.2937 32.4531L39.0905 32.2344L36.4343 32.5L34.4655 33.25L33.4655 34.5L34.1062 34.875L35.4968 34.6094Z" fill="#3D8130"/>
<path d="M43.1999 34.5469C42.2312 34.6406 40.7468 34.7813 40.5905 34.8125C40.4499 34.8438 39.9499 34.8125 38.8874 34.7187C38.528 34.6875 38.1843 34.6563 38.0905 34.6563C37.8718 34.6563 36.1843 34.8594 35.5437 34.9219L34.5124 35.1094L35.9187 35.9375C36.3562 36.1406 37.1062 36.5156 37.2312 36.7031C37.3562 36.8281 38.4187 37.4375 39.403 37.9688C39.653 38.0156 41.7155 38.4687 42.028 38.5781C42.2468 38.6562 43.4499 38.6406 44.153 38.625L45.9968 38.4063L47.1062 37.9844L47.0437 37.9531L46.4812 36.1719L45.3718 34.6875L44.7155 34.2969L44.7312 34.4531L43.1999 34.5469Z" fill="#3D8130"/>
<path d="M57.6374 34.4219L56.8562 33.5469L54.9499 33.3281H52.9187L51.278 34.5L49.7155 36.2656L49.2155 37.7187C49.4655 37.9062 49.9655 38.2187 50.2937 38.2187C50.6218 38.2187 51.6843 38.3906 52.5437 38.5312C52.9499 38.5937 53.3562 38.6562 53.4187 38.6562C53.5593 38.6406 55.028 38.2812 55.9343 38.0625L57.0905 37.5312L58.0124 36.4687L57.9343 35.9687L55.0905 34.8125L51.4499 34.7031L51.4655 34.3906L55.1687 34.5L58.2312 35.75L58.3562 36.5469C58.3562 36.5 58.3562 36.4531 58.3562 36.4062V35.5312L57.6374 34.4219Z" fill="#3D8130"/>
<path d="M54.2312 52.75L53.1687 52.9531L51.6687 53.8125L49.9812 55.0625L49.5124 55.5313L50.5749 56.2813L50.653 56.875L49.9343 57.5938L49.7155 57.375L50.3249 56.7656L50.2937 56.4688L49.2937 55.7656L48.9968 56.0625L48.3718 56.4062L48.1999 57.25L49.0749 58.0156L50.3405 57.9687C50.5749 57.7969 50.9655 57.5469 51.153 57.5313C51.3405 57.4219 51.528 57.2969 51.6999 57.1563C52.1218 56.8281 52.2937 56.7187 52.4187 56.7187C52.7937 56.5312 53.153 56.3281 53.4968 56.0937L53.5437 56.0625L55.0749 56.2344L55.6062 56.7656L55.4968 56.875C55.1687 57.2344 54.7937 57.7031 54.778 57.8125C54.778 57.8906 54.7624 57.9688 54.7312 58.0313L55.0905 57.8281L56.778 56.625L56.9655 56.8906L55.2468 58.1094L54.4499 58.5469C54.4187 58.5938 54.3874 58.6406 54.3718 58.6563L54.3093 58.6094L53.0905 59.2813L52.2468 60.5L51.9499 61.2188L52.5593 62.0781L53.2312 62.8438L54.028 62.9375L54.7624 62.7813L54.7468 62.625L55.5593 61.3438L57.0905 59.8594L57.3093 60.0938L55.7937 61.5625L55.0593 62.7031L55.1062 63.5625L55.8874 64.0938L56.9187 64.2031L57.4968 64.0313L57.3874 63.8594L57.4655 63.7656C57.4968 63.7188 58.3405 62.7656 58.5124 62.6094C58.6374 62.4844 59.3562 61.6562 59.7155 61.25L59.9499 61.4531C59.903 61.5 58.903 62.6719 58.7312 62.8281C58.6062 62.9531 57.9968 63.625 57.778 63.875L58.3249 64.6875H59.2468L60.0437 64.3281L60.6999 63.3594L61.5749 62.4219L61.8093 62.6406L60.9343 63.5625L60.2624 64.5781L59.3093 65H58.153L57.6687 64.2813L56.9343 64.5L55.7624 64.3906L54.7937 63.7188L54.7624 63.0938L54.028 63.25L53.0593 63.125L52.3249 62.2812L51.2312 61.625L50.0905 60.3594L49.8093 58.3906L50.1218 58.3438L50.3562 60.0313L51.7155 58.9531L53.1843 57.5469L54.028 56.3906L53.6218 56.3438C53.1687 56.6406 52.6374 56.9688 52.4499 57C52.2624 57.1094 52.0749 57.2344 51.903 57.375C51.4655 57.7031 51.2937 57.8125 51.1843 57.8125C50.9499 57.9219 50.7155 58.0625 50.5124 58.2188L50.4655 58.25L48.9812 58.3125L47.8718 57.3281L48.028 56.5781L47.9187 56.6406L46.9187 55.9219L45.7468 56.2656C45.6218 56.5469 45.528 56.8281 45.4655 57.125C45.4812 57.25 45.8249 57.8281 46.1374 58.2812C46.5593 58.75 47.528 59.8594 47.5905 60.0938C47.6374 60.2656 47.8405 60.7656 47.9187 60.9531L47.9343 60.9844L47.8874 63.1094L48.4968 64.0156C48.8093 64.2031 51.1062 65.5469 51.3718 65.7031C51.5593 65.8125 53.2155 66.2812 54.2312 66.5625L57.653 66.8906L60.403 66.5156L62.7624 65.4375L64.0437 64.2031L63.7468 63.1094L62.1687 60.1719L61.028 58.4375L59.0437 56.2813L56.1218 54.6719L55.6843 53.7344L54.2312 52.75Z" fill="#3D8130"/>
<path d="M56.7155 46.4219L56.6687 46.4375C56.3562 46.5469 54.7624 47.1094 54.4187 47.1094C54.0905 47.1094 50.8874 47.1563 50.8562 47.1719C50.8093 47.1719 46.903 46.9531 46.4187 46.9531C46.1062 46.9531 44.8405 46.75 43.7155 46.5625C43.0905 46.4531 42.4499 46.3594 42.3562 46.3594C42.1374 46.3594 38.0905 45.5313 37.278 45.375H37.2624L33.3718 44.1719L31.7468 43.8125L31.1843 44.2344L30.9968 44.9063L31.1374 45.625L32.9499 46.8438L36.0593 48.6406L39.5905 50.1094L43.2937 50.7031L45.6062 51.1406L48.3718 51.5156L52.5281 51.0781H52.5437L54.7156 51.125L56.028 50.75L57.1374 49.8594L58.0437 48.4688L58.2468 47.8281L57.9499 47.1094C56.6374 48.2969 56.4968 48.3437 56.4187 48.3594L55.0749 48.6875L51.3405 48.8594H51.3249L47.4187 48.6406L43.5437 47.9375L40.4187 48H40.403L37.153 47.1719L34.278 46.1719L32.7468 45.2344L32.9187 44.9688L34.4343 45.8906L37.2624 46.875L40.4655 47.6875L43.5905 47.625H43.6062L47.4812 48.3281L51.3562 48.5469L55.0593 48.3906L56.3562 48.0625C56.4343 48.0312 56.8718 47.6875 57.7937 46.8438C57.9187 46.7344 57.9968 46.6563 58.028 46.625L59.2155 45L59.6218 44.2344C59.5593 43.9687 59.4968 43.7187 59.4655 43.4531C59.3093 43.2031 59.1374 42.9844 58.9343 42.7656C58.9343 42.9062 58.9343 43.0469 58.903 43.1875V43.2187L57.8249 45.0781L56.7155 46.4219Z" fill="#983B1F"/>
<path d="M63.9968 63L62.403 60.0312L61.2468 58.2656L59.2468 56.0312L56.3562 54.4531L55.9343 53.5469L55.8562 53.5937C55.8562 53.5937 56.1218 54.5625 56.3093 54.6562C56.4968 54.75 58.9968 56.0312 59.1218 56.0937C59.2468 56.1562 61.4187 58.75 61.4187 58.75L63.1687 61.7969L64.2155 64.1406C64.2155 64.1406 62.8718 65.5156 62.7937 65.5312C62.7155 65.5469 60.1218 66.8125 60.0437 66.8125C59.9655 66.8125 57.4499 67.0938 57.3093 67.0625C57.1687 67.0156 54.0749 66.75 53.8405 66.7344C53.5905 66.7188 50.7312 65.5781 50.7312 65.5781L48.2624 64.0938L47.5593 63L46.5749 64.1094C46.5749 64.1094 45.1843 64.8125 44.9968 64.8125C44.8093 64.8125 41.403 65.2656 41.1374 65.2656H34.278C34.278 65.2656 27.4968 65.1406 27.1999 65C27.1062 64.9531 26.5593 64.7812 25.8405 64.5469L25.2624 64.4375L24.3562 64.0938C23.2468 63.75 22.2468 63.4531 22.2468 63.4531L19.4499 61.6406C19.4499 61.6406 18.278 59.6094 18.2312 59.5C18.1843 59.3906 17.4655 57.6875 17.4655 57.6094C17.4655 57.5312 17.2155 56.1719 17.2155 56.1719L17.7155 53.0625L17.9343 49.7969L18.4655 46.2344C18.4655 46.2344 19.3562 42.6562 19.3718 42.5C19.3874 42.3281 20.8249 38.7969 20.8249 38.7969L22.3405 36.0625L24.3405 31.9375L26.5437 28.8281L28.6843 26.2812L28.8249 26.3281L28.5749 26.125L26.4968 28.7031L24.1843 32.0625L22.3718 35.5938L20.5124 39.25L19.1843 42.7188L18.2937 46.4062L17.7468 50.4375L17.4187 53.8906L17.028 56.2188L17.4187 58.0625L18.0905 59.625L19.3249 61.8125L22.153 63.5938L25.1374 64.7656L28.1843 65.3281L31.6687 65.5H34.5124C34.8405 65.5 37.5749 65.3438 37.7468 65.3281L41.4187 65.3906H41.4343L45.0124 64.9531H45.028L46.6687 64.2656L47.5124 63.25L48.2155 64.2969L48.2468 64.3125C48.278 64.3281 50.8874 65.8437 51.153 66.0156C51.4343 66.1875 53.8249 66.8438 54.1062 66.9062L57.6062 67.2344L60.4187 66.8438H60.4343L62.8718 65.7344L62.903 65.7188L64.3562 64.3125L63.9968 63Z" fill="black"/>
<path d="M26.5437 28.8281L24.3405 31.9375L22.3405 36.0625L20.8249 38.7969C20.8249 38.7969 19.3874 42.3281 19.3718 42.5C19.3562 42.6719 18.4655 46.2344 18.4655 46.2344L17.9343 49.7969L17.7155 53.0625L17.2155 56.1719C17.2155 56.1719 17.4655 57.5312 17.4655 57.6094C17.4655 57.6875 18.1843 59.3906 18.2312 59.5C18.278 59.6094 19.4499 61.6406 19.4499 61.6406L22.2468 63.4531C22.2468 63.4531 23.2468 63.75 24.3562 64.0938L22.3249 63.2969L19.5749 61.5781L18.3874 59.4844L17.7468 57.9687L17.3718 56.2031L17.7468 53.9375L18.0749 50.4844L18.6218 46.4844L19.4968 42.8281L20.8093 39.3906L22.6687 35.7187L24.4655 32.2188L26.7624 28.8906L28.8405 26.3281L28.6999 26.2812L26.5437 28.8281Z" fill="black"/>
<path d="M54.2937 52.4219L53.0593 52.6563L51.4968 53.5469L49.778 54.8125L48.7937 55.7969L47.9187 56.2813L46.9499 55.5781L45.4812 56L45.4499 56.0625C45.3874 56.2031 45.1062 56.875 45.1062 57.1094C45.1062 57.3438 45.5749 58.0625 45.8405 58.4531L45.8562 58.4688C46.4968 59.1875 47.1999 60.0156 47.2468 60.1563C47.2937 60.3594 47.5124 60.8906 47.5749 61.0313L47.528 62.6875L46.4812 63.9375L44.9499 64.5781L41.4187 65.0156L37.7624 64.9531C37.7312 64.9531 34.8562 65.125 34.5437 65.125H31.6999L28.2624 64.9688L25.8562 64.5313C26.5593 64.75 27.1218 64.9375 27.2155 64.9844C27.4968 65.125 34.2937 65.25 34.2937 65.25H41.153C41.4187 65.25 44.8405 64.7969 45.0124 64.7969C45.1999 64.7969 46.5905 64.0938 46.5905 64.0938L47.5749 62.9844L48.278 64.0781L50.7468 65.5625C50.7468 65.5625 53.6062 66.6875 53.8562 66.7188C54.1062 66.7344 57.1843 67 57.3249 67.0469C57.4655 67.0938 59.9812 66.7969 60.0593 66.7969C60.1374 66.7969 62.7312 65.5469 62.8093 65.5156C62.8874 65.5 64.2312 64.125 64.2312 64.125L63.1843 61.7813L61.4343 58.7344C61.4343 58.7344 59.2624 56.1406 59.1374 56.0781C59.0124 56.0156 56.5124 54.7344 56.3249 54.6406C56.1374 54.5469 55.8718 53.5781 55.8718 53.5781L55.9499 53.5313V53.5156L54.2937 52.4219ZM56.1062 54.6719L59.028 56.2813L60.9812 58.4375L62.1218 60.1719L63.6999 63.1094L63.9968 64.2031L62.7155 65.4375L60.3562 66.5156L57.6062 66.8906L54.1843 66.5625C53.1687 66.2813 51.5124 65.8125 51.3249 65.7031C51.0593 65.5469 48.7624 64.2031 48.4499 64.0156L47.8405 63.1094L47.8874 60.9844V60.9688C47.8093 60.7813 47.6062 60.2813 47.5593 60.1094C47.4968 59.875 46.528 58.7656 46.1062 58.2969C45.7937 57.8281 45.4343 57.25 45.4343 57.1406C45.4968 56.8438 45.5905 56.5625 45.7155 56.2813L46.8874 55.9375L47.8874 56.6563L47.9968 56.5938L47.8405 57.3438L48.9499 58.3281L50.4343 58.2656L50.4812 58.2344C50.6843 58.0781 50.9187 57.9375 51.153 57.8281C51.278 57.8281 51.4343 57.7188 51.8718 57.3906C52.0437 57.25 52.2312 57.125 52.4187 57.0156C52.6062 57 53.153 56.6563 53.5905 56.3594L53.9968 56.4063L53.153 57.5625L51.6843 58.9688L50.3249 60.0469L50.0905 58.3594L49.778 58.4063L50.0593 60.375L51.1999 61.6406L52.2937 62.2969L53.028 63.1406L53.9968 63.2656L54.7312 63.1094L54.7624 63.7344L55.7312 64.4063L56.903 64.5156L57.6374 64.2969L58.1218 65.0156H59.278L60.2312 64.5938L60.903 63.5781L61.778 62.6563L61.5437 62.4375L60.6687 63.375L60.0124 64.3438L59.2155 64.7031H58.2937L57.7468 63.8906C57.9655 63.6406 58.5749 62.9688 58.6999 62.8438C58.8718 62.6719 59.8718 61.5156 59.9187 61.4688L59.6843 61.2656C59.3249 61.6875 58.6062 62.5 58.4812 62.625C58.3093 62.7969 57.4655 63.75 57.4343 63.7813L57.3562 63.875L57.4655 64.0469L56.8874 64.2188L55.8562 64.1094L55.0749 63.5781L55.028 62.7188L55.7624 61.5781L57.278 60.1094L57.0593 59.875L55.528 61.3594L54.7155 62.6406L54.7312 62.7969L53.9968 62.9531L53.1999 62.8594L52.528 62.0938L51.9187 61.2344L52.2155 60.5156L53.0593 59.2969L54.278 58.625L54.3405 58.6719C54.3562 58.6406 54.3874 58.6094 54.4187 58.5625L55.2155 58.125L56.9343 56.9063L56.7468 56.6406L55.0593 57.8438L54.6999 58.0469C54.7312 57.9844 54.7468 57.9063 54.7468 57.8281C54.7624 57.7031 55.1374 57.25 55.4655 56.8906L55.5749 56.7813L55.0437 56.25L53.5124 56.0781L53.4655 56.1094C53.1218 56.3438 52.7624 56.5625 52.3874 56.7344C52.2624 56.7344 52.0905 56.8594 51.6687 57.1719C51.4968 57.3125 51.3093 57.4375 51.1218 57.5469C50.9343 57.5625 50.5593 57.8125 50.3093 57.9844L49.0437 58.0313L48.1687 57.2656L48.3405 56.4219L48.9655 56.0781L49.2624 55.7813L50.2624 56.4844L50.2937 56.7813L49.6843 57.3906L49.903 57.6094L50.6218 56.8906L50.5437 56.2969L49.4812 55.5469L49.9499 55.0781L51.6374 53.8281L53.1374 52.9688L54.1999 52.7656L55.6374 53.75L56.1062 54.6719ZM51.8249 61.6563L51.403 61.4063L50.4655 60.375L51.903 59.25L53.3874 57.8125L54.3562 56.4688L54.903 56.5313L55.1374 56.7656C54.8405 57.0938 54.4343 57.5781 54.4343 57.7969C54.3874 57.9844 54.2937 58.1563 54.1843 58.2969L52.8249 59.0469L51.9187 60.3438L51.5437 61.2813L51.8249 61.6563Z" fill="black"/>
<path d="M55.653 29.8125L56.4499 30.8594C56.4499 30.8594 56.8405 31.4687 56.9812 31.5156C57.1218 31.5625 58.4187 32.3125 58.4187 32.3125L58.9499 32.9062L58.8405 33.25L58.4343 33.125L58.4968 35.1406H58.6218V33.3281L58.9812 33.5312L59.0749 32.7656L58.0593 31.875L56.9655 31.3437L57.0124 31.3125L56.1687 29.9844L54.4655 28.4844L54.278 28.7031H54.4499L55.653 29.8125Z" fill="black"/>
<path d="M58.3093 38.0469C58.3093 38.0469 57.7312 39.2031 57.6687 39.2344C57.6062 39.2812 57.0905 39.5 57.0905 39.5L57.1374 39.7812C57.3718 39.9531 57.6062 40.1406 57.8093 40.3437C57.8405 40.3906 58.1843 41.0781 58.4655 41.5937H58.7468C58.4812 40.8125 57.9499 40.1406 57.2468 39.7187C57.278 39.6562 57.3093 39.5781 57.3405 39.5156C57.3874 39.4844 57.4499 39.4531 57.4968 39.4062C58.2624 38.8281 58.653 37.8281 58.6999 36.4219V35.4375L58.5124 35.1562L58.5593 36.6719L58.3093 38.0469Z" fill="black"/>
<path d="M55.9343 30.2187L56.528 31.1406L56.4499 31.0938L54.4812 30.9219L52.2624 31.3125L51.3562 31.7031L51.4812 32L52.3405 31.625L54.4968 31.25L56.3718 31.4062L57.9187 32.1563L58.778 32.9062L58.7624 33.0312L58.5905 32.9375L56.7624 32.2656L56.7312 32.25C56.653 32.2344 54.8562 31.9687 54.403 31.9687C53.9499 31.9687 52.2624 32.2344 52.1843 32.25H52.153L49.9343 33.6875L50.1062 33.9531L52.278 32.5469C52.528 32.5156 54.028 32.2812 54.4187 32.2812C54.8249 32.2812 56.4968 32.5313 56.6843 32.5469L58.3718 33.1562V34.875L57.9499 34.25L57.0749 33.25L55.0437 33.0312H52.8874L51.153 34.2656L49.5124 36.125L48.9187 37.8594L49.0124 37.9219C49.0905 37.9844 49.8405 38.5625 50.3718 38.5625C50.6687 38.5625 51.8249 38.75 52.5749 38.8594C53.1843 38.9531 53.4343 39 53.4968 39C53.6687 39 55.5437 38.5312 56.1062 38.3906L57.3718 37.8125L58.4187 36.5781C58.3562 37.7812 57.9968 38.6562 57.3562 39.1406C56.4343 39.8438 55.2312 39.5469 55.2312 39.5469L55.1999 39.7031L55.1687 39.8594C55.403 39.9062 55.6374 39.9375 55.8718 39.9375C56.2468 39.9375 56.6218 39.875 56.9655 39.7344C56.6843 40.3125 56.3249 40.6875 55.903 40.8438C55.5437 40.9688 55.1374 40.9375 54.7937 40.7656L54.6374 41.0469C54.8874 41.1719 55.1687 41.2344 55.4343 41.2344C55.6218 41.2344 55.8093 41.2031 55.9968 41.1406C56.4655 40.9688 56.8562 40.5938 57.1843 40C57.778 40.375 58.2468 40.9375 58.4968 41.5938H58.5437C58.278 41.0781 57.9187 40.3906 57.8874 40.3438C57.6687 40.1406 57.4499 39.9531 57.2155 39.7812L57.1687 39.5C57.1687 39.5 57.6843 39.2812 57.7468 39.2344C57.8093 39.1875 58.3874 38.0469 58.3874 38.0469L58.6374 36.6875L58.5905 35.1719L58.528 33.1562L58.9343 33.2812L59.0437 32.9375L58.5124 32.3438C58.5124 32.3438 57.2155 31.5781 57.0749 31.5469C56.9343 31.5 56.5437 30.8906 56.5437 30.8906L55.7468 29.8438L54.528 28.75H54.3562L54.3405 28.7656L55.9343 30.2187ZM58.3718 36.5469L58.2468 35.75L55.1843 34.5L51.4812 34.3906L51.4655 34.7031L55.1062 34.8125L57.9499 35.9687L58.028 36.4687L57.1062 37.5312L55.9499 38.0625C55.0437 38.2812 53.5749 38.6406 53.4343 38.6562C53.3718 38.6562 52.9655 38.5937 52.5593 38.5312C51.6999 38.3906 50.6374 38.2187 50.3093 38.2187C49.9968 38.2187 49.4968 37.9062 49.2312 37.7187L49.7312 36.2656L51.2937 34.5L52.9343 33.3281H54.9655L56.8718 33.5469L57.653 34.4219L58.3874 35.5312V36.4062C58.3718 36.4531 58.3718 36.5 58.3718 36.5469Z" fill="black"/>
<path d="M48.3874 51.8125L49.3874 51.7031H47.6218L48.3874 51.8125Z" fill="black"/>
<path d="M57.278 51.7656C57.2312 51.8437 56.3249 53.3125 56.3249 53.3125L55.9187 53.5312L56.0124 53.6406L56.7312 53.0156L57.4187 51.8594V51.7031H57.278C57.2937 51.7344 57.2937 51.75 57.278 51.7656Z" fill="black"/>
<path d="M57.278 51.7656C57.278 51.75 57.2937 51.7187 57.2937 51.7031H57.1218V51.7656L56.4968 52.7969L55.8249 53.3906L55.9343 53.5156L55.9499 53.5312L56.3562 53.3125C56.3405 53.3125 57.2468 51.8594 57.278 51.7656Z" fill="black"/>
<path d="M58.778 42.1875L58.9187 42.3906C58.8874 42.125 58.8405 41.8594 58.7468 41.5938H58.4655C58.6374 41.9219 58.778 42.1875 58.778 42.1875Z" fill="black"/>
<path d="M59.7937 43.9375C59.778 44.0156 59.5905 44.6406 59.5437 44.7344C59.4968 44.8437 58.028 46.8594 58.028 46.8594L58.3718 47.5625C58.3718 47.5625 58.4343 48.0625 58.3874 48.1406C58.3405 48.2187 57.0437 50.2344 57.0437 50.2344L57.2468 50.7969C57.2468 50.7969 57.2937 51.5 57.278 51.7187H57.4187V50.6406L57.2468 50.1719L57.3874 50.0625L58.3405 48.5937L58.5905 47.7969L58.2155 46.875C58.2468 46.8437 58.2624 46.8281 58.2624 46.8281L59.4812 45.1562L59.9655 44.2656L59.9499 44.2031C59.8874 43.9531 59.8249 43.6875 59.7937 43.4219C59.7937 43.3594 59.7937 43.1875 58.9812 42.3281L58.9187 42.3906L59.403 43.0781C59.403 43.0781 59.8093 43.8594 59.7937 43.9375Z" fill="black"/>
<path d="M58.4655 41.5938H58.4187C58.6062 42.0781 58.6687 42.5938 58.6062 43.1094L57.5749 44.875L56.5124 46.1406C55.7937 46.3906 54.6218 46.7813 54.4187 46.7813C54.0905 46.7813 51.0593 46.8281 50.8562 46.8438C50.6218 46.8281 46.903 46.625 46.4187 46.625C46.1374 46.625 44.7624 46.4063 43.7624 46.2344C42.8405 46.0781 42.4499 46.0156 42.3562 46.0156C42.153 46 39.2624 45.4219 37.3562 45.0312L33.4655 43.8281L31.6843 43.4219L30.9187 43.9844L30.6687 44.8437L30.8562 45.7656L32.778 47.0625L35.9187 48.875L39.4968 50.3594H39.5124L43.2468 50.9688L45.5593 51.4062L47.6062 51.6875H49.3874L52.5593 51.3594L54.7468 51.4062H54.778L56.1999 51L56.9968 50.3594L57.1218 50.6719V51.6875H57.2937C57.3093 51.4688 57.2624 50.7656 57.2624 50.7656L57.0593 50.2031C57.0593 50.2031 58.3562 48.1875 58.403 48.1094C58.4499 48.0313 58.3874 47.5312 58.3874 47.5312L58.0437 46.8281C58.0437 46.8281 59.528 44.8125 59.5593 44.7031C59.6062 44.5937 59.778 43.9844 59.8093 43.9062C59.8249 43.8281 59.4187 43.0469 59.4187 43.0469L58.9343 42.3594L58.7937 42.1563C58.778 42.1875 58.6374 41.9219 58.4655 41.5938ZM58.9187 43.1875C58.9343 43.0469 58.9499 42.9062 58.9499 42.7656C59.153 42.9688 59.3249 43.2031 59.4812 43.4531C59.5124 43.7187 59.5593 43.9844 59.6374 44.2344L59.2312 45L58.0437 46.625C58.0124 46.6563 57.9187 46.7344 57.8093 46.8438C56.8874 47.6875 56.4655 48.0156 56.3718 48.0625L55.0749 48.3906L51.3718 48.5469L47.4968 48.3281L43.6218 47.625H43.6062L40.4812 47.6875L37.278 46.875L34.4499 45.8906L32.9343 44.9688L32.7624 45.2344L34.2937 46.1719L37.1687 47.1719L40.4187 48H40.4343L43.5593 47.9375L47.4343 48.6406L51.3405 48.8594H51.3562L55.0905 48.6875L56.4343 48.3594C56.4968 48.3437 56.653 48.2969 57.9655 47.1094L58.2624 47.8281L58.0593 48.4688L57.153 49.8594L56.0437 50.75L54.7312 51.125L52.5593 51.0781H52.5437L48.3874 51.5156L45.6218 51.1406L43.3093 50.7031L39.6062 50.1094L36.0749 48.6406L32.9655 46.8438L31.153 45.625L31.0124 44.9063L31.1999 44.2344L31.7624 43.8125L33.3874 44.1719L37.278 45.375H37.2937C38.1062 45.5469 42.1374 46.3594 42.3718 46.3594C42.4499 46.3594 43.1062 46.4687 43.7312 46.5625C44.8562 46.75 46.1218 46.9531 46.4343 46.9531C46.9187 46.9531 50.8249 47.1719 50.8718 47.1719C50.903 47.1719 54.1062 47.1094 54.4343 47.1094C54.778 47.1094 56.3718 46.5469 56.6843 46.4375L56.7312 46.4219L57.8562 45.0781L58.9343 43.2187L58.9187 43.1875Z" fill="black"/>
<path d="M32.1843 42.8282C32.5437 42.7501 32.9187 42.7501 33.278 42.8282L33.3562 42.5157C33.278 42.5001 31.3718 42.0157 29.6374 44.047L29.8718 44.2501C30.7155 43.2657 31.5905 42.9376 32.1843 42.8282Z" fill="black"/>
<path d="M31.6843 41.5938L32.7468 41.3438L32.6843 41.0312L31.0905 41.4062L31.1374 41.5938H31.6843Z" fill="black"/>
<path d="M31.1687 41.7187L31.6843 41.5938H31.1374L31.1687 41.7187Z" fill="black"/>
<path d="M50.5905 40.1875C51.2155 40.5938 51.7937 41.0625 52.3093 41.5938H52.7468C52.3093 41.0938 51.8249 40.6562 51.2937 40.2656L52.528 40.4062L53.5905 40.1875L53.528 39.875L52.5124 40.0937L50.7312 39.8906C50.4499 39.7031 50.153 39.5469 49.8405 39.4062L49.6999 39.6875L50.5905 40.1875Z" fill="black"/>
<path d="M53.2937 42.9062L53.5749 42.75C53.3405 42.3437 53.0593 41.9531 52.7468 41.5938H52.3093C52.6843 42 53.0124 42.4375 53.2937 42.9062Z" fill="black"/>
<path d="M33.1999 34.7344L33.7468 35.0469L33.778 35.25L34.0124 35.2031L35.7468 36.2188H35.7624C36.278 36.4688 36.8874 36.7812 36.9655 36.875C37.0749 37.0312 38.278 37.7031 39.2624 38.25L39.278 38.2656H39.2937C40.0905 38.4375 41.653 38.7812 41.903 38.8594C42.0905 38.9219 42.6687 38.9375 43.1843 38.9375C43.6374 38.9375 44.0593 38.9219 44.1374 38.9219L46.0124 38.7031L47.3718 38.2031L47.3562 38.1562L47.7624 38.4219V38.8125L47.1843 39.3438L45.8718 39.8906L45.6374 40.0937L45.653 39.9844C45.0593 39.9375 44.3562 39.8438 44.2468 39.7969C44.1687 39.75 44.0437 39.6562 41.0905 39.6562C40.528 39.6562 39.1218 39.3437 38.9499 39.2812C38.7937 39.2344 37.5749 38.8594 37.3405 38.7969C37.1374 38.5938 35.903 37.4531 34.9187 36.875L34.7624 37.1563C35.778 37.75 37.1374 39.0312 37.1374 39.0469L37.1687 39.0781L37.1999 39.0938C37.2155 39.0938 38.6843 39.5312 38.8405 39.5781C39.028 39.6406 40.4655 39.9688 41.0905 39.9688C43.5437 39.9688 43.9968 40.0312 44.0905 40.0625C44.2624 40.1562 44.9187 40.2344 45.4187 40.2812L45.2468 40.4219L44.528 41.5938H44.903L45.4968 40.625L46.0593 40.1562L47.3718 39.6094L48.1062 38.9375V38.2344L47.3093 37.7187L46.7624 36L45.5749 34.4219L44.3405 33.6875L41.3562 32.1406L39.0593 31.9219L36.3405 32.2031L34.2468 33L33.0905 34.4375L32.3874 34.8125L32.1062 34.5625L32.2468 33.7188L33.5749 32.4375L34.7468 31.4844L36.3874 31.1719L38.2312 31.125H40.1999L41.8093 31.1719L43.4812 32.0937C44.1999 32.4687 45.028 32.9375 45.1062 33.0625C45.2155 33.2812 46.4343 34.4375 46.8249 34.7969L47.9343 36.2344L48.0905 37.3906L48.403 37.3438L48.2312 36.0938L47.0593 34.5781L47.0437 34.5625C46.278 33.8594 45.4499 33.0469 45.3718 32.9062C45.2624 32.6719 44.2155 32.1094 43.6062 31.7969L42.4655 31.1719L45.0749 31.2188L46.0124 31.7969L47.2468 32.9219L47.9187 33.7656L48.2468 35.5312L48.5593 35.4688L48.2155 33.625L47.4812 32.7187L46.1999 31.5469L45.153 30.9063L41.8249 30.8437L40.1843 30.7812H38.1999L36.3405 30.8437L34.5749 31.1875L33.3405 32.2031L31.9187 33.5625L31.7312 34.6875L32.3249 35.2031L33.1999 34.7344ZM45.3874 34.6719L46.4968 36.1562L47.0593 37.9375L47.1218 37.9688L46.0124 38.3906L44.1687 38.6094C43.4655 38.625 42.2624 38.6406 42.0437 38.5625C41.7312 38.4531 39.6687 38.0156 39.4187 37.9531C38.4343 37.4219 37.3562 36.8125 37.2468 36.6875C37.1218 36.5156 36.3718 36.1406 35.9343 35.9219L34.528 35.0937L35.5593 34.9062C36.1999 34.8281 37.8874 34.6406 38.1062 34.6406C38.1999 34.6406 38.5437 34.6719 38.903 34.7031C39.9655 34.7969 40.4655 34.8281 40.6062 34.7969C40.7624 34.7656 42.2468 34.6094 43.2155 34.5312L44.7468 34.4219L44.7312 34.2656L45.3874 34.6719ZM34.4499 33.2656L36.4187 32.5156L39.0749 32.25L41.278 32.4688L44.1999 33.9844L44.4655 34.1406L43.1687 34.2344C42.9187 34.25 40.7312 34.4531 40.5124 34.5156C40.3718 34.5469 39.4655 34.4531 38.903 34.4062C38.4968 34.375 38.1843 34.3438 38.0749 34.3438C37.7937 34.3438 35.5749 34.6094 35.4812 34.625L34.0749 34.8906L33.4343 34.5156L34.4499 33.2656Z" fill="black"/>
<path d="M44.3874 41.8281C44.028 42.0313 43.6687 42.1875 43.2937 42.3437C43.1218 42.3437 42.153 42.7969 41.3718 43.1719C41.2312 43.2188 39.9499 43.6094 39.653 43.6563L39.6999 43.9688C40.028 43.9063 41.4187 43.4844 41.4812 43.4688L41.4968 43.4531C42.278 43.0781 43.1687 42.6719 43.2937 42.6406C43.4812 42.625 44.1687 42.2813 44.5593 42.0781L44.5905 42.0625L44.8874 41.5781H44.5124L44.3874 41.8281Z" fill="black"/>
<path d="M45.8874 29.0312L45.6843 29.1719C45.778 29.1562 45.8718 29.1562 45.9655 29.1406L45.8874 29.0312Z" fill="black"/>
<path d="M46.6218 30.6406L47.028 31.3438L46.8249 32.0469L47.1374 32.1406L47.3718 31.3125L46.903 30.4844L45.9812 29.1562C45.8874 29.1719 45.7937 29.1719 45.6999 29.1875L45.6374 29.2344L46.6218 30.6406Z" fill="black"/>
<path d="M56.1843 30.2656L57.5749 30.125C57.5749 30.125 61.0437 31.1562 61.1843 31.2969C61.3249 31.4375 63.0749 32.2031 63.0749 32.2031L64.1062 32.2969L64.2468 31.3594L63.4812 30.2656L61.278 28.6406L58.7624 27.4219L57.1843 26.875L56.6218 18.9062L55.2937 16.9219L53.3093 15.2969L50.7468 14.0312L48.0905 13.9844L43.0905 14.6094L38.4968 15.5156L38.2312 14.7344C37.8718 14.6406 37.5124 14.5781 37.153 14.5312C36.8874 14.5312 34.4499 15.2812 34.4499 15.2812L32.9655 16.0625L32.653 16.9687L30.528 18.1406L28.8093 20.2969L27.8249 22.375C27.8249 22.375 27.3249 24.4531 27.3249 24.5781C27.3249 24.7031 27.5905 25.8437 27.778 25.9219C27.9655 26 29.3562 26.375 29.3562 26.375L31.1843 27.2812L33.8249 28.8125L37.1062 29.8906C37.1062 29.8906 40.2155 29.6719 40.528 29.6719C40.8405 29.6719 45.528 29.1719 45.7937 29.1719C46.0593 29.1719 51.1999 28.7656 51.3405 28.7656C51.4812 28.7656 54.5437 28.7188 54.5437 28.7188L55.7624 29.7969L56.1843 30.2656Z" fill="#C82727"/>
<path d="M54.9655 34.6875L55.3718 35.5469L55.6218 36.5313L55.4968 37.1563L54.9655 38.5156L53.278 38.7969L50.5593 38.3125L50.2312 37.3594L50.3562 36.5L50.6374 35.1406L51.3405 34.3594L51.7937 34.6094L54.7937 34.6875" fill="black"/>
<path d="M42.5905 34.5625L43.0905 35.5156L43.1374 36.6719L42.8874 37.7031L42.3562 38.5312L41.4968 38.5781L38.1999 37.5937L36.8874 36.4375L37.0593 35.7031L37.5124 35L38.1218 34.5156L40.4343 34.5781C40.403 34.5625 42.4968 34.7344 42.5905 34.5625Z" fill="black"/>
<path d="M63.8249 30.3906L62.5437 29.2656L60.6999 28.0312L57.6687 26.9219L57.2468 26.75L57.1218 24.1406C56.9655 22.8594 56.7468 20.9219 56.7468 20.7656C56.7468 20.5469 56.6374 18.9531 56.6374 18.8906V18.8594L55.7312 17.2188L54.2155 15.6562L51.8874 14.3281L49.9499 13.7812H47.2937L44.6843 14.1094C43.6374 14.2812 41.9968 14.5469 41.8093 14.5469C41.528 14.5469 39.3405 15.0469 39.0905 15.0938L38.3249 15.2969L38.4499 15.2344L38.1999 14.7344L37.3874 14.4219L36.1999 14.5313L34.2937 15L32.8562 15.9219L32.5593 16.6875L32.7624 16.7656L31.9655 16.9688H31.9343L30.2468 18.0312L29.0749 19.3594L28.0124 21.1406L27.1687 24.0469V25.0937L27.7155 26.0625L31.1374 27.2812L32.278 28.3125L34.8249 29.4687L37.0749 30.0312L41.278 29.75L47.3562 29.0938L51.6843 28.7656L55.278 28.8125L59.0749 29.3594L62.0749 30.7812L62.2156 30.5L59.1843 29.0625L55.3249 28.5156L51.6843 28.4531L47.3405 28.7812L41.2624 29.4375L37.1218 29.7031L34.9655 29.1719L32.4812 28.0312L31.3249 26.9844L27.9499 25.7812L27.5124 25V24.0781L28.3249 21.2656L29.3562 19.5469L30.4812 18.2656L32.0905 17.25L39.1843 15.3906C40.1062 15.1875 41.653 14.8438 41.8405 14.8438C42.1218 14.8438 44.4968 14.4531 44.7624 14.4062L47.3249 14.0781H49.9187L51.7468 14.6094L54.0124 15.9062L55.4655 17.4062L56.3093 18.9531C56.3405 19.5312 56.4187 20.6094 56.4187 20.7656C56.4187 20.9844 56.7624 23.8594 56.8093 24.1719L56.9343 26.625L55.0905 25.9219L51.4499 25.5312L48.6999 25.25L45.9968 25.4688L42.8718 25.7969L39.2312 26.625L36.4968 27.2812L34.6687 27.3906L32.3249 26.9219L33.5124 27.7813L34.4812 28.3438L36.6999 28.8906L38.8718 28.9531H38.8874L40.8249 28.7344L43.5593 28.2969L46.2312 27.8594L49.2312 27.6406L51.3093 27.5312L53.8093 27.6875L57.1999 28.125L61.5749 28.9531L62.3405 29.4531L63.5593 30.5156L63.903 31.3125L63.8249 31.9062L63.1687 31.9531L61.8874 31.3594L59.528 30.4219L57.6687 29.8594L56.0437 30.0312L56.0749 30.3438L57.6374 30.1875L59.4031 30.7188L61.7468 31.6406L63.1062 32.2656L64.0906 32.2031L64.2312 31.2656L63.8249 30.3906ZM32.8874 16.7188L33.1218 16.125L34.4187 15.2969L36.2468 14.8594L37.3562 14.75L37.9812 14.9844L38.153 15.3281L32.8874 16.7188ZM57.2468 27.875L53.8249 27.4375L51.2937 27.2656L49.1999 27.375L46.1843 27.5937L43.4812 28.0312L40.7468 28.4688L38.8405 28.6875L36.7312 28.6406L34.5749 28.1094L33.6687 27.5781H33.653L34.6062 27.7656L36.4968 27.6562L39.2624 27L42.8718 26.1875L45.9812 25.8594L48.653 25.6406L51.3718 25.9063L54.9655 26.2812L57.5281 27.2656L60.528 28.3594L60.8718 28.5938L57.2468 27.875Z" fill="black"/>
<path d="M41.5607 37.1526C42.0818 36.9976 42.3986 36.5166 42.2682 36.0782C42.1378 35.6398 41.6096 35.4101 41.0886 35.5651C40.5675 35.7201 40.2507 36.2011 40.3811 36.6395C40.5115 37.0778 41.0397 37.3076 41.5607 37.1526Z" fill="white"/>
<path d="M39.0124 37.0625C39.2368 37.0625 39.4187 36.8806 39.4187 36.6562C39.4187 36.4319 39.2368 36.25 39.0124 36.25C38.7881 36.25 38.6062 36.4319 38.6062 36.6562C38.6062 36.8806 38.7881 37.0625 39.0124 37.0625Z" fill="white"/>
<path d="M38.7624 35.7969C38.9868 35.7969 39.1687 35.615 39.1687 35.3906C39.1687 35.1663 38.9868 34.9844 38.7624 34.9844C38.5381 34.9844 38.3562 35.1663 38.3562 35.3906C38.3562 35.615 38.5381 35.7969 38.7624 35.7969Z" fill="white"/>
<path d="M51.9968 37.5781C52.2039 37.5781 52.3718 37.4102 52.3718 37.2031C52.3718 36.996 52.2039 36.8281 51.9968 36.8281C51.7897 36.8281 51.6218 36.996 51.6218 37.2031C51.6218 37.4102 51.7897 37.5781 51.9968 37.5781Z" fill="white"/>
<path d="M51.9499 36.1562C52.1743 36.1562 52.3562 35.9744 52.3562 35.75C52.3562 35.5256 52.1743 35.3438 51.9499 35.3438C51.7256 35.3438 51.5437 35.5256 51.5437 35.75C51.5437 35.9744 51.7256 36.1562 51.9499 36.1562Z" fill="white"/>
<path d="M54.1843 37.3125C54.5899 37.3125 54.9187 36.9837 54.9187 36.5781C54.9187 36.1725 54.5899 35.8438 54.1843 35.8438C53.7787 35.8438 53.4499 36.1725 53.4499 36.5781C53.4499 36.9837 53.7787 37.3125 54.1843 37.3125Z" fill="white"/>
</g>
<defs>
<clipPath id="clip0_1204_16998">
<rect width="80" height="80" fill="white" transform="translate(0.699921 0.5)"/>
</clipPath>
</defs>
</svg>
