<svg width="81" height="81" viewBox="0 0 81 81" fill="none" xmlns="http://www.w3.org/2000/svg">
<rect x="0.500031" y="0.5" width="80" height="80" rx="40" fill="#D9D9D9"/>
<g clipPath="url(#clip0_1204_17108)">
<path d="M52.771 17.4267C51.3396 18.8677 50.0283 20.4295 48.8626 22.0948L48.4941 21.974C46.3685 21.2751 44.1657 20.8436 41.9458 20.6969C41.2773 20.6452 38.7831 20.6452 37.9689 20.6969C35.509 20.8609 33.6234 21.2319 31.4807 21.9826C31.3949 22.0171 31.3178 22.043 31.2407 22.0689C30.0322 20.4122 28.6865 18.859 27.2037 17.4353C34.3177 13.7681 42.6401 13.3281 50.0883 16.2187C50.8854 16.5207 51.6653 16.8745 52.4281 17.2541L52.771 17.4267Z" fill="#F00500"/>
<path d="M66.0388 50.1551C64.9589 53.2528 63.339 56.1262 61.2391 58.6285C60.0992 59.9745 58.8392 61.2084 57.485 62.3302C54.3137 64.9015 50.6111 66.7394 46.6599 67.7058C42.2887 68.7672 37.7289 68.7672 33.3577 67.7058C29.3979 66.7394 25.7038 64.9015 22.5325 62.3302C21.1783 61.2084 19.9184 59.9745 18.7784 58.6285C12.7359 51.4408 10.9017 41.5696 13.9787 32.6735C14.5615 31.0254 15.2901 29.4377 16.1643 27.9277C16.5671 27.2374 17.0643 26.4608 17.3042 26.1416C18.1271 29.7052 19.1384 32.8374 19.5155 33.9678C19.4898 34.0282 19.4556 34.0972 19.4213 34.1576C17.4242 38.2303 16.3443 42.1564 16.0872 46.3326C16.0872 46.3844 16.0786 46.4448 16.0786 46.4966C16.01 47.7477 16.0443 48.3431 16.25 49.1283C16.8928 51.5875 18.8727 54.2969 21.9754 56.9545C27.058 61.3034 33.9491 64.4442 39.1688 64.8066C44.6114 65.1776 52.6424 61.9764 57.9907 57.2997C58.8307 56.549 59.6192 55.7551 60.3563 54.9095C60.8877 54.2883 61.6762 53.2183 61.6162 53.2183C61.5991 53.2183 61.6162 53.2011 61.6505 53.1838C61.6762 53.1665 61.7019 53.1406 61.6848 53.1234C61.6762 53.1148 61.6934 53.0889 61.7191 53.0802C61.7448 53.0716 61.7619 53.0544 61.7534 53.0371C61.7448 53.0198 61.7534 53.0026 61.7876 52.994C61.8134 52.9853 61.8219 52.9594 61.8133 52.9422C61.8048 52.9249 61.8134 52.9077 61.8305 52.9077C61.8476 52.9077 61.8648 52.8818 61.8648 52.8645C61.8648 52.8473 61.8819 52.8214 61.8991 52.8214C61.9162 52.8214 61.9333 52.8041 61.9333 52.7869C61.9591 52.7178 62.0019 52.6488 62.0448 52.5884C62.1733 52.39 62.6876 51.4667 62.7562 51.3114C63.2447 50.1983 63.5533 49.206 63.699 48.2137C63.7675 47.7391 63.8104 46.8676 63.7761 46.6605C63.7675 46.626 63.7675 46.5656 63.759 46.4707C63.7418 46.2981 63.7333 46.0393 63.7161 45.7804C63.699 45.3921 63.6647 44.8485 63.639 44.581C63.2704 40.6636 62.2762 37.4624 60.3906 34.0713C60.3134 33.9419 60.2449 33.8125 60.202 33.7089C60.1849 33.683 60.1763 33.6571 60.1677 33.6399C60.4334 32.8374 61.5219 29.4809 62.3876 25.6411L62.4047 25.6584L62.5333 25.8309C62.7562 26.1329 63.3476 27.0303 63.6133 27.4618C64.8218 29.4464 65.7646 31.5776 66.4331 33.8038C67.9845 39.1622 67.8559 44.8744 66.0388 50.1551Z" fill="#F00500"/>
<path d="M54.9137 39.8439C54.888 39.9819 54.4851 40.3961 54.0823 40.6981C52.8995 41.5696 50.7825 42.3807 48.6312 42.769C47.4055 42.9933 46.1799 43.0279 45.8113 42.8467C45.5713 42.7259 45.537 42.6309 45.6228 42.3203C45.8027 41.6732 46.3856 40.9656 47.2941 40.3012C47.7569 39.9647 49.634 38.8171 50.5082 38.3339C51.9481 37.54 53.1138 37.0655 53.9023 36.9533C54.1509 36.9188 54.4509 36.9101 54.5451 36.9533C54.6994 37.0137 54.8708 37.471 54.9394 38.0232C54.9737 38.3166 54.9565 39.6109 54.9137 39.8439Z" fill="black"/>
<path d="M34.7205 42.7C34.6691 42.8035 34.4119 42.9157 34.1205 42.9588C33.8291 43.002 32.9377 42.9761 32.432 42.9157C30.615 42.6741 28.6865 42.1132 27.2809 41.4229C26.4923 41.0346 25.9267 40.6463 25.5067 40.2235L25.2667 39.9733L25.241 39.6454C25.1981 39.0759 25.2067 38.1785 25.2753 37.8593C25.3181 37.5918 25.4124 37.3329 25.541 37.1C25.6095 37.0137 25.6095 37.0137 25.9181 37.0137C26.2952 37.0137 26.6123 37.0741 27.1266 37.238C28.1808 37.5659 29.7493 38.3597 31.6606 39.516C33.2377 40.4651 33.8291 40.9311 34.2834 41.5696C34.5919 41.9665 34.7976 42.5274 34.7205 42.7Z" fill="black"/>
<path d="M46.857 54.7112C46.857 54.7371 46.7541 55.1513 46.6256 55.6431C46.497 56.1349 46.3942 56.5318 46.3942 56.5491C46.2999 56.5577 46.2142 56.5664 46.1199 56.5577H45.8456L45.4685 57.4551C45.2628 57.9469 45.0742 58.4043 45.0485 58.4733L44.9971 58.5941L44.8171 58.3007L44.6371 58.0073V55.6172L44.5685 55.6345C44.4228 55.669 43.3857 55.807 42.9315 55.8502C41.0544 56.04 39.1688 55.9969 37.3003 55.7294C37.0004 55.6862 36.7432 55.6517 36.7347 55.6604C36.7261 55.669 36.7347 56.2212 36.7518 56.9029L36.7775 58.1281L36.6318 58.3525C36.5547 58.4733 36.4775 58.5768 36.4775 58.5855C36.4518 58.6114 36.3661 58.4733 36.169 58.0764C35.9547 57.6622 35.8004 57.2221 35.689 56.7648L35.629 56.5146L35.3633 56.5318L35.0976 56.5577L35.029 56.2385C34.9947 56.0659 34.9519 55.7984 34.9348 55.6517L34.909 55.3756L34.6862 55.1771C34.5576 55.065 34.4291 54.9528 34.4034 54.9355C34.3605 54.901 34.3434 54.8406 34.3434 54.7889V54.6853L35.4147 54.6939L36.4861 54.7026L36.5204 54.8147L36.5547 54.9269L36.9232 54.9442C37.1289 54.9528 37.7803 54.9701 38.3631 54.9873L39.4345 55.0132L39.7088 54.5818L39.9916 54.1503H40.3516L40.343 53.253L40.3345 52.3556L39.8631 52.1485C38.346 51.4755 37.4546 50.7075 37.1204 49.7756C37.0518 49.5858 37.0518 49.5167 37.0346 48.6539C37.0261 47.7996 37.0261 47.722 37.0861 47.5322C37.2061 47.1007 37.5403 46.7642 37.9689 46.652C38.1146 46.6089 38.5003 46.6089 40.523 46.6089L42.9058 46.6175L43.1715 46.7469C43.4886 46.9023 43.6343 47.0144 43.8143 47.256C44.02 47.5322 44.08 47.7479 44.08 48.2742C44.08 49.0249 44.0286 49.6721 43.9514 49.9309C43.84 50.2847 43.6686 50.6212 43.4543 50.9232C43.0258 51.4755 42.2458 52.0277 41.5344 52.2779L41.3287 52.3556L41.3373 53.2616L41.3459 54.1676L41.5344 54.1848L41.723 54.2021L41.9801 54.5904L42.2287 54.9787H43.3772C44.0114 54.9787 44.5685 54.9873 44.62 54.9959C44.7057 55.0132 44.7228 55.0046 44.8085 54.8579L44.9114 54.7026H45.897C46.6341 54.6681 46.857 54.6853 46.857 54.7112Z" fill="black"/>
<path d="M42.3315 57.1875C42.1687 57.2825 42.0572 57.3256 42.0315 57.3083C42.0058 57.2997 41.8858 57.1962 41.7573 57.1013L41.5258 56.9114L41.2859 57.1703C40.763 57.7398 40.7459 57.7657 40.5916 57.7743C40.3516 57.8002 40.3002 57.757 40.0088 57.317C39.8545 57.0926 39.7345 56.9028 39.7345 56.9028C39.7345 56.9028 39.6231 56.8855 39.4945 56.8769L39.2545 56.851L39.1431 57.084L39.0317 57.317L38.8346 57.2566C38.6803 57.2048 38.526 57.1444 38.3803 57.0754L38.1232 56.9459V56.4541L40.403 56.4627L42.6829 56.4714L42.6915 56.7043C42.7001 56.9804 42.7086 56.9718 42.3315 57.1875Z" fill="black"/>
<path d="M63.759 46.6607C63.7504 46.6262 63.7504 46.5658 63.7418 46.4709C61.6848 46.2465 55.8137 46.1085 50.3625 50.6385C50.3625 50.6385 48.6055 42.5276 40.3773 42.5276C32.1492 42.5276 29.0979 50.6385 29.0979 50.6385C24.4867 45.6425 18.3156 46.0049 16.0871 46.3328C16.0871 46.3846 16.0786 46.445 16.0786 46.4968C16.01 47.7479 16.0443 48.3433 16.25 49.1285C16.8928 51.5877 18.8727 54.2971 21.9754 56.9547C27.058 61.3036 33.9491 64.4444 39.1688 64.8068C44.6114 65.1778 52.6424 61.9766 57.9907 57.2999C58.8306 56.5492 59.6192 55.7553 60.3563 54.9097C60.8877 54.2885 61.6762 53.2185 61.6162 53.2185C61.5991 53.2185 61.6162 53.2012 61.6505 53.184C61.6762 53.1667 61.7019 53.1408 61.6848 53.1236C61.6762 53.115 61.6933 53.0891 61.7191 53.0804C61.7448 53.0718 61.7619 53.0546 61.7533 53.0373C61.7448 53.02 61.7533 53.0028 61.7876 52.9942C61.8133 52.9855 61.8219 52.9596 61.8133 52.9424C61.8048 52.9251 61.8133 52.9079 61.8305 52.9079C61.8476 52.9079 61.8648 52.882 61.8648 52.8647C61.8648 52.8475 61.8819 52.8216 61.8991 52.8216C61.9162 52.8216 61.9333 52.8043 61.9333 52.7871C61.959 52.718 62.0019 52.649 62.0448 52.5886C62.1733 52.3901 62.6876 51.4669 62.7561 51.3116C63.2447 50.1985 63.5532 49.2062 63.699 48.2139C63.7504 47.7393 63.7932 46.8678 63.759 46.6607ZM42.3315 57.1877C42.1686 57.2826 42.0572 57.3257 42.0315 57.3085C42.0058 57.2999 41.8858 57.1963 41.7572 57.1014L41.5258 56.9116L41.2858 57.1704C40.763 57.7399 40.7459 57.7658 40.5916 57.7744C40.3516 57.8003 40.3002 57.7572 40.0088 57.3171C39.8545 57.0928 39.7345 56.9029 39.7345 56.9029C39.7345 56.9029 39.6231 56.8857 39.4945 56.877L39.2545 56.8512L39.1431 57.0841L39.0317 57.3171L38.8345 57.2567C38.6803 57.2049 38.526 57.1445 38.3803 57.0755L38.1231 56.9461V56.4542L40.403 56.4629L42.6829 56.4715L42.6915 56.7045C42.7 56.9806 42.7086 56.972 42.3315 57.1877ZM46.617 55.6345C46.4884 56.1264 46.3856 56.5233 46.3856 56.5405C46.2913 56.5492 46.2056 56.5578 46.1113 56.5492H45.837L45.4685 57.4552C45.2628 57.947 45.0742 58.4043 45.0485 58.4733L44.9971 58.5942L44.8171 58.3008L44.6371 58.0074V55.6173L44.5685 55.6345C44.4228 55.669 43.3857 55.8071 42.9315 55.8502C41.0544 56.0401 39.1688 55.9969 37.3003 55.7294C37.0003 55.6863 36.7432 55.6518 36.7346 55.6604C36.7261 55.669 36.7346 56.2213 36.7518 56.9029L36.7775 58.1282L36.6318 58.3526C36.5547 58.4734 36.4775 58.5769 36.4775 58.5855C36.4518 58.6114 36.3661 58.4734 36.169 58.0764C35.9547 57.6623 35.8004 57.2222 35.689 56.7649L35.629 56.5146L35.3633 56.5319L35.0976 56.5578L35.029 56.2385C34.9947 56.066 34.9519 55.7985 34.9347 55.6518L34.909 55.3757L34.6862 55.1772C34.5576 55.065 34.4291 54.9529 34.4033 54.9356C34.3605 54.9011 34.3433 54.8407 34.3433 54.7889V54.6854L35.4147 54.694L36.4861 54.7026L36.5204 54.8148L36.5547 54.927L36.9232 54.9442C37.1289 54.9529 37.7803 54.9701 38.3631 54.9874L39.4345 55.0133L39.7088 54.5818L39.9916 54.1504H40.3516L40.343 53.253L40.3345 52.3556L39.8631 52.1485C38.346 51.4755 37.4546 50.7076 37.1203 49.7757C37.0518 49.5858 37.0518 49.5168 37.0346 48.6539C37.0261 47.7997 37.0261 47.722 37.0861 47.5322C37.206 47.1008 37.5403 46.7643 37.9689 46.6521C38.1146 46.6089 38.5003 46.6089 40.523 46.6089L42.9058 46.6176L43.1714 46.747C43.4886 46.9023 43.6343 47.0145 43.8143 47.2561C44.02 47.5322 44.08 47.7479 44.08 48.2743C44.08 49.025 44.0286 49.6721 43.9514 49.931C43.84 50.2848 43.6686 50.6213 43.4543 50.9233C43.0257 51.4755 42.2458 52.0277 41.5344 52.278L41.3287 52.3556L41.3373 53.2616L41.3458 54.1677L41.5344 54.1849L41.723 54.2022L41.9801 54.5905L42.2286 54.9787H43.3772C44.0114 54.9787 44.5685 54.9874 44.6199 54.996C44.7057 55.0133 44.7228 55.0046 44.8085 54.8579L44.9114 54.7026H45.897C46.6598 54.7026 46.8827 54.7113 46.8827 54.7371C46.857 54.7285 46.7456 55.1513 46.617 55.6345Z" fill="white"/>
<path d="M63.6904 45.7806C63.6733 45.3923 63.639 44.8487 63.6133 44.5812C63.2447 40.6638 62.2505 37.4625 60.3649 34.0715C60.2877 33.942 60.2191 33.8126 60.1763 33.7091C60.1591 33.6832 60.1506 33.6573 60.142 33.64C60.4077 32.8376 61.4962 29.481 62.3619 25.6413C63.5361 20.4295 64.2818 14.3377 62.0019 12.5084C62.0019 12.5084 58.0593 12.2151 52.7795 17.4268C51.3482 18.8678 50.0368 20.4295 48.8712 22.0949L48.5026 21.9741C46.377 21.2752 44.1743 20.8437 41.9544 20.697C41.2858 20.6453 38.7917 20.6453 37.9774 20.697C35.5176 20.861 33.632 21.232 31.4892 21.9827C31.4035 22.0172 31.3264 22.0431 31.2492 22.069C30.0407 20.4123 28.6951 18.8591 27.2123 17.4354C21.7183 12.1978 17.6299 12.4998 17.6299 12.4998C15.2129 14.3895 16.0357 20.7574 17.2871 26.1417C18.1099 29.7054 19.1213 32.8376 19.4984 33.9679C19.4727 34.0283 19.4384 34.0973 19.4041 34.1577C17.4071 38.2305 16.3271 42.1565 16.07 46.3328C18.307 46.0049 24.4696 45.6339 29.0893 50.6385C29.0893 50.6385 32.1406 42.5275 40.3687 42.5275C48.5969 42.5275 50.3539 50.6385 50.3539 50.6385C55.8051 46.1084 61.6762 46.2551 63.7332 46.4708C63.7247 46.2983 63.7075 46.0394 63.6904 45.7806ZM21.1183 30.7149C21.1183 30.7149 17.9128 22.6471 18.7356 18.0394C18.8727 17.2628 19.1299 16.5812 19.5327 16.0634C19.5327 16.0634 23.1668 16.4259 29.0293 22.9836C29.0293 22.9836 27.9151 23.5272 26.4238 24.6835C26.4238 24.6835 26.4152 24.6921 26.4066 24.6921C24.7867 25.9433 22.7125 27.9279 21.1183 30.7149ZM34.7205 42.7001C34.669 42.8037 34.4119 42.9158 34.1205 42.959C33.8291 43.0021 32.9377 42.9762 32.432 42.9158C30.615 42.6742 28.6865 42.1134 27.2809 41.4231C26.4923 41.0348 25.9266 40.6465 25.5067 40.2237L25.2667 39.9735L25.241 39.6456C25.1981 39.0761 25.2067 38.1787 25.2752 37.8594C25.3181 37.592 25.4124 37.3331 25.5409 37.1001C25.6095 37.0138 25.6095 37.0138 25.9181 37.0138C26.2952 37.0138 26.6123 37.0742 27.1266 37.2382C28.1808 37.5661 29.7493 38.3599 31.6606 39.5161C33.2377 40.4653 33.8291 40.9312 34.2833 41.5698C34.5919 41.9667 34.7976 42.5275 34.7205 42.7001ZM54.9137 39.844C54.888 39.9821 54.4852 40.3963 54.0823 40.6983C52.8995 41.5698 50.7825 42.3809 48.6312 42.7691C47.4055 42.9935 46.1799 43.028 45.8113 42.8468C45.5713 42.726 45.5371 42.6311 45.6228 42.3205C45.8028 41.6733 46.3856 40.9658 47.2941 40.3014C47.7569 39.9648 49.634 38.8172 50.5082 38.334C51.9482 37.5402 53.1138 37.0656 53.9023 36.9534C54.1509 36.9189 54.4509 36.9103 54.5452 36.9534C54.6994 37.0138 54.8709 37.4712 54.9394 38.0234C54.9737 38.3168 54.9566 39.6111 54.9137 39.844ZM53.4909 24.6835L53.4738 24.6748C52.0339 23.5186 50.9539 22.975 50.9539 22.975C56.6193 16.4172 60.1249 16.0548 60.1249 16.0548C60.5106 16.5812 60.7591 17.2542 60.8963 18.0308C61.6934 22.6385 58.5992 30.7149 58.5992 30.7149C57.305 28.3938 55.5651 26.3402 53.4909 24.6835Z" fill="#FFA409"/>
<path d="M60.9048 18.0309C60.2363 17.9446 57.0736 17.9274 53.4909 24.6836L53.4738 24.675C52.0339 23.5187 50.9539 22.9751 50.9539 22.9751C56.6193 16.4173 60.1249 16.0549 60.1249 16.0549C60.5191 16.5813 60.7677 17.2543 60.9048 18.0309Z" fill="#FF9300"/>
<path d="M58.6078 30.7149C57.305 28.3852 55.5737 26.3402 53.4909 24.6835C57.0736 17.9273 60.2277 17.9445 60.9048 18.0308C61.7019 22.6471 58.6078 30.7149 58.6078 30.7149Z" fill="#FF8300"/>
<path d="M61.0334 18.0569C60.9905 18.0483 60.9477 18.0396 60.9048 18.031L61.0334 18.0569Z" fill="#FF8300"/>
<path d="M29.0293 22.9751C29.0293 22.9751 27.9151 23.5187 26.4238 24.675C26.4238 24.675 26.4152 24.6836 26.4066 24.6836C22.6954 17.9187 19.4298 17.9446 18.727 18.0309C18.8642 17.2543 19.1213 16.5727 19.5241 16.0549C19.5327 16.0549 23.1668 16.4173 29.0293 22.9751Z" fill="#FF9300"/>
<path d="M26.4152 24.6835C24.7867 25.9433 22.7125 27.9193 21.1183 30.7149C21.1183 30.7149 17.9128 22.6471 18.7356 18.0308C19.4298 17.9445 22.704 17.9273 26.4152 24.6835Z" fill="#FF8300"/>
<path d="M18.7356 18.031C18.6927 18.0396 18.6413 18.0483 18.5984 18.0569L18.7356 18.031Z" fill="#FF8300"/>
<path d="M49.934 35.1933C49.934 35.1933 47.1912 35.3659 47.5341 33.2087C47.8769 31.0515 50.0197 30.7927 50.6196 30.879C51.2196 30.9653 53.6195 31.8281 53.1909 33.6401C52.7624 35.4522 52.1624 35.107 51.8196 35.1933C51.4767 35.2796 49.934 35.1933 49.934 35.1933Z" fill="white"/>
<path d="M29.7064 35.1933C29.7064 35.1933 26.9637 35.3659 27.3066 33.2087C27.6494 31.0515 29.7922 30.7927 30.3921 30.879C30.9921 30.9653 33.392 31.8281 32.9634 33.6401C32.5349 35.4522 31.9349 35.107 31.5921 35.1933C31.2492 35.2796 29.7064 35.1933 29.7064 35.1933Z" fill="white"/>
</g>
<defs>
<clipPath id="clip0_1204_17108">
<rect width="55" height="56" fill="white" transform="translate(12.5 12.5)"/>
</clipPath>
</defs>
</svg>
