<svg width="44" height="44" viewBox="0 0 44 44" fill="none" xmlns="http://www.w3.org/2000/svg">
<g clipPath="url(#clip0_1131_16122)">
<path d="M40.9922 3.76935L1.14469 19.1891C1.12099 19.1983 1.09801 19.2092 1.07594 19.2218C0.75282 19.4048 -1.50218 20.7841 1.67751 22.0208L1.71016 22.0328L11.1985 25.0982C11.2709 25.1217 11.3476 25.1291 11.4231 25.1199C11.4987 25.1107 11.5713 25.0851 11.6359 25.0449L35.1699 10.3616C35.2276 10.3256 35.2919 10.3014 35.359 10.2903C35.6864 10.2361 36.6291 10.1347 36.0327 10.8919C35.3581 11.7512 19.2835 26.1561 17.4995 27.7536C17.3966 27.846 17.3329 27.9742 17.3216 28.112L16.543 37.3933C16.5429 37.4878 16.5648 37.581 16.607 37.6656C16.6492 37.7502 16.7106 37.8238 16.7862 37.8805C16.8935 37.9481 17.0196 37.9794 17.146 37.9698C17.2724 37.9602 17.3924 37.9102 17.4883 37.8272L23.1258 32.7887C23.2149 32.7092 23.3285 32.6625 23.4477 32.6564C23.567 32.6503 23.6848 32.6851 23.7815 32.7552L33.617 39.8966L33.6488 39.9181C33.8869 40.065 36.4581 41.5612 37.2006 38.22L43.9897 5.93756C43.9991 5.83529 44.0911 4.71123 43.2876 4.04693C42.4437 3.35256 41.2491 3.70318 41.0695 3.74099C41.043 3.74837 41.0172 3.75785 40.9922 3.76935Z" fill="white"/>
</g>
<defs>
<clipPath id="clip0_1131_16122">
<rect width="44" height="44" fill="white"/>
</clipPath>
</defs>
</svg>
