<svg width="25" height="24" viewBox="0 0 25 24" fill="none" xmlns="http://www.w3.org/2000/svg">
<path d="M5.3916 9.61431C5.3916 9.21193 5.71525 8.88574 6.11449 8.88574H9.96991C10.3692 8.88574 10.6928 9.21193 10.6928 9.61431C10.6928 10.0167 10.3692 10.3429 9.96991 10.3429H6.11449C5.71525 10.3429 5.3916 10.0167 5.3916 9.61431Z" fill="white"/>
<path fill-rule="evenodd" clip-rule="evenodd" d="M21.6884 10.0038C21.6262 9.99995 21.5584 9.99998 21.4881 10L21.4706 10H18.7149C16.4435 10 14.5 11.7361 14.5 14C14.5 16.2639 16.4435 18 18.7149 18H21.4706L21.4881 18C21.5584 18 21.6262 18 21.6884 17.9962C22.611 17.9397 23.427 17.2386 23.4956 16.2594C23.5001 16.1952 23.5 16.126 23.5 16.0619L23.5 16.0444V11.9556L23.5 11.9381C23.5 11.874 23.5001 11.8048 23.4956 11.7406C23.427 10.7614 22.611 10.0603 21.6884 10.0038ZM18.4706 15.0667C19.0554 15.0667 19.5294 14.5891 19.5294 14C19.5294 13.4109 19.0554 12.9333 18.4706 12.9333C17.8858 12.9333 17.4118 13.4109 17.4118 14C17.4118 14.5891 17.8858 15.0667 18.4706 15.0667Z" fill="white"/>
<path opacity="0.5" d="M21.6394 10.0015C21.6394 8.82091 21.5965 7.55447 20.8418 6.64658C20.7689 6.55894 20.6914 6.47384 20.6088 6.39124C19.8604 5.64288 18.9114 5.31076 17.739 5.15314C16.5998 4.99997 15.1442 4.99999 13.3064 5H11.1936C9.35583 4.99999 7.90019 4.99997 6.76098 5.15314C5.58856 5.31076 4.63961 5.64288 3.89124 6.39124C3.14288 7.13961 2.81076 8.08856 2.65314 9.26098C2.49997 10.4002 2.49999 11.8558 2.5 13.6936V13.8064C2.49999 15.6442 2.49997 17.0998 2.65314 18.239C2.81076 19.4114 3.14288 20.3604 3.89124 21.1088C4.63961 21.8571 5.58856 22.1892 6.76098 22.3469C7.90018 22.5 9.3558 22.5 11.1935 22.5H13.3064C15.1442 22.5 16.5998 22.5 17.739 22.3469C18.9114 22.1892 19.8604 21.8571 20.6088 21.1088C20.8133 20.9042 20.987 20.6844 21.1346 20.4486C21.5851 19.7291 21.6394 18.8473 21.6394 17.9985C21.5912 18 21.5404 18 21.4882 18L18.7149 18C16.4435 18 14.5 16.2639 14.5 14C14.5 11.7361 16.4435 10 18.7149 10L21.4881 10C21.5403 9.99999 21.5912 9.99997 21.6394 10.0015Z" fill="white"/>
<path d="M10.6015 2.57211L8.5 3.99253L6.76672 5.15237C7.90508 4.99997 9.35892 4.99999 11.1936 5H13.3064C15.1442 4.99998 16.5998 4.99997 17.739 5.15314C17.9682 5.18394 18.1888 5.22142 18.4011 5.26737L16.5 4L14.3875 2.57211C13.2589 1.8093 11.73 1.8093 10.6015 2.57211Z" fill="white"/>
</svg>
