<svg width="186" height="80" viewBox="0 0 186 80" fill="none" xmlns="http://www.w3.org/2000/svg">
<path d="M56.7627 51.5469L28.3813 80L0 51.5469L28.3813 0L56.7627 51.5469Z" fill="url(#paint0_linear_2913_1668)"/>
<path d="M53.2287 54.8923L28.3867 79.805L3.51172 54.8923L28.3867 29.9796L53.2287 54.8923Z" fill="url(#paint1_linear_2913_1668)"/>
<path opacity="0.44" d="M28.3848 80L11.8125 42.4198L28.3848 0L45.0233 42.4523L28.3848 80Z" fill="url(#paint2_linear_2913_1668)"/>
<path d="M157.25 2.03333C145.436 2.03333 135.863 11.4667 135.863 23.0333C135.863 34.6 145.47 44.0333 157.25 44.0333C169.029 44.0333 178.636 34.6 178.636 23.0333C178.636 11.4667 169.063 2.03333 157.25 2.03333ZM157.25 35.1667C150.46 35.1667 144.927 29.7333 144.927 23.0666C144.927 16.4 150.46 10.9666 157.25 10.9666C164.039 10.9666 169.572 16.4 169.572 23.0666C169.572 29.7333 164.039 35.1667 157.25 35.1667Z" fill="white"/>
<path d="M110.535 2.03333C98.7214 2.03333 89.1484 11.4667 89.1484 23.0333C89.1484 34.6 98.7553 44.0333 110.535 44.0333C115.118 44.0333 119.361 42.6 122.858 40.1667V56.5666H131.921V23.0333C131.955 11.4667 122.348 2.03333 110.535 2.03333ZM110.535 35.1667C103.746 35.1667 98.2122 29.7333 98.2122 23.0666C98.2122 16.4 103.746 10.9666 110.535 10.9666C117.324 10.9666 122.858 16.4 122.858 23.0666C122.858 29.7333 117.358 35.1667 110.535 35.1667Z" fill="white"/>
<path d="M174.084 46.8H140.375V55.7H174.084V46.8Z" fill="white"/>
<path d="M184.103 0H174.598V9.33334H184.103V0Z" fill="white"/>
<path d="M78.8646 0H69.8008V44.0667H87.4532V35.1667H78.8646V0Z" fill="white"/>
<path d="M71.0951 62.4V75.4333H69.1602V62.4H71.0951Z" fill="white"/>
<path d="M73.6719 63.8001C73.6719 63.1334 74.1811 62.6667 74.894 62.6667C75.6068 62.6667 76.0821 63.1334 76.0821 63.8001C76.0821 64.5001 75.5729 64.9667 74.894 64.9667C74.1811 65 73.6719 64.5001 73.6719 63.8001ZM75.8784 66.4334V75.4001H73.9435V66.4334H75.8784Z" fill="white"/>
<path d="M82.8446 66.1C84.2364 66.1 85.4245 66.7 86.2053 67.7V66.4333H88.1063V79.4666H86.1374V74.2C85.3566 75.1999 84.2024 75.7666 82.8446 75.7666C80.1967 75.7666 78.2617 73.7333 78.2617 70.9333C78.2617 68.1333 80.1967 66.1 82.8446 66.1ZM86.2392 70.9333C86.2392 69.2 84.9832 67.9 83.2519 67.9C81.5206 67.9 80.2306 69.1666 80.2306 70.9333C80.2306 72.6666 81.5206 73.9666 83.2519 73.9666C84.9832 73.9666 86.2392 72.6666 86.2392 70.9333Z" fill="white"/>
<path d="M97.2005 75.4V74.2667C96.5555 75.2 95.4353 75.7667 94.2471 75.7667C92.0066 75.7667 90.5469 74.1334 90.5469 71.9334V66.4667H92.5158V71.8C92.5158 73.1333 93.2966 74.0667 94.6884 74.0667C96.0463 74.0667 97.2005 73.0334 97.2005 71.6V66.4333H99.1354V75.4H97.2005Z" fill="white"/>
<path d="M101.719 63.8001C101.719 63.1334 102.228 62.6667 102.941 62.6667C103.654 62.6667 104.129 63.1334 104.129 63.8001C104.129 64.5001 103.62 64.9667 102.941 64.9667C102.228 65 101.719 64.5001 101.719 63.8001ZM103.891 66.4334V75.4001H101.956V66.4334H103.891Z" fill="white"/>
<path d="M110.884 66.1C112.241 66.1 113.43 66.6667 114.176 67.6667V62.4H116.145V75.4333H114.244V74.1667C113.464 75.1667 112.275 75.7667 110.884 75.7667C108.236 75.7667 106.301 73.7333 106.301 70.9333C106.301 68.1333 108.236 66.1 110.884 66.1ZM108.236 70.9333C108.236 72.7 109.526 73.9667 111.257 73.9667C112.988 73.9667 114.244 72.6667 114.244 70.9333C114.244 69.2 112.988 67.9 111.257 67.9C109.526 67.9 108.236 69.1667 108.236 70.9333Z" fill="white"/>
<path d="M118.758 63.8001C118.758 63.1334 119.267 62.6667 119.98 62.6667C120.693 62.6667 121.202 63.1334 121.202 63.8001C121.202 64.5001 120.693 64.9667 119.98 64.9667C119.233 65 118.758 64.5001 118.758 63.8001ZM120.93 66.4334V75.4001H118.995V66.4334H120.93Z" fill="white"/>
<path d="M124.556 67.9334H123.164V66.4334H124.692L124.929 64.2667H126.525V66.4334H128.765V67.9334H126.525V72.7667C126.525 73.5667 127.034 74.1334 127.849 74.1334C128.086 74.1334 128.528 74.0667 128.867 73.9667V75.5C128.392 75.6667 127.747 75.7334 127.238 75.7334C125.608 75.7334 124.556 74.5667 124.556 72.8667V67.9334Z" fill="white"/>
<path d="M131.045 77.5665C131.453 77.6998 131.894 77.7999 132.233 77.7999C133.489 77.7999 133.863 76.5665 134.338 75.4665L130.23 66.4666H132.369L135.221 73.0999L137.699 66.4666H139.736L136.171 75.6332C135.39 77.6999 134.576 79.3998 132.641 79.3998C132.132 79.3998 131.52 79.2999 131.045 79.0999V77.5665Z" fill="white"/>
<path d="M152.734 75.2333V74.1C151.953 75.0666 150.799 75.6 149.441 75.6C146.793 75.6 144.824 73.6666 144.824 70.9333C144.824 68.1333 146.759 66.1333 149.441 66.1333C150.867 66.1333 151.987 66.7 152.734 67.6667V66.4333H154.669V75.2333C154.669 78.1333 152.666 79.8 149.882 79.8C147.506 79.8 145.503 78.2999 145.198 76.2666L146.997 76.0666C147.302 77.2999 148.49 78.1999 149.814 78.1999C151.546 78.1999 152.734 77.1333 152.734 75.2333ZM152.802 70.9333C152.802 69.1 151.546 67.8 149.814 67.8C148.083 67.8 146.793 69.1 146.793 70.9333C146.793 72.6666 148.083 73.9667 149.814 73.9667C151.546 73.9667 152.802 72.6666 152.802 70.9333Z" fill="white"/>
<path d="M164.852 66.4333H166.821V75.4H164.852V74.0666C164.072 75.1333 162.884 75.7666 161.458 75.7666C158.776 75.7666 156.875 73.7333 156.875 70.9333C156.875 68.1333 158.776 66.1 161.458 66.1C162.884 66.1 164.072 66.7333 164.852 67.8V66.4333ZM164.819 70.9333C164.819 69.1 163.562 67.8 161.831 67.8C160.1 67.8 158.81 69.1 158.81 70.9333C158.81 72.7333 160.1 74.0666 161.831 74.0666C163.562 74.0666 164.819 72.7666 164.819 70.9333Z" fill="white"/>
<path d="M170.189 67.9334H168.797V66.4334H170.324L170.562 64.2667H172.158V66.4334H174.398V67.9334H172.158V72.7667C172.158 73.5667 172.667 74.1334 173.482 74.1334C173.719 74.1334 174.16 74.0667 174.5 73.9667V75.5C174.025 75.6667 173.38 75.7334 172.87 75.7334C171.241 75.7334 170.189 74.5667 170.189 72.8667V67.9334Z" fill="white"/>
<path d="M181.149 66.1C184 66.1 186.003 68.0666 186.003 70.8333C186.003 71.0333 185.969 71.2999 185.969 71.5333H178.263C178.501 73.1333 179.621 74.1666 181.115 74.1666C182.337 74.1666 183.457 73.4666 183.797 72.4666L185.63 72.7333C185.121 74.4999 183.22 75.7666 181.149 75.7666C178.297 75.7666 176.227 73.7 176.227 70.8333C176.227 68.0666 178.297 66.1 181.149 66.1ZM183.966 70.1C183.763 68.7 182.609 67.7 181.081 67.7C179.621 67.7 178.535 68.6666 178.263 70.1H183.966Z" fill="white"/>
<defs>
<linearGradient id="paint0_linear_2913_1668" x1="42.6464" y1="22.0924" x2="18.7969" y2="73.165" gradientUnits="userSpaceOnUse">
<stop stop-color="white"/>
<stop offset="0.4341" stop-color="#D1D1D1"/>
<stop offset="1" stop-color="#7D7D7D"/>
</linearGradient>
<linearGradient id="paint1_linear_2913_1668" x1="15.9251" y1="31.0713" x2="37.3088" y2="73.4884" gradientUnits="userSpaceOnUse">
<stop stop-color="white"/>
<stop offset="0.4341" stop-color="#CDCDCD"/>
<stop offset="1" stop-color="#757575"/>
</linearGradient>
<linearGradient id="paint2_linear_2913_1668" x1="8.38392" y1="1.76143" x2="42.7115" y2="69.8537" gradientUnits="userSpaceOnUse">
<stop stop-color="#E3E3E3"/>
<stop offset="1" stop-color="#737373"/>
</linearGradient>
</defs>
</svg>
