<svg width="151" height="80" viewBox="0 0 151 80" fill="none" xmlns="http://www.w3.org/2000/svg">
<path d="M56.7978 51.5469L28.4165 80L0.0351562 51.5469L28.4165 0L56.7978 51.5469Z" fill="url(#paint0_linear_2749_12268)"/>
<path d="M53.2639 54.8922L28.4219 79.8049L3.54688 54.8922L28.4219 29.9795L53.2639 54.8922Z" fill="url(#paint1_linear_2749_12268)"/>
<path opacity="0.44" d="M28.42 80L11.8477 42.4198L28.42 0L45.0584 42.4523L28.42 80Z" fill="url(#paint2_linear_2749_12268)"/>
<path d="M131.231 26.395C123.126 26.395 116.559 32.867 116.559 40.8025C116.559 48.7381 123.15 55.21 131.231 55.21C139.313 55.21 145.904 48.7381 145.904 40.8025C145.904 32.867 139.336 26.395 131.231 26.395ZM131.231 49.1269C126.573 49.1269 122.777 45.3992 122.777 40.8254C122.777 36.2516 126.573 32.5239 131.231 32.5239C135.889 32.5239 139.686 36.2516 139.686 40.8254C139.686 45.3992 135.889 49.1269 131.231 49.1269Z" fill="white"/>
<path d="M99.1805 26.395C91.0756 26.395 84.5078 32.867 84.5078 40.8025C84.5078 48.7381 91.0988 55.21 99.1805 55.21C102.325 55.21 105.236 54.2267 107.635 52.5572V63.8088H113.853V40.8025C113.876 32.867 107.285 26.395 99.1805 26.395ZM99.1805 49.1269C94.5225 49.1269 90.7262 45.3992 90.7262 40.8254C90.7262 36.2516 94.5225 32.5239 99.1805 32.5239C103.838 32.5239 107.635 36.2516 107.635 40.8254C107.635 45.3992 103.862 49.1269 99.1805 49.1269Z" fill="white"/>
<path d="M142.779 57.1082H119.652V63.2142H142.779V57.1082Z" fill="white"/>
<path d="M149.654 25H143.133V31.4033H149.654V25Z" fill="white"/>
<path d="M77.4528 25H71.2344V55.2329H83.3452V49.1269H77.4528V25Z" fill="white"/>
<path d="M72.1244 67.8108V76.7526H70.7969V67.8108H72.1244Z" fill="white"/>
<path d="M73.8906 68.7712C73.8906 68.3138 74.24 67.9937 74.7291 67.9937C75.2182 67.9937 75.5442 68.3138 75.5442 68.7712C75.5442 69.2514 75.1949 69.5716 74.7291 69.5716C74.24 69.5945 73.8906 69.2514 73.8906 68.7712ZM75.4045 70.5778V76.7296H74.0769V70.5778H75.4045Z" fill="white"/>
<path d="M80.1871 70.3491C81.142 70.3491 81.9571 70.7608 82.4928 71.4468V70.5778H83.797V79.5196H82.4462V75.9063C81.9106 76.5924 81.1187 76.9811 80.1871 76.9811C78.3705 76.9811 77.043 75.5861 77.043 73.6651C77.043 71.7441 78.3705 70.3491 80.1871 70.3491ZM82.5161 73.6651C82.5161 72.4759 81.6544 71.584 80.4666 71.584C79.2788 71.584 78.3938 72.4531 78.3938 73.6651C78.3938 74.8543 79.2788 75.7462 80.4666 75.7462C81.6544 75.7462 82.5161 74.8543 82.5161 73.6651Z" fill="white"/>
<path d="M90.0336 76.7294V75.9519C89.5911 76.5922 88.8225 76.981 88.0074 76.981C86.4702 76.981 85.4688 75.8604 85.4688 74.3511V70.6005H86.8196V74.2596C86.8196 75.1743 87.3552 75.8147 88.3101 75.8147C89.2417 75.8147 90.0336 75.1057 90.0336 74.1223V70.5776H91.3611V76.7294H90.0336Z" fill="white"/>
<path d="M93.1328 68.7712C93.1328 68.3138 93.4822 67.9937 93.9713 67.9937C94.4603 67.9937 94.7864 68.3138 94.7864 68.7712C94.7864 69.2514 94.4371 69.5716 93.9713 69.5716C93.4822 69.5945 93.1328 69.2514 93.1328 68.7712ZM94.6234 70.5778V76.7296H93.2958V70.5778H94.6234Z" fill="white"/>
<path d="M99.4215 70.3493C100.353 70.3493 101.168 70.738 101.681 71.4241V67.8108H103.031V76.7526H101.727V75.8836C101.192 76.5696 100.376 76.9813 99.4215 76.9813C97.6049 76.9813 96.2773 75.5863 96.2773 73.6653C96.2773 71.7443 97.6049 70.3493 99.4215 70.3493ZM97.6049 73.6653C97.6049 74.8773 98.4899 75.7464 99.6777 75.7464C100.865 75.7464 101.727 74.8545 101.727 73.6653C101.727 72.4761 100.865 71.5842 99.6777 71.5842C98.4899 71.5842 97.6049 72.4532 97.6049 73.6653Z" fill="white"/>
<path d="M104.824 68.7712C104.824 68.3138 105.174 67.9937 105.663 67.9937C106.152 67.9937 106.501 68.3138 106.501 68.7712C106.501 69.2514 106.152 69.5716 105.663 69.5716C105.15 69.5945 104.824 69.2514 104.824 68.7712ZM106.315 70.5778V76.7296H104.987V70.5778H106.315Z" fill="white"/>
<path d="M108.803 71.6069H107.848V70.5778H108.896L109.059 69.0913H110.153V70.5778H111.691V71.6069H110.153V74.9229C110.153 75.4718 110.503 75.8605 111.062 75.8605C111.225 75.8605 111.527 75.8148 111.76 75.7462V76.7982C111.434 76.9125 110.992 76.9583 110.642 76.9583C109.525 76.9583 108.803 76.1579 108.803 74.9915V71.6069Z" fill="white"/>
<path d="M113.254 78.216C113.534 78.3074 113.837 78.3761 114.069 78.3761C114.931 78.3761 115.187 77.5299 115.513 76.7752L112.695 70.6006H114.163L116.119 75.1515L117.819 70.6006H119.217L116.771 76.8896C116.235 78.3075 115.676 79.4738 114.349 79.4738C114 79.4738 113.58 79.4052 113.254 79.2679V78.216Z" fill="white"/>
<path d="M128.134 76.6153V75.8378C127.598 76.501 126.806 76.8669 125.874 76.8669C124.058 76.8669 122.707 75.5405 122.707 73.6652C122.707 71.7442 124.035 70.3721 125.874 70.3721C126.853 70.3721 127.621 70.7609 128.134 71.4241V70.5779H129.461V76.6153C129.461 78.6049 128.087 79.7484 126.177 79.7484C124.547 79.7484 123.173 78.7193 122.963 77.3243L124.198 77.187C124.407 78.0332 125.222 78.6507 126.131 78.6507C127.318 78.6507 128.134 77.9189 128.134 76.6153ZM128.18 73.6652C128.18 72.4074 127.318 71.5155 126.131 71.5155C124.943 71.5155 124.058 72.4074 124.058 73.6652C124.058 74.8544 124.943 75.7463 126.131 75.7463C127.318 75.7463 128.18 74.8544 128.18 73.6652Z" fill="white"/>
<path d="M136.45 70.5778H137.801V76.7296H136.45V75.8148C135.914 76.5466 135.099 76.9811 134.121 76.9811C132.281 76.9811 130.977 75.5861 130.977 73.6651C130.977 71.7441 132.281 70.3491 134.121 70.3491C135.099 70.3491 135.914 70.7836 136.45 71.5154V70.5778ZM136.426 73.6651C136.426 72.4073 135.565 71.5154 134.377 71.5154C133.189 71.5154 132.304 72.4073 132.304 73.6651C132.304 74.9001 133.189 75.8148 134.377 75.8148C135.565 75.8148 136.426 74.9229 136.426 73.6651Z" fill="white"/>
<path d="M140.111 71.6069H139.156V70.5778H140.204L140.367 69.0913H141.462V70.5778H142.999V71.6069H141.462V74.9229C141.462 75.4718 141.811 75.8605 142.37 75.8605C142.533 75.8605 142.836 75.8148 143.069 75.7462V76.7982C142.743 76.9125 142.3 76.9583 141.951 76.9583C140.833 76.9583 140.111 76.1579 140.111 74.9915V71.6069Z" fill="white"/>
<path d="M147.631 70.3491C149.587 70.3491 150.961 71.6984 150.961 73.5965C150.961 73.7337 150.938 73.9167 150.938 74.0768H145.651C145.814 75.1745 146.583 75.8834 147.608 75.8834C148.446 75.8834 149.215 75.4032 149.448 74.7171L150.705 74.9C150.356 76.1121 149.052 76.9811 147.631 76.9811C145.675 76.9811 144.254 75.5633 144.254 73.5965C144.254 71.6984 145.675 70.3491 147.631 70.3491ZM149.564 73.0934C149.424 72.1329 148.632 71.4468 147.584 71.4468C146.583 71.4468 145.838 72.11 145.651 73.0934H149.564Z" fill="white"/>
<defs>
<linearGradient id="paint0_linear_2749_12268" x1="42.6816" y1="22.0924" x2="18.8321" y2="73.165" gradientUnits="userSpaceOnUse">
<stop stop-color="#FDB6E5"/>
<stop offset="0.4341" stop-color="#CB1CC0"/>
<stop offset="1" stop-color="#520671"/>
</linearGradient>
<linearGradient id="paint1_linear_2749_12268" x1="15.9602" y1="31.0712" x2="37.344" y2="73.4883" gradientUnits="userSpaceOnUse">
<stop stop-color="#FDB6E5"/>
<stop offset="0.4341" stop-color="#CB1CC0"/>
<stop offset="1" stop-color="#520671"/>
</linearGradient>
<linearGradient id="paint2_linear_2749_12268" x1="8.41907" y1="1.76143" x2="42.7467" y2="69.8537" gradientUnits="userSpaceOnUse">
<stop stop-color="#9D04E7"/>
<stop offset="1" stop-color="#520671"/>
</linearGradient>
</defs>
</svg>
