<svg width="117" height="80" viewBox="0 0 117 80" fill="none" xmlns="http://www.w3.org/2000/svg">
<path d="M88.1678 2.0332C76.3543 2.0332 66.7812 11.4665 66.7812 23.0332C66.7812 34.5999 76.3882 44.0332 88.1678 44.0332C99.9473 44.0332 109.554 34.5999 109.554 23.0332C109.554 11.4665 99.9812 2.0332 88.1678 2.0332ZM88.1678 35.1665C81.3784 35.1665 75.845 29.7332 75.845 23.0665C75.845 16.3999 81.3784 10.9665 88.1678 10.9665C94.9571 10.9665 100.49 16.3999 100.49 23.0665C100.49 29.7332 94.9571 35.1665 88.1678 35.1665Z" fill="white"/>
<path d="M41.4529 2.0332C29.6394 2.0332 20.0664 11.4665 20.0664 23.0332C20.0664 34.5999 29.6733 44.0332 41.4529 44.0332C46.0357 44.0332 50.279 42.5999 53.7756 40.1665V56.5665H62.8394V23.0332C62.8733 11.4665 53.2663 2.0332 41.4529 2.0332ZM41.4529 35.1665C34.6635 35.1665 29.1302 29.7332 29.1302 23.0665C29.1302 16.3999 34.6635 10.9665 41.4529 10.9665C48.2422 10.9665 53.7756 16.3999 53.7756 23.0665C53.7756 29.7332 48.2762 35.1665 41.4529 35.1665Z" fill="white"/>
<path d="M105.002 46.8H71.293V55.7H105.002V46.8Z" fill="white"/>
<path d="M115.021 0H105.516V9.33334H115.021V0Z" fill="white"/>
<path d="M9.78254 0H0.71875V44.0667H18.3711V35.1667H9.78254V0Z" fill="white"/>
<path d="M2.01312 62.3999V75.4332H0.078125V62.3999H2.01312Z" fill="white"/>
<path d="M4.58984 63.7998C4.58984 63.1332 5.09905 62.6665 5.81193 62.6665C6.52481 62.6665 7.00009 63.1332 7.00009 63.7998C7.00009 64.4998 6.49087 64.9665 5.81193 64.9665C5.09905 64.9998 4.58984 64.4998 4.58984 63.7998ZM6.79642 66.4331V75.3998H4.86142V66.4331H6.79642Z" fill="white"/>
<path d="M13.7625 66.0999C15.1543 66.0999 16.3425 66.6998 17.1232 67.6998V66.4332H19.0242V79.4665H17.0553V74.1998C16.2745 75.1998 15.1204 75.7665 13.7625 75.7665C11.1147 75.7665 9.17969 73.7332 9.17969 70.9332C9.17969 68.1332 11.1147 66.0999 13.7625 66.0999ZM17.1572 70.9332C17.1572 69.1998 15.9012 67.8998 14.1699 67.8998C12.4386 67.8998 11.1486 69.1665 11.1486 70.9332C11.1486 72.6665 12.4386 73.9665 14.1699 73.9665C15.9012 73.9665 17.1572 72.6665 17.1572 70.9332Z" fill="white"/>
<path d="M28.1184 75.3998V74.2665C27.4735 75.1998 26.3532 75.7664 25.1651 75.7664C22.9246 75.7664 21.4648 74.1331 21.4648 71.9331V66.4665H23.4338V71.7998C23.4338 73.1331 24.2145 74.0665 25.6064 74.0665C26.9642 74.0665 28.1184 73.0331 28.1184 71.5998V66.4331H30.0534V75.3998H28.1184Z" fill="white"/>
<path d="M32.6367 63.7998C32.6367 63.1332 33.1459 62.6665 33.8588 62.6665C34.5717 62.6665 35.0469 63.1332 35.0469 63.7998C35.0469 64.4998 34.5377 64.9665 33.8588 64.9665C33.1459 64.9998 32.6367 64.4998 32.6367 63.7998ZM34.8093 66.4331V75.3998H32.8743V66.4331H34.8093Z" fill="white"/>
<path d="M41.8016 66.0999C43.1595 66.0999 44.3476 66.6666 45.0944 67.6666V62.3999H47.0634V75.4332H45.1623V74.1666C44.3816 75.1666 43.1934 75.7665 41.8016 75.7665C39.1537 75.7665 37.2188 73.7332 37.2188 70.9332C37.2188 68.1332 39.1537 66.0999 41.8016 66.0999ZM39.1537 70.9332C39.1537 72.6999 40.4437 73.9666 42.175 73.9666C43.9063 73.9666 45.1623 72.6666 45.1623 70.9332C45.1623 69.1999 43.9063 67.8999 42.175 67.8999C40.4437 67.8999 39.1537 69.1666 39.1537 70.9332Z" fill="white"/>
<path d="M49.6758 63.7998C49.6758 63.1332 50.185 62.6665 50.8979 62.6665C51.6108 62.6665 52.12 63.1332 52.12 63.7998C52.12 64.4998 51.6108 64.9665 50.8979 64.9665C50.151 64.9998 49.6758 64.4998 49.6758 63.7998ZM51.8484 66.4331V75.3998H49.9134V66.4331H51.8484Z" fill="white"/>
<path d="M55.4739 67.9332H54.082V66.4332H55.6096L55.8473 64.2666H57.4428V66.4332H59.6833V67.9332H57.4428V72.7666C57.4428 73.5666 57.952 74.1332 58.7667 74.1332C59.0043 74.1332 59.4457 74.0666 59.7851 73.9666V75.4999C59.3099 75.6666 58.6648 75.7333 58.1556 75.7333C56.5262 75.7333 55.4739 74.5666 55.4739 72.8666V67.9332Z" fill="white"/>
<path d="M61.9632 77.5663C62.3705 77.6996 62.8118 77.7996 63.1513 77.7996C64.4073 77.7996 64.7808 76.5663 65.256 75.4663L61.1484 66.4663H63.2871L66.1386 73.0996L68.6167 66.4663H70.6536L67.0891 75.633C66.3084 77.6996 65.4937 79.3996 63.5587 79.3996C63.0495 79.3996 62.4384 79.2996 61.9632 79.0996V77.5663Z" fill="white"/>
<path d="M83.6518 75.2333V74.1C82.871 75.0666 81.7168 75.6 80.359 75.6C77.7111 75.6 75.7422 73.6666 75.7422 70.9333C75.7422 68.1333 77.6772 66.1333 80.359 66.1333C81.7847 66.1333 82.905 66.7 83.6518 67.6667V66.4333H85.5867V75.2333C85.5867 78.1333 83.5839 79.8 80.8003 79.8C78.424 79.8 76.4211 78.2999 76.1156 76.2666L77.9148 76.0666C78.2203 77.2999 79.4084 78.1999 80.7324 78.1999C82.4637 78.1999 83.6518 77.1333 83.6518 75.2333ZM83.7197 70.9333C83.7197 69.1 82.4637 67.8 80.7324 67.8C79.0011 67.8 77.7111 69.1 77.7111 70.9333C77.7111 72.6666 79.0011 73.9667 80.7324 73.9667C82.4637 73.9667 83.7197 72.6666 83.7197 70.9333Z" fill="white"/>
<path d="M95.7704 66.4332H97.7394V75.3998H95.7704V74.0665C94.9897 75.1332 93.8015 75.7665 92.3758 75.7665C89.694 75.7665 87.793 73.7332 87.793 70.9332C87.793 68.1332 89.694 66.0999 92.3758 66.0999C93.8015 66.0999 94.9897 66.7332 95.7704 67.7998V66.4332ZM95.7365 70.9332C95.7365 69.0998 94.4805 67.7998 92.7492 67.7998C91.0179 67.7998 89.7279 69.0998 89.7279 70.9332C89.7279 72.7332 91.0179 74.0665 92.7492 74.0665C94.4805 74.0665 95.7365 72.7665 95.7365 70.9332Z" fill="white"/>
<path d="M101.107 67.9332H99.7148V66.4332H101.242L101.48 64.2666H103.076V66.4332H105.316V67.9332H103.076V72.7666C103.076 73.5666 103.585 74.1332 104.4 74.1332C104.637 74.1332 105.078 74.0666 105.418 73.9666V75.4999C104.943 75.6666 104.298 75.7333 103.788 75.7333C102.159 75.7333 101.107 74.5666 101.107 72.8666V67.9332Z" fill="white"/>
<path d="M112.067 66.0999C114.918 66.0999 116.921 68.0665 116.921 70.8332C116.921 71.0332 116.887 71.2998 116.887 71.5332H109.181C109.419 73.1332 110.539 74.1665 112.033 74.1665C113.255 74.1665 114.375 73.4665 114.715 72.4665L116.548 72.7332C116.039 74.4998 114.138 75.7665 112.067 75.7665C109.215 75.7665 107.145 73.6998 107.145 70.8332C107.145 68.0665 109.215 66.0999 112.067 66.0999ZM114.884 70.0998C114.681 68.6998 113.527 67.6998 111.999 67.6998C110.539 67.6998 109.453 68.6665 109.181 70.0998H114.884Z" fill="white"/>
</svg>
