<svg width="272" height="161" viewBox="0 0 272 161" fill="none" xmlns="http://www.w3.org/2000/svg">
<rect opacity="0.1" x="9.25" y="10" width="252" height="28" fill="#D9D9D9"/>
<rect opacity="0.1" x="9.25" y="38" width="28" height="85" fill="#D9D9D9"/>
<rect opacity="0.1" x="9.25" y="123" width="252" height="28" fill="#D9D9D9"/>
<line x1="37.5" y1="-2.14981e-08" x2="37.5" y2="161" stroke="#303030" stroke-width="0.5"/>
<line x1="233.5" y1="-2.14981e-08" x2="233.5" y2="161" stroke="#303030" stroke-width="0.5"/>
<line x1="0.25" y1="37.75" x2="271.25" y2="37.75" stroke="#303030" stroke-width="0.5"/>
<line x1="0.25" y1="122.75" x2="271.25" y2="122.75" stroke="#303030" stroke-width="0.5"/>
<path d="M20.25 21L22.75 23.5M25.25 26L22.75 23.5M22.75 23.5L25.25 21L20.25 26" stroke="#626264" stroke-width="0.5" stroke-linecap="round" stroke-linejoin="round"/>
<line x1="9.5" y1="10" x2="9.5" y2="151" stroke="#808080" stroke-width="0.5"/>
<line x1="261.5" y1="10" x2="261.5" y2="151" stroke="#808080" stroke-width="0.5"/>
<line x1="9.25" y1="9.75" x2="261.75" y2="9.75" stroke="#808080" stroke-width="0.5"/>
<line x1="9.25" y1="150.75" x2="261.75" y2="150.75" stroke="#808080" stroke-width="0.5"/>
<path d="M97.7561 93.1243L68.003 123L38.25 93.1243L68.003 39L97.7561 93.1243Z" fill="url(#paint0_linear_2746_12105)"/>
<path d="M94.0496 96.637L68.0069 122.795L41.9297 96.637L68.0069 70.4786L94.0496 96.637Z" fill="url(#paint1_linear_2746_12105)"/>
<path opacity="0.44" d="M68.01 123L50.6367 83.5408L68.01 39L85.4526 83.5749L68.01 123Z" fill="url(#paint2_linear_2746_12105)"/>
<path d="M203.108 41.1349C190.723 41.1349 180.688 51.0399 180.688 63.1849C180.688 75.3299 190.759 85.2349 203.108 85.2349C215.456 85.2349 225.528 75.3299 225.528 63.1849C225.528 51.0399 215.492 41.1349 203.108 41.1349ZM203.108 75.9249C195.99 75.9249 190.189 70.2199 190.189 63.2199C190.189 56.2199 195.99 50.5149 203.108 50.5149C210.225 50.5149 216.026 56.2199 216.026 63.2199C216.026 70.2199 210.225 75.9249 203.108 75.9249Z" fill="white"/>
<path d="M154.143 41.1349C141.758 41.1349 131.723 51.0399 131.723 63.1849C131.723 75.3299 141.794 85.2349 154.143 85.2349C158.947 85.2349 163.396 83.7299 167.061 81.1749V98.3949H176.563V63.1849C176.598 51.0399 166.527 41.1349 154.143 41.1349ZM154.143 75.9249C147.025 75.9249 141.225 70.2199 141.225 63.2199C141.225 56.2199 147.025 50.5149 154.143 50.5149C161.26 50.5149 167.061 56.2199 167.061 63.2199C167.061 70.2199 161.296 75.9249 154.143 75.9249Z" fill="white"/>
<path d="M220.764 88.1399H185.426V97.4849H220.764V88.1399Z" fill="white"/>
<path d="M231.261 39H221.297V48.8H231.261V39Z" fill="white"/>
<path d="M120.939 39H111.438V85.27H129.943V75.925H120.939V39Z" fill="white"/>
<path d="M112.794 104.52V118.205H110.766V104.52H112.794Z" fill="white"/>
<path d="M115.488 105.99C115.488 105.29 116.022 104.8 116.769 104.8C117.517 104.8 118.015 105.29 118.015 105.99C118.015 106.725 117.481 107.215 116.769 107.215C116.022 107.25 115.488 106.725 115.488 105.99ZM117.802 108.755V118.17H115.773V108.755H117.802Z" fill="white"/>
<path d="M125.109 108.405C126.568 108.405 127.814 109.035 128.632 110.085V108.755H130.625V122.44H128.561V116.91C127.742 117.96 126.533 118.555 125.109 118.555C122.333 118.555 120.305 116.42 120.305 113.48C120.305 110.54 122.333 108.405 125.109 108.405ZM128.668 113.48C128.668 111.66 127.351 110.295 125.536 110.295C123.721 110.295 122.369 111.625 122.369 113.48C122.369 115.3 123.721 116.665 125.536 116.665C127.351 116.665 128.668 115.3 128.668 113.48Z" fill="white"/>
<path d="M140.155 118.17V116.98C139.479 117.96 138.304 118.555 137.059 118.555C134.71 118.555 133.18 116.84 133.18 114.53V108.79H135.244V114.39C135.244 115.79 136.062 116.77 137.521 116.77C138.945 116.77 140.155 115.685 140.155 114.18V108.755H142.183V118.17H140.155Z" fill="white"/>
<path d="M144.895 105.99C144.895 105.29 145.428 104.8 146.176 104.8C146.923 104.8 147.421 105.29 147.421 105.99C147.421 106.725 146.887 107.215 146.176 107.215C145.428 107.25 144.895 106.725 144.895 105.99ZM147.172 108.755V118.17H145.144V108.755H147.172Z" fill="white"/>
<path d="M154.507 108.405C155.931 108.405 157.177 109 157.959 110.05V104.52H160.024V118.205H158.031V116.875C157.212 117.925 155.967 118.555 154.507 118.555C151.732 118.555 149.703 116.42 149.703 113.48C149.703 110.54 151.732 108.405 154.507 108.405ZM151.732 113.48C151.732 115.335 153.084 116.665 154.899 116.665C156.714 116.665 158.031 115.3 158.031 113.48C158.031 111.66 156.714 110.295 154.899 110.295C153.084 110.295 151.732 111.625 151.732 113.48Z" fill="white"/>
<path d="M162.766 105.99C162.766 105.29 163.299 104.8 164.047 104.8C164.794 104.8 165.328 105.29 165.328 105.99C165.328 106.725 164.794 107.215 164.047 107.215C163.264 107.25 162.766 106.725 162.766 105.99ZM165.043 108.755V118.17H163.015V108.755H165.043Z" fill="white"/>
<path d="M168.842 110.33H167.383V108.755H168.984L169.233 106.48H170.906V108.755H173.255V110.33H170.906V115.405C170.906 116.245 171.44 116.84 172.294 116.84C172.543 116.84 173.006 116.77 173.362 116.665V118.275C172.863 118.45 172.187 118.52 171.653 118.52C169.945 118.52 168.842 117.295 168.842 115.51V110.33Z" fill="white"/>
<path d="M175.635 120.445C176.062 120.585 176.525 120.69 176.881 120.69C178.198 120.69 178.589 119.395 179.087 118.24L174.781 108.79H177.023L180.013 115.755L182.61 108.79H184.746L181.009 118.415C180.191 120.585 179.336 122.37 177.308 122.37C176.774 122.37 176.134 122.265 175.635 122.055V120.445Z" fill="white"/>
<path d="M198.378 117.995V116.805C197.559 117.82 196.349 118.38 194.926 118.38C192.15 118.38 190.086 116.35 190.086 113.48C190.086 110.54 192.114 108.44 194.926 108.44C196.421 108.44 197.595 109.035 198.378 110.05V108.755H200.406V117.995C200.406 121.04 198.307 122.79 195.388 122.79C192.897 122.79 190.798 121.215 190.477 119.08L192.364 118.87C192.684 120.165 193.929 121.11 195.317 121.11C197.132 121.11 198.378 119.99 198.378 117.995ZM198.449 113.48C198.449 111.555 197.132 110.19 195.317 110.19C193.502 110.19 192.15 111.555 192.15 113.48C192.15 115.3 193.502 116.665 195.317 116.665C197.132 116.665 198.449 115.3 198.449 113.48Z" fill="white"/>
<path d="M211.09 108.755H213.154V118.17H211.09V116.77C210.271 117.89 209.026 118.555 207.531 118.555C204.719 118.555 202.727 116.42 202.727 113.48C202.727 110.54 204.719 108.405 207.531 108.405C209.026 108.405 210.271 109.07 211.09 110.19V108.755ZM211.054 113.48C211.054 111.555 209.737 110.19 207.922 110.19C206.107 110.19 204.755 111.555 204.755 113.48C204.755 115.37 206.107 116.77 207.922 116.77C209.737 116.77 211.054 115.405 211.054 113.48Z" fill="white"/>
<path d="M216.682 110.33H215.223V108.755H216.824L217.073 106.48H218.746V108.755H221.095V110.33H218.746V115.405C218.746 116.245 219.28 116.84 220.134 116.84C220.383 116.84 220.846 116.77 221.201 116.665V118.275C220.703 118.45 220.027 118.52 219.493 118.52C217.785 118.52 216.682 117.295 216.682 115.51V110.33Z" fill="white"/>
<path d="M228.16 108.405C231.15 108.405 233.249 110.47 233.249 113.375C233.249 113.585 233.214 113.865 233.214 114.11H225.135C225.384 115.79 226.559 116.875 228.125 116.875C229.406 116.875 230.58 116.14 230.936 115.09L232.858 115.37C232.324 117.225 230.331 118.555 228.16 118.555C225.171 118.555 223 116.385 223 113.375C223 110.47 225.171 108.405 228.16 108.405ZM231.114 112.605C230.9 111.135 229.69 110.085 228.089 110.085C226.559 110.085 225.42 111.1 225.135 112.605H231.114Z" fill="white"/>
<rect opacity="0.1" x="233.25" y="38" width="28" height="85" fill="#D9D9D9"/>
<defs>
<linearGradient id="paint0_linear_2746_12105" x1="82.9576" y1="62.197" x2="57.89" y2="115.793" gradientUnits="userSpaceOnUse">
<stop stop-color="#FDB6E5"/>
<stop offset="0.4341" stop-color="#CB1CC0"/>
<stop offset="1" stop-color="#520671"/>
</linearGradient>
<linearGradient id="paint1_linear_2746_12105" x1="54.943" y1="71.6249" x2="77.4172" y2="116.134" gradientUnits="userSpaceOnUse">
<stop stop-color="#FDB6E5"/>
<stop offset="0.4341" stop-color="#CB1CC0"/>
<stop offset="1" stop-color="#520671"/>
</linearGradient>
<linearGradient id="paint2_linear_2746_12105" x1="47.0424" y1="40.8495" x2="83.1205" y2="112.3" gradientUnits="userSpaceOnUse">
<stop stop-color="#9D04E7"/>
<stop offset="1" stop-color="#520671"/>
</linearGradient>
</defs>
</svg>
