<svg width="187" height="80" viewBox="0 0 187 80" fill="none" xmlns="http://www.w3.org/2000/svg">
<path d="M57.2627 51.5469L28.8813 80L0.5 51.5469L28.8813 0L57.2627 51.5469Z" fill="url(#paint0_linear_2749_12210)"/>
<path d="M53.7287 54.8922L28.8867 79.8049L4.01172 54.8922L28.8867 29.9795L53.7287 54.8922Z" fill="url(#paint1_linear_2749_12210)"/>
<path opacity="0.44" d="M28.8848 80L12.3125 42.4198L28.8848 0L45.5233 42.4523L28.8848 80Z" fill="url(#paint2_linear_2749_12210)"/>
<path d="M157.75 2.0332C145.936 2.0332 136.363 11.4665 136.363 23.0332C136.363 34.5999 145.97 44.0332 157.75 44.0332C169.529 44.0332 179.136 34.5999 179.136 23.0332C179.136 11.4665 169.563 2.0332 157.75 2.0332ZM157.75 35.1665C150.96 35.1665 145.427 29.7332 145.427 23.0665C145.427 16.3999 150.96 10.9665 157.75 10.9665C164.539 10.9665 170.072 16.3999 170.072 23.0665C170.072 29.7332 164.539 35.1665 157.75 35.1665Z" fill="url(#paint3_linear_2749_12210)"/>
<path d="M111.035 2.0332C99.2214 2.0332 89.6484 11.4665 89.6484 23.0332C89.6484 34.5999 99.2553 44.0332 111.035 44.0332C115.618 44.0332 119.861 42.5999 123.358 40.1665V56.5665H132.421V23.0332C132.455 11.4665 122.848 2.0332 111.035 2.0332ZM111.035 35.1665C104.246 35.1665 98.7122 29.7332 98.7122 23.0665C98.7122 16.3999 104.246 10.9665 111.035 10.9665C117.824 10.9665 123.358 16.3999 123.358 23.0665C123.358 29.7332 117.858 35.1665 111.035 35.1665Z" fill="url(#paint4_linear_2749_12210)"/>
<path d="M174.584 46.8H140.875V55.7H174.584V46.8Z" fill="url(#paint5_linear_2749_12210)"/>
<path d="M184.603 0H175.098V9.33334H184.603V0Z" fill="url(#paint6_linear_2749_12210)"/>
<path d="M79.3646 0H70.3008V44.0667H87.9532V35.1667H79.3646V0Z" fill="url(#paint7_linear_2749_12210)"/>
<path d="M71.5951 62.3999V75.4332H69.6602V62.3999H71.5951Z" fill="url(#paint8_linear_2749_12210)"/>
<path d="M74.1719 63.7998C74.1719 63.1332 74.6811 62.6665 75.394 62.6665C76.1068 62.6665 76.5821 63.1332 76.5821 63.7998C76.5821 64.4998 76.0729 64.9665 75.394 64.9665C74.6811 64.9998 74.1719 64.4998 74.1719 63.7998ZM76.3784 66.4331V75.3998H74.4435V66.4331H76.3784Z" fill="url(#paint9_linear_2749_12210)"/>
<path d="M83.3446 66.0999C84.7364 66.0999 85.9245 66.6998 86.7053 67.6998V66.4332H88.6063V79.4665H86.6374V74.1998C85.8566 75.1998 84.7024 75.7665 83.3446 75.7665C80.6967 75.7665 78.7617 73.7332 78.7617 70.9332C78.7617 68.1332 80.6967 66.0999 83.3446 66.0999ZM86.7392 70.9332C86.7392 69.1998 85.4832 67.8998 83.7519 67.8998C82.0206 67.8998 80.7306 69.1665 80.7306 70.9332C80.7306 72.6665 82.0206 73.9665 83.7519 73.9665C85.4832 73.9665 86.7392 72.6665 86.7392 70.9332Z" fill="url(#paint10_linear_2749_12210)"/>
<path d="M97.7005 75.3998V74.2665C97.0555 75.1998 95.9353 75.7664 94.7471 75.7664C92.5066 75.7664 91.0469 74.1331 91.0469 71.9331V66.4665H93.0158V71.7998C93.0158 73.1331 93.7966 74.0665 95.1884 74.0665C96.5463 74.0665 97.7005 73.0331 97.7005 71.5998V66.4331H99.6354V75.3998H97.7005Z" fill="url(#paint11_linear_2749_12210)"/>
<path d="M102.219 63.7998C102.219 63.1332 102.728 62.6665 103.441 62.6665C104.154 62.6665 104.629 63.1332 104.629 63.7998C104.629 64.4998 104.12 64.9665 103.441 64.9665C102.728 64.9998 102.219 64.4998 102.219 63.7998ZM104.391 66.4331V75.3998H102.456V66.4331H104.391Z" fill="url(#paint12_linear_2749_12210)"/>
<path d="M111.384 66.0999C112.741 66.0999 113.93 66.6666 114.676 67.6666V62.3999H116.645V75.4332H114.744V74.1666C113.964 75.1666 112.775 75.7665 111.384 75.7665C108.736 75.7665 106.801 73.7332 106.801 70.9332C106.801 68.1332 108.736 66.0999 111.384 66.0999ZM108.736 70.9332C108.736 72.6999 110.026 73.9666 111.757 73.9666C113.488 73.9666 114.744 72.6666 114.744 70.9332C114.744 69.1999 113.488 67.8999 111.757 67.8999C110.026 67.8999 108.736 69.1666 108.736 70.9332Z" fill="url(#paint13_linear_2749_12210)"/>
<path d="M119.258 63.7998C119.258 63.1332 119.767 62.6665 120.48 62.6665C121.193 62.6665 121.702 63.1332 121.702 63.7998C121.702 64.4998 121.193 64.9665 120.48 64.9665C119.733 64.9998 119.258 64.4998 119.258 63.7998ZM121.43 66.4331V75.3998H119.495V66.4331H121.43Z" fill="url(#paint14_linear_2749_12210)"/>
<path d="M125.056 67.9332H123.664V66.4332H125.192L125.429 64.2666H127.025V66.4332H129.265V67.9332H127.025V72.7666C127.025 73.5666 127.534 74.1332 128.349 74.1332C128.586 74.1332 129.028 74.0666 129.367 73.9666V75.4999C128.892 75.6666 128.247 75.7333 127.738 75.7333C126.108 75.7333 125.056 74.5666 125.056 72.8666V67.9332Z" fill="url(#paint15_linear_2749_12210)"/>
<path d="M131.545 77.5663C131.953 77.6996 132.394 77.7996 132.733 77.7996C133.989 77.7996 134.363 76.5663 134.838 75.4663L130.73 66.4663H132.869L135.721 73.0996L138.199 66.4663H140.236L136.671 75.633C135.89 77.6996 135.076 79.3996 133.141 79.3996C132.632 79.3996 132.02 79.2996 131.545 79.0996V77.5663Z" fill="url(#paint16_linear_2749_12210)"/>
<path d="M153.234 75.2333V74.1C152.453 75.0666 151.299 75.6 149.941 75.6C147.293 75.6 145.324 73.6666 145.324 70.9333C145.324 68.1333 147.259 66.1333 149.941 66.1333C151.367 66.1333 152.487 66.7 153.234 67.6667V66.4333H155.169V75.2333C155.169 78.1333 153.166 79.8 150.382 79.8C148.006 79.8 146.003 78.2999 145.698 76.2666L147.497 76.0666C147.802 77.2999 148.99 78.1999 150.314 78.1999C152.046 78.1999 153.234 77.1333 153.234 75.2333ZM153.302 70.9333C153.302 69.1 152.046 67.8 150.314 67.8C148.583 67.8 147.293 69.1 147.293 70.9333C147.293 72.6666 148.583 73.9667 150.314 73.9667C152.046 73.9667 153.302 72.6666 153.302 70.9333Z" fill="url(#paint17_linear_2749_12210)"/>
<path d="M165.352 66.4332H167.321V75.3998H165.352V74.0665C164.572 75.1332 163.384 75.7665 161.958 75.7665C159.276 75.7665 157.375 73.7332 157.375 70.9332C157.375 68.1332 159.276 66.0999 161.958 66.0999C163.384 66.0999 164.572 66.7332 165.352 67.7998V66.4332ZM165.319 70.9332C165.319 69.0998 164.062 67.7998 162.331 67.7998C160.6 67.7998 159.31 69.0998 159.31 70.9332C159.31 72.7332 160.6 74.0665 162.331 74.0665C164.062 74.0665 165.319 72.7665 165.319 70.9332Z" fill="url(#paint18_linear_2749_12210)"/>
<path d="M170.689 67.9332H169.297V66.4332H170.824L171.062 64.2666H172.658V66.4332H174.898V67.9332H172.658V72.7666C172.658 73.5666 173.167 74.1332 173.982 74.1332C174.219 74.1332 174.66 74.0666 175 73.9666V75.4999C174.525 75.6666 173.88 75.7333 173.37 75.7333C171.741 75.7333 170.689 74.5666 170.689 72.8666V67.9332Z" fill="url(#paint19_linear_2749_12210)"/>
<path d="M181.649 66.0999C184.5 66.0999 186.503 68.0665 186.503 70.8332C186.503 71.0332 186.469 71.2998 186.469 71.5332H178.763C179.001 73.1332 180.121 74.1665 181.615 74.1665C182.837 74.1665 183.957 73.4665 184.297 72.4665L186.13 72.7332C185.621 74.4998 183.72 75.7665 181.649 75.7665C178.797 75.7665 176.727 73.6998 176.727 70.8332C176.727 68.0665 178.797 66.0999 181.649 66.0999ZM184.466 70.0998C184.263 68.6998 183.109 67.6998 181.581 67.6998C180.121 67.6998 179.035 68.6665 178.763 70.0998H184.466Z" fill="url(#paint20_linear_2749_12210)"/>
<defs>
<linearGradient id="paint0_linear_2749_12210" x1="-5.36001" y1="1.76143" x2="17.8128" y2="80.3244" gradientUnits="userSpaceOnUse">
<stop stop-color="#D187F4"/>
<stop offset="1" stop-color="#12065D"/>
</linearGradient>
<linearGradient id="paint1_linear_2749_12210" x1="-1.12092" y1="31.0765" x2="9.56452" y2="82.0227" gradientUnits="userSpaceOnUse">
<stop stop-color="#D187F4"/>
<stop offset="1" stop-color="#12065D"/>
</linearGradient>
<linearGradient id="paint2_linear_2749_12210" x1="8.88392" y1="1.76143" x2="43.2115" y2="69.8537" gradientUnits="userSpaceOnUse">
<stop stop-color="#D187F4"/>
<stop offset="1" stop-color="#12065D"/>
</linearGradient>
<linearGradient id="paint3_linear_2749_12210" x1="131.948" y1="2.95795" x2="140.788" y2="45.9752" gradientUnits="userSpaceOnUse">
<stop stop-color="#D187F4"/>
<stop offset="1" stop-color="#12065D"/>
</linearGradient>
<linearGradient id="paint4_linear_2749_12210" x1="85.2327" y1="3.23391" x2="99.733" y2="57.5778" gradientUnits="userSpaceOnUse">
<stop stop-color="#D187F4"/>
<stop offset="1" stop-color="#12065D"/>
</linearGradient>
<linearGradient id="paint5_linear_2749_12210" x1="137.395" y1="46.996" x2="137.918" y2="56.4676" gradientUnits="userSpaceOnUse">
<stop stop-color="#D187F4"/>
<stop offset="1" stop-color="#12065D"/>
</linearGradient>
<linearGradient id="paint6_linear_2749_12210" x1="174.116" y1="0.2055" x2="176.081" y2="9.76491" gradientUnits="userSpaceOnUse">
<stop stop-color="#D187F4"/>
<stop offset="1" stop-color="#12065D"/>
</linearGradient>
<linearGradient id="paint7_linear_2749_12210" x1="68.4784" y1="0.970254" x2="87.7847" y2="37.9238" gradientUnits="userSpaceOnUse">
<stop stop-color="#D187F4"/>
<stop offset="1" stop-color="#12065D"/>
</linearGradient>
<linearGradient id="paint8_linear_2749_12210" x1="69.4604" y1="62.6869" x2="76.026" y2="67.3445" gradientUnits="userSpaceOnUse">
<stop stop-color="#D187F4"/>
<stop offset="1" stop-color="#12065D"/>
</linearGradient>
<linearGradient id="paint9_linear_2749_12210" x1="73.923" y1="62.9469" x2="80.6852" y2="69.0629" gradientUnits="userSpaceOnUse">
<stop stop-color="#D187F4"/>
<stop offset="1" stop-color="#12065D"/>
</linearGradient>
<linearGradient id="paint10_linear_2749_12210" x1="77.7454" y1="66.3942" x2="81.497" y2="79.5967" gradientUnits="userSpaceOnUse">
<stop stop-color="#D187F4"/>
<stop offset="1" stop-color="#12065D"/>
</linearGradient>
<linearGradient id="paint11_linear_2749_12210" x1="90.1602" y1="66.6386" x2="92.3147" y2="76.1117" gradientUnits="userSpaceOnUse">
<stop stop-color="#D187F4"/>
<stop offset="1" stop-color="#12065D"/>
</linearGradient>
<linearGradient id="paint12_linear_2749_12210" x1="101.97" y1="62.9469" x2="108.732" y2="69.0627" gradientUnits="userSpaceOnUse">
<stop stop-color="#D187F4"/>
<stop offset="1" stop-color="#12065D"/>
</linearGradient>
<linearGradient id="paint13_linear_2749_12210" x1="105.784" y1="62.6942" x2="109.536" y2="75.8967" gradientUnits="userSpaceOnUse">
<stop stop-color="#D187F4"/>
<stop offset="1" stop-color="#12065D"/>
</linearGradient>
<linearGradient id="paint14_linear_2749_12210" x1="119.005" y1="62.9469" x2="125.776" y2="69.1571" gradientUnits="userSpaceOnUse">
<stop stop-color="#D187F4"/>
<stop offset="1" stop-color="#12065D"/>
</linearGradient>
<linearGradient id="paint15_linear_2749_12210" x1="123.075" y1="64.5191" x2="127.451" y2="74.9182" gradientUnits="userSpaceOnUse">
<stop stop-color="#D187F4"/>
<stop offset="1" stop-color="#12065D"/>
</linearGradient>
<linearGradient id="paint16_linear_2749_12210" x1="129.749" y1="66.7511" x2="133.386" y2="79.5215" gradientUnits="userSpaceOnUse">
<stop stop-color="#D187F4"/>
<stop offset="1" stop-color="#12065D"/>
</linearGradient>
<linearGradient id="paint17_linear_2749_12210" x1="144.308" y1="66.4342" x2="148.217" y2="79.8874" gradientUnits="userSpaceOnUse">
<stop stop-color="#D187F4"/>
<stop offset="1" stop-color="#12065D"/>
</linearGradient>
<linearGradient id="paint18_linear_2749_12210" x1="156.348" y1="66.3127" x2="158.364" y2="76.2217" gradientUnits="userSpaceOnUse">
<stop stop-color="#D187F4"/>
<stop offset="1" stop-color="#12065D"/>
</linearGradient>
<linearGradient id="paint19_linear_2749_12210" x1="168.708" y1="64.5191" x2="173.084" y2="74.9182" gradientUnits="userSpaceOnUse">
<stop stop-color="#D187F4"/>
<stop offset="1" stop-color="#12065D"/>
</linearGradient>
<linearGradient id="paint20_linear_2749_12210" x1="175.717" y1="66.3127" x2="177.765" y2="76.2079" gradientUnits="userSpaceOnUse">
<stop stop-color="#D187F4"/>
<stop offset="1" stop-color="#12065D"/>
</linearGradient>
</defs>
</svg>
