<svg width="165" height="80" viewBox="0 0 165 80" fill="none" xmlns="http://www.w3.org/2000/svg">
<path d="M35.5361 32.0225L17.9048 49.6984L0.273438 32.0225L17.9048 0L35.5361 32.0225Z" fill="url(#paint0_linear_2749_12297)"/>
<path d="M33.3388 34.1008L17.9062 49.5773L2.45312 34.1008L17.9062 18.6243L33.3388 34.1008Z" fill="url(#paint1_linear_2749_12297)"/>
<path opacity="0.44" d="M17.9085 49.6984L7.61328 26.3525L17.9085 0L28.2448 26.3726L17.9085 49.6984Z" fill="url(#paint2_linear_2749_12297)"/>
<path d="M135.972 2.0332C124.159 2.0332 114.586 11.4665 114.586 23.0332C114.586 34.5999 124.193 44.0332 135.972 44.0332C147.752 44.0332 157.359 34.5999 157.359 23.0332C157.359 11.4665 147.786 2.0332 135.972 2.0332ZM135.972 35.1665C129.183 35.1665 123.65 29.7332 123.65 23.0665C123.65 16.3999 129.183 10.9665 135.972 10.9665C142.762 10.9665 148.295 16.3999 148.295 23.0665C148.295 29.7332 142.762 35.1665 135.972 35.1665Z" fill="white"/>
<path d="M89.2575 2.0332C77.4441 2.0332 67.8711 11.4665 67.8711 23.0332C67.8711 34.5999 77.478 44.0332 89.2575 44.0332C93.8404 44.0332 98.0837 42.5999 101.58 40.1665V56.5665H110.644V23.0332C110.678 11.4665 101.071 2.0332 89.2575 2.0332ZM89.2575 35.1665C82.4682 35.1665 76.9349 29.7332 76.9349 23.0665C76.9349 16.3999 82.4682 10.9665 89.2575 10.9665C96.0469 10.9665 101.58 16.3999 101.58 23.0665C101.58 29.7332 96.0808 35.1665 89.2575 35.1665Z" fill="white"/>
<path d="M152.807 46.8H119.098V55.7H152.807V46.8Z" fill="white"/>
<path d="M162.825 0H153.32V9.33334H162.825V0Z" fill="white"/>
<path d="M57.5872 0H48.5234V44.0667H66.1758V35.1667H57.5872V0Z" fill="white"/>
<path d="M49.8178 62.3999V75.4332H47.8828V62.3999H49.8178Z" fill="white"/>
<path d="M52.3945 63.7998C52.3945 63.1332 52.9037 62.6665 53.6166 62.6665C54.3295 62.6665 54.8048 63.1332 54.8048 63.7998C54.8048 64.4998 54.2956 64.9665 53.6166 64.9665C52.9037 64.9998 52.3945 64.4998 52.3945 63.7998ZM54.6011 66.4331V75.3998H52.6661V66.4331H54.6011Z" fill="white"/>
<path d="M61.5672 66.0999C62.959 66.0999 64.1471 66.6998 64.9279 67.6998V66.4332H66.8289V79.4665H64.86V74.1998C64.0792 75.1998 62.9251 75.7665 61.5672 75.7665C58.9194 75.7665 56.9844 73.7332 56.9844 70.9332C56.9844 68.1332 58.9194 66.0999 61.5672 66.0999ZM64.9619 70.9332C64.9619 69.1998 63.7058 67.8998 61.9746 67.8998C60.2433 67.8998 58.9533 69.1665 58.9533 70.9332C58.9533 72.6665 60.2433 73.9665 61.9746 73.9665C63.7058 73.9665 64.9619 72.6665 64.9619 70.9332Z" fill="white"/>
<path d="M75.9231 75.3998V74.2665C75.2781 75.1998 74.1579 75.7664 72.9698 75.7664C70.7293 75.7664 69.2695 74.1331 69.2695 71.9331V66.4665H71.2385V71.7998C71.2385 73.1331 72.0192 74.0665 73.411 74.0665C74.7689 74.0665 75.9231 73.0331 75.9231 71.5998V66.4331H77.8581V75.3998H75.9231Z" fill="white"/>
<path d="M80.4414 63.7998C80.4414 63.1332 80.9506 62.6665 81.6635 62.6665C82.3764 62.6665 82.8516 63.1332 82.8516 63.7998C82.8516 64.4998 82.3424 64.9665 81.6635 64.9665C80.9506 64.9998 80.4414 64.4998 80.4414 63.7998ZM82.614 66.4331V75.3998H80.679V66.4331H82.614Z" fill="white"/>
<path d="M89.6063 66.0999C90.9641 66.0999 92.1523 66.6666 92.8991 67.6666V62.3999H94.868V75.4332H92.967V74.1666C92.1863 75.1666 90.9981 75.7665 89.6063 75.7665C86.9584 75.7665 85.0234 73.7332 85.0234 70.9332C85.0234 68.1332 86.9584 66.0999 89.6063 66.0999ZM86.9584 70.9332C86.9584 72.6999 88.2484 73.9666 89.9797 73.9666C91.711 73.9666 92.967 72.6666 92.967 70.9332C92.967 69.1999 91.711 67.8999 89.9797 67.8999C88.2484 67.8999 86.9584 69.1666 86.9584 70.9332Z" fill="white"/>
<path d="M97.4805 63.7998C97.4805 63.1332 97.9897 62.6665 98.7026 62.6665C99.4154 62.6665 99.9246 63.1332 99.9246 63.7998C99.9246 64.4998 99.4154 64.9665 98.7026 64.9665C97.9557 64.9998 97.4805 64.4998 97.4805 63.7998ZM99.6531 66.4331V75.3998H97.7181V66.4331H99.6531Z" fill="white"/>
<path d="M103.279 67.9332H101.887V66.4332H103.414L103.652 64.2666H105.247V66.4332H107.488V67.9332H105.247V72.7666C105.247 73.5666 105.757 74.1332 106.571 74.1332C106.809 74.1332 107.25 74.0666 107.59 73.9666V75.4999C107.115 75.6666 106.47 75.7333 105.96 75.7333C104.331 75.7333 103.279 74.5666 103.279 72.8666V67.9332Z" fill="white"/>
<path d="M109.768 77.5663C110.175 77.6996 110.617 77.7996 110.956 77.7996C112.212 77.7996 112.585 76.5663 113.061 75.4663L108.953 66.4663H111.092L113.943 73.0996L116.421 66.4663H118.458L114.894 75.633C114.113 77.6996 113.298 79.3996 111.363 79.3996C110.854 79.3996 110.243 79.2996 109.768 79.0996V77.5663Z" fill="white"/>
<path d="M131.456 75.2333V74.1C130.676 75.0666 129.522 75.6 128.164 75.6C125.516 75.6 123.547 73.6666 123.547 70.9333C123.547 68.1333 125.482 66.1333 128.164 66.1333C129.589 66.1333 130.71 66.7 131.456 67.6667V66.4333H133.391V75.2333C133.391 78.1333 131.389 79.8 128.605 79.8C126.229 79.8 124.226 78.2999 123.92 76.2666L125.719 76.0666C126.025 77.2999 127.213 78.1999 128.537 78.1999C130.268 78.1999 131.456 77.1333 131.456 75.2333ZM131.524 70.9333C131.524 69.1 130.268 67.8 128.537 67.8C126.806 67.8 125.516 69.1 125.516 70.9333C125.516 72.6666 126.806 73.9667 128.537 73.9667C130.268 73.9667 131.524 72.6666 131.524 70.9333Z" fill="white"/>
<path d="M143.575 66.4332H145.544V75.3998H143.575V74.0665C142.794 75.1332 141.606 75.7665 140.18 75.7665C137.499 75.7665 135.598 73.7332 135.598 70.9332C135.598 68.1332 137.499 66.0999 140.18 66.0999C141.606 66.0999 142.794 66.7332 143.575 67.7998V66.4332ZM143.541 70.9332C143.541 69.0998 142.285 67.7998 140.554 67.7998C138.823 67.7998 137.533 69.0998 137.533 70.9332C137.533 72.7332 138.823 74.0665 140.554 74.0665C142.285 74.0665 143.541 72.7665 143.541 70.9332Z" fill="white"/>
<path d="M148.911 67.9332H147.52V66.4332H149.047L149.285 64.2666H150.88V66.4332H153.121V67.9332H150.88V72.7666C150.88 73.5666 151.389 74.1332 152.204 74.1332C152.442 74.1332 152.883 74.0666 153.223 73.9666V75.4999C152.747 75.6666 152.102 75.7333 151.593 75.7333C149.964 75.7333 148.911 74.5666 148.911 72.8666V67.9332Z" fill="white"/>
<path d="M159.871 66.0999C162.723 66.0999 164.726 68.0665 164.726 70.8332C164.726 71.0332 164.692 71.2998 164.692 71.5332H156.986C157.224 73.1332 158.344 74.1665 159.838 74.1665C161.06 74.1665 162.18 73.4665 162.519 72.4665L164.353 72.7332C163.843 74.4998 161.942 75.7665 159.871 75.7665C157.02 75.7665 154.949 73.6998 154.949 70.8332C154.949 68.0665 157.02 66.0999 159.871 66.0999ZM162.689 70.0998C162.485 68.6998 161.331 67.6998 159.804 67.6998C158.344 67.6998 157.258 68.6665 156.986 70.0998H162.689Z" fill="white"/>
<defs>
<linearGradient id="paint0_linear_2749_12297" x1="26.7667" y1="13.7245" x2="11.9507" y2="45.4523" gradientUnits="userSpaceOnUse">
<stop stop-color="#FDB6E5"/>
<stop offset="0.4341" stop-color="#CB1CC0"/>
<stop offset="1" stop-color="#520671"/>
</linearGradient>
<linearGradient id="paint1_linear_2749_12297" x1="10.1647" y1="19.3024" x2="23.4489" y2="45.6532" gradientUnits="userSpaceOnUse">
<stop stop-color="#FDB6E5"/>
<stop offset="0.4341" stop-color="#CB1CC0"/>
<stop offset="1" stop-color="#520671"/>
</linearGradient>
<linearGradient id="paint2_linear_2749_12297" x1="5.48334" y1="1.09425" x2="26.8087" y2="43.3952" gradientUnits="userSpaceOnUse">
<stop stop-color="#9D04E7"/>
<stop offset="1" stop-color="#520671"/>
</linearGradient>
</defs>
</svg>
