<svg width="187" height="80" viewBox="0 0 187 80" fill="none" xmlns="http://www.w3.org/2000/svg">
<path d="M57.0127 51.5469L28.6313 80L0.25 51.5469L28.6313 0L57.0127 51.5469Z" fill="url(#paint0_linear_2746_11954)"/>
<path d="M53.4787 54.8923L28.6367 79.805L3.76172 54.8923L28.6367 29.9796L53.4787 54.8923Z" fill="url(#paint1_linear_2746_11954)"/>
<path opacity="0.44" d="M28.6348 80L12.0625 42.4198L28.6348 0L45.2733 42.4523L28.6348 80Z" fill="url(#paint2_linear_2746_11954)"/>
<path d="M157.5 2.03333C145.686 2.03333 136.113 11.4667 136.113 23.0333C136.113 34.6 145.72 44.0333 157.5 44.0333C169.279 44.0333 178.886 34.6 178.886 23.0333C178.886 11.4667 169.313 2.03333 157.5 2.03333ZM157.5 35.1667C150.71 35.1667 145.177 29.7333 145.177 23.0666C145.177 16.4 150.71 10.9666 157.5 10.9666C164.289 10.9666 169.822 16.4 169.822 23.0666C169.822 29.7333 164.289 35.1667 157.5 35.1667Z" fill="white"/>
<path d="M110.785 2.03333C98.9714 2.03333 89.3984 11.4667 89.3984 23.0333C89.3984 34.6 99.0053 44.0333 110.785 44.0333C115.368 44.0333 119.611 42.6 123.108 40.1667V56.5666H132.171V23.0333C132.205 11.4667 122.598 2.03333 110.785 2.03333ZM110.785 35.1667C103.996 35.1667 98.4622 29.7333 98.4622 23.0666C98.4622 16.4 103.996 10.9666 110.785 10.9666C117.574 10.9666 123.108 16.4 123.108 23.0666C123.108 29.7333 117.608 35.1667 110.785 35.1667Z" fill="white"/>
<path d="M174.334 46.8H140.625V55.7H174.334V46.8Z" fill="white"/>
<path d="M184.353 0H174.848V9.33334H184.353V0Z" fill="white"/>
<path d="M79.1146 0H70.0508V44.0667H87.7032V35.1667H79.1146V0Z" fill="white"/>
<path d="M71.3451 62.4V75.4333H69.4102V62.4H71.3451Z" fill="white"/>
<path d="M73.9219 63.8001C73.9219 63.1334 74.4311 62.6667 75.144 62.6667C75.8568 62.6667 76.3321 63.1334 76.3321 63.8001C76.3321 64.5001 75.8229 64.9667 75.144 64.9667C74.4311 65 73.9219 64.5001 73.9219 63.8001ZM76.1284 66.4334V75.4001H74.1935V66.4334H76.1284Z" fill="white"/>
<path d="M83.0946 66.1C84.4864 66.1 85.6745 66.7 86.4553 67.7V66.4333H88.3563V79.4666H86.3874V74.2C85.6066 75.1999 84.4524 75.7666 83.0946 75.7666C80.4467 75.7666 78.5117 73.7333 78.5117 70.9333C78.5117 68.1333 80.4467 66.1 83.0946 66.1ZM86.4892 70.9333C86.4892 69.2 85.2332 67.9 83.5019 67.9C81.7706 67.9 80.4806 69.1666 80.4806 70.9333C80.4806 72.6666 81.7706 73.9666 83.5019 73.9666C85.2332 73.9666 86.4892 72.6666 86.4892 70.9333Z" fill="white"/>
<path d="M97.4505 75.4V74.2667C96.8055 75.2 95.6853 75.7667 94.4971 75.7667C92.2566 75.7667 90.7969 74.1334 90.7969 71.9334V66.4667H92.7658V71.8C92.7658 73.1333 93.5466 74.0667 94.9384 74.0667C96.2963 74.0667 97.4505 73.0334 97.4505 71.6V66.4333H99.3854V75.4H97.4505Z" fill="white"/>
<path d="M101.969 63.8001C101.969 63.1334 102.478 62.6667 103.191 62.6667C103.904 62.6667 104.379 63.1334 104.379 63.8001C104.379 64.5001 103.87 64.9667 103.191 64.9667C102.478 65 101.969 64.5001 101.969 63.8001ZM104.141 66.4334V75.4001H102.206V66.4334H104.141Z" fill="white"/>
<path d="M111.134 66.1C112.491 66.1 113.68 66.6667 114.426 67.6667V62.4H116.395V75.4333H114.494V74.1667C113.714 75.1667 112.525 75.7667 111.134 75.7667C108.486 75.7667 106.551 73.7333 106.551 70.9333C106.551 68.1333 108.486 66.1 111.134 66.1ZM108.486 70.9333C108.486 72.7 109.776 73.9667 111.507 73.9667C113.238 73.9667 114.494 72.6667 114.494 70.9333C114.494 69.2 113.238 67.9 111.507 67.9C109.776 67.9 108.486 69.1667 108.486 70.9333Z" fill="white"/>
<path d="M119.008 63.8001C119.008 63.1334 119.517 62.6667 120.23 62.6667C120.943 62.6667 121.452 63.1334 121.452 63.8001C121.452 64.5001 120.943 64.9667 120.23 64.9667C119.483 65 119.008 64.5001 119.008 63.8001ZM121.18 66.4334V75.4001H119.245V66.4334H121.18Z" fill="white"/>
<path d="M124.806 67.9334H123.414V66.4334H124.942L125.179 64.2667H126.775V66.4334H129.015V67.9334H126.775V72.7667C126.775 73.5667 127.284 74.1334 128.099 74.1334C128.336 74.1334 128.778 74.0667 129.117 73.9667V75.5C128.642 75.6667 127.997 75.7334 127.488 75.7334C125.858 75.7334 124.806 74.5667 124.806 72.8667V67.9334Z" fill="white"/>
<path d="M131.295 77.5665C131.703 77.6998 132.144 77.7999 132.483 77.7999C133.739 77.7999 134.113 76.5665 134.588 75.4665L130.48 66.4666H132.619L135.471 73.0999L137.949 66.4666H139.986L136.421 75.6332C135.64 77.6999 134.826 79.3998 132.891 79.3998C132.382 79.3998 131.77 79.2999 131.295 79.0999V77.5665Z" fill="white"/>
<path d="M152.984 75.2333V74.1C152.203 75.0666 151.049 75.6 149.691 75.6C147.043 75.6 145.074 73.6666 145.074 70.9333C145.074 68.1333 147.009 66.1333 149.691 66.1333C151.117 66.1333 152.237 66.7 152.984 67.6667V66.4333H154.919V75.2333C154.919 78.1333 152.916 79.8 150.132 79.8C147.756 79.8 145.753 78.2999 145.448 76.2666L147.247 76.0666C147.552 77.2999 148.74 78.1999 150.064 78.1999C151.796 78.1999 152.984 77.1333 152.984 75.2333ZM153.052 70.9333C153.052 69.1 151.796 67.8 150.064 67.8C148.333 67.8 147.043 69.1 147.043 70.9333C147.043 72.6666 148.333 73.9667 150.064 73.9667C151.796 73.9667 153.052 72.6666 153.052 70.9333Z" fill="white"/>
<path d="M165.102 66.4333H167.071V75.4H165.102V74.0666C164.322 75.1333 163.134 75.7666 161.708 75.7666C159.026 75.7666 157.125 73.7333 157.125 70.9333C157.125 68.1333 159.026 66.1 161.708 66.1C163.134 66.1 164.322 66.7333 165.102 67.8V66.4333ZM165.069 70.9333C165.069 69.1 163.812 67.8 162.081 67.8C160.35 67.8 159.06 69.1 159.06 70.9333C159.06 72.7333 160.35 74.0666 162.081 74.0666C163.812 74.0666 165.069 72.7666 165.069 70.9333Z" fill="white"/>
<path d="M170.439 67.9334H169.047V66.4334H170.574L170.812 64.2667H172.408V66.4334H174.648V67.9334H172.408V72.7667C172.408 73.5667 172.917 74.1334 173.732 74.1334C173.969 74.1334 174.41 74.0667 174.75 73.9667V75.5C174.275 75.6667 173.63 75.7334 173.12 75.7334C171.491 75.7334 170.439 74.5667 170.439 72.8667V67.9334Z" fill="white"/>
<path d="M181.399 66.1C184.25 66.1 186.253 68.0666 186.253 70.8333C186.253 71.0333 186.219 71.2999 186.219 71.5333H178.513C178.751 73.1333 179.871 74.1666 181.365 74.1666C182.587 74.1666 183.707 73.4666 184.047 72.4666L185.88 72.7333C185.371 74.4999 183.47 75.7666 181.399 75.7666C178.547 75.7666 176.477 73.7 176.477 70.8333C176.477 68.0666 178.547 66.1 181.399 66.1ZM184.216 70.1C184.013 68.7 182.859 67.7 181.331 67.7C179.871 67.7 178.785 68.6666 178.513 70.1H184.216Z" fill="white"/>
<defs>
<linearGradient id="paint0_linear_2746_11954" x1="42.8964" y1="22.0924" x2="19.0469" y2="73.165" gradientUnits="userSpaceOnUse">
<stop stop-color="#FDB6E5"/>
<stop offset="0.4341" stop-color="#CB1CC0"/>
<stop offset="1" stop-color="#520671"/>
</linearGradient>
<linearGradient id="paint1_linear_2746_11954" x1="16.1751" y1="31.0713" x2="37.5588" y2="73.4884" gradientUnits="userSpaceOnUse">
<stop stop-color="#FDB6E5"/>
<stop offset="0.4341" stop-color="#CB1CC0"/>
<stop offset="1" stop-color="#520671"/>
</linearGradient>
<linearGradient id="paint2_linear_2746_11954" x1="8.63392" y1="1.76143" x2="42.9615" y2="69.8537" gradientUnits="userSpaceOnUse">
<stop stop-color="#9D04E7"/>
<stop offset="1" stop-color="#520671"/>
</linearGradient>
</defs>
</svg>
