<svg width="100" height="131" viewBox="0 0 100 131" fill="none" xmlns="http://www.w3.org/2000/svg">
<path d="M86.9974 68.295L49.9987 105.993L13 68.295L49.9987 0L86.9974 68.295Z" fill="url(#paint0_linear_2914_6793)"/>
<path d="M82.3866 72.7275L50.002 105.735L17.5742 72.7275L50.002 39.7205L82.3866 72.7275Z" fill="url(#paint1_linear_2914_6793)"/>
<path opacity="0.44" d="M49.9986 105.993L28.3945 56.2025L49.9986 0L71.689 56.2455L49.9986 105.993Z" fill="url(#paint2_linear_2914_6793)"/>
<g filter="url(#filter0_d_2914_6793)">
<path d="M60.9523 93.9416C56.6097 93.9416 53.0908 97.4665 53.0908 101.788C53.0908 106.11 56.6222 109.635 60.9523 109.635C65.2823 109.635 68.8138 106.11 68.8138 101.788C68.8138 97.4665 65.2948 93.9416 60.9523 93.9416ZM60.9523 106.322C58.4566 106.322 56.4225 104.292 56.4225 101.801C56.4225 99.3099 58.4566 97.2796 60.9523 97.2796C63.448 97.2796 65.482 99.3099 65.482 101.801C65.482 104.292 63.448 106.322 60.9523 106.322Z" fill="white"/>
<path d="M43.7817 93.9416C39.4392 93.9416 35.9202 97.4665 35.9202 101.788C35.9202 106.11 39.4517 109.635 43.7817 109.635C45.4663 109.635 47.0262 109.1 48.3115 108.191V114.319H51.6432V101.788C51.6557 97.4665 48.1243 93.9416 43.7817 93.9416ZM43.7817 106.322C41.286 106.322 39.252 104.292 39.252 101.801C39.252 99.3099 41.286 97.2796 43.7817 97.2796C46.2774 97.2796 48.3115 99.3099 48.3115 101.801C48.3115 104.292 46.2899 106.322 43.7817 106.322Z" fill="white"/>
<path d="M67.1416 110.669H54.7504V113.995H67.1416V110.669Z" fill="white"/>
<path d="M70.8228 93.1819H67.3288V96.6694H70.8228V93.1819Z" fill="white"/>
<path d="M32.1392 93.182H28.8074V109.648H35.2963V106.322H32.1392V93.182Z" fill="white"/>
<path d="M29.2816 116.498V121.368H28.5703V116.498H29.2816Z" fill="white"/>
<path d="M30.23 117.021C30.23 116.772 30.4171 116.598 30.6792 116.598C30.9412 116.598 31.116 116.772 31.116 117.021C31.116 117.283 30.9288 117.457 30.6792 117.457C30.4171 117.47 30.23 117.283 30.23 117.021ZM31.0411 118.005V121.356H30.3298V118.005H31.0411Z" fill="white"/>
<path d="M33.5992 117.881C34.1108 117.881 34.5476 118.105 34.8346 118.479V118.005H35.5334V122.875H34.8096V120.907C34.5226 121.281 34.0983 121.493 33.5992 121.493C32.6259 121.493 31.9146 120.733 31.9146 119.687C31.9146 118.64 32.6259 117.881 33.5992 117.881ZM34.847 119.687C34.847 119.039 34.3853 118.553 33.7489 118.553C33.1125 118.553 32.6383 119.027 32.6383 119.687C32.6383 120.334 33.1125 120.82 33.7489 120.82C34.3853 120.82 34.847 120.334 34.847 119.687Z" fill="white"/>
<path d="M38.8776 121.356V120.932C38.6405 121.281 38.2287 121.493 37.792 121.493C36.9684 121.493 36.4318 120.883 36.4318 120.061V118.018H37.1556V120.011C37.1556 120.509 37.4426 120.858 37.9542 120.858C38.4534 120.858 38.8776 120.472 38.8776 119.936V118.005H39.5889V121.356H38.8776Z" fill="white"/>
<path d="M40.5373 117.021C40.5373 116.772 40.7245 116.598 40.9865 116.598C41.2486 116.598 41.4233 116.772 41.4233 117.021C41.4233 117.283 41.2361 117.457 40.9865 117.457C40.7245 117.47 40.5373 117.283 40.5373 117.021ZM41.3359 118.005V121.356H40.6247V118.005H41.3359Z" fill="white"/>
<path d="M43.9065 117.881C44.4056 117.881 44.8424 118.093 45.1169 118.466V116.498H45.8407V121.368H45.1419V120.895C44.8549 121.269 44.4181 121.493 43.9065 121.493C42.9332 121.493 42.2219 120.733 42.2219 119.687C42.2219 118.641 42.9332 117.881 43.9065 117.881ZM42.9332 119.687C42.9332 120.347 43.4074 120.82 44.0438 120.82C44.6802 120.82 45.1419 120.335 45.1419 119.687C45.1419 119.039 44.6802 118.553 44.0438 118.553C43.4074 118.553 42.9332 119.027 42.9332 119.687Z" fill="white"/>
<path d="M46.8015 117.021C46.8015 116.772 46.9887 116.598 47.2508 116.598C47.5128 116.598 47.7 116.772 47.7 117.021C47.7 117.283 47.5128 117.457 47.2508 117.457C46.9762 117.47 46.8015 117.283 46.8015 117.021ZM47.6002 118.005V121.356H46.8889V118.005H47.6002Z" fill="white"/>
<path d="M48.9354 118.566H48.4237V118.005H48.9853L49.0726 117.196H49.6591V118.005H50.4827V118.566H49.6591V120.372C49.6591 120.671 49.8463 120.883 50.1458 120.883C50.2331 120.883 50.3954 120.858 50.5201 120.82V121.393C50.3454 121.456 50.1083 121.48 49.9212 121.48C49.3222 121.48 48.9354 121.045 48.9354 120.409V118.566Z" fill="white"/>
<path d="M51.3188 122.165C51.4685 122.215 51.6308 122.253 51.7555 122.253C52.2172 122.253 52.3545 121.792 52.5292 121.381L51.0193 118.018H51.8055L52.8537 120.496L53.7646 118.018H54.5133L53.2031 121.443C52.916 122.215 52.6166 122.85 51.9053 122.85C51.7181 122.85 51.4935 122.813 51.3188 122.738V122.165Z" fill="white"/>
<path d="M59.2926 121.294V120.87C59.0056 121.231 58.5813 121.431 58.0822 121.431C57.1089 121.431 56.3851 120.708 56.3851 119.687C56.3851 118.641 57.0964 117.893 58.0822 117.893C58.6063 117.893 59.0181 118.105 59.2926 118.466V118.005H60.0039V121.294C60.0039 122.377 59.2677 123 58.2444 123C57.3709 123 56.6347 122.44 56.5224 121.68L57.1837 121.605C57.296 122.066 57.7328 122.402 58.2195 122.402C58.8559 122.402 59.2926 122.004 59.2926 121.294ZM59.3176 119.687C59.3176 119.002 58.8559 118.516 58.2195 118.516C57.5831 118.516 57.1089 119.002 57.1089 119.687C57.1089 120.335 57.5831 120.82 58.2195 120.82C58.8559 120.82 59.3176 120.335 59.3176 119.687Z" fill="white"/>
<path d="M63.7475 118.005H64.4712V121.356H63.7475V120.858C63.4604 121.256 63.0237 121.493 62.4996 121.493C61.5138 121.493 60.815 120.733 60.815 119.687C60.815 118.64 61.5138 117.881 62.4996 117.881C63.0237 117.881 63.4604 118.117 63.7475 118.516V118.005ZM63.735 119.687C63.735 119.002 63.2733 118.516 62.6369 118.516C62.0005 118.516 61.5263 119.002 61.5263 119.687C61.5263 120.359 62.0005 120.858 62.6369 120.858C63.2733 120.858 63.735 120.372 63.735 119.687Z" fill="white"/>
<path d="M65.7066 118.566H65.195V118.005H65.7565L65.8439 117.196H66.4304V118.005H67.2539V118.566H66.4304V120.372C66.4304 120.671 66.6175 120.883 66.917 120.883C67.0044 120.883 67.1666 120.858 67.2914 120.82V121.393C67.1167 121.456 66.8796 121.48 66.6924 121.48C66.0934 121.48 65.7066 121.045 65.7066 120.409V118.566Z" fill="white"/>
<path d="M69.7372 117.881C70.7854 117.881 71.5216 118.616 71.5216 119.649C71.5216 119.724 71.5091 119.824 71.5091 119.911H68.6765C68.7638 120.509 69.1756 120.895 69.7247 120.895C70.1739 120.895 70.5857 120.633 70.7105 120.26L71.3843 120.359C71.1972 121.019 70.4984 121.493 69.7372 121.493C68.689 121.493 67.9278 120.72 67.9278 119.649C67.9278 118.616 68.689 117.881 69.7372 117.881ZM70.7729 119.375C70.698 118.852 70.2737 118.479 69.7122 118.479C69.1756 118.479 68.7763 118.84 68.6765 119.375H70.7729Z" fill="white"/>
</g>
<defs>
<filter id="filter0_d_2914_6793" x="0.570312" y="45.1819" width="98.9531" height="85.8182" filterUnits="userSpaceOnUse" color-interpolation-filters="sRGB">
<feFlood flood-opacity="0" result="BackgroundImageFix"/>
<feColorMatrix in="SourceAlpha" type="matrix" values="0 0 0 0 0 0 0 0 0 0 0 0 0 0 0 0 0 0 127 0" result="hardAlpha"/>
<feOffset dy="-20"/>
<feGaussianBlur stdDeviation="14"/>
<feComposite in2="hardAlpha" operator="out"/>
<feColorMatrix type="matrix" values="0 0 0 0 0 0 0 0 0 0 0 0 0 0 0 0 0 0 0.7 0"/>
<feBlend mode="normal" in2="BackgroundImageFix" result="effect1_dropShadow_2914_6793"/>
<feBlend mode="normal" in="SourceGraphic" in2="effect1_dropShadow_2914_6793" result="shape"/>
</filter>
<linearGradient id="paint0_linear_2914_6793" x1="68.595" y1="29.2704" x2="36.6689" y2="96.5406" gradientUnits="userSpaceOnUse">
<stop stop-color="#FDB6E5"/>
<stop offset="0.4341" stop-color="#CB1CC0"/>
<stop offset="1" stop-color="#520671"/>
</linearGradient>
<linearGradient id="paint1_linear_2914_6793" x1="33.7566" y1="41.1668" x2="62.3599" y2="96.9933" gradientUnits="userSpaceOnUse">
<stop stop-color="#FDB6E5"/>
<stop offset="0.4341" stop-color="#CB1CC0"/>
<stop offset="1" stop-color="#520671"/>
</linearGradient>
<linearGradient id="paint2_linear_2914_6793" x1="23.9249" y1="2.33373" x2="69.8421" y2="91.9521" gradientUnits="userSpaceOnUse">
<stop stop-color="#9D04E7"/>
<stop offset="1" stop-color="#520671"/>
</linearGradient>
</defs>
</svg>
